G04 #@! TF.GenerationSoftware,KiCad,Pcbnew,(5.99.0-10336-g9846076676)*
G04 #@! TF.CreationDate,2021-04-17T01:38:01-06:00*
G04 #@! TF.ProjectId,yolo-badge,796f6c6f-2d62-4616-9467-652e6b696361,rev?*
G04 #@! TF.SameCoordinates,Original*
G04 #@! TF.FileFunction,Legend,Top*
G04 #@! TF.FilePolarity,Positive*
%FSLAX46Y46*%
G04 Gerber Fmt 4.6, Leading zero omitted, Abs format (unit mm)*
G04 Created by KiCad (PCBNEW (5.99.0-10336-g9846076676)) date 2021-04-17 01:38:01*
%MOMM*%
%LPD*%
G01*
G04 APERTURE LIST*
%ADD10C,0.250000*%
%ADD11C,0.350000*%
%ADD12C,0.300000*%
%ADD13C,0.150000*%
%ADD14C,0.120000*%
%ADD15R,1.700000X1.700000*%
%ADD16O,1.700000X1.700000*%
%ADD17C,1.200000*%
%ADD18C,1.700000*%
%ADD19R,1.500000X1.000000*%
G04 APERTURE END LIST*
D10*
X156626190Y-120898571D02*
X155864285Y-120898571D01*
X156340476Y-119565238D02*
X156340476Y-121279523D01*
X156245238Y-121470000D01*
X156054761Y-121565238D01*
X155864285Y-121565238D01*
X154911904Y-119565238D02*
X155102380Y-119660476D01*
X155197619Y-119755714D01*
X155292857Y-119946190D01*
X155292857Y-120517619D01*
X155197619Y-120708095D01*
X155102380Y-120803333D01*
X154911904Y-120898571D01*
X154626190Y-120898571D01*
X154435714Y-120803333D01*
X154340476Y-120708095D01*
X154245238Y-120517619D01*
X154245238Y-119946190D01*
X154340476Y-119755714D01*
X154435714Y-119660476D01*
X154626190Y-119565238D01*
X154911904Y-119565238D01*
X153388095Y-119565238D02*
X153388095Y-120898571D01*
X153388095Y-120517619D02*
X153292857Y-120708095D01*
X153197619Y-120803333D01*
X153007142Y-120898571D01*
X152816666Y-120898571D01*
X152150000Y-119565238D02*
X152150000Y-120898571D01*
X152150000Y-120708095D02*
X152054761Y-120803333D01*
X151864285Y-120898571D01*
X151578571Y-120898571D01*
X151388095Y-120803333D01*
X151292857Y-120612857D01*
X151292857Y-119565238D01*
X151292857Y-120612857D02*
X151197619Y-120803333D01*
X151007142Y-120898571D01*
X150721428Y-120898571D01*
X150530952Y-120803333D01*
X150435714Y-120612857D01*
X150435714Y-119565238D01*
X148626190Y-119565238D02*
X148626190Y-120612857D01*
X148721428Y-120803333D01*
X148911904Y-120898571D01*
X149292857Y-120898571D01*
X149483333Y-120803333D01*
X148626190Y-119660476D02*
X148816666Y-119565238D01*
X149292857Y-119565238D01*
X149483333Y-119660476D01*
X149578571Y-119850952D01*
X149578571Y-120041428D01*
X149483333Y-120231904D01*
X149292857Y-120327142D01*
X148816666Y-120327142D01*
X148626190Y-120422380D01*
X147959523Y-120898571D02*
X147197619Y-120898571D01*
X147673809Y-121565238D02*
X147673809Y-119850952D01*
X147578571Y-119660476D01*
X147388095Y-119565238D01*
X147197619Y-119565238D01*
X146816666Y-120898571D02*
X146054761Y-120898571D01*
X146530952Y-121565238D02*
X146530952Y-119850952D01*
X146435714Y-119660476D01*
X146245238Y-119565238D01*
X146054761Y-119565238D01*
X144626190Y-119660476D02*
X144816666Y-119565238D01*
X145197619Y-119565238D01*
X145388095Y-119660476D01*
X145483333Y-119850952D01*
X145483333Y-120612857D01*
X145388095Y-120803333D01*
X145197619Y-120898571D01*
X144816666Y-120898571D01*
X144626190Y-120803333D01*
X144530952Y-120612857D01*
X144530952Y-120422380D01*
X145483333Y-120231904D01*
X142816666Y-119565238D02*
X142816666Y-121565238D01*
X142816666Y-119660476D02*
X143007142Y-119565238D01*
X143388095Y-119565238D01*
X143578571Y-119660476D01*
X143673809Y-119755714D01*
X143769047Y-119946190D01*
X143769047Y-120517619D01*
X143673809Y-120708095D01*
X143578571Y-120803333D01*
X143388095Y-120898571D01*
X143007142Y-120898571D01*
X142816666Y-120803333D01*
X140340476Y-119565238D02*
X140340476Y-121565238D01*
X140340476Y-120803333D02*
X140150000Y-120898571D01*
X139769047Y-120898571D01*
X139578571Y-120803333D01*
X139483333Y-120708095D01*
X139388095Y-120517619D01*
X139388095Y-119946190D01*
X139483333Y-119755714D01*
X139578571Y-119660476D01*
X139769047Y-119565238D01*
X140150000Y-119565238D01*
X140340476Y-119660476D01*
X138721428Y-120898571D02*
X138245238Y-119565238D01*
X137769047Y-120898571D02*
X138245238Y-119565238D01*
X138435714Y-119089047D01*
X138530952Y-118993809D01*
X138721428Y-118898571D01*
X161721428Y-117678571D02*
X161721428Y-116059523D01*
X161816666Y-115869047D01*
X161911904Y-115773809D01*
X162102380Y-115678571D01*
X162388095Y-115678571D01*
X162578571Y-115773809D01*
X161721428Y-116440476D02*
X161911904Y-116345238D01*
X162292857Y-116345238D01*
X162483333Y-116440476D01*
X162578571Y-116535714D01*
X162673809Y-116726190D01*
X162673809Y-117297619D01*
X162578571Y-117488095D01*
X162483333Y-117583333D01*
X162292857Y-117678571D01*
X161911904Y-117678571D01*
X161721428Y-117583333D01*
X160769047Y-116345238D02*
X160769047Y-117678571D01*
X160769047Y-117297619D02*
X160673809Y-117488095D01*
X160578571Y-117583333D01*
X160388095Y-117678571D01*
X160197619Y-117678571D01*
X158769047Y-116440476D02*
X158959523Y-116345238D01*
X159340476Y-116345238D01*
X159530952Y-116440476D01*
X159626190Y-116630952D01*
X159626190Y-117392857D01*
X159530952Y-117583333D01*
X159340476Y-117678571D01*
X158959523Y-117678571D01*
X158769047Y-117583333D01*
X158673809Y-117392857D01*
X158673809Y-117202380D01*
X159626190Y-117011904D01*
X157054761Y-116440476D02*
X157245238Y-116345238D01*
X157626190Y-116345238D01*
X157816666Y-116440476D01*
X157911904Y-116630952D01*
X157911904Y-117392857D01*
X157816666Y-117583333D01*
X157626190Y-117678571D01*
X157245238Y-117678571D01*
X157054761Y-117583333D01*
X156959523Y-117392857D01*
X156959523Y-117202380D01*
X157911904Y-117011904D01*
X156102380Y-117678571D02*
X156102380Y-116345238D01*
X156102380Y-117488095D02*
X156007142Y-117583333D01*
X155816666Y-117678571D01*
X155530952Y-117678571D01*
X155340476Y-117583333D01*
X155245238Y-117392857D01*
X155245238Y-116345238D01*
X151911904Y-116440476D02*
X152102380Y-116345238D01*
X152483333Y-116345238D01*
X152673809Y-116440476D01*
X152769047Y-116535714D01*
X152864285Y-116726190D01*
X152864285Y-117297619D01*
X152769047Y-117488095D01*
X152673809Y-117583333D01*
X152483333Y-117678571D01*
X152102380Y-117678571D01*
X151911904Y-117583333D01*
X151054761Y-116345238D02*
X151054761Y-118345238D01*
X150197619Y-116345238D02*
X150197619Y-117392857D01*
X150292857Y-117583333D01*
X150483333Y-117678571D01*
X150769047Y-117678571D01*
X150959523Y-117583333D01*
X151054761Y-117488095D01*
X149245238Y-116345238D02*
X149245238Y-117678571D01*
X149245238Y-118345238D02*
X149340476Y-118250000D01*
X149245238Y-118154761D01*
X149150000Y-118250000D01*
X149245238Y-118345238D01*
X149245238Y-118154761D01*
X148007142Y-116345238D02*
X148197619Y-116440476D01*
X148292857Y-116630952D01*
X148292857Y-118345238D01*
X146483333Y-116440476D02*
X146673809Y-116345238D01*
X147054761Y-116345238D01*
X147245238Y-116440476D01*
X147340476Y-116630952D01*
X147340476Y-117392857D01*
X147245238Y-117583333D01*
X147054761Y-117678571D01*
X146673809Y-117678571D01*
X146483333Y-117583333D01*
X146388095Y-117392857D01*
X146388095Y-117202380D01*
X147340476Y-117011904D01*
X144007142Y-117107142D02*
X142483333Y-117107142D01*
X143245238Y-116345238D02*
X143245238Y-117869047D01*
X140102380Y-116440476D02*
X139911904Y-116345238D01*
X139530952Y-116345238D01*
X139340476Y-116440476D01*
X139245238Y-116630952D01*
X139245238Y-116726190D01*
X139340476Y-116916666D01*
X139530952Y-117011904D01*
X139816666Y-117011904D01*
X140007142Y-117107142D01*
X140102380Y-117297619D01*
X140102380Y-117392857D01*
X140007142Y-117583333D01*
X139816666Y-117678571D01*
X139530952Y-117678571D01*
X139340476Y-117583333D01*
X138102380Y-116345238D02*
X138292857Y-116440476D01*
X138388095Y-116535714D01*
X138483333Y-116726190D01*
X138483333Y-117297619D01*
X138388095Y-117488095D01*
X138292857Y-117583333D01*
X138102380Y-117678571D01*
X137816666Y-117678571D01*
X137626190Y-117583333D01*
X137530952Y-117488095D01*
X137435714Y-117297619D01*
X137435714Y-116726190D01*
X137530952Y-116535714D01*
X137626190Y-116440476D01*
X137816666Y-116345238D01*
X138102380Y-116345238D01*
X136292857Y-116345238D02*
X136483333Y-116440476D01*
X136578571Y-116630952D01*
X136578571Y-118345238D01*
X134673809Y-116345238D02*
X134673809Y-118345238D01*
X134673809Y-116440476D02*
X134864285Y-116345238D01*
X135245238Y-116345238D01*
X135435714Y-116440476D01*
X135530952Y-116535714D01*
X135626190Y-116726190D01*
X135626190Y-117297619D01*
X135530952Y-117488095D01*
X135435714Y-117583333D01*
X135245238Y-117678571D01*
X134864285Y-117678571D01*
X134673809Y-117583333D01*
X132959523Y-116440476D02*
X133150000Y-116345238D01*
X133530952Y-116345238D01*
X133721428Y-116440476D01*
X133816666Y-116630952D01*
X133816666Y-117392857D01*
X133721428Y-117583333D01*
X133530952Y-117678571D01*
X133150000Y-117678571D01*
X132959523Y-117583333D01*
X132864285Y-117392857D01*
X132864285Y-117202380D01*
X133816666Y-117011904D01*
X132007142Y-116345238D02*
X132007142Y-117678571D01*
X132007142Y-117297619D02*
X131911904Y-117488095D01*
X131816666Y-117583333D01*
X131626190Y-117678571D01*
X131435714Y-117678571D01*
D11*
X157195714Y-125772857D02*
X156052857Y-125772857D01*
X156767142Y-123772857D02*
X156767142Y-126344285D01*
X156624285Y-126630000D01*
X156338571Y-126772857D01*
X156052857Y-126772857D01*
X154624285Y-123772857D02*
X154910000Y-123915714D01*
X155052857Y-124201428D01*
X155052857Y-126772857D01*
X153052857Y-123772857D02*
X153338571Y-123915714D01*
X153481428Y-124058571D01*
X153624285Y-124344285D01*
X153624285Y-125201428D01*
X153481428Y-125487142D01*
X153338571Y-125630000D01*
X153052857Y-125772857D01*
X152624285Y-125772857D01*
X152338571Y-125630000D01*
X152195714Y-125487142D01*
X152052857Y-125201428D01*
X152052857Y-124344285D01*
X152195714Y-124058571D01*
X152338571Y-123915714D01*
X152624285Y-123772857D01*
X153052857Y-123772857D01*
X150767142Y-125772857D02*
X150767142Y-122772857D01*
X150767142Y-125630000D02*
X150481428Y-125772857D01*
X149910000Y-125772857D01*
X149624285Y-125630000D01*
X149481428Y-125487142D01*
X149338571Y-125201428D01*
X149338571Y-124344285D01*
X149481428Y-124058571D01*
X149624285Y-123915714D01*
X149910000Y-123772857D01*
X150481428Y-123772857D01*
X150767142Y-123915714D01*
X148052857Y-125772857D02*
X148052857Y-122772857D01*
X148052857Y-125630000D02*
X147767142Y-125772857D01*
X147195714Y-125772857D01*
X146910000Y-125630000D01*
X146767142Y-125487142D01*
X146624285Y-125201428D01*
X146624285Y-124344285D01*
X146767142Y-124058571D01*
X146910000Y-123915714D01*
X147195714Y-123772857D01*
X147767142Y-123772857D01*
X148052857Y-123915714D01*
X145624285Y-125772857D02*
X144910000Y-123772857D01*
X144195714Y-125772857D02*
X144910000Y-123772857D01*
X145195714Y-123058571D01*
X145338571Y-122915714D01*
X145624285Y-122772857D01*
X143767142Y-123487142D02*
X141481428Y-123487142D01*
X141052857Y-125772857D02*
X140338571Y-123772857D01*
X139624285Y-125772857D01*
X136910000Y-123772857D02*
X138624285Y-123772857D01*
X137767142Y-123772857D02*
X137767142Y-126772857D01*
X138052857Y-126344285D01*
X138338571Y-126058571D01*
X138624285Y-125915714D01*
D12*
X176060000Y-110540000D02*
X176060000Y-140900000D01*
X175840000Y-110130000D02*
X176060000Y-110540000D01*
X175610000Y-109820000D02*
X175840000Y-110130000D01*
X175340000Y-109540000D02*
X175610000Y-109820000D01*
X175040000Y-109320000D02*
X175340000Y-109540000D01*
X174620000Y-109130000D02*
X175040000Y-109320000D01*
X119030000Y-109130000D02*
X174620000Y-109130000D01*
X119030000Y-140710000D02*
X119030000Y-109130000D01*
D10*
X115930000Y-95910000D02*
X171930000Y-95910000D01*
X173930000Y-93910000D02*
G75*
G02*
X171930000Y-95910000I-2000000J0D01*
G01*
X173930000Y-93910000D02*
X173930000Y-57910000D01*
X171930000Y-55910000D02*
G75*
G02*
X173930000Y-57910000I0J-2000000D01*
G01*
X171930000Y-55910000D02*
X115930000Y-55910000D01*
X113930000Y-57910000D02*
G75*
G02*
X115930000Y-55910000I2000000J0D01*
G01*
X113930000Y-57910000D02*
X113930000Y-93910000D01*
X115930000Y-95910000D02*
G75*
G02*
X113930000Y-93910000I0J2000000D01*
G01*
X106430143Y-53910000D02*
X100930143Y-53910000D01*
X100930143Y-58410000D02*
X100930143Y-53910000D01*
X100930143Y-58410000D02*
X106430143Y-58410000D01*
X106430143Y-53910000D02*
X106430143Y-58410000D01*
X186929857Y-58410000D02*
X186929857Y-53910000D01*
X181429857Y-53910000D02*
X186929857Y-53910000D01*
X181429857Y-53910000D02*
X181429857Y-58410000D01*
X186929857Y-58410000D02*
X181429857Y-58410000D01*
G36*
X158650666Y-90384749D02*
G01*
X158698743Y-90255605D01*
X158820896Y-90053876D01*
X158902291Y-89940249D01*
X159090235Y-89642404D01*
X159253518Y-89303116D01*
X159290363Y-89204694D01*
X159400147Y-88952576D01*
X159525020Y-88767007D01*
X159582938Y-88718164D01*
X159802715Y-88672063D01*
X159972351Y-88754988D01*
X160052071Y-88926946D01*
X160005029Y-89142567D01*
X159953866Y-89309515D01*
X159926747Y-89536259D01*
X159924677Y-89763960D01*
X159948662Y-89933778D01*
X159990574Y-89988667D01*
X160090469Y-89932501D01*
X160241866Y-89795262D01*
X160261075Y-89775145D01*
X160396767Y-89569168D01*
X160495914Y-89262664D01*
X160553619Y-88950300D01*
X160613954Y-88613626D01*
X160677585Y-88415106D01*
X160756200Y-88323767D01*
X160795185Y-88310164D01*
X161000426Y-88332361D01*
X161129888Y-88496777D01*
X161187064Y-88809008D01*
X161190666Y-88943420D01*
X161118748Y-89513345D01*
X160907651Y-90003167D01*
X160704668Y-90263833D01*
X160481652Y-90496667D01*
X161576992Y-90495914D01*
X162672333Y-90495162D01*
X163140620Y-90093747D01*
X163390069Y-89880564D01*
X163601308Y-89701181D01*
X163730204Y-89593070D01*
X163733287Y-89590542D01*
X164065104Y-89313675D01*
X164398711Y-89026180D01*
X164709074Y-88750731D01*
X164971159Y-88510005D01*
X165159930Y-88326678D01*
X165250354Y-88223425D01*
X165254666Y-88212498D01*
X165304835Y-88106484D01*
X165429893Y-87932411D01*
X165476868Y-87874920D01*
X165608157Y-87704194D01*
X165668583Y-87595597D01*
X165667368Y-87581233D01*
X165562796Y-87579312D01*
X165300248Y-87616606D01*
X164886224Y-87692078D01*
X164542371Y-87760424D01*
X164318590Y-87762760D01*
X164188353Y-87663738D01*
X164107716Y-87498585D01*
X164139267Y-87359956D01*
X164295854Y-87239696D01*
X164590324Y-87129648D01*
X165035525Y-87021656D01*
X165274589Y-86974184D01*
X165641580Y-86912868D01*
X165887520Y-86895647D01*
X166054525Y-86921325D01*
X166122109Y-86950153D01*
X166351627Y-87130731D01*
X166438632Y-87363947D01*
X166383297Y-87662316D01*
X166185794Y-88038350D01*
X166138174Y-88110779D01*
X165928146Y-88386667D01*
X165640534Y-88716916D01*
X165310758Y-89065623D01*
X164974238Y-89396885D01*
X164666392Y-89674798D01*
X164422640Y-89863458D01*
X164386833Y-89886049D01*
X164225707Y-89999782D01*
X164154209Y-90084778D01*
X164154000Y-90087558D01*
X164232323Y-90112016D01*
X164442398Y-90125815D01*
X164746880Y-90127273D01*
X164930783Y-90122571D01*
X165302897Y-90112780D01*
X165547381Y-90119996D01*
X165705662Y-90151566D01*
X165819168Y-90214837D01*
X165908298Y-90295935D01*
X166086022Y-90435091D01*
X166240796Y-90496515D01*
X166246292Y-90496667D01*
X166337450Y-90471489D01*
X166330090Y-90443201D01*
X166305616Y-90323889D01*
X166430522Y-90183764D01*
X166688185Y-90035429D01*
X167054892Y-89893776D01*
X167675540Y-89692333D01*
X167835603Y-89184333D01*
X167963183Y-88817370D01*
X168123210Y-88407271D01*
X168233833Y-88149026D01*
X168353118Y-87880351D01*
X168438559Y-87679178D01*
X168471986Y-87588313D01*
X168472000Y-87587926D01*
X168396965Y-87576094D01*
X168207436Y-87585402D01*
X168099882Y-87596077D01*
X167862635Y-87611841D01*
X167739000Y-87577401D01*
X167676496Y-87475503D01*
X167669554Y-87454613D01*
X167672459Y-87232237D01*
X167805466Y-87072537D01*
X167982206Y-87025333D01*
X168114413Y-86967848D01*
X168325750Y-86813779D01*
X168580206Y-86590704D01*
X168694537Y-86479808D01*
X169013364Y-86176017D01*
X169250628Y-85990962D01*
X169430504Y-85911116D01*
X169577165Y-85922953D01*
X169636166Y-85952943D01*
X169731112Y-86108036D01*
X169708275Y-86372387D01*
X169569053Y-86734965D01*
X169526234Y-86820484D01*
X169364820Y-87148703D01*
X169177653Y-87555040D01*
X168982418Y-87998086D01*
X168796801Y-88436434D01*
X168638487Y-88828676D01*
X168525164Y-89133406D01*
X168487124Y-89253354D01*
X168447024Y-89394644D01*
X168435233Y-89488162D01*
X168476510Y-89538188D01*
X168595612Y-89549002D01*
X168817299Y-89524884D01*
X169166328Y-89470114D01*
X169462114Y-89421899D01*
X169927320Y-89355238D01*
X170253442Y-89334028D01*
X170465685Y-89362696D01*
X170589254Y-89445666D01*
X170649352Y-89587364D01*
X170657304Y-89631751D01*
X170609602Y-89810170D01*
X170434776Y-89935180D01*
X170173046Y-89979262D01*
X170150522Y-89978514D01*
X169913255Y-89991455D01*
X169541788Y-90042084D01*
X169065778Y-90125376D01*
X168514882Y-90236307D01*
X168133333Y-90320253D01*
X167413666Y-90483731D01*
X169207836Y-90490199D01*
X169880362Y-90496622D01*
X170393866Y-90511223D01*
X170758517Y-90535170D01*
X170984481Y-90569633D01*
X171081926Y-90615778D01*
X171061020Y-90674775D01*
X171026772Y-90699204D01*
X170928376Y-90709616D01*
X170679751Y-90719732D01*
X170300001Y-90729222D01*
X169808231Y-90737761D01*
X169223543Y-90745022D01*
X168565043Y-90750678D01*
X167851834Y-90754402D01*
X167786890Y-90754627D01*
X166818621Y-90759817D01*
X166001217Y-90768979D01*
X165316242Y-90782960D01*
X164745257Y-90802607D01*
X164269823Y-90828768D01*
X163871502Y-90862290D01*
X163531857Y-90904021D01*
X163232449Y-90954808D01*
X163173025Y-90966690D01*
X162918869Y-90969807D01*
X162774715Y-90883287D01*
X162734296Y-90855233D01*
X162665185Y-90831352D01*
X162554901Y-90811363D01*
X162390961Y-90794986D01*
X162160883Y-90781939D01*
X161852185Y-90771943D01*
X161452386Y-90764715D01*
X160949002Y-90759975D01*
X160329552Y-90757443D01*
X159581554Y-90756838D01*
X158692526Y-90757879D01*
X157649986Y-90760285D01*
X157343750Y-90761123D01*
X152049789Y-90775963D01*
X152096004Y-90960097D01*
X152082119Y-91153418D01*
X151962679Y-91275435D01*
X151790536Y-91314690D01*
X151618541Y-91259722D01*
X151499545Y-91099073D01*
X151496567Y-91090072D01*
X151382059Y-90968003D01*
X151179754Y-90939219D01*
X150938862Y-90997491D01*
X150708596Y-91136594D01*
X150644532Y-91197874D01*
X150475161Y-91349904D01*
X150334769Y-91425984D01*
X150317940Y-91428000D01*
X150148229Y-91355070D01*
X150048824Y-91175289D01*
X150049158Y-90963433D01*
X150069977Y-90827666D01*
X150013667Y-90766822D01*
X149840002Y-90751063D01*
X149762279Y-90750667D01*
X149536894Y-90766524D01*
X149437952Y-90826319D01*
X149422000Y-90903067D01*
X149348928Y-91118717D01*
X149153757Y-91241830D01*
X149021949Y-91258667D01*
X148867018Y-91214923D01*
X148785593Y-91055073D01*
X148774300Y-91004667D01*
X148723500Y-90750667D01*
X147654583Y-90753359D01*
X147160554Y-90760273D01*
X146810320Y-90779844D01*
X146578644Y-90814655D01*
X146440288Y-90867291D01*
X146422514Y-90879484D01*
X146307125Y-90998520D01*
X146351127Y-91060452D01*
X146554529Y-91065283D01*
X146917338Y-91013014D01*
X146944131Y-91008071D01*
X147416123Y-90922500D01*
X147748667Y-90870350D01*
X147968136Y-90850723D01*
X148100900Y-90862718D01*
X148173333Y-90905438D01*
X148207079Y-90965018D01*
X148232243Y-91126972D01*
X148162077Y-91264796D01*
X147981373Y-91386169D01*
X147674920Y-91498772D01*
X147227512Y-91610288D01*
X146736193Y-91707897D01*
X146375865Y-91784068D01*
X146049801Y-91869679D01*
X145818093Y-91948585D01*
X145786581Y-91963024D01*
X145526328Y-92063551D01*
X145228452Y-92140621D01*
X145197939Y-92146100D01*
X144969971Y-92169714D01*
X144843314Y-92128154D01*
X144768138Y-92025908D01*
X144719821Y-91902109D01*
X144730474Y-91780016D01*
X144816684Y-91628449D01*
X144995036Y-91416228D01*
X145219580Y-91177265D01*
X145628417Y-90750667D01*
X132141865Y-90750667D01*
X131701432Y-91031793D01*
X131393588Y-91204448D01*
X131074972Y-91346578D01*
X130901146Y-91403796D01*
X130655447Y-91451590D01*
X130491495Y-91430461D01*
X130332218Y-91330210D01*
X130329646Y-91328191D01*
X130170075Y-91136023D01*
X130118000Y-90956188D01*
X130118000Y-90750667D01*
X128685722Y-90750667D01*
X128212060Y-90754291D01*
X127801126Y-90764332D01*
X127481207Y-90779539D01*
X127280589Y-90798660D01*
X127225222Y-90815232D01*
X127135053Y-90908212D01*
X126938446Y-91060234D01*
X126674821Y-91244324D01*
X126383599Y-91433509D01*
X126104201Y-91600815D01*
X125972614Y-91672313D01*
X125581908Y-91829768D01*
X125193830Y-91910062D01*
X124852520Y-91909292D01*
X124602117Y-91823553D01*
X124567602Y-91796565D01*
X124282360Y-91473000D01*
X124128295Y-91146215D01*
X124106666Y-90985828D01*
X124106666Y-90962333D01*
X124868666Y-90962333D01*
X124898875Y-91117731D01*
X125023656Y-91169332D01*
X125101500Y-91171357D01*
X125316771Y-91125333D01*
X125579793Y-91012946D01*
X125673000Y-90960125D01*
X126011666Y-90751534D01*
X125440166Y-90751100D01*
X125137375Y-90754257D01*
X124966342Y-90773562D01*
X124889506Y-90822898D01*
X124869307Y-90916146D01*
X124868666Y-90962333D01*
X124106666Y-90962333D01*
X124106666Y-90750667D01*
X122251673Y-90750667D01*
X122209852Y-91025833D01*
X122171627Y-91290398D01*
X122128781Y-91604732D01*
X122118656Y-91682000D01*
X122079396Y-91979590D01*
X122029649Y-92349613D01*
X121993700Y-92613333D01*
X121957660Y-92995080D01*
X121945036Y-93394198D01*
X121952402Y-93624497D01*
X121940327Y-93981871D01*
X121854184Y-94238784D01*
X121708599Y-94375534D01*
X121518200Y-94372419D01*
X121431174Y-94326537D01*
X121297371Y-94188079D01*
X121215000Y-93969891D01*
X121178523Y-93644509D01*
X121182400Y-93184467D01*
X121185753Y-93109709D01*
X121212116Y-92706849D01*
X121249317Y-92319957D01*
X121290734Y-92013971D01*
X121305428Y-91936000D01*
X121366656Y-91595906D01*
X121416060Y-91231375D01*
X121423935Y-91154025D01*
X121460930Y-90753049D01*
X118846742Y-90730691D01*
X118045761Y-90721135D01*
X117382299Y-90707487D01*
X116863007Y-90690019D01*
X116494537Y-90669003D01*
X116283539Y-90644713D01*
X116232556Y-90623667D01*
X116316133Y-90597222D01*
X116562548Y-90573796D01*
X116965328Y-90553648D01*
X117518001Y-90537038D01*
X118214092Y-90524227D01*
X118898297Y-90516646D01*
X121564036Y-90494291D01*
X121614566Y-90262646D01*
X121682059Y-89999486D01*
X121737588Y-89819333D01*
X121781339Y-89681082D01*
X121822393Y-89519240D01*
X121871317Y-89287236D01*
X121938684Y-88938499D01*
X121944594Y-88907291D01*
X121931489Y-88745981D01*
X121868742Y-88482478D01*
X121773685Y-88170115D01*
X121663649Y-87862224D01*
X121555966Y-87612138D01*
X121484349Y-87491000D01*
X121430402Y-87360724D01*
X121374275Y-87132097D01*
X121355000Y-87025333D01*
X121303670Y-86776402D01*
X121246623Y-86597078D01*
X121225926Y-86559667D01*
X121187706Y-86486389D01*
X121142211Y-86341824D01*
X121083306Y-86101248D01*
X121004858Y-85739934D01*
X120918184Y-85319199D01*
X120914348Y-85139332D01*
X121020450Y-85048723D01*
X121050284Y-85038327D01*
X121263686Y-85012745D01*
X121376166Y-85029743D01*
X121522825Y-85141308D01*
X121674365Y-85346480D01*
X121787311Y-85576584D01*
X121820666Y-85731900D01*
X121843081Y-85877090D01*
X121901757Y-86128997D01*
X121981324Y-86423538D01*
X122072249Y-86747394D01*
X122150312Y-87038079D01*
X122194604Y-87215833D01*
X122265301Y-87390327D01*
X122348174Y-87444771D01*
X122405706Y-87367238D01*
X122413333Y-87285381D01*
X122470880Y-87092262D01*
X122542839Y-86992589D01*
X122656514Y-86829580D01*
X122771717Y-86592619D01*
X122791435Y-86542041D01*
X122883507Y-86303774D01*
X123014524Y-85976755D01*
X123157522Y-85628212D01*
X123169929Y-85598394D01*
X123291887Y-85296816D01*
X123383047Y-85054515D01*
X123427421Y-84914487D01*
X123429333Y-84900803D01*
X123347392Y-84884052D01*
X123112472Y-84867671D01*
X122740927Y-84852098D01*
X122249112Y-84837773D01*
X121653381Y-84825132D01*
X120970088Y-84814616D01*
X120215588Y-84806663D01*
X119809833Y-84803742D01*
X118836937Y-84795844D01*
X118009272Y-84784970D01*
X117331043Y-84771243D01*
X116806454Y-84754788D01*
X116439711Y-84735728D01*
X116235017Y-84714188D01*
X116190333Y-84697000D01*
X116274317Y-84673990D01*
X116523570Y-84653321D01*
X116934042Y-84635108D01*
X117501682Y-84619467D01*
X118222441Y-84606516D01*
X119092269Y-84596369D01*
X119906515Y-84590268D01*
X123622696Y-84568202D01*
X123790754Y-84378601D01*
X123949107Y-84157050D01*
X124069295Y-83930380D01*
X124165130Y-83775881D01*
X124346509Y-83536049D01*
X124581795Y-83247792D01*
X124839353Y-82948017D01*
X125087548Y-82673634D01*
X125294744Y-82461550D01*
X125420172Y-82354345D01*
X125535948Y-82262443D01*
X125709419Y-82109415D01*
X125742279Y-82079178D01*
X126008036Y-81897804D01*
X126237175Y-81877257D01*
X126375733Y-81962267D01*
X126472639Y-82164244D01*
X126413000Y-82409313D01*
X126200297Y-82685192D01*
X126159833Y-82724326D01*
X125901056Y-82981508D01*
X125601916Y-83300258D01*
X125298743Y-83639526D01*
X125027868Y-83958263D01*
X124825622Y-84215419D01*
X124770753Y-84293857D01*
X124617376Y-84527667D01*
X147835854Y-84570000D01*
X150527573Y-84575216D01*
X153055125Y-84580749D01*
X155418182Y-84586598D01*
X157616412Y-84592759D01*
X159649485Y-84599233D01*
X161517072Y-84606015D01*
X163218842Y-84613106D01*
X164754464Y-84620503D01*
X166123610Y-84628205D01*
X167325949Y-84636209D01*
X168361149Y-84644513D01*
X169228883Y-84653116D01*
X169928818Y-84662017D01*
X170460626Y-84671213D01*
X170823976Y-84680702D01*
X171018537Y-84690483D01*
X171054333Y-84697000D01*
X170969712Y-84706883D01*
X170716033Y-84716323D01*
X170293568Y-84725317D01*
X169702594Y-84733864D01*
X168943382Y-84741964D01*
X168016208Y-84749614D01*
X166921344Y-84756814D01*
X165659067Y-84763563D01*
X164229648Y-84769859D01*
X162633363Y-84775700D01*
X160870485Y-84781087D01*
X158941289Y-84786016D01*
X156846047Y-84790488D01*
X154585035Y-84794501D01*
X152158527Y-84798054D01*
X149566796Y-84801145D01*
X147707500Y-84802985D01*
X145371382Y-84805400D01*
X143135874Y-84808279D01*
X141005032Y-84811604D01*
X138982913Y-84815359D01*
X137073575Y-84819524D01*
X135281073Y-84824085D01*
X133609464Y-84829022D01*
X132062805Y-84834318D01*
X130645154Y-84839957D01*
X129360566Y-84845921D01*
X128213099Y-84852192D01*
X127206808Y-84858754D01*
X126345752Y-84865588D01*
X125633986Y-84872678D01*
X125075568Y-84880007D01*
X124674554Y-84887556D01*
X124435001Y-84895308D01*
X124360666Y-84902770D01*
X124306773Y-85021407D01*
X124237264Y-85104640D01*
X124157437Y-85229569D01*
X124033865Y-85475623D01*
X123884054Y-85806063D01*
X123740197Y-86147854D01*
X123572811Y-86556686D01*
X123410117Y-86948504D01*
X123273095Y-87273072D01*
X123196900Y-87448667D01*
X122979387Y-87975529D01*
X122834349Y-88427872D01*
X122750987Y-88807963D01*
X122681015Y-89152101D01*
X122595537Y-89508483D01*
X122579032Y-89569963D01*
X122498393Y-89872050D01*
X122425952Y-90158542D01*
X122410898Y-90221500D01*
X122346499Y-90496667D01*
X123247749Y-90495534D01*
X124149000Y-90494402D01*
X124210744Y-90316241D01*
X124954942Y-90316241D01*
X125006480Y-90425377D01*
X125181190Y-90478399D01*
X125497211Y-90495395D01*
X125733361Y-90496667D01*
X126513390Y-90496667D01*
X126954469Y-90030231D01*
X127250171Y-89681279D01*
X127415289Y-89383965D01*
X127464110Y-89102255D01*
X127424159Y-88845667D01*
X127274340Y-88585766D01*
X127016679Y-88438535D01*
X126683731Y-88421969D01*
X126663625Y-88425251D01*
X126316676Y-88537941D01*
X125962806Y-88736768D01*
X125661534Y-88982002D01*
X125482353Y-89213740D01*
X125345397Y-89475688D01*
X125188278Y-89774528D01*
X125148830Y-89849268D01*
X125008439Y-90130901D01*
X124954942Y-90316241D01*
X124210744Y-90316241D01*
X124302656Y-90051034D01*
X124399389Y-89753874D01*
X124476612Y-89484994D01*
X124502765Y-89374833D01*
X124559501Y-89206180D01*
X124623140Y-89142000D01*
X124701547Y-89071851D01*
X124797779Y-88899621D01*
X124812444Y-88865848D01*
X124966217Y-88594653D01*
X125186235Y-88321475D01*
X125433227Y-88084647D01*
X125667921Y-87922497D01*
X125830698Y-87872000D01*
X126009435Y-87846149D01*
X126088955Y-87799270D01*
X126192075Y-87749308D01*
X126408068Y-87699657D01*
X126580786Y-87674471D01*
X127074079Y-87677325D01*
X127510743Y-87796438D01*
X127848513Y-88020225D01*
X127850814Y-88022518D01*
X128034948Y-88289406D01*
X128177616Y-88647960D01*
X128250200Y-89021002D01*
X128254058Y-89110070D01*
X128212874Y-89371298D01*
X128105796Y-89703536D01*
X127960464Y-90036636D01*
X127804515Y-90300450D01*
X127766111Y-90348500D01*
X127725093Y-90405888D01*
X127734242Y-90446187D01*
X127816095Y-90472403D01*
X127993194Y-90487541D01*
X128288077Y-90494606D01*
X128723284Y-90496605D01*
X128877211Y-90496667D01*
X129314381Y-90492582D01*
X129684952Y-90481339D01*
X129959111Y-90464457D01*
X130107042Y-90443453D01*
X130124477Y-90433167D01*
X130143480Y-90314982D01*
X130184446Y-90164490D01*
X130257429Y-89953344D01*
X130372484Y-89653199D01*
X130539666Y-89235709D01*
X130615421Y-89049080D01*
X130775359Y-88646037D01*
X130908723Y-88291091D01*
X131003484Y-88017690D01*
X131047611Y-87859287D01*
X131049333Y-87842580D01*
X131083980Y-87721751D01*
X131118992Y-87702667D01*
X131194810Y-87632751D01*
X131304158Y-87459121D01*
X131419366Y-87235948D01*
X131512769Y-87017405D01*
X131556698Y-86857667D01*
X131557333Y-86844398D01*
X131624257Y-86632364D01*
X131785567Y-86446527D01*
X131982071Y-86350749D01*
X132017433Y-86348000D01*
X132247828Y-86401102D01*
X132361355Y-86562769D01*
X132358015Y-86836544D01*
X132237807Y-87225971D01*
X132017214Y-87702667D01*
X131847419Y-88048282D01*
X131658577Y-88457021D01*
X131464994Y-88894949D01*
X131280973Y-89328130D01*
X131120820Y-89722631D01*
X130998841Y-90044516D01*
X130929339Y-90259850D01*
X130919730Y-90306167D01*
X130922819Y-90430453D01*
X130985927Y-90481074D01*
X131127483Y-90453095D01*
X131365916Y-90341577D01*
X131719656Y-90141585D01*
X131871856Y-90051126D01*
X132227943Y-89846292D01*
X132570304Y-89663930D01*
X132848017Y-89530543D01*
X132954333Y-89487803D01*
X133261063Y-89356572D01*
X133561317Y-89192156D01*
X133590718Y-89173183D01*
X133953699Y-88981660D01*
X134264640Y-88913749D01*
X134500119Y-88973361D01*
X134549140Y-89013236D01*
X134661112Y-89171690D01*
X134690000Y-89271749D01*
X134627314Y-89415708D01*
X134481451Y-89581478D01*
X134315697Y-89705891D01*
X134226195Y-89734667D01*
X134110323Y-89771645D01*
X133889933Y-89869319D01*
X133609434Y-90007796D01*
X133564646Y-90031000D01*
X133274127Y-90174482D01*
X133031797Y-90279730D01*
X132884615Y-90326581D01*
X132874483Y-90327333D01*
X132730410Y-90379006D01*
X132700333Y-90412000D01*
X132773251Y-90429813D01*
X133014951Y-90445540D01*
X133424893Y-90459175D01*
X134002538Y-90470712D01*
X134747347Y-90480142D01*
X135658780Y-90487459D01*
X136736298Y-90492656D01*
X137979362Y-90495726D01*
X139295313Y-90496667D01*
X145942620Y-90496667D01*
X146625238Y-89848817D01*
X146896309Y-89587966D01*
X147112226Y-89373316D01*
X147249150Y-89229034D01*
X147285427Y-89179514D01*
X147193676Y-89185878D01*
X146981977Y-89231697D01*
X146691928Y-89305665D01*
X146365128Y-89396476D01*
X146043175Y-89492822D01*
X145767666Y-89583396D01*
X145675587Y-89617082D01*
X145431357Y-89703707D01*
X145287841Y-89725142D01*
X145190280Y-89683290D01*
X145138155Y-89635774D01*
X145048099Y-89459222D01*
X145122910Y-89279410D01*
X145358234Y-89099280D01*
X145749718Y-88921779D01*
X146293009Y-88749850D01*
X146543333Y-88685375D01*
X146924315Y-88589630D01*
X147324219Y-88484927D01*
X147559333Y-88420873D01*
X148022054Y-88322520D01*
X148377653Y-88309095D01*
X148615557Y-88373028D01*
X148725194Y-88506748D01*
X148695992Y-88702685D01*
X148517379Y-88953268D01*
X148427916Y-89042842D01*
X148215396Y-89241423D01*
X147927000Y-89509031D01*
X147611686Y-89800284D01*
X147476021Y-89925167D01*
X146854402Y-90496667D01*
X148837006Y-90496667D01*
X148781518Y-90200890D01*
X148757858Y-89849632D01*
X148828148Y-89593945D01*
X148984670Y-89460246D01*
X148999229Y-89455987D01*
X149207986Y-89470386D01*
X149348964Y-89634056D01*
X149416642Y-89938797D01*
X149421999Y-90083805D01*
X149422000Y-90505516D01*
X149858760Y-90479924D01*
X150295520Y-90454333D01*
X150585093Y-89759423D01*
X150747512Y-89405330D01*
X150894960Y-89150445D01*
X151010467Y-89023400D01*
X151025405Y-89016670D01*
X151261897Y-89004998D01*
X151413606Y-89127415D01*
X151454000Y-89305309D01*
X151485077Y-89550962D01*
X151564079Y-89848292D01*
X151669663Y-90134995D01*
X151780484Y-90348763D01*
X151832366Y-90409814D01*
X151977107Y-90453780D01*
X152268575Y-90478166D01*
X152685129Y-90481457D01*
X152815302Y-90478559D01*
X153203735Y-90465348D01*
X153447441Y-90448425D01*
X153571022Y-90422716D01*
X153599077Y-90383150D01*
X153557146Y-90325586D01*
X153320782Y-89990210D01*
X153238094Y-89603878D01*
X153308702Y-89158644D01*
X153481572Y-88742365D01*
X153641564Y-88446769D01*
X153792430Y-88234004D01*
X153974934Y-88067190D01*
X154229837Y-87909450D01*
X154597903Y-87723904D01*
X154618058Y-87714175D01*
X155078803Y-87533735D01*
X155447181Y-87478983D01*
X155715781Y-87550000D01*
X155855637Y-87700744D01*
X155929358Y-87862756D01*
X155906496Y-87969145D01*
X155803859Y-88082046D01*
X155599183Y-88180140D01*
X155429059Y-88167394D01*
X155129529Y-88179977D01*
X154799305Y-88315893D01*
X154475418Y-88543274D01*
X154194901Y-88830254D01*
X153994785Y-89144967D01*
X153912104Y-89455546D01*
X153911688Y-89473114D01*
X153972909Y-89726435D01*
X154131474Y-89963518D01*
X154343710Y-90139373D01*
X154565942Y-90209012D01*
X154621146Y-90203937D01*
X154815816Y-90170430D01*
X155085485Y-90129844D01*
X155171600Y-90117850D01*
X155465249Y-90052973D01*
X155728977Y-89955245D01*
X155779881Y-89928210D01*
X155963824Y-89841681D01*
X156089309Y-89858309D01*
X156147447Y-89899392D01*
X156267237Y-90090352D01*
X156244035Y-90302848D01*
X156178399Y-90395067D01*
X156152197Y-90457080D01*
X156249046Y-90488341D01*
X156480498Y-90496667D01*
X156884197Y-90496667D01*
X156709486Y-90251308D01*
X156581355Y-89935839D01*
X156597524Y-89743725D01*
X157211333Y-89743725D01*
X157240371Y-89876769D01*
X157341413Y-89877878D01*
X157503116Y-89773990D01*
X157610287Y-89646412D01*
X157580773Y-89562240D01*
X157434610Y-89511031D01*
X157287642Y-89577044D01*
X157212167Y-89724763D01*
X157211333Y-89743725D01*
X156597524Y-89743725D01*
X156612090Y-89570663D01*
X156802147Y-89153776D01*
X157034688Y-88824502D01*
X157200271Y-88651355D01*
X157345598Y-88555861D01*
X157377593Y-88549336D01*
X157493077Y-88608287D01*
X157679124Y-88763213D01*
X157896447Y-88981218D01*
X157906759Y-88992451D01*
X158170559Y-89316350D01*
X158295679Y-89579142D01*
X158284693Y-89813109D01*
X158140173Y-90050536D01*
X158002678Y-90196258D01*
X157693357Y-90496667D01*
X158172012Y-90496667D01*
X158470873Y-90482524D01*
X158564620Y-90454333D01*
X159328000Y-90454333D01*
X159370333Y-90496667D01*
X159412666Y-90454333D01*
X159370333Y-90412000D01*
X159328000Y-90454333D01*
X158564620Y-90454333D01*
X158622123Y-90437041D01*
X158650666Y-90384749D01*
G37*
G36*
X135494742Y-88235980D02*
G01*
X135621184Y-87914918D01*
X135811939Y-87550428D01*
X136037052Y-87189526D01*
X136266570Y-86879227D01*
X136470536Y-86666546D01*
X136516252Y-86632669D01*
X136669617Y-86488101D01*
X136690643Y-86309181D01*
X136683828Y-86272134D01*
X136670891Y-86074633D01*
X136700983Y-85962531D01*
X136829036Y-85846620D01*
X137039837Y-85707305D01*
X137268947Y-85582004D01*
X137451922Y-85508137D01*
X137495247Y-85501333D01*
X137638619Y-85463392D01*
X137858149Y-85368096D01*
X137947588Y-85322277D01*
X138316590Y-85174714D01*
X138774363Y-85065537D01*
X139273511Y-84998465D01*
X139766636Y-84977216D01*
X140206342Y-85005510D01*
X140545232Y-85087066D01*
X140604108Y-85113839D01*
X140832987Y-85207131D01*
X141027651Y-85247300D01*
X141031486Y-85247333D01*
X141208710Y-85321709D01*
X141399323Y-85515792D01*
X141571818Y-85786016D01*
X141694688Y-86088815D01*
X141721445Y-86201365D01*
X141740972Y-86558209D01*
X141688743Y-86936340D01*
X141578878Y-87271056D01*
X141441957Y-87482138D01*
X141326923Y-87636081D01*
X141294000Y-87734439D01*
X141225892Y-87869071D01*
X141038379Y-88068639D01*
X140756670Y-88309993D01*
X140405977Y-88569981D01*
X140320333Y-88628551D01*
X140078593Y-88797560D01*
X139890072Y-88940525D01*
X139812333Y-89009586D01*
X139670748Y-89125912D01*
X139452462Y-89264413D01*
X139218933Y-89390496D01*
X139031622Y-89469566D01*
X138975424Y-89480667D01*
X138846308Y-89510917D01*
X138612726Y-89590095D01*
X138335025Y-89697177D01*
X137839136Y-89852922D01*
X137308318Y-89942901D01*
X136792552Y-89964131D01*
X136341816Y-89913625D01*
X136086293Y-89831483D01*
X135847585Y-89701751D01*
X135664924Y-89569247D01*
X135630698Y-89534284D01*
X135496009Y-89264511D01*
X135430487Y-88898928D01*
X135434684Y-88732495D01*
X136214000Y-88732495D01*
X136223795Y-88960804D01*
X136275449Y-89100784D01*
X136402363Y-89174715D01*
X136637939Y-89204879D01*
X136933666Y-89212556D01*
X137278404Y-89179423D01*
X137732887Y-89078738D01*
X138184005Y-88943571D01*
X138550213Y-88813931D01*
X138868678Y-88686462D01*
X139096067Y-88579273D01*
X139173251Y-88530140D01*
X139364773Y-88382456D01*
X139573912Y-88239479D01*
X139760073Y-88102410D01*
X139878577Y-87982146D01*
X139880040Y-87979866D01*
X140014996Y-87881322D01*
X140070715Y-87872000D01*
X140185792Y-87804750D01*
X140354649Y-87629429D01*
X140548277Y-87385681D01*
X140737665Y-87113148D01*
X140893803Y-86851474D01*
X140987680Y-86640302D01*
X140996631Y-86606715D01*
X141006418Y-86365952D01*
X140957916Y-86183493D01*
X140769696Y-85994701D01*
X140454349Y-85852531D01*
X140049643Y-85765098D01*
X139593349Y-85740519D01*
X139123236Y-85786909D01*
X139117320Y-85787993D01*
X138895794Y-85838277D01*
X138802156Y-85904647D01*
X138796459Y-86025669D01*
X138807632Y-86086994D01*
X138790861Y-86346345D01*
X138713430Y-86461141D01*
X138562524Y-86581416D01*
X138428683Y-86574483D01*
X138289547Y-86486357D01*
X138175284Y-86427951D01*
X138048306Y-86444258D01*
X137855088Y-86546721D01*
X137775887Y-86596172D01*
X137290615Y-86977237D01*
X136812701Y-87491481D01*
X136499724Y-87913203D01*
X136317864Y-88220781D01*
X136231897Y-88489407D01*
X136214000Y-88732495D01*
X135434684Y-88732495D01*
X135440572Y-88499011D01*
X135494742Y-88235980D01*
G37*
G36*
X117697945Y-85800252D02*
G01*
X117841691Y-86052782D01*
X117843067Y-86056920D01*
X117948281Y-86280596D01*
X118123156Y-86563502D01*
X118290957Y-86793708D01*
X118476254Y-87049689D01*
X118612512Y-87279099D01*
X118666833Y-87419612D01*
X118629809Y-87630158D01*
X118490809Y-87787986D01*
X118300873Y-87865369D01*
X118111038Y-87834577D01*
X118028942Y-87766167D01*
X117898546Y-87590573D01*
X117715951Y-87324495D01*
X117516800Y-87022212D01*
X117336742Y-86738002D01*
X117211422Y-86526147D01*
X117197679Y-86500371D01*
X117091860Y-86192281D01*
X117105277Y-85934554D01*
X117235319Y-85763162D01*
X117251864Y-85753622D01*
X117495560Y-85697568D01*
X117697945Y-85800252D01*
G37*
G36*
X163298650Y-86789213D02*
G01*
X163466290Y-86935139D01*
X163523652Y-87056060D01*
X163560987Y-87383636D01*
X163482033Y-87595854D01*
X163289517Y-87686800D01*
X163127567Y-87679275D01*
X163018359Y-87582292D01*
X162929684Y-87401294D01*
X162827717Y-87121132D01*
X162810035Y-86941635D01*
X162875637Y-86817181D01*
X162916034Y-86779880D01*
X163093858Y-86727745D01*
X163298650Y-86789213D01*
G37*
G36*
X118548322Y-85037550D02*
G01*
X118751884Y-85158200D01*
X118917103Y-85331988D01*
X119115426Y-85591964D01*
X119319993Y-85895683D01*
X119503947Y-86200702D01*
X119640428Y-86464575D01*
X119702577Y-86644859D01*
X119703829Y-86662521D01*
X119632268Y-86858467D01*
X119459981Y-86983947D01*
X119251158Y-87004644D01*
X119146337Y-86960537D01*
X119053713Y-86855776D01*
X118917393Y-86655822D01*
X118829379Y-86510820D01*
X118632948Y-86213894D01*
X118404332Y-85924343D01*
X118321032Y-85833487D01*
X118084589Y-85561222D01*
X117982752Y-85355857D01*
X118006965Y-85193857D01*
X118062645Y-85122783D01*
X118285242Y-85008116D01*
X118548322Y-85037550D01*
G37*
G36*
X143603859Y-81907626D02*
G01*
X143750910Y-82029001D01*
X143794021Y-82247020D01*
X143731990Y-82571179D01*
X143563620Y-83010978D01*
X143428010Y-83300000D01*
X143253215Y-83606806D01*
X143094602Y-83760690D01*
X142929519Y-83773548D01*
X142740181Y-83661237D01*
X142628819Y-83560051D01*
X142592938Y-83461420D01*
X142627058Y-83306083D01*
X142690905Y-83128515D01*
X142888477Y-82620775D01*
X143053978Y-82259079D01*
X143200283Y-82026209D01*
X143340264Y-81904949D01*
X143486798Y-81878083D01*
X143603859Y-81907626D01*
G37*
G36*
X145774145Y-81759581D02*
G01*
X145907024Y-81934469D01*
X145940001Y-82171210D01*
X145861018Y-82425021D01*
X145781333Y-82538000D01*
X145661132Y-82691008D01*
X145610565Y-82783788D01*
X145556195Y-82866861D01*
X145415502Y-83034522D01*
X145231877Y-83236500D01*
X144917334Y-83516897D01*
X144650978Y-83636634D01*
X144433888Y-83595371D01*
X144345371Y-83515729D01*
X144285512Y-83328419D01*
X144304671Y-83199565D01*
X144379892Y-83063043D01*
X144533163Y-82846185D01*
X144737173Y-82581977D01*
X144964611Y-82303406D01*
X145188166Y-82043459D01*
X145380525Y-81835122D01*
X145514378Y-81711382D01*
X145553418Y-81691333D01*
X145774145Y-81759581D01*
G37*
G36*
X129474698Y-78056315D02*
G01*
X131126763Y-78056894D01*
X132832135Y-78057826D01*
X134583128Y-78059097D01*
X136372052Y-78060697D01*
X138191219Y-78062612D01*
X140032942Y-78064831D01*
X141889533Y-78067341D01*
X143753303Y-78070131D01*
X145616563Y-78073189D01*
X147471627Y-78076503D01*
X149310806Y-78080060D01*
X151126412Y-78083849D01*
X152910756Y-78087857D01*
X154656151Y-78092072D01*
X156354909Y-78096483D01*
X157999341Y-78101077D01*
X159581759Y-78105843D01*
X161094476Y-78110768D01*
X162529802Y-78115840D01*
X163880051Y-78121047D01*
X165137533Y-78126378D01*
X166294561Y-78131819D01*
X167343447Y-78137360D01*
X168276502Y-78142988D01*
X169086039Y-78148691D01*
X169764369Y-78154456D01*
X170303804Y-78160273D01*
X170696656Y-78166128D01*
X170935237Y-78172010D01*
X171012001Y-78177667D01*
X170928615Y-78185594D01*
X170683580Y-78193280D01*
X170284580Y-78200718D01*
X169739298Y-78207902D01*
X169055420Y-78214827D01*
X168240629Y-78221486D01*
X167302609Y-78227874D01*
X166249044Y-78233984D01*
X165087619Y-78239812D01*
X163826016Y-78245351D01*
X162471921Y-78250595D01*
X161033017Y-78255539D01*
X159516989Y-78260176D01*
X157931520Y-78264500D01*
X156284294Y-78268507D01*
X154582996Y-78272189D01*
X152835309Y-78275542D01*
X151048918Y-78278558D01*
X149231507Y-78281233D01*
X147390759Y-78283560D01*
X145534359Y-78285534D01*
X143669991Y-78287149D01*
X141805339Y-78288398D01*
X139948086Y-78289277D01*
X138105918Y-78289778D01*
X136286517Y-78289897D01*
X134497568Y-78289627D01*
X132746756Y-78288962D01*
X131041763Y-78287897D01*
X129390274Y-78286426D01*
X127799974Y-78284543D01*
X126278546Y-78282242D01*
X124833674Y-78279517D01*
X123473043Y-78276362D01*
X122204335Y-78272772D01*
X121035236Y-78268740D01*
X119973430Y-78264261D01*
X119026600Y-78259329D01*
X118202431Y-78253937D01*
X117508606Y-78248081D01*
X116952810Y-78241754D01*
X116542726Y-78234950D01*
X116286039Y-78227664D01*
X116190433Y-78219889D01*
X116190043Y-78219531D01*
X116204321Y-78119883D01*
X116248466Y-78091897D01*
X116346969Y-78086285D01*
X116606413Y-78081193D01*
X117019110Y-78076611D01*
X117577372Y-78072524D01*
X118273511Y-78068922D01*
X119099840Y-78065793D01*
X120048669Y-78063123D01*
X121112311Y-78060902D01*
X122283078Y-78059117D01*
X123553281Y-78057757D01*
X124915233Y-78056808D01*
X126361245Y-78056260D01*
X127883630Y-78056099D01*
X129474698Y-78056315D01*
G37*
G36*
X157387424Y-68364647D02*
G01*
X157479675Y-67957577D01*
X157507935Y-67877149D01*
X157496005Y-67741802D01*
X157394611Y-67683426D01*
X157233739Y-67583140D01*
X157178741Y-67504523D01*
X157166651Y-67425032D01*
X157206156Y-67332463D01*
X157317646Y-67202590D01*
X157521508Y-67011188D01*
X157797882Y-66768833D01*
X158164721Y-66451333D01*
X153091697Y-66451333D01*
X152717348Y-66704905D01*
X152325607Y-66981417D01*
X152058300Y-67203253D01*
X151891582Y-67397504D01*
X151801606Y-67591262D01*
X151766788Y-67784833D01*
X151765238Y-68036392D01*
X151831158Y-68137757D01*
X151978504Y-68099389D01*
X152091327Y-68028112D01*
X152254962Y-67950658D01*
X152526835Y-67857494D01*
X152849566Y-67768176D01*
X152865560Y-67764271D01*
X153232643Y-67686281D01*
X153524301Y-67660008D01*
X153825173Y-67681905D01*
X154036823Y-67715205D01*
X154582207Y-67846207D01*
X154995520Y-68036702D01*
X155309681Y-68308085D01*
X155557609Y-68681748D01*
X155574407Y-68714402D01*
X155703378Y-69040459D01*
X155723810Y-69335899D01*
X155631262Y-69653689D01*
X155469506Y-69965439D01*
X155187752Y-70362357D01*
X154817568Y-70721454D01*
X154334485Y-71062078D01*
X153714034Y-71403577D01*
X153547703Y-71485061D01*
X153149091Y-71671076D01*
X152780048Y-71833182D01*
X152480655Y-71954419D01*
X152290991Y-72017829D01*
X152285838Y-72019015D01*
X152331226Y-72027608D01*
X152535677Y-72036585D01*
X152888921Y-72045831D01*
X153380688Y-72055229D01*
X154000709Y-72064662D01*
X154738714Y-72074013D01*
X155584433Y-72083167D01*
X156527596Y-72092006D01*
X157557935Y-72100413D01*
X158665178Y-72108272D01*
X159839057Y-72115467D01*
X161069302Y-72121881D01*
X161529333Y-72124000D01*
X163208225Y-72132212D01*
X164726770Y-72141207D01*
X166084046Y-72150973D01*
X167279127Y-72161496D01*
X168311089Y-72172766D01*
X169179009Y-72184768D01*
X169881961Y-72197492D01*
X170419023Y-72210925D01*
X170789269Y-72225054D01*
X170991776Y-72239867D01*
X171033186Y-72251000D01*
X170945065Y-72265684D01*
X170689131Y-72280042D01*
X170266900Y-72294052D01*
X169679892Y-72307693D01*
X168929626Y-72320944D01*
X168017620Y-72333785D01*
X166945393Y-72346194D01*
X165714463Y-72358151D01*
X164326349Y-72369634D01*
X162782570Y-72380623D01*
X161084644Y-72391097D01*
X160703852Y-72393256D01*
X159381723Y-72401050D01*
X158097037Y-72409416D01*
X156861049Y-72418241D01*
X155685011Y-72427410D01*
X154580175Y-72436810D01*
X153557794Y-72446327D01*
X152629122Y-72455848D01*
X151805411Y-72465259D01*
X151097913Y-72474445D01*
X150517882Y-72483293D01*
X150076570Y-72491690D01*
X149785230Y-72499521D01*
X149674604Y-72504749D01*
X149338923Y-72521653D01*
X149068644Y-72520023D01*
X148907415Y-72500702D01*
X148884389Y-72489493D01*
X148794010Y-72482279D01*
X148542515Y-72474840D01*
X148138123Y-72467232D01*
X147589051Y-72459512D01*
X146903518Y-72451735D01*
X146089742Y-72443958D01*
X145155941Y-72436236D01*
X144110332Y-72428626D01*
X142961133Y-72421183D01*
X141716563Y-72413964D01*
X140384839Y-72407024D01*
X138974179Y-72400420D01*
X137492801Y-72394208D01*
X135948924Y-72388442D01*
X134350764Y-72383181D01*
X132706541Y-72378479D01*
X132523943Y-72378000D01*
X130298804Y-72371778D01*
X128233952Y-72365096D01*
X126330084Y-72357959D01*
X124587895Y-72350372D01*
X123008082Y-72342341D01*
X121591340Y-72333871D01*
X120338365Y-72324968D01*
X119249854Y-72315638D01*
X118326502Y-72305884D01*
X117569004Y-72295714D01*
X116978058Y-72285132D01*
X116554359Y-72274143D01*
X116298602Y-72262754D01*
X116211491Y-72251000D01*
X116293050Y-72239129D01*
X116543580Y-72227904D01*
X116962720Y-72217327D01*
X117550109Y-72207399D01*
X118305386Y-72198124D01*
X119228189Y-72189504D01*
X120318158Y-72181540D01*
X121574931Y-72174237D01*
X122998147Y-72167595D01*
X124587446Y-72161618D01*
X126342466Y-72156308D01*
X128262846Y-72151667D01*
X130348225Y-72147697D01*
X132180140Y-72144946D01*
X134131606Y-72142220D01*
X135920567Y-72139442D01*
X137553856Y-72136550D01*
X139038299Y-72133483D01*
X140380729Y-72130177D01*
X141587974Y-72126570D01*
X142666864Y-72122599D01*
X143624229Y-72118203D01*
X144466898Y-72113319D01*
X145201702Y-72107884D01*
X145835470Y-72101836D01*
X146375031Y-72095113D01*
X146827216Y-72087652D01*
X147198854Y-72079390D01*
X147496776Y-72070266D01*
X147727809Y-72060216D01*
X147898786Y-72049179D01*
X148016535Y-72037092D01*
X148087885Y-72023892D01*
X148119667Y-72009518D01*
X148122237Y-71999230D01*
X148136997Y-71839122D01*
X148263067Y-71702076D01*
X148444476Y-71637424D01*
X148525196Y-71644079D01*
X148718268Y-71699985D01*
X148975762Y-71785278D01*
X149041000Y-71808337D01*
X149400328Y-71878307D01*
X149879665Y-71884432D01*
X150443866Y-71830710D01*
X151057790Y-71721138D01*
X151686295Y-71559712D01*
X151943958Y-71478153D01*
X152239412Y-71378054D01*
X152469483Y-71294795D01*
X152673719Y-71210193D01*
X152891665Y-71106065D01*
X153162867Y-70964230D01*
X153526871Y-70766505D01*
X153710694Y-70665841D01*
X154125995Y-70394469D01*
X154478239Y-70080389D01*
X154747240Y-69750279D01*
X154912808Y-69430819D01*
X154954758Y-69148687D01*
X154932156Y-69051612D01*
X154830939Y-68890804D01*
X154657636Y-68694712D01*
X154463975Y-68514619D01*
X154301680Y-68401809D01*
X154262670Y-68387861D01*
X153776767Y-68316772D01*
X153371677Y-68313921D01*
X152972333Y-68381404D01*
X152796541Y-68428807D01*
X152526787Y-68516802D01*
X152302057Y-68620569D01*
X152073848Y-68769254D01*
X151793654Y-68991999D01*
X151634040Y-69127281D01*
X151322019Y-69375657D01*
X151090273Y-69508903D01*
X150908368Y-69540017D01*
X150770598Y-69496086D01*
X150647675Y-69383846D01*
X150624538Y-69198075D01*
X150632163Y-69127908D01*
X150684745Y-68879963D01*
X150753519Y-68689634D01*
X150838543Y-68479277D01*
X150893567Y-68292833D01*
X150915825Y-68128656D01*
X150843323Y-68067943D01*
X150699318Y-68060000D01*
X150475478Y-68002183D01*
X150373590Y-67858359D01*
X150407630Y-67672962D01*
X150533077Y-67531546D01*
X150725113Y-67380571D01*
X150862439Y-67272290D01*
X150994776Y-67169994D01*
X151212513Y-67003934D01*
X151439053Y-66832333D01*
X151887562Y-66493667D01*
X150294947Y-66470277D01*
X149991206Y-66467300D01*
X149531668Y-66464871D01*
X148929868Y-66462989D01*
X148199341Y-66461655D01*
X147353623Y-66460869D01*
X146406248Y-66460630D01*
X145370753Y-66460938D01*
X144260673Y-66461794D01*
X143089542Y-66463198D01*
X141870896Y-66465149D01*
X140618270Y-66467648D01*
X139507813Y-66470277D01*
X137958686Y-66474706D01*
X136572342Y-66479744D01*
X135342233Y-66485477D01*
X134261809Y-66491991D01*
X133324522Y-66499370D01*
X132523822Y-66507702D01*
X131853161Y-66517072D01*
X131305989Y-66527566D01*
X130875758Y-66539270D01*
X130555918Y-66552268D01*
X130339921Y-66566649D01*
X130221217Y-66582496D01*
X130194462Y-66592314D01*
X130061337Y-66639899D01*
X129803574Y-66685191D01*
X129465809Y-66721294D01*
X129278745Y-66733858D01*
X128828667Y-66747924D01*
X128481922Y-66729953D01*
X128174554Y-66674160D01*
X127966429Y-66615135D01*
X127704487Y-66545462D01*
X127415613Y-66497947D01*
X127061246Y-66469022D01*
X126602825Y-66455121D01*
X126207792Y-66452425D01*
X124964584Y-66451333D01*
X124535625Y-66717989D01*
X124307260Y-66870194D01*
X124151667Y-66993499D01*
X124106666Y-67050950D01*
X124037457Y-67127965D01*
X123950889Y-67166697D01*
X123791838Y-67276639D01*
X123691437Y-67409857D01*
X123564679Y-67552604D01*
X123339106Y-67729321D01*
X123106381Y-67876382D01*
X122816773Y-68046188D01*
X122556951Y-68208164D01*
X122413333Y-68305748D01*
X122268553Y-68401043D01*
X122007325Y-68561722D01*
X121660330Y-68769339D01*
X121258249Y-69005450D01*
X121013781Y-69147094D01*
X120521364Y-69425528D01*
X120149901Y-69618790D01*
X119877499Y-69732637D01*
X119682264Y-69772826D01*
X119542303Y-69745115D01*
X119435722Y-69655261D01*
X119380369Y-69576613D01*
X119323629Y-69384209D01*
X119409679Y-69198049D01*
X119647937Y-69004271D01*
X119847384Y-68889364D01*
X120187833Y-68705197D01*
X120565833Y-68494642D01*
X120951706Y-68274985D01*
X121315772Y-68063513D01*
X121628355Y-67877513D01*
X121859777Y-67734271D01*
X121980358Y-67651074D01*
X121989899Y-67641401D01*
X122081532Y-67560910D01*
X122265121Y-67430330D01*
X122371000Y-67360877D01*
X122653233Y-67161344D01*
X122929869Y-66937011D01*
X122986432Y-66885865D01*
X123191318Y-66706076D01*
X123368567Y-66569558D01*
X123409765Y-66543245D01*
X123373124Y-66520132D01*
X123175350Y-66500610D01*
X122815040Y-66484643D01*
X122290790Y-66472196D01*
X121601196Y-66463234D01*
X120744853Y-66457721D01*
X119920387Y-66455753D01*
X119010621Y-66452985D01*
X118210397Y-66446656D01*
X117529697Y-66436997D01*
X116978505Y-66424237D01*
X116566804Y-66408609D01*
X116304578Y-66390340D01*
X116202062Y-66369929D01*
X116168264Y-66318636D01*
X116192434Y-66278158D01*
X116291240Y-66246914D01*
X116481347Y-66223323D01*
X116779423Y-66205804D01*
X117202133Y-66192778D01*
X117766145Y-66182664D01*
X118240324Y-66176626D01*
X120120982Y-66155000D01*
X119595267Y-65464414D01*
X119371097Y-65181139D01*
X119181401Y-64962188D01*
X119050286Y-64834189D01*
X119005776Y-64813244D01*
X118943967Y-64792814D01*
X118942000Y-64774888D01*
X118885896Y-64674913D01*
X118743255Y-64508307D01*
X118646568Y-64410057D01*
X118425274Y-64126932D01*
X118350758Y-63869842D01*
X118416857Y-63662242D01*
X118617408Y-63527586D01*
X118888839Y-63488000D01*
X119064359Y-63539372D01*
X119251369Y-63709985D01*
X119374425Y-63869000D01*
X119544780Y-64079832D01*
X119692912Y-64218194D01*
X119760686Y-64250000D01*
X119863882Y-64296156D01*
X119873333Y-64326905D01*
X119926282Y-64433638D01*
X120067135Y-64631453D01*
X120268900Y-64887040D01*
X120504586Y-65167092D01*
X120747199Y-65438302D01*
X120919557Y-65617957D01*
X121096991Y-65820217D01*
X121208499Y-65995079D01*
X121228000Y-66061866D01*
X121246292Y-66113774D01*
X121317083Y-66150662D01*
X121464239Y-66174996D01*
X121711629Y-66189239D01*
X122083121Y-66195858D01*
X122539776Y-66197333D01*
X123851552Y-66197333D01*
X125104427Y-66197333D01*
X127184183Y-66197333D01*
X127010603Y-66006833D01*
X126796556Y-65694941D01*
X126616277Y-65291617D01*
X126519253Y-64948500D01*
X126458979Y-64739704D01*
X126382802Y-64691638D01*
X126272893Y-64803193D01*
X126193906Y-64928284D01*
X126063286Y-65113740D01*
X125856101Y-65370223D01*
X125613557Y-65647091D01*
X125573865Y-65690284D01*
X125104427Y-66197333D01*
X123851552Y-66197333D01*
X124613623Y-65414167D01*
X124899984Y-65112785D01*
X125137313Y-64849501D01*
X125303118Y-64650268D01*
X125374909Y-64541039D01*
X125376180Y-64534225D01*
X125444530Y-64422568D01*
X125503666Y-64388715D01*
X125616243Y-64278946D01*
X125630666Y-64216371D01*
X125686534Y-64057726D01*
X125755890Y-63967538D01*
X125846630Y-63794730D01*
X125918572Y-63511098D01*
X125965444Y-63174684D01*
X125980972Y-62843532D01*
X125958881Y-62575687D01*
X125918951Y-62458976D01*
X125762846Y-62304828D01*
X125493996Y-62128597D01*
X125162118Y-61955944D01*
X124816930Y-61812529D01*
X124508150Y-61724011D01*
X124487666Y-61720270D01*
X124162264Y-61682872D01*
X123760949Y-61664445D01*
X123327319Y-61663704D01*
X122904972Y-61679363D01*
X122537505Y-61710140D01*
X122268516Y-61754747D01*
X122170775Y-61788543D01*
X121959712Y-61855934D01*
X121744438Y-61879333D01*
X121494646Y-61914101D01*
X121212254Y-61999619D01*
X121167372Y-62018069D01*
X120903148Y-62130775D01*
X120666844Y-62228886D01*
X120635333Y-62241605D01*
X120093726Y-62467201D01*
X119653463Y-62671307D01*
X119492333Y-62752911D01*
X119183457Y-62912751D01*
X118862426Y-63078168D01*
X118815000Y-63102526D01*
X118601135Y-63217673D01*
X118458856Y-63304275D01*
X118434000Y-63324257D01*
X118343790Y-63387226D01*
X118147628Y-63506567D01*
X117887702Y-63656628D01*
X117883666Y-63658906D01*
X117577385Y-63845957D01*
X117293414Y-64043093D01*
X117121666Y-64182703D01*
X116922975Y-64346741D01*
X116749713Y-64455396D01*
X116719500Y-64467593D01*
X116593926Y-64565233D01*
X116571333Y-64636705D01*
X116535461Y-64746085D01*
X116507833Y-64758430D01*
X116404442Y-64822805D01*
X116201061Y-65010230D01*
X115905518Y-65313185D01*
X115692845Y-65541167D01*
X115447924Y-65731195D01*
X115207292Y-65754864D01*
X114969676Y-65625833D01*
X114862418Y-65525922D01*
X114831779Y-65426652D01*
X114873138Y-65267618D01*
X114930806Y-65117833D01*
X115029214Y-64903265D01*
X115114519Y-64774532D01*
X115141544Y-64758000D01*
X115247376Y-64703845D01*
X115361535Y-64605040D01*
X115496205Y-64479862D01*
X115718994Y-64283605D01*
X115987688Y-64053300D01*
X116061293Y-63991207D01*
X116328809Y-63765128D01*
X116556095Y-63570850D01*
X116704067Y-63441848D01*
X116726828Y-63421179D01*
X116867997Y-63320932D01*
X117097777Y-63186523D01*
X117242187Y-63110283D01*
X117490100Y-62971667D01*
X117681454Y-62841561D01*
X117741538Y-62786562D01*
X117862608Y-62696390D01*
X118107703Y-62553539D01*
X118445797Y-62373404D01*
X118845867Y-62171379D01*
X119276888Y-61962859D01*
X119707837Y-61763238D01*
X120107691Y-61587912D01*
X120381333Y-61476649D01*
X120600911Y-61388035D01*
X120867951Y-61275647D01*
X120913372Y-61256069D01*
X121171296Y-61165731D01*
X121400846Y-61119079D01*
X121437027Y-61117333D01*
X121676097Y-61086217D01*
X121862741Y-61032765D01*
X122041128Y-60991751D01*
X122339954Y-60950245D01*
X122710451Y-60914310D01*
X122947372Y-60897915D01*
X123313435Y-60873765D01*
X123613675Y-60848696D01*
X123809607Y-60826227D01*
X123863726Y-60814164D01*
X123975429Y-60812280D01*
X124160441Y-60853738D01*
X124373508Y-60908300D01*
X124679587Y-60975558D01*
X124947974Y-61028642D01*
X125553958Y-61196125D01*
X126070202Y-61447557D01*
X126476561Y-61767597D01*
X126752889Y-62140904D01*
X126871220Y-62493167D01*
X126920417Y-62696913D01*
X126978570Y-62805272D01*
X126992276Y-62810667D01*
X127076955Y-62748335D01*
X127225229Y-62586663D01*
X127367942Y-62408500D01*
X127640806Y-62117317D01*
X127992753Y-61838324D01*
X128386862Y-61591075D01*
X128786210Y-61395127D01*
X129153876Y-61270036D01*
X129452937Y-61235356D01*
X129550074Y-61252733D01*
X129768972Y-61302291D01*
X130024602Y-61335930D01*
X130293234Y-61409298D01*
X130435646Y-61556692D01*
X130436569Y-61748511D01*
X130323619Y-61915619D01*
X130233009Y-61993437D01*
X130124168Y-62040577D01*
X129952888Y-62066255D01*
X129674962Y-62079690D01*
X129516627Y-62083879D01*
X129192603Y-62129234D01*
X128875215Y-62230091D01*
X128809579Y-62261457D01*
X128620583Y-62399661D01*
X128386101Y-62624476D01*
X128136356Y-62899561D01*
X127901572Y-63188573D01*
X127711970Y-63455172D01*
X127597773Y-63663015D01*
X127577999Y-63742382D01*
X127546993Y-63898185D01*
X127520497Y-63940613D01*
X127460821Y-64088851D01*
X127433140Y-64341775D01*
X127438604Y-64637573D01*
X127478365Y-64914431D01*
X127500846Y-64996185D01*
X127714748Y-65439908D01*
X128020206Y-65744505D01*
X128196772Y-65839336D01*
X128414561Y-65896302D01*
X128721311Y-65934548D01*
X129068386Y-65953261D01*
X129407151Y-65951631D01*
X129688974Y-65928844D01*
X129865218Y-65884088D01*
X129888938Y-65867595D01*
X130037547Y-65798505D01*
X130225579Y-65774000D01*
X130385996Y-65738214D01*
X130661547Y-65641193D01*
X131016417Y-65498442D01*
X131414796Y-65325465D01*
X131820869Y-65137768D01*
X132198824Y-64950856D01*
X132488666Y-64794214D01*
X132651371Y-64702756D01*
X132919986Y-64553806D01*
X133251787Y-64370997D01*
X133483500Y-64243899D01*
X133805524Y-64061713D01*
X134063306Y-63904691D01*
X134225865Y-63792407D01*
X134266666Y-63749080D01*
X134336652Y-63677442D01*
X134512940Y-63574510D01*
X134605333Y-63530333D01*
X134810874Y-63424238D01*
X134931093Y-63336250D01*
X134944000Y-63312713D01*
X135009395Y-63231743D01*
X135172861Y-63108075D01*
X135240333Y-63064667D01*
X135430995Y-62910858D01*
X135531432Y-62758267D01*
X135536666Y-62725142D01*
X135612633Y-62517253D01*
X135806473Y-62342968D01*
X136067092Y-62224737D01*
X136343398Y-62185008D01*
X136584297Y-62246231D01*
X136601926Y-62257086D01*
X136800037Y-62459278D01*
X136835915Y-62694752D01*
X136711997Y-62957327D01*
X136430719Y-63240819D01*
X136129333Y-63456202D01*
X135843770Y-63645201D01*
X135510176Y-63875388D01*
X135187951Y-64104986D01*
X134936495Y-64292216D01*
X134900342Y-64320569D01*
X134783212Y-64398251D01*
X134571837Y-64526495D01*
X134392342Y-64631194D01*
X134120405Y-64788877D01*
X133766850Y-64996033D01*
X133395417Y-65215269D01*
X133283996Y-65281391D01*
X132978013Y-65458866D01*
X132724845Y-65597552D01*
X132560705Y-65678012D01*
X132521996Y-65690406D01*
X132412494Y-65726843D01*
X132200219Y-65821042D01*
X131947568Y-65944406D01*
X131448803Y-66197333D01*
X152249231Y-66197333D01*
X152550115Y-65999309D01*
X153451129Y-65429959D01*
X154427328Y-64860885D01*
X154925333Y-64585469D01*
X155294943Y-64378562D01*
X155610716Y-64191417D01*
X155842267Y-64042793D01*
X155959214Y-63951446D01*
X155965201Y-63943500D01*
X156131951Y-63798009D01*
X156417295Y-63678356D01*
X156770695Y-63602148D01*
X156995348Y-63584580D01*
X157307641Y-63604469D01*
X157483520Y-63691145D01*
X157547296Y-63858088D01*
X157548703Y-63891411D01*
X157479672Y-64006139D01*
X157308844Y-64141462D01*
X157093967Y-64261249D01*
X156892793Y-64329366D01*
X156840751Y-64334350D01*
X156726330Y-64373588D01*
X156494499Y-64480482D01*
X156175099Y-64639075D01*
X155797971Y-64833412D01*
X155392957Y-65047536D01*
X154989897Y-65265491D01*
X154618633Y-65471320D01*
X154309005Y-65649069D01*
X154090854Y-65782779D01*
X153994022Y-65856496D01*
X153994000Y-65856529D01*
X153896187Y-65935874D01*
X153715250Y-66045134D01*
X153697666Y-66054636D01*
X153634870Y-66093016D01*
X153616383Y-66123469D01*
X153657909Y-66146940D01*
X153775150Y-66164373D01*
X153983809Y-66176710D01*
X154299590Y-66184896D01*
X154738194Y-66189875D01*
X155315326Y-66192589D01*
X156015729Y-66193943D01*
X158587791Y-66197333D01*
X158607867Y-66183626D01*
X160047666Y-66183626D01*
X161084833Y-66190480D01*
X161481416Y-66189535D01*
X161807995Y-66181969D01*
X162032191Y-66169023D01*
X162121622Y-66151940D01*
X162122000Y-66150680D01*
X162052078Y-66091329D01*
X161878943Y-66003168D01*
X161828386Y-65981346D01*
X161402454Y-65878299D01*
X160925888Y-65879916D01*
X160479283Y-65983849D01*
X160386333Y-66023367D01*
X160047666Y-66183626D01*
X158607867Y-66183626D01*
X159106062Y-65843484D01*
X159383095Y-65665962D01*
X159639738Y-65536202D01*
X159920933Y-65439419D01*
X160271617Y-65360829D01*
X160736730Y-65285645D01*
X160852000Y-65269068D01*
X161203227Y-65233214D01*
X161495543Y-65247225D01*
X161819165Y-65318584D01*
X161966487Y-65361498D01*
X162295039Y-65474072D01*
X162513157Y-65592181D01*
X162677054Y-65751420D01*
X162761168Y-65864682D01*
X162991696Y-66197333D01*
X163710215Y-66197333D01*
X164055806Y-66194352D01*
X164259016Y-66181468D01*
X164346747Y-66152772D01*
X164346190Y-66119496D01*
X165037982Y-66119496D01*
X165067672Y-66144505D01*
X165169708Y-66162960D01*
X165360054Y-66175912D01*
X165654673Y-66184412D01*
X166069529Y-66189509D01*
X166620585Y-66192254D01*
X167323804Y-66193699D01*
X167383606Y-66193784D01*
X169893547Y-66197333D01*
X169925958Y-65857474D01*
X169921112Y-65553897D01*
X169868921Y-65219791D01*
X169847644Y-65137882D01*
X169748738Y-64879077D01*
X169610063Y-64724269D01*
X169424579Y-64627645D01*
X168883612Y-64490895D01*
X168273829Y-64496879D01*
X167610618Y-64641419D01*
X166909368Y-64920337D01*
X166185468Y-65329456D01*
X165766789Y-65620665D01*
X165499033Y-65810928D01*
X165239680Y-65981183D01*
X165131789Y-66045618D01*
X165064676Y-66086884D01*
X165037982Y-66119496D01*
X164346190Y-66119496D01*
X164345903Y-66102353D01*
X164317943Y-66063839D01*
X164257778Y-65947661D01*
X164284606Y-65801940D01*
X164363242Y-65640506D01*
X164476500Y-65455393D01*
X164563711Y-65356040D01*
X164577807Y-65350667D01*
X164645189Y-65280895D01*
X164744818Y-65105691D01*
X164784482Y-65022019D01*
X164873947Y-64779081D01*
X164874813Y-64608183D01*
X164834983Y-64510821D01*
X164777357Y-64275494D01*
X164839496Y-64069453D01*
X164986360Y-63958207D01*
X165128646Y-63890584D01*
X165361024Y-63759302D01*
X165633050Y-63595166D01*
X165894280Y-63428981D01*
X166094269Y-63291549D01*
X166151614Y-63246636D01*
X166285265Y-63156670D01*
X166492743Y-63039075D01*
X166528062Y-63020577D01*
X166685782Y-62929871D01*
X166946867Y-62770106D01*
X167278965Y-62562037D01*
X167649721Y-62326422D01*
X168026783Y-62084017D01*
X168377796Y-61855579D01*
X168670409Y-61661865D01*
X168872266Y-61523631D01*
X168938780Y-61473952D01*
X169049067Y-61394983D01*
X169258640Y-61254705D01*
X169523714Y-61082389D01*
X169544241Y-61069227D01*
X169824767Y-60889452D01*
X170066317Y-60734517D01*
X170217842Y-60637166D01*
X170220461Y-60635479D01*
X170212251Y-60618209D01*
X170125843Y-60602846D01*
X169953569Y-60589291D01*
X169687763Y-60577450D01*
X169320758Y-60567226D01*
X168844886Y-60558523D01*
X168252480Y-60551243D01*
X167535874Y-60545292D01*
X166687400Y-60540572D01*
X165699391Y-60536987D01*
X164564181Y-60534441D01*
X163274102Y-60532838D01*
X161995000Y-60532127D01*
X153613000Y-60529630D01*
X153909333Y-60783112D01*
X154168786Y-61010857D01*
X154442213Y-61259161D01*
X154502000Y-61314880D01*
X154740687Y-61511866D01*
X155050355Y-61732445D01*
X155285166Y-61881138D01*
X155531588Y-62036151D01*
X155706692Y-62163953D01*
X155772000Y-62235889D01*
X155840185Y-62296395D01*
X155889941Y-62302667D01*
X156022586Y-62370576D01*
X156053353Y-62421159D01*
X156148524Y-62524142D01*
X156346614Y-62666006D01*
X156529565Y-62774091D01*
X156960307Y-63008531D01*
X156725987Y-63163107D01*
X156336860Y-63343819D01*
X155967263Y-63366097D01*
X155693289Y-63266384D01*
X155520893Y-63147206D01*
X155435373Y-63054093D01*
X155433333Y-63044316D01*
X155364287Y-62964460D01*
X155242833Y-62900819D01*
X155082876Y-62816852D01*
X154835426Y-62663974D01*
X154549893Y-62472930D01*
X154506426Y-62442597D01*
X154191428Y-62233163D01*
X153985732Y-62129361D01*
X153870446Y-62126191D01*
X153826679Y-62218648D01*
X153824666Y-62262067D01*
X153749905Y-62357855D01*
X153560461Y-62449405D01*
X153489574Y-62471037D01*
X153266271Y-62546717D01*
X153121646Y-62624409D01*
X153103578Y-62643634D01*
X152985218Y-62713362D01*
X152892320Y-62726000D01*
X152694181Y-62760740D01*
X152515394Y-62824677D01*
X152397665Y-62889066D01*
X152338676Y-62975608D01*
X152326170Y-63131017D01*
X152347891Y-63402007D01*
X152352369Y-63446012D01*
X152370583Y-63854396D01*
X152319266Y-64124734D01*
X152188318Y-64277543D01*
X151967639Y-64333339D01*
X151914872Y-64334667D01*
X151771115Y-64325719D01*
X151661501Y-64283917D01*
X151577625Y-64186821D01*
X151511081Y-64011989D01*
X151453461Y-63736983D01*
X151396360Y-63339362D01*
X151331372Y-62796687D01*
X151328109Y-62768333D01*
X151267016Y-62283021D01*
X151197796Y-61806644D01*
X151128418Y-61390072D01*
X151066852Y-61084180D01*
X151059498Y-61053833D01*
X150946463Y-60601731D01*
X151920633Y-60601731D01*
X151959911Y-60690097D01*
X152014571Y-60860616D01*
X152066178Y-61134457D01*
X152097039Y-61388597D01*
X152131064Y-61748309D01*
X152174599Y-61962594D01*
X152260122Y-62053794D01*
X152420113Y-62044250D01*
X152687051Y-61956304D01*
X152841238Y-61900509D01*
X153473827Y-61672993D01*
X153162413Y-61325275D01*
X152984041Y-61137947D01*
X152851687Y-61020690D01*
X152805819Y-60998786D01*
X152729649Y-60953493D01*
X152598011Y-60814586D01*
X152563455Y-60772341D01*
X152337000Y-60574723D01*
X152118824Y-60524667D01*
X151951815Y-60538247D01*
X151920633Y-60601731D01*
X150946463Y-60601731D01*
X150927195Y-60524667D01*
X147918800Y-60524667D01*
X147956917Y-60926833D01*
X147993946Y-61206097D01*
X148042434Y-61437047D01*
X148062130Y-61498333D01*
X148129677Y-61705180D01*
X148210301Y-62002714D01*
X148290875Y-62335199D01*
X148358273Y-62646897D01*
X148399366Y-62882071D01*
X148406000Y-62958381D01*
X148443063Y-63122946D01*
X148538071Y-63369054D01*
X148617312Y-63537151D01*
X148772401Y-63885944D01*
X148817114Y-64129608D01*
X148745701Y-64296160D01*
X148552411Y-64413616D01*
X148428576Y-64456562D01*
X148246524Y-64458069D01*
X148065497Y-64324779D01*
X148047576Y-64305652D01*
X147839074Y-64068280D01*
X147713011Y-63879961D01*
X147631881Y-63670218D01*
X147564883Y-63398634D01*
X147492393Y-63086309D01*
X147421872Y-62800540D01*
X147390870Y-62683667D01*
X147325167Y-62420464D01*
X147242356Y-62051009D01*
X147155047Y-61635751D01*
X147075850Y-61235144D01*
X147017376Y-60909638D01*
X147006731Y-60842167D01*
X146958993Y-60524667D01*
X143639663Y-60526997D01*
X140320333Y-60529328D01*
X140108666Y-60825511D01*
X139536048Y-61583000D01*
X139453582Y-61702960D01*
X139324440Y-61907012D01*
X139263781Y-62006333D01*
X139130497Y-62216801D01*
X139028834Y-62359227D01*
X139002576Y-62387333D01*
X138929461Y-62493875D01*
X138815120Y-62715781D01*
X138678323Y-63010067D01*
X138537840Y-63333748D01*
X138412438Y-63643838D01*
X138320887Y-63897354D01*
X138284349Y-64032215D01*
X138235192Y-64320316D01*
X138193817Y-64556232D01*
X138178643Y-64743691D01*
X138248312Y-64829792D01*
X138369121Y-64862647D01*
X138617611Y-64857300D01*
X138953032Y-64780123D01*
X139316737Y-64645781D01*
X139411240Y-64602065D01*
X139570379Y-64527745D01*
X139816958Y-64415501D01*
X139981666Y-64341496D01*
X140276234Y-64207050D01*
X140549430Y-64077851D01*
X140655628Y-64025536D01*
X140873708Y-63929555D01*
X141177251Y-63813035D01*
X141417628Y-63729176D01*
X141735700Y-63618431D01*
X142026981Y-63508253D01*
X142183000Y-63442679D01*
X142706164Y-63203814D01*
X143105164Y-63026813D01*
X143408377Y-62900021D01*
X143644180Y-62811786D01*
X143840951Y-62750455D01*
X143918666Y-62729944D01*
X144189848Y-62654004D01*
X144414879Y-62577827D01*
X144469000Y-62555130D01*
X144753007Y-62446838D01*
X145110213Y-62344259D01*
X145487213Y-62258927D01*
X145830598Y-62202380D01*
X146086964Y-62186151D01*
X146148035Y-62192471D01*
X146395266Y-62274584D01*
X146513600Y-62425197D01*
X146542036Y-62655773D01*
X146536967Y-62767507D01*
X146499477Y-62843540D01*
X146398454Y-62898032D01*
X146202789Y-62945143D01*
X145881368Y-62999030D01*
X145739000Y-63021242D01*
X145405568Y-63092939D01*
X145024600Y-63203450D01*
X144675401Y-63328013D01*
X144491315Y-63410840D01*
X144302844Y-63477303D01*
X144219021Y-63488000D01*
X144150977Y-63494339D01*
X144055014Y-63519074D01*
X143909921Y-63570783D01*
X143694493Y-63658043D01*
X143387519Y-63789432D01*
X142967793Y-63973528D01*
X142437000Y-64208739D01*
X142217152Y-64297149D01*
X141912467Y-64408585D01*
X141671628Y-64491176D01*
X141354118Y-64603499D01*
X141064249Y-64717771D01*
X140909628Y-64787536D01*
X140615638Y-64929734D01*
X140232266Y-65106467D01*
X139826506Y-65287297D01*
X139516000Y-65420673D01*
X139277796Y-65523415D01*
X139086887Y-65610479D01*
X139070619Y-65618392D01*
X138870047Y-65664259D01*
X138569488Y-65676958D01*
X138234361Y-65659580D01*
X137930086Y-65615216D01*
X137738000Y-65555425D01*
X137472721Y-65334936D01*
X137307607Y-65007031D01*
X137259258Y-64611577D01*
X137275921Y-64445902D01*
X137316598Y-64189221D01*
X137344097Y-64000081D01*
X137349845Y-63951180D01*
X137389144Y-63811405D01*
X137483292Y-63565960D01*
X137614930Y-63253189D01*
X137766698Y-62911436D01*
X137921234Y-62579044D01*
X138061181Y-62294357D01*
X138169178Y-62095717D01*
X138222688Y-62023293D01*
X138321185Y-61893083D01*
X138330666Y-61839848D01*
X138369858Y-61715558D01*
X138394166Y-61695889D01*
X138469310Y-61616094D01*
X138607709Y-61432410D01*
X138780648Y-61183123D01*
X138796333Y-61159667D01*
X138974397Y-60903651D01*
X139124524Y-60707618D01*
X139216090Y-60611380D01*
X139219666Y-60609333D01*
X139146895Y-60603958D01*
X138914407Y-60598171D01*
X138531818Y-60592044D01*
X138008745Y-60585647D01*
X137354804Y-60579052D01*
X136579611Y-60572331D01*
X135692782Y-60565553D01*
X134703933Y-60558791D01*
X133622680Y-60552115D01*
X132458640Y-60545596D01*
X131221428Y-60539305D01*
X129920660Y-60533315D01*
X128565953Y-60527695D01*
X127768493Y-60524667D01*
X125914216Y-60517242D01*
X124219255Y-60509165D01*
X122684536Y-60500448D01*
X121310987Y-60491099D01*
X120099536Y-60481130D01*
X119051110Y-60470551D01*
X118166637Y-60459371D01*
X117447044Y-60447601D01*
X116893258Y-60435251D01*
X116506208Y-60422331D01*
X116286820Y-60408852D01*
X116232650Y-60397667D01*
X116317099Y-60382195D01*
X116569585Y-60367384D01*
X116988812Y-60353251D01*
X117573485Y-60339814D01*
X118322308Y-60327091D01*
X119233986Y-60315100D01*
X120307222Y-60303859D01*
X121540722Y-60293385D01*
X122933191Y-60283698D01*
X124483331Y-60274814D01*
X125440156Y-60270102D01*
X126670017Y-60264181D01*
X127849121Y-60258132D01*
X128966820Y-60252030D01*
X130012469Y-60245948D01*
X130975420Y-60239962D01*
X131845029Y-60234145D01*
X132610648Y-60228573D01*
X133261630Y-60223321D01*
X133787330Y-60218462D01*
X134177102Y-60214071D01*
X134420298Y-60210224D01*
X134506272Y-60206994D01*
X134505205Y-60206602D01*
X134504084Y-60205898D01*
X134990566Y-60205898D01*
X135049536Y-60223114D01*
X135256785Y-60238609D01*
X135591258Y-60251747D01*
X136031906Y-60261893D01*
X136557675Y-60268411D01*
X137136410Y-60270667D01*
X139362686Y-60270667D01*
X139968510Y-59614918D01*
X140350309Y-59201197D01*
X140670866Y-58852548D01*
X140984228Y-58510014D01*
X141344442Y-58114642D01*
X141416731Y-58035179D01*
X141587068Y-57830025D01*
X141696014Y-57664459D01*
X141717333Y-57603801D01*
X141774929Y-57476029D01*
X141886666Y-57349667D01*
X142030354Y-57192819D01*
X142024735Y-57113261D01*
X141868452Y-57105905D01*
X141823166Y-57112015D01*
X141525694Y-57167056D01*
X141214098Y-57240214D01*
X140943369Y-57316943D01*
X140768496Y-57382699D01*
X140743666Y-57397561D01*
X140610864Y-57451727D01*
X140386395Y-57506660D01*
X140320333Y-57518731D01*
X140044627Y-57588789D01*
X139714269Y-57704554D01*
X139534852Y-57780307D01*
X139278451Y-57891364D01*
X139081079Y-57965585D01*
X139004003Y-57984667D01*
X138887156Y-58026770D01*
X138688379Y-58133280D01*
X138584666Y-58196333D01*
X138365533Y-58322890D01*
X138198538Y-58398535D01*
X138155987Y-58408000D01*
X138053386Y-58448425D01*
X137832672Y-58559811D01*
X137521720Y-58727324D01*
X137148407Y-58936128D01*
X136947804Y-59050958D01*
X136547013Y-59278226D01*
X136187929Y-59474623D01*
X135900584Y-59624266D01*
X135715016Y-59711266D01*
X135671581Y-59725982D01*
X135496865Y-59802680D01*
X135297262Y-59943810D01*
X135290581Y-59949589D01*
X135117341Y-60099219D01*
X134995286Y-60202076D01*
X134990566Y-60205898D01*
X134504084Y-60205898D01*
X134362609Y-60117041D01*
X134312785Y-60028594D01*
X134296754Y-59844054D01*
X134341210Y-59674364D01*
X134425745Y-59593726D01*
X134432501Y-59593333D01*
X134527360Y-59539749D01*
X134690322Y-59405245D01*
X134758775Y-59341783D01*
X134981227Y-59166944D01*
X135203986Y-59047719D01*
X135250468Y-59032890D01*
X135401258Y-58972492D01*
X135667520Y-58843444D01*
X136018063Y-58661731D01*
X136421693Y-58443337D01*
X136659639Y-58310774D01*
X137064964Y-58085165D01*
X137420174Y-57892360D01*
X137698515Y-57746493D01*
X137873234Y-57661701D01*
X137917852Y-57646000D01*
X138030546Y-57604021D01*
X138226559Y-57497793D01*
X138330666Y-57434333D01*
X138553930Y-57307350D01*
X138729448Y-57231811D01*
X138775811Y-57222667D01*
X138929225Y-57178300D01*
X139052661Y-57110500D01*
X139216817Y-57033379D01*
X139487747Y-56938343D01*
X139807277Y-56845766D01*
X139812333Y-56844450D01*
X140115996Y-56760687D01*
X140356988Y-56685172D01*
X140486117Y-56633402D01*
X140489666Y-56631088D01*
X140735983Y-56520151D01*
X141092936Y-56435424D01*
X141513023Y-56379867D01*
X141948748Y-56356439D01*
X142352609Y-56368098D01*
X142677109Y-56417803D01*
X142843893Y-56484442D01*
X143037323Y-56702033D01*
X143108983Y-56988941D01*
X143057386Y-57295296D01*
X142881045Y-57571226D01*
X142876429Y-57575898D01*
X142763963Y-57707084D01*
X142599881Y-57918530D01*
X142497550Y-58057177D01*
X142008384Y-58690588D01*
X141415521Y-59378933D01*
X141090079Y-59734010D01*
X140589826Y-60270667D01*
X143771385Y-60270667D01*
X144600158Y-60270014D01*
X145276629Y-60267581D01*
X145817822Y-60262654D01*
X146240764Y-60254522D01*
X146562482Y-60242471D01*
X146800002Y-60225789D01*
X146970351Y-60203763D01*
X147090555Y-60175679D01*
X147177640Y-60140827D01*
X147203248Y-60127012D01*
X147385595Y-60036371D01*
X147515128Y-60038148D01*
X147672797Y-60127012D01*
X147776400Y-60179759D01*
X147919362Y-60218134D01*
X148127584Y-60244276D01*
X148426962Y-60260320D01*
X148843397Y-60268404D01*
X149402786Y-60270666D01*
X149413698Y-60270667D01*
X150935353Y-60270666D01*
X150906426Y-60077875D01*
X151831645Y-60077875D01*
X151886256Y-60202490D01*
X152003617Y-60270063D01*
X152016370Y-60270667D01*
X152092841Y-60239612D01*
X152056471Y-60120089D01*
X152045397Y-60098962D01*
X151946253Y-59983701D01*
X151876783Y-59974673D01*
X151831645Y-60077875D01*
X150906426Y-60077875D01*
X150887714Y-59953167D01*
X150814509Y-59576530D01*
X150690696Y-59072249D01*
X150554399Y-58577333D01*
X150470488Y-58356499D01*
X150348377Y-58105238D01*
X150338033Y-58086465D01*
X150239680Y-57857106D01*
X150250090Y-57686822D01*
X150270290Y-57642965D01*
X150441046Y-57480407D01*
X150684949Y-57424788D01*
X150950268Y-57468680D01*
X151185275Y-57604654D01*
X151325910Y-57794542D01*
X151417299Y-57940255D01*
X151485534Y-57984667D01*
X151602886Y-58049551D01*
X151775428Y-58217780D01*
X151967635Y-58449711D01*
X152143979Y-58705704D01*
X152168867Y-58747130D01*
X152301136Y-58952679D01*
X152500753Y-59239959D01*
X152731256Y-59556923D01*
X152806474Y-59657297D01*
X153269948Y-60270666D01*
X162023613Y-60270666D01*
X163435313Y-60270554D01*
X164687617Y-60270103D01*
X165790461Y-60269144D01*
X166753784Y-60267506D01*
X167587520Y-60265021D01*
X168301609Y-60261519D01*
X168905985Y-60256829D01*
X169410588Y-60250782D01*
X169825352Y-60243208D01*
X170160216Y-60233938D01*
X170425116Y-60222801D01*
X170629990Y-60209628D01*
X170784773Y-60194250D01*
X170899404Y-60176495D01*
X170983819Y-60156195D01*
X171047955Y-60133180D01*
X171085138Y-60115849D01*
X171590364Y-59868839D01*
X171971942Y-59701988D01*
X172252303Y-59609813D01*
X172453877Y-59586832D01*
X172599095Y-59627563D01*
X172704981Y-59719909D01*
X172762770Y-59844773D01*
X172708858Y-59998170D01*
X172673015Y-60055597D01*
X172505474Y-60253557D01*
X172285048Y-60381173D01*
X171957067Y-60468521D01*
X171904604Y-60478320D01*
X171642229Y-60560317D01*
X171330306Y-60705350D01*
X171142604Y-60814888D01*
X170856189Y-60998030D01*
X170581962Y-61170180D01*
X170448266Y-61252257D01*
X170236764Y-61384642D01*
X169951022Y-61569418D01*
X169686266Y-61744385D01*
X169386830Y-61943830D01*
X169010193Y-62193601D01*
X168620691Y-62451062D01*
X168472556Y-62548718D01*
X168161060Y-62755041D01*
X167899306Y-62930581D01*
X167721947Y-63051979D01*
X167668223Y-63090881D01*
X167543433Y-63176809D01*
X167308156Y-63327055D01*
X166997667Y-63519755D01*
X166647242Y-63733047D01*
X166292156Y-63945067D01*
X166248862Y-63970590D01*
X166010861Y-64134364D01*
X165893785Y-64268431D01*
X165888725Y-64319633D01*
X165886619Y-64479788D01*
X165844050Y-64594800D01*
X165797731Y-64699266D01*
X165815157Y-64741764D01*
X165916388Y-64716771D01*
X166121487Y-64618765D01*
X166450511Y-64442223D01*
X166503229Y-64413329D01*
X167136239Y-64124378D01*
X167781677Y-63935982D01*
X168415102Y-63847223D01*
X169012075Y-63857185D01*
X169548154Y-63964948D01*
X169998900Y-64169597D01*
X170339871Y-64470213D01*
X170404796Y-64559794D01*
X170585340Y-64943474D01*
X170685829Y-65384629D01*
X170690311Y-65803555D01*
X170673282Y-65901223D01*
X170642043Y-66095803D01*
X170684627Y-66182511D01*
X170812933Y-66213838D01*
X170994621Y-66269773D01*
X171020995Y-66348825D01*
X170896053Y-66416720D01*
X170787148Y-66434936D01*
X170569805Y-66498153D01*
X170472630Y-66646602D01*
X170407189Y-66787036D01*
X170271881Y-67011223D01*
X170091990Y-67283394D01*
X169892799Y-67567777D01*
X169699593Y-67828604D01*
X169537656Y-68030105D01*
X169432273Y-68136508D01*
X169413716Y-68144667D01*
X169310726Y-68196621D01*
X169185725Y-68298267D01*
X169016201Y-68417198D01*
X168706609Y-68587047D01*
X168251430Y-68810612D01*
X167645143Y-69090687D01*
X167431960Y-69186598D01*
X167200369Y-69277798D01*
X167020890Y-69327137D01*
X166990419Y-69330000D01*
X166842096Y-69355978D01*
X166604748Y-69421808D01*
X166478500Y-69462663D01*
X166203222Y-69523375D01*
X165811498Y-69568829D01*
X165355670Y-69597311D01*
X164888083Y-69607105D01*
X164461080Y-69596496D01*
X164127005Y-69563767D01*
X164027000Y-69543013D01*
X163722445Y-69439517D01*
X163444458Y-69307114D01*
X163236003Y-69170212D01*
X163140043Y-69053217D01*
X163138000Y-69037993D01*
X163197926Y-68882096D01*
X163333156Y-68729274D01*
X163476868Y-68653228D01*
X163487359Y-68652667D01*
X163607854Y-68685489D01*
X163821263Y-68769031D01*
X163953986Y-68827309D01*
X164160460Y-68909332D01*
X164369839Y-68957631D01*
X164630104Y-68977599D01*
X164989236Y-68974628D01*
X165198175Y-68967151D01*
X165775495Y-68933364D01*
X166248618Y-68874757D01*
X166672204Y-68776920D01*
X167100915Y-68625441D01*
X167589414Y-68405909D01*
X167890791Y-68257269D01*
X168132991Y-68144331D01*
X168319751Y-68072950D01*
X168379852Y-68060000D01*
X168500684Y-67997834D01*
X168694057Y-67833122D01*
X168930590Y-67598543D01*
X169180902Y-67326775D01*
X169415611Y-67050497D01*
X169605337Y-66802387D01*
X169720698Y-66615124D01*
X169742000Y-66544983D01*
X169683882Y-66518967D01*
X169504272Y-66497537D01*
X169195282Y-66480470D01*
X168749027Y-66467540D01*
X168157620Y-66458525D01*
X167413175Y-66453199D01*
X166507805Y-66451339D01*
X166445893Y-66451333D01*
X163149786Y-66451333D01*
X163171579Y-66980500D01*
X163173693Y-67267200D01*
X163145404Y-67518901D01*
X163074216Y-67780918D01*
X162947633Y-68098567D01*
X162753158Y-68517161D01*
X162740658Y-68543155D01*
X162548612Y-68863658D01*
X162265006Y-69203940D01*
X161868962Y-69586934D01*
X161507142Y-69898131D01*
X161124469Y-70156766D01*
X160610926Y-70401001D01*
X160076289Y-70598128D01*
X159757515Y-70697075D01*
X159513992Y-70741453D01*
X159267114Y-70737216D01*
X158938274Y-70690319D01*
X158913682Y-70686187D01*
X158331065Y-70530320D01*
X157887041Y-70280105D01*
X157576585Y-69930899D01*
X157394667Y-69478059D01*
X157354140Y-69245540D01*
X157342974Y-68852838D01*
X158094372Y-68852838D01*
X158116635Y-69152695D01*
X158166878Y-69433938D01*
X158236156Y-69649109D01*
X158315524Y-69750754D01*
X158329863Y-69753333D01*
X158448532Y-69801498D01*
X158621428Y-69917866D01*
X158627563Y-69922667D01*
X158931901Y-70058966D01*
X159342249Y-70083739D01*
X159837388Y-69997202D01*
X160123640Y-69907458D01*
X160637279Y-69667066D01*
X161134372Y-69331739D01*
X161581284Y-68933046D01*
X161944380Y-68502554D01*
X162190026Y-68071834D01*
X162245098Y-67916346D01*
X162381893Y-67357558D01*
X162431986Y-66938353D01*
X162395111Y-66661266D01*
X162379392Y-66627005D01*
X162336929Y-66563288D01*
X162271451Y-66517166D01*
X162157884Y-66485807D01*
X161971151Y-66466378D01*
X161686178Y-66456047D01*
X161277890Y-66451980D01*
X160824316Y-66451333D01*
X159363256Y-66451333D01*
X159003749Y-66817644D01*
X158674181Y-67231903D01*
X158389085Y-67735262D01*
X158183869Y-68257909D01*
X158109034Y-68581821D01*
X158094372Y-68852838D01*
X157342974Y-68852838D01*
X157342164Y-68824345D01*
X157387424Y-68364647D01*
G37*
D12*
X142663334Y-72660000D02*
X145163334Y-72660000D01*
D13*
X140392710Y-71923780D02*
G75*
G03*
X140392710Y-71923780I-538516J0D01*
G01*
X140154194Y-71923780D02*
G75*
G03*
X140154194Y-71923780I-300000J0D01*
G01*
X140266505Y-71923780D02*
G75*
G03*
X140266505Y-71923780I-412311J0D01*
G01*
X139954194Y-71923780D02*
G75*
G03*
X139954194Y-71923780I-100000J0D01*
G01*
X140054194Y-71923780D02*
G75*
G03*
X140054194Y-71923780I-200000J0D01*
G01*
X140525014Y-71923780D02*
G75*
G03*
X140525014Y-71923780I-670820J0D01*
G01*
X140654194Y-71923780D02*
G75*
G03*
X140654194Y-71923780I-800000J0D01*
G01*
D14*
X156306667Y-103320005D02*
X156306667Y-102170005D01*
X149006667Y-103320005D02*
X156306667Y-103320005D01*
X149006667Y-97820005D02*
X156306667Y-97820005D01*
X112903325Y-61529994D02*
X112903325Y-60379994D01*
X105603325Y-61529994D02*
X112903325Y-61529994D01*
X105603325Y-56029994D02*
X112903325Y-56029994D01*
X182153326Y-78744997D02*
X182153326Y-77594997D01*
X174853326Y-78744997D02*
X182153326Y-78744997D01*
X174853326Y-73244997D02*
X182153326Y-73244997D01*
X105603325Y-78744997D02*
X112903325Y-78744997D01*
X105603325Y-73244997D02*
X112903325Y-73244997D01*
X112903325Y-78744997D02*
X112903325Y-77594997D01*
X182153326Y-95959999D02*
X182153326Y-94809999D01*
X174853326Y-90459999D02*
X182153326Y-90459999D01*
X174853326Y-95959999D02*
X182153326Y-95959999D01*
X166683340Y-97820005D02*
X173983340Y-97820005D01*
X166683340Y-103320005D02*
X173983340Y-103320005D01*
X173983340Y-103320005D02*
X173983340Y-102170005D01*
X113653321Y-103320005D02*
X120953321Y-103320005D01*
X120953321Y-103320005D02*
X120953321Y-102170005D01*
X113653321Y-97820005D02*
X120953321Y-97820005D01*
X131329994Y-97820005D02*
X138629994Y-97820005D01*
X138629994Y-103320005D02*
X138629994Y-102170005D01*
X131329994Y-103320005D02*
X138629994Y-103320005D01*
X105603325Y-95959999D02*
X112903325Y-95959999D01*
X105603325Y-90459999D02*
X112903325Y-90459999D01*
X112903325Y-95959999D02*
X112903325Y-94809999D01*
X182153326Y-61529994D02*
X182153326Y-60379994D01*
X174853326Y-61529994D02*
X182153326Y-61529994D01*
X174853326Y-56029994D02*
X182153326Y-56029994D01*
%LPC*%
D15*
X108025000Y-70015000D03*
D16*
X110565000Y-70015000D03*
X108025000Y-67475000D03*
X110565000Y-67475000D03*
X108025000Y-64935000D03*
X110565000Y-64935000D03*
D17*
X120180000Y-47875000D03*
X116080000Y-47875000D03*
D16*
X141373334Y-74600000D03*
X141373334Y-77140000D03*
D18*
X143913334Y-74600000D03*
D16*
X143913334Y-77140000D03*
D18*
X146453334Y-74600000D03*
D16*
X146453334Y-77140000D03*
D19*
X150206667Y-98970005D03*
X150206667Y-102170005D03*
X155106667Y-102170005D03*
X155106667Y-98970005D03*
X106803325Y-57179994D03*
X106803325Y-60379994D03*
X111703325Y-60379994D03*
X111703325Y-57179994D03*
X180953326Y-74394997D03*
X180953326Y-77594997D03*
X176053326Y-77594997D03*
X176053326Y-74394997D03*
X111703325Y-74394997D03*
X111703325Y-77594997D03*
X106803325Y-77594997D03*
X106803325Y-74394997D03*
X180953326Y-91609999D03*
X180953326Y-94809999D03*
X176053326Y-94809999D03*
X176053326Y-91609999D03*
X167883340Y-98970005D03*
X167883340Y-102170005D03*
X172783340Y-102170005D03*
X172783340Y-98970005D03*
X114853321Y-98970005D03*
X114853321Y-102170005D03*
X119753321Y-102170005D03*
X119753321Y-98970005D03*
X132529994Y-98970005D03*
X132529994Y-102170005D03*
X137429994Y-102170005D03*
X137429994Y-98970005D03*
X111703325Y-91609999D03*
X111703325Y-94809999D03*
X106803325Y-94809999D03*
X106803325Y-91609999D03*
X180953326Y-57179994D03*
X180953326Y-60379994D03*
X176053326Y-60379994D03*
X176053326Y-57179994D03*
M02*
