G04 #@! TF.GenerationSoftware,KiCad,Pcbnew,(5.99.0-10336-g9846076676)*
G04 #@! TF.CreationDate,2021-04-17T01:38:01-06:00*
G04 #@! TF.ProjectId,yolo-badge,796f6c6f-2d62-4616-9467-652e6b696361,rev?*
G04 #@! TF.SameCoordinates,Original*
G04 #@! TF.FileFunction,Profile,NP*
%FSLAX46Y46*%
G04 Gerber Fmt 4.6, Leading zero omitted, Abs format (unit mm)*
G04 Created by KiCad (PCBNEW (5.99.0-10336-g9846076676)) date 2021-04-17 01:38:01*
%MOMM*%
%LPD*%
G01*
G04 APERTURE LIST*
G04 #@! TA.AperFunction,Profile*
%ADD10C,0.050000*%
G04 #@! TD*
G04 #@! TA.AperFunction,Profile*
%ADD11C,0.250000*%
G04 #@! TD*
G04 APERTURE END LIST*
D10*
X105270000Y-50400000D02*
G75*
G03*
X105270000Y-50400000I-1750000J0D01*
G01*
X185940000Y-50400000D02*
G75*
G03*
X185940000Y-50400000I-1750000J0D01*
G01*
D11*
X100433334Y-46900000D02*
X187433334Y-46900000D01*
X187433334Y-46900000D02*
G75*
G02*
X188933334Y-48400000I0J-1500000D01*
G01*
X188933334Y-139400000D02*
X188933334Y-48400000D01*
X188933334Y-139400000D02*
G75*
G02*
X187433334Y-140900000I-1500000J0D01*
G01*
X180133334Y-140900000D02*
X187433334Y-140900000D01*
X180133334Y-140900000D02*
G75*
G02*
X179933334Y-140700000I0J200000D01*
G01*
X179933334Y-139600000D02*
X179933334Y-140700000D01*
X179733334Y-139400000D02*
G75*
G02*
X179933334Y-139600000I0J-200000D01*
G01*
X177016176Y-139400000D02*
X179733334Y-139400000D01*
X176874755Y-139458579D02*
G75*
G02*
X177016176Y-139400000I141421J-141421D01*
G01*
X175433334Y-140900000D02*
X176874755Y-139458578D01*
X119133334Y-140900000D02*
X175433334Y-140900000D01*
X119133334Y-140900000D02*
G75*
G02*
X118933334Y-140700000I0J200000D01*
G01*
X118933334Y-139600000D02*
X118933334Y-140700000D01*
X118733334Y-139400000D02*
G75*
G02*
X118933334Y-139600000I0J-200000D01*
G01*
X117271538Y-139400000D02*
X118733334Y-139400000D01*
X115933334Y-140900000D02*
X117271538Y-139400000D01*
X108133334Y-140900000D02*
X115933334Y-140900000D01*
X107933333Y-141100000D02*
G75*
G02*
X108133334Y-140899999I200001J0D01*
G01*
X107933334Y-141200000D02*
X107933334Y-141100000D01*
X107933334Y-141200000D02*
G75*
G02*
X107733334Y-141400000I-200000J0D01*
G01*
X107733334Y-141400000D02*
X104933334Y-141400000D01*
X98933334Y-135400000D02*
X104933334Y-141400000D01*
X98933334Y-48400000D02*
X98933334Y-135400000D01*
X98933334Y-48400000D02*
G75*
G02*
X100433334Y-46900000I1500000J0D01*
G01*
M02*
