G04 #@! TF.GenerationSoftware,KiCad,Pcbnew,(5.99.0-10336-g9846076676)*
G04 #@! TF.CreationDate,2021-04-17T01:38:01-06:00*
G04 #@! TF.ProjectId,yolo-badge,796f6c6f-2d62-4616-9467-652e6b696361,rev?*
G04 #@! TF.SameCoordinates,Original*
G04 #@! TF.FileFunction,Legend,Bot*
G04 #@! TF.FilePolarity,Positive*
%FSLAX46Y46*%
G04 Gerber Fmt 4.6, Leading zero omitted, Abs format (unit mm)*
G04 Created by KiCad (PCBNEW (5.99.0-10336-g9846076676)) date 2021-04-17 01:38:01*
%MOMM*%
%LPD*%
G01*
G04 APERTURE LIST*
G04 Aperture macros list*
%AMRoundRect*
0 Rectangle with rounded corners*
0 $1 Rounding radius*
0 $2 $3 $4 $5 $6 $7 $8 $9 X,Y pos of 4 corners*
0 Add a 4 corners polygon primitive as box body*
4,1,4,$2,$3,$4,$5,$6,$7,$8,$9,$2,$3,0*
0 Add four circle primitives for the rounded corners*
1,1,$1+$1,$2,$3*
1,1,$1+$1,$4,$5*
1,1,$1+$1,$6,$7*
1,1,$1+$1,$8,$9*
0 Add four rect primitives between the rounded corners*
20,1,$1+$1,$2,$3,$4,$5,0*
20,1,$1+$1,$4,$5,$6,$7,0*
20,1,$1+$1,$6,$7,$8,$9,0*
20,1,$1+$1,$8,$9,$2,$3,0*%
%AMFreePoly0*
4,1,22,0.500000,-0.750000,0.000000,-0.750000,0.000000,-0.745033,-0.079941,-0.743568,-0.215256,-0.701293,-0.333266,-0.622738,-0.424486,-0.514219,-0.481581,-0.384460,-0.499164,-0.250000,-0.500000,-0.250000,-0.500000,0.250000,-0.499164,0.250000,-0.499963,0.256109,-0.478152,0.396186,-0.417904,0.524511,-0.324060,0.630769,-0.204165,0.706417,-0.067858,0.745374,0.000000,0.744959,0.000000,0.750000,
0.500000,0.750000,0.500000,-0.750000,0.500000,-0.750000,$1*%
%AMFreePoly1*
4,1,20,0.000000,0.744959,0.073905,0.744508,0.209726,0.703889,0.328688,0.626782,0.421226,0.519385,0.479903,0.390333,0.500000,0.250000,0.500000,-0.250000,0.499851,-0.262216,0.476331,-0.402017,0.414519,-0.529596,0.319384,-0.634700,0.198574,-0.708877,0.061801,-0.746166,0.000000,-0.745033,0.000000,-0.750000,-0.500000,-0.750000,-0.500000,0.750000,0.000000,0.750000,0.000000,0.744959,
0.000000,0.744959,$1*%
G04 Aperture macros list end*
%ADD10C,0.150000*%
%ADD11C,0.120000*%
%ADD12RoundRect,0.218750X0.218750X0.256250X-0.218750X0.256250X-0.218750X-0.256250X0.218750X-0.256250X0*%
%ADD13RoundRect,0.218750X-0.256250X0.218750X-0.256250X-0.218750X0.256250X-0.218750X0.256250X0.218750X0*%
%ADD14RoundRect,0.218750X0.256250X-0.218750X0.256250X0.218750X-0.256250X0.218750X-0.256250X-0.218750X0*%
%ADD15RoundRect,0.218750X-0.218750X-0.256250X0.218750X-0.256250X0.218750X0.256250X-0.218750X0.256250X0*%
%ADD16R,1.700000X1.700000*%
%ADD17O,1.700000X1.700000*%
%ADD18R,1.380000X0.450000*%
%ADD19R,1.900000X1.175000*%
%ADD20R,1.900000X2.375000*%
%ADD21R,2.100000X1.475000*%
%ADD22FreePoly0,0.000000*%
%ADD23FreePoly1,0.000000*%
%ADD24R,2.000000X2.000000*%
%ADD25R,1.600000X1.000000*%
%ADD26R,1.060000X0.650000*%
%ADD27R,0.550000X1.500000*%
%ADD28R,1.500000X0.550000*%
%ADD29C,1.700000*%
%ADD30R,2.000000X4.500000*%
G04 APERTURE END LIST*
D10*
X163426190Y-57178571D02*
X163283333Y-57226190D01*
X163235714Y-57273809D01*
X163188095Y-57369047D01*
X163188095Y-57511904D01*
X163235714Y-57607142D01*
X163283333Y-57654761D01*
X163378571Y-57702380D01*
X163759523Y-57702380D01*
X163759523Y-56702380D01*
X163426190Y-56702380D01*
X163330952Y-56750000D01*
X163283333Y-56797619D01*
X163235714Y-56892857D01*
X163235714Y-56988095D01*
X163283333Y-57083333D01*
X163330952Y-57130952D01*
X163426190Y-57178571D01*
X163759523Y-57178571D01*
X162616666Y-57702380D02*
X162711904Y-57654761D01*
X162759523Y-57607142D01*
X162807142Y-57511904D01*
X162807142Y-57226190D01*
X162759523Y-57130952D01*
X162711904Y-57083333D01*
X162616666Y-57035714D01*
X162473809Y-57035714D01*
X162378571Y-57083333D01*
X162330952Y-57130952D01*
X162283333Y-57226190D01*
X162283333Y-57511904D01*
X162330952Y-57607142D01*
X162378571Y-57654761D01*
X162473809Y-57702380D01*
X162616666Y-57702380D01*
X161711904Y-57702380D02*
X161807142Y-57654761D01*
X161854761Y-57607142D01*
X161902380Y-57511904D01*
X161902380Y-57226190D01*
X161854761Y-57130952D01*
X161807142Y-57083333D01*
X161711904Y-57035714D01*
X161569047Y-57035714D01*
X161473809Y-57083333D01*
X161426190Y-57130952D01*
X161378571Y-57226190D01*
X161378571Y-57511904D01*
X161426190Y-57607142D01*
X161473809Y-57654761D01*
X161569047Y-57702380D01*
X161711904Y-57702380D01*
X161092857Y-57035714D02*
X160711904Y-57035714D01*
X160950000Y-56702380D02*
X160950000Y-57559523D01*
X160902380Y-57654761D01*
X160807142Y-57702380D01*
X160711904Y-57702380D01*
X160235714Y-57702380D02*
X160330952Y-57654761D01*
X160378571Y-57559523D01*
X160378571Y-56702380D01*
X159711904Y-57702380D02*
X159807142Y-57654761D01*
X159854761Y-57607142D01*
X159902380Y-57511904D01*
X159902380Y-57226190D01*
X159854761Y-57130952D01*
X159807142Y-57083333D01*
X159711904Y-57035714D01*
X159569047Y-57035714D01*
X159473809Y-57083333D01*
X159426190Y-57130952D01*
X159378571Y-57226190D01*
X159378571Y-57511904D01*
X159426190Y-57607142D01*
X159473809Y-57654761D01*
X159569047Y-57702380D01*
X159711904Y-57702380D01*
X158521428Y-57702380D02*
X158521428Y-57178571D01*
X158569047Y-57083333D01*
X158664285Y-57035714D01*
X158854761Y-57035714D01*
X158950000Y-57083333D01*
X158521428Y-57654761D02*
X158616666Y-57702380D01*
X158854761Y-57702380D01*
X158950000Y-57654761D01*
X158997619Y-57559523D01*
X158997619Y-57464285D01*
X158950000Y-57369047D01*
X158854761Y-57321428D01*
X158616666Y-57321428D01*
X158521428Y-57273809D01*
X157616666Y-57702380D02*
X157616666Y-56702380D01*
X157616666Y-57654761D02*
X157711904Y-57702380D01*
X157902380Y-57702380D01*
X157997619Y-57654761D01*
X158045238Y-57607142D01*
X158092857Y-57511904D01*
X158092857Y-57226190D01*
X158045238Y-57130952D01*
X157997619Y-57083333D01*
X157902380Y-57035714D01*
X157711904Y-57035714D01*
X157616666Y-57083333D01*
X156759523Y-57654761D02*
X156854761Y-57702380D01*
X157045238Y-57702380D01*
X157140476Y-57654761D01*
X157188095Y-57559523D01*
X157188095Y-57178571D01*
X157140476Y-57083333D01*
X157045238Y-57035714D01*
X156854761Y-57035714D01*
X156759523Y-57083333D01*
X156711904Y-57178571D01*
X156711904Y-57273809D01*
X157188095Y-57369047D01*
X156283333Y-57702380D02*
X156283333Y-57035714D01*
X156283333Y-57226190D02*
X156235714Y-57130952D01*
X156188095Y-57083333D01*
X156092857Y-57035714D01*
X155997619Y-57035714D01*
X113948095Y-50062380D02*
X114281428Y-49586190D01*
X114519523Y-50062380D02*
X114519523Y-49062380D01*
X114138571Y-49062380D01*
X114043333Y-49110000D01*
X113995714Y-49157619D01*
X113948095Y-49252857D01*
X113948095Y-49395714D01*
X113995714Y-49490952D01*
X114043333Y-49538571D01*
X114138571Y-49586190D01*
X114519523Y-49586190D01*
X113138571Y-50014761D02*
X113233809Y-50062380D01*
X113424285Y-50062380D01*
X113519523Y-50014761D01*
X113567142Y-49919523D01*
X113567142Y-49538571D01*
X113519523Y-49443333D01*
X113424285Y-49395714D01*
X113233809Y-49395714D01*
X113138571Y-49443333D01*
X113090952Y-49538571D01*
X113090952Y-49633809D01*
X113567142Y-49729047D01*
X112710000Y-50014761D02*
X112614761Y-50062380D01*
X112424285Y-50062380D01*
X112329047Y-50014761D01*
X112281428Y-49919523D01*
X112281428Y-49871904D01*
X112329047Y-49776666D01*
X112424285Y-49729047D01*
X112567142Y-49729047D01*
X112662380Y-49681428D01*
X112710000Y-49586190D01*
X112710000Y-49538571D01*
X112662380Y-49443333D01*
X112567142Y-49395714D01*
X112424285Y-49395714D01*
X112329047Y-49443333D01*
X111471904Y-50014761D02*
X111567142Y-50062380D01*
X111757619Y-50062380D01*
X111852857Y-50014761D01*
X111900476Y-49919523D01*
X111900476Y-49538571D01*
X111852857Y-49443333D01*
X111757619Y-49395714D01*
X111567142Y-49395714D01*
X111471904Y-49443333D01*
X111424285Y-49538571D01*
X111424285Y-49633809D01*
X111900476Y-49729047D01*
X111138571Y-49395714D02*
X110757619Y-49395714D01*
X110995714Y-49062380D02*
X110995714Y-49919523D01*
X110948095Y-50014761D01*
X110852857Y-50062380D01*
X110757619Y-50062380D01*
X177517500Y-53917142D02*
X177565119Y-53964761D01*
X177707976Y-54012380D01*
X177803214Y-54012380D01*
X177946072Y-53964761D01*
X178041310Y-53869523D01*
X178088929Y-53774285D01*
X178136548Y-53583809D01*
X178136548Y-53440952D01*
X178088929Y-53250476D01*
X178041310Y-53155238D01*
X177946072Y-53060000D01*
X177803214Y-53012380D01*
X177707976Y-53012380D01*
X177565119Y-53060000D01*
X177517500Y-53107619D01*
X176565119Y-54012380D02*
X177136548Y-54012380D01*
X176850834Y-54012380D02*
X176850834Y-53012380D01*
X176946072Y-53155238D01*
X177041310Y-53250476D01*
X177136548Y-53298095D01*
X174110000Y-62597142D02*
X174157619Y-62644761D01*
X174300476Y-62692380D01*
X174395714Y-62692380D01*
X174538572Y-62644761D01*
X174633810Y-62549523D01*
X174681429Y-62454285D01*
X174729048Y-62263809D01*
X174729048Y-62120952D01*
X174681429Y-61930476D01*
X174633810Y-61835238D01*
X174538572Y-61740000D01*
X174395714Y-61692380D01*
X174300476Y-61692380D01*
X174157619Y-61740000D01*
X174110000Y-61787619D01*
X173729048Y-61787619D02*
X173681429Y-61740000D01*
X173586191Y-61692380D01*
X173348095Y-61692380D01*
X173252857Y-61740000D01*
X173205238Y-61787619D01*
X173157619Y-61882857D01*
X173157619Y-61978095D01*
X173205238Y-62120952D01*
X173776667Y-62692380D01*
X173157619Y-62692380D01*
X174120000Y-53917142D02*
X174167619Y-53964761D01*
X174310476Y-54012380D01*
X174405714Y-54012380D01*
X174548572Y-53964761D01*
X174643810Y-53869523D01*
X174691429Y-53774285D01*
X174739048Y-53583809D01*
X174739048Y-53440952D01*
X174691429Y-53250476D01*
X174643810Y-53155238D01*
X174548572Y-53060000D01*
X174405714Y-53012380D01*
X174310476Y-53012380D01*
X174167619Y-53060000D01*
X174120000Y-53107619D01*
X173786667Y-53012380D02*
X173167619Y-53012380D01*
X173500953Y-53393333D01*
X173358095Y-53393333D01*
X173262857Y-53440952D01*
X173215238Y-53488571D01*
X173167619Y-53583809D01*
X173167619Y-53821904D01*
X173215238Y-53917142D01*
X173262857Y-53964761D01*
X173358095Y-54012380D01*
X173643810Y-54012380D01*
X173739048Y-53964761D01*
X173786667Y-53917142D01*
X144476666Y-70407142D02*
X144524285Y-70454761D01*
X144667142Y-70502380D01*
X144762380Y-70502380D01*
X144905238Y-70454761D01*
X145000476Y-70359523D01*
X145048095Y-70264285D01*
X145095714Y-70073809D01*
X145095714Y-69930952D01*
X145048095Y-69740476D01*
X145000476Y-69645238D01*
X144905238Y-69550000D01*
X144762380Y-69502380D01*
X144667142Y-69502380D01*
X144524285Y-69550000D01*
X144476666Y-69597619D01*
X143619523Y-69835714D02*
X143619523Y-70502380D01*
X143857619Y-69454761D02*
X144095714Y-70169047D01*
X143476666Y-70169047D01*
X121396666Y-56417142D02*
X121444285Y-56464761D01*
X121587142Y-56512380D01*
X121682380Y-56512380D01*
X121825238Y-56464761D01*
X121920476Y-56369523D01*
X121968095Y-56274285D01*
X122015714Y-56083809D01*
X122015714Y-55940952D01*
X121968095Y-55750476D01*
X121920476Y-55655238D01*
X121825238Y-55560000D01*
X121682380Y-55512380D01*
X121587142Y-55512380D01*
X121444285Y-55560000D01*
X121396666Y-55607619D01*
X120491904Y-55512380D02*
X120968095Y-55512380D01*
X121015714Y-55988571D01*
X120968095Y-55940952D01*
X120872857Y-55893333D01*
X120634761Y-55893333D01*
X120539523Y-55940952D01*
X120491904Y-55988571D01*
X120444285Y-56083809D01*
X120444285Y-56321904D01*
X120491904Y-56417142D01*
X120539523Y-56464761D01*
X120634761Y-56512380D01*
X120872857Y-56512380D01*
X120968095Y-56464761D01*
X121015714Y-56417142D01*
X121366666Y-63507142D02*
X121414285Y-63554761D01*
X121557142Y-63602380D01*
X121652380Y-63602380D01*
X121795238Y-63554761D01*
X121890476Y-63459523D01*
X121938095Y-63364285D01*
X121985714Y-63173809D01*
X121985714Y-63030952D01*
X121938095Y-62840476D01*
X121890476Y-62745238D01*
X121795238Y-62650000D01*
X121652380Y-62602380D01*
X121557142Y-62602380D01*
X121414285Y-62650000D01*
X121366666Y-62697619D01*
X120509523Y-62602380D02*
X120700000Y-62602380D01*
X120795238Y-62650000D01*
X120842857Y-62697619D01*
X120938095Y-62840476D01*
X120985714Y-63030952D01*
X120985714Y-63411904D01*
X120938095Y-63507142D01*
X120890476Y-63554761D01*
X120795238Y-63602380D01*
X120604761Y-63602380D01*
X120509523Y-63554761D01*
X120461904Y-63507142D01*
X120414285Y-63411904D01*
X120414285Y-63173809D01*
X120461904Y-63078571D01*
X120509523Y-63030952D01*
X120604761Y-62983333D01*
X120795238Y-62983333D01*
X120890476Y-63030952D01*
X120938095Y-63078571D01*
X120985714Y-63173809D01*
X162027619Y-51142380D02*
X162027619Y-50142380D01*
X161789524Y-50142380D01*
X161646667Y-50190000D01*
X161551429Y-50285238D01*
X161503810Y-50380476D01*
X161456191Y-50570952D01*
X161456191Y-50713809D01*
X161503810Y-50904285D01*
X161551429Y-50999523D01*
X161646667Y-51094761D01*
X161789524Y-51142380D01*
X162027619Y-51142380D01*
X160503810Y-51142380D02*
X161075238Y-51142380D01*
X160789524Y-51142380D02*
X160789524Y-50142380D01*
X160884762Y-50285238D01*
X160980000Y-50380476D01*
X161075238Y-50428095D01*
X159551429Y-51142380D02*
X160122857Y-51142380D01*
X159837143Y-51142380D02*
X159837143Y-50142380D01*
X159932381Y-50285238D01*
X160027619Y-50380476D01*
X160122857Y-50428095D01*
X109628333Y-71797380D02*
X109628333Y-72511666D01*
X109675952Y-72654523D01*
X109771190Y-72749761D01*
X109914047Y-72797380D01*
X110009285Y-72797380D01*
X108628333Y-72797380D02*
X109199761Y-72797380D01*
X108914047Y-72797380D02*
X108914047Y-71797380D01*
X109009285Y-71940238D01*
X109104523Y-72035476D01*
X109199761Y-72083095D01*
X185353333Y-53492380D02*
X185353333Y-54206666D01*
X185400952Y-54349523D01*
X185496190Y-54444761D01*
X185639047Y-54492380D01*
X185734285Y-54492380D01*
X184924761Y-53587619D02*
X184877142Y-53540000D01*
X184781904Y-53492380D01*
X184543809Y-53492380D01*
X184448571Y-53540000D01*
X184400952Y-53587619D01*
X184353333Y-53682857D01*
X184353333Y-53778095D01*
X184400952Y-53920952D01*
X184972380Y-54492380D01*
X184353333Y-54492380D01*
X160963333Y-55262380D02*
X160963333Y-55976666D01*
X161010952Y-56119523D01*
X161106190Y-56214761D01*
X161249047Y-56262380D01*
X161344285Y-56262380D01*
X160487142Y-56262380D02*
X160487142Y-55262380D01*
X160106190Y-55262380D01*
X160010952Y-55310000D01*
X159963333Y-55357619D01*
X159915714Y-55452857D01*
X159915714Y-55595714D01*
X159963333Y-55690952D01*
X160010952Y-55738571D01*
X160106190Y-55786190D01*
X160487142Y-55786190D01*
X159582380Y-55262380D02*
X158963333Y-55262380D01*
X159296666Y-55643333D01*
X159153809Y-55643333D01*
X159058571Y-55690952D01*
X159010952Y-55738571D01*
X158963333Y-55833809D01*
X158963333Y-56071904D01*
X159010952Y-56167142D01*
X159058571Y-56214761D01*
X159153809Y-56262380D01*
X159439523Y-56262380D01*
X159534761Y-56214761D01*
X159582380Y-56167142D01*
X179470000Y-62482380D02*
X179803334Y-62006190D01*
X180041429Y-62482380D02*
X180041429Y-61482380D01*
X179660476Y-61482380D01*
X179565238Y-61530000D01*
X179517619Y-61577619D01*
X179470000Y-61672857D01*
X179470000Y-61815714D01*
X179517619Y-61910952D01*
X179565238Y-61958571D01*
X179660476Y-62006190D01*
X180041429Y-62006190D01*
X179136667Y-61482380D02*
X178517619Y-61482380D01*
X178850953Y-61863333D01*
X178708095Y-61863333D01*
X178612857Y-61910952D01*
X178565238Y-61958571D01*
X178517619Y-62053809D01*
X178517619Y-62291904D01*
X178565238Y-62387142D01*
X178612857Y-62434761D01*
X178708095Y-62482380D01*
X178993810Y-62482380D01*
X179089048Y-62434761D01*
X179136667Y-62387142D01*
X179456666Y-57912380D02*
X179790000Y-57436190D01*
X180028095Y-57912380D02*
X180028095Y-56912380D01*
X179647142Y-56912380D01*
X179551904Y-56960000D01*
X179504285Y-57007619D01*
X179456666Y-57102857D01*
X179456666Y-57245714D01*
X179504285Y-57340952D01*
X179551904Y-57388571D01*
X179647142Y-57436190D01*
X180028095Y-57436190D01*
X178599523Y-57245714D02*
X178599523Y-57912380D01*
X178837619Y-56864761D02*
X179075714Y-57579047D01*
X178456666Y-57579047D01*
X116566666Y-53412380D02*
X116900000Y-52936190D01*
X117138095Y-53412380D02*
X117138095Y-52412380D01*
X116757142Y-52412380D01*
X116661904Y-52460000D01*
X116614285Y-52507619D01*
X116566666Y-52602857D01*
X116566666Y-52745714D01*
X116614285Y-52840952D01*
X116661904Y-52888571D01*
X116757142Y-52936190D01*
X117138095Y-52936190D01*
X115661904Y-52412380D02*
X116138095Y-52412380D01*
X116185714Y-52888571D01*
X116138095Y-52840952D01*
X116042857Y-52793333D01*
X115804761Y-52793333D01*
X115709523Y-52840952D01*
X115661904Y-52888571D01*
X115614285Y-52983809D01*
X115614285Y-53221904D01*
X115661904Y-53317142D01*
X115709523Y-53364761D01*
X115804761Y-53412380D01*
X116042857Y-53412380D01*
X116138095Y-53364761D01*
X116185714Y-53317142D01*
X156656666Y-51262380D02*
X156990000Y-50786190D01*
X157228095Y-51262380D02*
X157228095Y-50262380D01*
X156847142Y-50262380D01*
X156751904Y-50310000D01*
X156704285Y-50357619D01*
X156656666Y-50452857D01*
X156656666Y-50595714D01*
X156704285Y-50690952D01*
X156751904Y-50738571D01*
X156847142Y-50786190D01*
X157228095Y-50786190D01*
X155799523Y-50262380D02*
X155990000Y-50262380D01*
X156085238Y-50310000D01*
X156132857Y-50357619D01*
X156228095Y-50500476D01*
X156275714Y-50690952D01*
X156275714Y-51071904D01*
X156228095Y-51167142D01*
X156180476Y-51214761D01*
X156085238Y-51262380D01*
X155894761Y-51262380D01*
X155799523Y-51214761D01*
X155751904Y-51167142D01*
X155704285Y-51071904D01*
X155704285Y-50833809D01*
X155751904Y-50738571D01*
X155799523Y-50690952D01*
X155894761Y-50643333D01*
X156085238Y-50643333D01*
X156180476Y-50690952D01*
X156228095Y-50738571D01*
X156275714Y-50833809D01*
X168960000Y-51322380D02*
X169293334Y-50846190D01*
X169531429Y-51322380D02*
X169531429Y-50322380D01*
X169150476Y-50322380D01*
X169055238Y-50370000D01*
X169007619Y-50417619D01*
X168960000Y-50512857D01*
X168960000Y-50655714D01*
X169007619Y-50750952D01*
X169055238Y-50798571D01*
X169150476Y-50846190D01*
X169531429Y-50846190D01*
X168626667Y-50322380D02*
X167960000Y-50322380D01*
X168388572Y-51322380D01*
X128246191Y-48464380D02*
X128579524Y-47988190D01*
X128817619Y-48464380D02*
X128817619Y-47464380D01*
X128436667Y-47464380D01*
X128341429Y-47512000D01*
X128293810Y-47559619D01*
X128246191Y-47654857D01*
X128246191Y-47797714D01*
X128293810Y-47892952D01*
X128341429Y-47940571D01*
X128436667Y-47988190D01*
X128817619Y-47988190D01*
X127912857Y-47464380D02*
X127246191Y-48464380D01*
X127246191Y-47464380D02*
X127912857Y-48464380D01*
X126341429Y-48464380D02*
X126912857Y-48464380D01*
X126627143Y-48464380D02*
X126627143Y-47464380D01*
X126722381Y-47607238D01*
X126817619Y-47702476D01*
X126912857Y-47750095D01*
X114503333Y-48534761D02*
X114360476Y-48582380D01*
X114122380Y-48582380D01*
X114027142Y-48534761D01*
X113979523Y-48487142D01*
X113931904Y-48391904D01*
X113931904Y-48296666D01*
X113979523Y-48201428D01*
X114027142Y-48153809D01*
X114122380Y-48106190D01*
X114312857Y-48058571D01*
X114408095Y-48010952D01*
X114455714Y-47963333D01*
X114503333Y-47868095D01*
X114503333Y-47772857D01*
X114455714Y-47677619D01*
X114408095Y-47630000D01*
X114312857Y-47582380D01*
X114074761Y-47582380D01*
X113931904Y-47630000D01*
X113598571Y-47582380D02*
X113360476Y-48582380D01*
X113170000Y-47868095D01*
X112979523Y-48582380D01*
X112741428Y-47582380D01*
X111836666Y-48582380D02*
X112408095Y-48582380D01*
X112122380Y-48582380D02*
X112122380Y-47582380D01*
X112217619Y-47725238D01*
X112312857Y-47820476D01*
X112408095Y-47868095D01*
X134951429Y-47464380D02*
X134380000Y-47464380D01*
X134665714Y-48464380D02*
X134665714Y-47464380D01*
X134141905Y-47464380D02*
X133475238Y-48464380D01*
X133475238Y-47464380D02*
X134141905Y-48464380D01*
X132570476Y-48464380D02*
X133141905Y-48464380D01*
X132856191Y-48464380D02*
X132856191Y-47464380D01*
X132951429Y-47607238D01*
X133046667Y-47702476D01*
X133141905Y-47750095D01*
X171531904Y-58602380D02*
X171531904Y-59411904D01*
X171484285Y-59507142D01*
X171436666Y-59554761D01*
X171341428Y-59602380D01*
X171150952Y-59602380D01*
X171055714Y-59554761D01*
X171008095Y-59507142D01*
X170960476Y-59411904D01*
X170960476Y-58602380D01*
X169960476Y-59602380D02*
X170531904Y-59602380D01*
X170246190Y-59602380D02*
X170246190Y-58602380D01*
X170341428Y-58745238D01*
X170436666Y-58840476D01*
X170531904Y-58888095D01*
X155391904Y-58992380D02*
X155391904Y-59801904D01*
X155344285Y-59897142D01*
X155296666Y-59944761D01*
X155201428Y-59992380D01*
X155010952Y-59992380D01*
X154915714Y-59944761D01*
X154868095Y-59897142D01*
X154820476Y-59801904D01*
X154820476Y-58992380D01*
X154391904Y-59087619D02*
X154344285Y-59040000D01*
X154249047Y-58992380D01*
X154010952Y-58992380D01*
X153915714Y-59040000D01*
X153868095Y-59087619D01*
X153820476Y-59182857D01*
X153820476Y-59278095D01*
X153868095Y-59420952D01*
X154439523Y-59992380D01*
X153820476Y-59992380D01*
X131169524Y-59536190D02*
X131169524Y-60012380D01*
X131502857Y-59012380D02*
X131169524Y-59536190D01*
X130836191Y-59012380D01*
X129979048Y-60012380D02*
X130550476Y-60012380D01*
X130264762Y-60012380D02*
X130264762Y-59012380D01*
X130360000Y-59155238D01*
X130455238Y-59250476D01*
X130550476Y-59298095D01*
G36*
X187322386Y-105868705D02*
G01*
X187152031Y-106084821D01*
X186930729Y-106177411D01*
X186578950Y-106171612D01*
X186157667Y-106035135D01*
X185683468Y-105771520D01*
X185402758Y-105565521D01*
X185173105Y-105354469D01*
X185049351Y-105185714D01*
X185017991Y-105119914D01*
X184882502Y-104980286D01*
X184691005Y-104981794D01*
X184421531Y-105122214D01*
X184180922Y-105232152D01*
X183891394Y-105284714D01*
X183629233Y-105266587D01*
X183456071Y-105174435D01*
X183450439Y-105167406D01*
X183430141Y-105053753D01*
X183561606Y-104979481D01*
X183830810Y-104952881D01*
X183902574Y-104938510D01*
X184115055Y-104817605D01*
X184381461Y-104595004D01*
X184594785Y-104376444D01*
X185360023Y-104376444D01*
X185395629Y-104573792D01*
X185397035Y-104579984D01*
X185527423Y-104947691D01*
X185752389Y-105251724D01*
X186107654Y-105540586D01*
X186114384Y-105545210D01*
X186414068Y-105729006D01*
X186610249Y-105791931D01*
X186717368Y-105734345D01*
X186749865Y-105556607D01*
X186741973Y-105482711D01*
X186629709Y-105206535D01*
X186392111Y-104858107D01*
X186186502Y-104600257D01*
X186024641Y-104419746D01*
X185896282Y-104323343D01*
X185765061Y-104284544D01*
X185594614Y-104276844D01*
X185542117Y-104276784D01*
X185397766Y-104293985D01*
X185360023Y-104376444D01*
X184594785Y-104376444D01*
X184672838Y-104296475D01*
X184960228Y-103947787D01*
X185066624Y-103821991D01*
X185243733Y-103710450D01*
X185497492Y-103682881D01*
X185730826Y-103706178D01*
X186012785Y-103811860D01*
X186300281Y-104018610D01*
X186616017Y-104343564D01*
X186982698Y-104803860D01*
X186988549Y-104811695D01*
X187238937Y-105219225D01*
X187344746Y-105556607D01*
X187350786Y-105575867D01*
X187322386Y-105868705D01*
G37*
G36*
X181924955Y-101567070D02*
G01*
X182293863Y-101676672D01*
X182675437Y-101825107D01*
X183034117Y-101997111D01*
X183334344Y-102177422D01*
X183540558Y-102350778D01*
X183617198Y-102501917D01*
X183610474Y-102577302D01*
X183522427Y-102700023D01*
X183339658Y-102690669D01*
X183071439Y-102548451D01*
X183052051Y-102535500D01*
X182694058Y-102338584D01*
X182222411Y-102136583D01*
X181686973Y-101951015D01*
X181492415Y-101890894D01*
X181627785Y-102215387D01*
X181691507Y-102354645D01*
X181835074Y-102641190D01*
X182020842Y-102994023D01*
X182224510Y-103366275D01*
X182372941Y-103634484D01*
X182541635Y-103955341D01*
X182638095Y-104176095D01*
X182670948Y-104324629D01*
X182648816Y-104428821D01*
X182580325Y-104516554D01*
X182572909Y-104523576D01*
X182390398Y-104581284D01*
X182131268Y-104522375D01*
X181831292Y-104354585D01*
X181819216Y-104346064D01*
X181639456Y-104236178D01*
X181519292Y-104190881D01*
X181469085Y-104178438D01*
X181296250Y-104103576D01*
X181066178Y-103983517D01*
X180926689Y-103912449D01*
X180576837Y-103766022D01*
X180230014Y-103652972D01*
X179975038Y-103583331D01*
X179636714Y-103477231D01*
X179429160Y-103384880D01*
X179329553Y-103294871D01*
X179315069Y-103195801D01*
X179372822Y-103099408D01*
X179535083Y-103020539D01*
X179537471Y-103020207D01*
X179798780Y-103037910D01*
X180182281Y-103138366D01*
X180667213Y-103314063D01*
X181232815Y-103557490D01*
X181858328Y-103861135D01*
X181891158Y-103853833D01*
X181861551Y-103722340D01*
X181742995Y-103450097D01*
X181536108Y-103038679D01*
X181402480Y-102776097D01*
X181205792Y-102340582D01*
X181104645Y-102016006D01*
X181096877Y-101784584D01*
X181180330Y-101628532D01*
X181352841Y-101530064D01*
X181367379Y-101525409D01*
X181604274Y-101511561D01*
X181924955Y-101567070D01*
G37*
G36*
X179041756Y-103051545D02*
G01*
X178959440Y-103124709D01*
X178662888Y-103250089D01*
X178304361Y-103254652D01*
X177917253Y-103146166D01*
X177534958Y-102932397D01*
X177190871Y-102621110D01*
X177019867Y-102391588D01*
X176956603Y-102204253D01*
X177436531Y-102204253D01*
X177496633Y-102336714D01*
X177694110Y-102514206D01*
X178003827Y-102699004D01*
X178137762Y-102756774D01*
X178395014Y-102823238D01*
X178612537Y-102830473D01*
X178733274Y-102772714D01*
X178742729Y-102750067D01*
X178732023Y-102636223D01*
X178644787Y-102444736D01*
X178468731Y-102146513D01*
X178276854Y-101837811D01*
X177856693Y-101972173D01*
X177699242Y-102029684D01*
X177510260Y-102125553D01*
X177436531Y-102204253D01*
X176956603Y-102204253D01*
X176934664Y-102139290D01*
X177005025Y-101924826D01*
X177235515Y-101737238D01*
X177630701Y-101565571D01*
X177867204Y-101482948D01*
X177440201Y-100969852D01*
X177230026Y-100711248D01*
X177084582Y-100502660D01*
X177056983Y-100427258D01*
X177598578Y-100427258D01*
X177615857Y-100501084D01*
X177725157Y-100638370D01*
X177939872Y-100867714D01*
X177960389Y-100889078D01*
X178180931Y-101102256D01*
X178364014Y-101251926D01*
X178471796Y-101306847D01*
X178660743Y-101265465D01*
X178867622Y-101173434D01*
X178995197Y-101070622D01*
X178997906Y-100997277D01*
X178897254Y-100876296D01*
X178719480Y-100763378D01*
X178515562Y-100688598D01*
X178336483Y-100682031D01*
X178306301Y-100688977D01*
X178137880Y-100676987D01*
X178014671Y-100530365D01*
X178011343Y-100524372D01*
X177882758Y-100380162D01*
X177708940Y-100374686D01*
X177659925Y-100388296D01*
X177598578Y-100427258D01*
X177056983Y-100427258D01*
X177030939Y-100356104D01*
X177057663Y-100237403D01*
X177153320Y-100112381D01*
X177164189Y-100101235D01*
X177332897Y-100008605D01*
X177557551Y-99960202D01*
X177767846Y-99964031D01*
X177893474Y-100028098D01*
X177998132Y-100066945D01*
X178190328Y-100061478D01*
X178350755Y-100067636D01*
X178638658Y-100169892D01*
X178937324Y-100354905D01*
X179203815Y-100588856D01*
X179395196Y-100837924D01*
X179445925Y-100997277D01*
X179468531Y-101068289D01*
X179435564Y-101202628D01*
X179292150Y-101412351D01*
X179088563Y-101581422D01*
X178883961Y-101650881D01*
X178865694Y-101652105D01*
X178795954Y-101725235D01*
X178829871Y-101885853D01*
X178961275Y-102098262D01*
X179001716Y-102152100D01*
X179167363Y-102483529D01*
X179179476Y-102750067D01*
X179181314Y-102790509D01*
X179041756Y-103051545D01*
G37*
G36*
X175947578Y-101903680D02*
G01*
X175816241Y-102012617D01*
X175638253Y-102062364D01*
X175352680Y-102074214D01*
X175286695Y-102073202D01*
X174777672Y-101988036D01*
X174296293Y-101757779D01*
X173817680Y-101371035D01*
X173615753Y-101144560D01*
X173436698Y-100833335D01*
X173418505Y-100736618D01*
X173880531Y-100736618D01*
X173943586Y-100884447D01*
X174125512Y-101081372D01*
X174390542Y-101288043D01*
X174702659Y-101472233D01*
X174817075Y-101526425D01*
X175071685Y-101621889D01*
X175251640Y-101653401D01*
X175319865Y-101612531D01*
X175315912Y-101572748D01*
X175225070Y-101366054D01*
X175045918Y-101136162D01*
X174820837Y-100940171D01*
X174631629Y-100828749D01*
X174365486Y-100717729D01*
X174123828Y-100659357D01*
X173948296Y-100662649D01*
X173880531Y-100736618D01*
X173418505Y-100736618D01*
X173383667Y-100551406D01*
X173466340Y-100327532D01*
X173498194Y-100296876D01*
X173707248Y-100219048D01*
X174010931Y-100211142D01*
X174364432Y-100266970D01*
X174722943Y-100380345D01*
X175041656Y-100545079D01*
X175446865Y-100813931D01*
X175516890Y-99941239D01*
X175527441Y-99813489D01*
X175568582Y-99409702D01*
X175615443Y-99146617D01*
X175676443Y-99001460D01*
X175760002Y-98951456D01*
X175874539Y-98973831D01*
X175936441Y-99014630D01*
X175973757Y-99100676D01*
X175988205Y-99262543D01*
X175982511Y-99531190D01*
X175959400Y-99937573D01*
X175939259Y-100229716D01*
X175910622Y-100580560D01*
X175883684Y-100846006D01*
X175862327Y-100984218D01*
X175866110Y-101076160D01*
X175994824Y-101166792D01*
X176084829Y-101213727D01*
X176161752Y-101375935D01*
X176130416Y-101602442D01*
X176124762Y-101612531D01*
X175991053Y-101851129D01*
X175947578Y-101903680D01*
G37*
G36*
X186575938Y-99185993D02*
G01*
X186781360Y-99343714D01*
X186993192Y-99574152D01*
X187204309Y-99805585D01*
X187208027Y-99809717D01*
X187370146Y-100052283D01*
X187471747Y-100313585D01*
X187472610Y-100317587D01*
X187542842Y-100547614D01*
X187627475Y-100712149D01*
X187679469Y-100805016D01*
X187617698Y-100867372D01*
X187568889Y-100899049D01*
X187511865Y-101037436D01*
X187481859Y-101153492D01*
X187371743Y-101326714D01*
X187233471Y-101412696D01*
X186935909Y-101473073D01*
X186532972Y-101475810D01*
X186054972Y-101421191D01*
X185532225Y-101309498D01*
X185498072Y-101300373D01*
X185129488Y-101181173D01*
X184780686Y-101035593D01*
X184487356Y-100882099D01*
X184285186Y-100739160D01*
X184209865Y-100625243D01*
X184278309Y-100532043D01*
X184448423Y-100497311D01*
X184662416Y-100523528D01*
X184862487Y-100611878D01*
X185023380Y-100696007D01*
X185306333Y-100810360D01*
X185647325Y-100929821D01*
X185992773Y-101036819D01*
X186289095Y-101113785D01*
X186482709Y-101143149D01*
X186492088Y-101106584D01*
X186402458Y-100998404D01*
X186240804Y-100847875D01*
X186041574Y-100684748D01*
X185839214Y-100538770D01*
X185668172Y-100439693D01*
X185574461Y-100386432D01*
X185508744Y-100281519D01*
X185596731Y-100194428D01*
X185828219Y-100144011D01*
X185887432Y-100140370D01*
X186071500Y-100162687D01*
X186251454Y-100261219D01*
X186483186Y-100463204D01*
X186651797Y-100609917D01*
X186828259Y-100729797D01*
X186929500Y-100755514D01*
X186965947Y-100719810D01*
X186984695Y-100556979D01*
X186900626Y-100321051D01*
X186728049Y-100043895D01*
X186481278Y-99757381D01*
X186476486Y-99752553D01*
X186273925Y-99526943D01*
X186142127Y-99338069D01*
X186108219Y-99224670D01*
X186183193Y-99140009D01*
X186359680Y-99115108D01*
X186575938Y-99185993D01*
G37*
G36*
X171829475Y-99221495D02*
G01*
X172030265Y-99349142D01*
X172254933Y-99586565D01*
X172484875Y-99925145D01*
X172545324Y-100037361D01*
X172671070Y-100406764D01*
X172675115Y-100735680D01*
X172555076Y-100988047D01*
X172523900Y-101019631D01*
X172326694Y-101129468D01*
X172053484Y-101152456D01*
X171688573Y-101086055D01*
X171216265Y-100927723D01*
X170620865Y-100674920D01*
X170529385Y-100630336D01*
X170246880Y-100454725D01*
X170015746Y-100258111D01*
X169869464Y-100072501D01*
X169841514Y-99929898D01*
X169905517Y-99846291D01*
X170075746Y-99791073D01*
X170267060Y-99828043D01*
X170407363Y-99954118D01*
X170412677Y-99963459D01*
X170557246Y-100112847D01*
X170770175Y-100243511D01*
X170800838Y-100257309D01*
X171353604Y-100495986D01*
X171768400Y-100650154D01*
X172054043Y-100719022D01*
X172219346Y-100701796D01*
X172273124Y-100597685D01*
X172224192Y-100405895D01*
X172081365Y-100125635D01*
X172025395Y-100037850D01*
X171864986Y-99854535D01*
X171721531Y-99770194D01*
X171703033Y-99767035D01*
X171585666Y-99688676D01*
X171552198Y-99493040D01*
X171573945Y-99330004D01*
X171671167Y-99212242D01*
X171829475Y-99221495D01*
G37*
G36*
X164759514Y-94990293D02*
G01*
X164921313Y-95122523D01*
X165088144Y-95367733D01*
X165244645Y-95692024D01*
X165375451Y-96061490D01*
X165465201Y-96442232D01*
X165498531Y-96800345D01*
X165500942Y-96970622D01*
X165527027Y-97165892D01*
X165602504Y-97281776D01*
X165752531Y-97375214D01*
X165929578Y-97508099D01*
X166006531Y-97676379D01*
X165949140Y-97838869D01*
X165801739Y-97906573D01*
X165625455Y-97840817D01*
X165614646Y-97831802D01*
X165555879Y-97787683D01*
X165511376Y-97787241D01*
X165471552Y-97854930D01*
X165426824Y-98015208D01*
X165367610Y-98292530D01*
X165284325Y-98711351D01*
X165225569Y-99072537D01*
X165184382Y-99626581D01*
X165207038Y-100115815D01*
X165293304Y-100494131D01*
X165386441Y-100623287D01*
X165578336Y-100675693D01*
X165813635Y-100588035D01*
X166003044Y-100499598D01*
X166171927Y-100506433D01*
X166247714Y-100610000D01*
X166209767Y-100775318D01*
X166037447Y-100967402D01*
X165743043Y-101115112D01*
X165420061Y-101114307D01*
X165117820Y-100952381D01*
X164932517Y-100713009D01*
X164795283Y-100305523D01*
X164744248Y-99769675D01*
X164780221Y-99115310D01*
X164904011Y-98352270D01*
X164975453Y-97997268D01*
X165012743Y-97708464D01*
X164985365Y-97502999D01*
X164875455Y-97336512D01*
X164665153Y-97164640D01*
X164336596Y-96943019D01*
X164169908Y-96825152D01*
X163964096Y-96636922D01*
X163907272Y-96500687D01*
X163943350Y-96407732D01*
X164077497Y-96345726D01*
X164306898Y-96413253D01*
X164637391Y-96611197D01*
X164699518Y-96653862D01*
X164911535Y-96794071D01*
X165023640Y-96846478D01*
X165067604Y-96818926D01*
X165075198Y-96719256D01*
X165050450Y-96525073D01*
X164961295Y-96217266D01*
X164830773Y-95896071D01*
X164683880Y-95621272D01*
X164545612Y-95452651D01*
X164492556Y-95409943D01*
X164407049Y-95289437D01*
X164449273Y-95156269D01*
X164523536Y-95067530D01*
X164673149Y-94978898D01*
X164759514Y-94990293D01*
G37*
G36*
X168507132Y-96793049D02*
G01*
X168844294Y-96811732D01*
X169193850Y-96880648D01*
X169523132Y-97016731D01*
X169708906Y-97117744D01*
X170018891Y-97334290D01*
X170190390Y-97536309D01*
X170210457Y-97710727D01*
X170202872Y-97727862D01*
X170075707Y-97826458D01*
X169893756Y-97819590D01*
X169726729Y-97707693D01*
X169638851Y-97623620D01*
X169370790Y-97454665D01*
X169030131Y-97307047D01*
X168679992Y-97210733D01*
X168347786Y-97150357D01*
X168476967Y-97347452D01*
X168618584Y-97504879D01*
X168835311Y-97657383D01*
X168999213Y-97779462D01*
X169038336Y-97953071D01*
X169028978Y-98003894D01*
X168994774Y-98065702D01*
X168911413Y-98102207D01*
X168748880Y-98118181D01*
X168477159Y-98118395D01*
X168066233Y-98107623D01*
X167634354Y-98098083D01*
X167259097Y-98103136D01*
X167008721Y-98131144D01*
X166859392Y-98187626D01*
X166787274Y-98278102D01*
X166768531Y-98408089D01*
X166769380Y-98432574D01*
X166864236Y-98681723D01*
X167096775Y-98926087D01*
X167439348Y-99142920D01*
X167864306Y-99309479D01*
X168014520Y-99351226D01*
X168370672Y-99417674D01*
X168683534Y-99407293D01*
X169032336Y-99320857D01*
X169191802Y-99311818D01*
X169286272Y-99400782D01*
X169274673Y-99551207D01*
X169143937Y-99716735D01*
X169120792Y-99734284D01*
X168836793Y-99846447D01*
X168458096Y-99871074D01*
X168024939Y-99816123D01*
X167577563Y-99689551D01*
X167156206Y-99499318D01*
X166801108Y-99253382D01*
X166670793Y-99127313D01*
X166431929Y-98801260D01*
X166307004Y-98471826D01*
X166299031Y-98168137D01*
X166411026Y-97919324D01*
X166646003Y-97754514D01*
X166654600Y-97751414D01*
X166855634Y-97711059D01*
X167159331Y-97682429D01*
X167503447Y-97671548D01*
X168142673Y-97671548D01*
X168000783Y-97454996D01*
X167912379Y-97250232D01*
X167885212Y-97010496D01*
X167894473Y-96941063D01*
X167928455Y-96850970D01*
X168016226Y-96805245D01*
X168196285Y-96790424D01*
X168507132Y-96793049D01*
G37*
G36*
X182591318Y-97989151D02*
G01*
X182808541Y-98076935D01*
X183032565Y-98200126D01*
X183207770Y-98328502D01*
X183278531Y-98431844D01*
X183278604Y-98433656D01*
X183332273Y-98536814D01*
X183455738Y-98695759D01*
X183556712Y-98878650D01*
X183597104Y-99169446D01*
X183540494Y-99456645D01*
X183391538Y-99669617D01*
X183332583Y-99701226D01*
X183099424Y-99752424D01*
X182769644Y-99774992D01*
X182391938Y-99770448D01*
X182014999Y-99740312D01*
X181687521Y-99686101D01*
X181458198Y-99609334D01*
X181347356Y-99549873D01*
X180799250Y-99243507D01*
X180399042Y-98994322D01*
X180139109Y-98796658D01*
X180011828Y-98644851D01*
X180009578Y-98533240D01*
X180010936Y-98531072D01*
X180156774Y-98440523D01*
X180373611Y-98475761D01*
X180626202Y-98631189D01*
X180868798Y-98808115D01*
X181119531Y-98958306D01*
X181358578Y-99082425D01*
X181627531Y-99225810D01*
X181868210Y-99322200D01*
X182093198Y-99360997D01*
X182115325Y-99360562D01*
X182205623Y-99346743D01*
X182207908Y-99295754D01*
X182109208Y-99182622D01*
X181896555Y-98982374D01*
X181884118Y-98970888D01*
X181647921Y-98725778D01*
X181556882Y-98558972D01*
X181609897Y-98463790D01*
X181805860Y-98433548D01*
X181867537Y-98441441D01*
X182102852Y-98558564D01*
X182393984Y-98805663D01*
X182568401Y-98971816D01*
X182811281Y-99169512D01*
X182972786Y-99242453D01*
X183065392Y-99197930D01*
X183070786Y-99178296D01*
X183028747Y-99040914D01*
X182912828Y-98836804D01*
X182754662Y-98612022D01*
X182585882Y-98412623D01*
X182438120Y-98284663D01*
X182302130Y-98175177D01*
X182282038Y-98058208D01*
X182427265Y-97969341D01*
X182436520Y-97966993D01*
X182591318Y-97989151D01*
G37*
G36*
X159891534Y-92892465D02*
G01*
X159959062Y-92923290D01*
X160020658Y-93003447D01*
X160085761Y-93155915D01*
X160163811Y-93403673D01*
X160264249Y-93769700D01*
X160396515Y-94276975D01*
X160489928Y-94636200D01*
X160599010Y-95049434D01*
X160688204Y-95380161D01*
X160750157Y-95601199D01*
X160777515Y-95685365D01*
X160831379Y-95721364D01*
X161011683Y-95818975D01*
X161272394Y-95948712D01*
X161574847Y-96092635D01*
X161880381Y-96232810D01*
X162150331Y-96351299D01*
X162346036Y-96430164D01*
X162428833Y-96451469D01*
X162413758Y-96370111D01*
X162310662Y-96199638D01*
X162145502Y-95979487D01*
X161946579Y-95747207D01*
X161742188Y-95540349D01*
X161631054Y-95418226D01*
X161548430Y-95232752D01*
X161594430Y-95098556D01*
X161767454Y-95046881D01*
X161774188Y-95047227D01*
X161914139Y-95120540D01*
X162115935Y-95298118D01*
X162349400Y-95545871D01*
X162584359Y-95829711D01*
X162790637Y-96115549D01*
X162938057Y-96369297D01*
X162958052Y-96413994D01*
X163005970Y-96660211D01*
X162922455Y-96825242D01*
X162723996Y-96906073D01*
X162427085Y-96899688D01*
X162048211Y-96803074D01*
X161603865Y-96613214D01*
X161538299Y-96580333D01*
X161264860Y-96446404D01*
X161062477Y-96352370D01*
X160970978Y-96316881D01*
X160953824Y-96394725D01*
X160939640Y-96609179D01*
X160930053Y-96927251D01*
X160926531Y-97315948D01*
X160925211Y-97535777D01*
X160909422Y-97988696D01*
X160875354Y-98281207D01*
X160822460Y-98419085D01*
X160757241Y-98465778D01*
X160591172Y-98498657D01*
X160545519Y-98474326D01*
X160506856Y-98388712D01*
X160486572Y-98216283D01*
X160481888Y-97929632D01*
X160490024Y-97501352D01*
X160494139Y-97337592D01*
X160497641Y-97030095D01*
X160489150Y-96765176D01*
X160463277Y-96508501D01*
X160414634Y-96225735D01*
X160337830Y-95882543D01*
X160227476Y-95444592D01*
X160078184Y-94877548D01*
X159980093Y-94507463D01*
X159839437Y-93971339D01*
X159738322Y-93568886D01*
X159674316Y-93280936D01*
X159644990Y-93088323D01*
X159647913Y-92971878D01*
X159680653Y-92912435D01*
X159740781Y-92890825D01*
X159825865Y-92887881D01*
X159891534Y-92892465D01*
G37*
G36*
X178122525Y-98009329D02*
G01*
X177865890Y-98205961D01*
X177845888Y-98219658D01*
X177672924Y-98301163D01*
X177446655Y-98332045D01*
X177110737Y-98320878D01*
X176860591Y-98297605D01*
X176629840Y-98245463D01*
X176446941Y-98142424D01*
X176242904Y-97959782D01*
X176194588Y-97911140D01*
X175973726Y-97613723D01*
X175918239Y-97352630D01*
X175937069Y-97314117D01*
X176520433Y-97314117D01*
X176529982Y-97497346D01*
X176633044Y-97689093D01*
X176803485Y-97826366D01*
X177025102Y-97893739D01*
X177296582Y-97925548D01*
X177363054Y-97923231D01*
X177626672Y-97848030D01*
X177760145Y-97689319D01*
X177750483Y-97477815D01*
X177584698Y-97244233D01*
X177457253Y-97146009D01*
X177281189Y-97097507D01*
X177016619Y-97114747D01*
X176913336Y-97130974D01*
X176687541Y-97184958D01*
X176561384Y-97242828D01*
X176520433Y-97314117D01*
X175937069Y-97314117D01*
X176028100Y-97127926D01*
X176303281Y-96939678D01*
X176743754Y-96787949D01*
X177117551Y-96692593D01*
X176642041Y-96376872D01*
X176338752Y-96149455D01*
X176192674Y-95972408D01*
X176204192Y-95843800D01*
X176371956Y-95760549D01*
X176401330Y-95754623D01*
X176607697Y-95764287D01*
X176820799Y-95833718D01*
X176982227Y-95937384D01*
X177033569Y-96049752D01*
X177036145Y-96076974D01*
X177127363Y-96194934D01*
X177308736Y-96327630D01*
X177373160Y-96367738D01*
X177539283Y-96496294D01*
X177605865Y-96590922D01*
X177650047Y-96618968D01*
X177820660Y-96635604D01*
X178075594Y-96632060D01*
X178367563Y-96611880D01*
X178649284Y-96578608D01*
X178873471Y-96535788D01*
X178992840Y-96486964D01*
X179002058Y-96463594D01*
X178928931Y-96376052D01*
X178738840Y-96273493D01*
X178576867Y-96210345D01*
X178379285Y-96149347D01*
X178122710Y-96087250D01*
X177771088Y-96015396D01*
X177288365Y-95925126D01*
X177169864Y-95878089D01*
X177097865Y-95774113D01*
X177166809Y-95660740D01*
X177363229Y-95597450D01*
X177654226Y-95587910D01*
X178006794Y-95630339D01*
X178387924Y-95722958D01*
X178764606Y-95863987D01*
X178952449Y-95946066D01*
X179165221Y-96030252D01*
X179277808Y-96062881D01*
X179369823Y-96094932D01*
X179528462Y-96228783D01*
X179664686Y-96408755D01*
X179722531Y-96570916D01*
X179719550Y-96601203D01*
X179638716Y-96713226D01*
X179435788Y-96806093D01*
X179095028Y-96885205D01*
X178600698Y-96955964D01*
X178461711Y-96974801D01*
X178203908Y-97035071D01*
X178113418Y-97109959D01*
X178189177Y-97200099D01*
X178194570Y-97204085D01*
X178254624Y-97324174D01*
X178297623Y-97530464D01*
X178304939Y-97680612D01*
X178302582Y-97689319D01*
X178259316Y-97849168D01*
X178122525Y-98009329D01*
G37*
G36*
X173982432Y-95330411D02*
G01*
X174206923Y-95454539D01*
X174450391Y-95668728D01*
X174678120Y-95935697D01*
X174855397Y-96218166D01*
X174947509Y-96478856D01*
X174963743Y-96746560D01*
X174896912Y-96951422D01*
X174743188Y-97035544D01*
X174460841Y-97075392D01*
X174096303Y-97064798D01*
X173690195Y-97005115D01*
X173283138Y-96897696D01*
X173002466Y-96798244D01*
X172762367Y-96701017D01*
X172630690Y-96632492D01*
X172623048Y-96626645D01*
X172467880Y-96528057D01*
X172254732Y-96411511D01*
X172227266Y-96397075D01*
X172044862Y-96275519D01*
X171952366Y-96168759D01*
X171967726Y-96054133D01*
X172103407Y-96012102D01*
X172335460Y-96051130D01*
X172637078Y-96171125D01*
X172847360Y-96269555D01*
X173178219Y-96411170D01*
X173508094Y-96540181D01*
X173798568Y-96642493D01*
X174011226Y-96704013D01*
X174107654Y-96710647D01*
X174108386Y-96709836D01*
X174061585Y-96658826D01*
X173906020Y-96587210D01*
X173904127Y-96586506D01*
X173628800Y-96449472D01*
X173400091Y-96274687D01*
X173254524Y-96096540D01*
X173228621Y-95949419D01*
X173294004Y-95861580D01*
X173463122Y-95811087D01*
X173659764Y-95862353D01*
X173823008Y-96009247D01*
X173833581Y-96024443D01*
X173959040Y-96147711D01*
X174114925Y-96247375D01*
X174247709Y-96295195D01*
X174303865Y-96262933D01*
X174276323Y-96217690D01*
X174161003Y-96076755D01*
X173986365Y-95881681D01*
X173785247Y-95646460D01*
X173686800Y-95470768D01*
X173714392Y-95366282D01*
X173864251Y-95315519D01*
X173982432Y-95330411D01*
G37*
G36*
X186587531Y-93787973D02*
G01*
X186611747Y-93902324D01*
X186602207Y-93953628D01*
X186659426Y-94069647D01*
X186689191Y-94118802D01*
X186725270Y-94305185D01*
X186744932Y-94578218D01*
X186748179Y-94886865D01*
X186735010Y-95180089D01*
X186705426Y-95406851D01*
X186659426Y-95516115D01*
X186623916Y-95553513D01*
X186614436Y-95690445D01*
X186627137Y-95747159D01*
X186586157Y-95808881D01*
X186510571Y-95877394D01*
X186429727Y-96046121D01*
X186405903Y-96102846D01*
X186265627Y-96329940D01*
X186076265Y-96554121D01*
X185882898Y-96721244D01*
X185681330Y-96804734D01*
X185399330Y-96824881D01*
X185270818Y-96821120D01*
X184748579Y-96731138D01*
X184260809Y-96536771D01*
X183834480Y-96258745D01*
X183496565Y-95917791D01*
X183274035Y-95534635D01*
X183193865Y-95130006D01*
X183258275Y-94811537D01*
X183443045Y-94562620D01*
X183717936Y-94403840D01*
X184052586Y-94340730D01*
X184416633Y-94378819D01*
X184779716Y-94523637D01*
X185111474Y-94780715D01*
X185235801Y-94925857D01*
X185383135Y-95229648D01*
X185364383Y-95515542D01*
X185179169Y-95778005D01*
X184986980Y-95925025D01*
X184798926Y-95967646D01*
X184642521Y-95862448D01*
X184593739Y-95758701D01*
X184674487Y-95640414D01*
X184781829Y-95488711D01*
X184791526Y-95266302D01*
X184687162Y-95040520D01*
X184489091Y-94851508D01*
X184217666Y-94739408D01*
X183967417Y-94751643D01*
X183778830Y-94895681D01*
X183704558Y-95147875D01*
X183723828Y-95247321D01*
X183804110Y-95443757D01*
X183917742Y-95655290D01*
X184032858Y-95824396D01*
X184117596Y-95893548D01*
X184211228Y-95941726D01*
X184361052Y-96064147D01*
X184387933Y-96088316D01*
X184674457Y-96272007D01*
X184998454Y-96380849D01*
X185315301Y-96410118D01*
X185580375Y-96355092D01*
X185749052Y-96211048D01*
X185819789Y-96076458D01*
X185861878Y-95978214D01*
X185875578Y-95940967D01*
X185946236Y-95785276D01*
X186055378Y-95560145D01*
X186076113Y-95515698D01*
X186168311Y-95234972D01*
X186226354Y-94917664D01*
X186246406Y-94613404D01*
X186224633Y-94371822D01*
X186157198Y-94242548D01*
X186110044Y-94195368D01*
X186070632Y-94028877D01*
X186114661Y-93848358D01*
X186229937Y-93738333D01*
X186256694Y-93730689D01*
X186450871Y-93722897D01*
X186587531Y-93787973D01*
G37*
G36*
X170884381Y-92600418D02*
G01*
X171026278Y-92684697D01*
X171072426Y-92816665D01*
X170993036Y-92938759D01*
X170935288Y-92991640D01*
X170963082Y-93078381D01*
X170994473Y-93114318D01*
X171080918Y-93282546D01*
X171168626Y-93522881D01*
X171203842Y-93628324D01*
X171308930Y-93880460D01*
X171408177Y-94048894D01*
X171417029Y-94059792D01*
X171486893Y-94239213D01*
X171436906Y-94390538D01*
X171285146Y-94454214D01*
X171160767Y-94418729D01*
X170972722Y-94291936D01*
X170814415Y-94125138D01*
X170747865Y-93973789D01*
X170741320Y-93929090D01*
X170669201Y-93861548D01*
X170624144Y-93911751D01*
X170555926Y-94088387D01*
X170489988Y-94348381D01*
X170440413Y-94562963D01*
X170376744Y-94777740D01*
X170327506Y-94877548D01*
X170313407Y-94893872D01*
X170260245Y-95034888D01*
X170212950Y-95258548D01*
X170194935Y-95388170D01*
X170202413Y-95549110D01*
X170291588Y-95661897D01*
X170496430Y-95790242D01*
X170717309Y-95944049D01*
X170830279Y-96112072D01*
X170776087Y-96260436D01*
X170697292Y-96307068D01*
X170484483Y-96291849D01*
X170202655Y-96146999D01*
X169868598Y-95879565D01*
X169629376Y-95707261D01*
X169225318Y-95519826D01*
X168778640Y-95399832D01*
X168767368Y-95397873D01*
X168499776Y-95316008D01*
X168392840Y-95192573D01*
X168387431Y-95156425D01*
X168411525Y-95038399D01*
X168525386Y-94982849D01*
X168745929Y-94989752D01*
X169090068Y-95059081D01*
X169574718Y-95190812D01*
X169582858Y-95193011D01*
X169668686Y-95177592D01*
X169726651Y-95057486D01*
X169773163Y-94800407D01*
X169799813Y-94639916D01*
X169849490Y-94445446D01*
X169895670Y-94369548D01*
X169934871Y-94318893D01*
X169999326Y-94142283D01*
X170066484Y-93882714D01*
X170118093Y-93668382D01*
X170185871Y-93435356D01*
X170237616Y-93311214D01*
X170298678Y-93181567D01*
X170361903Y-92973396D01*
X170423624Y-92791134D01*
X170568604Y-92637707D01*
X170814022Y-92592844D01*
X170884381Y-92600418D01*
G37*
G36*
X162105467Y-89914033D02*
G01*
X162284307Y-89988425D01*
X162512012Y-90212783D01*
X162690156Y-90513519D01*
X162799136Y-90901609D01*
X162854455Y-91415866D01*
X162876352Y-91756989D01*
X162904546Y-91997835D01*
X162949660Y-92145146D01*
X163024169Y-92238175D01*
X163140546Y-92316173D01*
X163281340Y-92416102D01*
X163344891Y-92531779D01*
X163247534Y-92607027D01*
X162992971Y-92633881D01*
X162662198Y-92633881D01*
X162586901Y-93278319D01*
X162576136Y-93372383D01*
X162549098Y-93685486D01*
X162557297Y-93906505D01*
X162607817Y-94096239D01*
X162707742Y-94315486D01*
X162785800Y-94461073D01*
X162901634Y-94638821D01*
X162978536Y-94708214D01*
X163003345Y-94715108D01*
X162999511Y-94795071D01*
X162995692Y-94803386D01*
X163044570Y-94888482D01*
X163206181Y-94972687D01*
X163365178Y-95039378D01*
X163461637Y-95135167D01*
X163410087Y-95244436D01*
X163361121Y-95272735D01*
X163201293Y-95300881D01*
X163119025Y-95290776D01*
X162914681Y-95227376D01*
X162695985Y-95129633D01*
X162521686Y-95025544D01*
X162450531Y-94943104D01*
X162448224Y-94928733D01*
X162384407Y-94798884D01*
X162260424Y-94613556D01*
X162182826Y-94494314D01*
X162112905Y-94312846D01*
X162078957Y-94067894D01*
X162069924Y-93706818D01*
X162078030Y-93327226D01*
X162099887Y-92950012D01*
X162130730Y-92660022D01*
X162148270Y-92539322D01*
X162159058Y-92350917D01*
X162115574Y-92256630D01*
X162003730Y-92206105D01*
X161773698Y-92124995D01*
X161522975Y-92011721D01*
X161337587Y-91902286D01*
X161265198Y-91821514D01*
X161319864Y-91742924D01*
X161489672Y-91698377D01*
X161722825Y-91707474D01*
X161965934Y-91773848D01*
X162023204Y-91796543D01*
X162214727Y-91852693D01*
X162316626Y-91850564D01*
X162337154Y-91811985D01*
X162362511Y-91644078D01*
X162361929Y-91423066D01*
X162337823Y-91222751D01*
X162292610Y-91116934D01*
X162282114Y-91107847D01*
X162220608Y-90978104D01*
X162169471Y-90764261D01*
X162092327Y-90516631D01*
X161900828Y-90301103D01*
X161618823Y-90223574D01*
X161478690Y-90191020D01*
X161450220Y-90072714D01*
X161484777Y-90013084D01*
X161643131Y-89932686D01*
X161870885Y-89897561D01*
X162105467Y-89914033D01*
G37*
G36*
X181619687Y-93295898D02*
G01*
X181824020Y-93462034D01*
X181975731Y-93761456D01*
X182061398Y-94173173D01*
X182080085Y-94379769D01*
X182079811Y-94599920D01*
X182034742Y-94743781D01*
X181934785Y-94866628D01*
X181731259Y-94989419D01*
X181381306Y-95049452D01*
X180936676Y-95019986D01*
X180421436Y-94904940D01*
X179859648Y-94708228D01*
X179275379Y-94433770D01*
X179038132Y-94293506D01*
X178869661Y-94164772D01*
X178816729Y-94081171D01*
X178845338Y-94028243D01*
X178999788Y-93967158D01*
X179272387Y-94018562D01*
X179666938Y-94182911D01*
X179887337Y-94285708D01*
X180237043Y-94433948D01*
X180540328Y-94545475D01*
X180761934Y-94607782D01*
X180866601Y-94608367D01*
X180867065Y-94528301D01*
X180746322Y-94404945D01*
X180526865Y-94275644D01*
X180425125Y-94217375D01*
X180295756Y-94079793D01*
X180290877Y-93953899D01*
X180420644Y-93877740D01*
X180449702Y-93875718D01*
X180621678Y-93911549D01*
X180850327Y-93997154D01*
X181081137Y-94107260D01*
X181259598Y-94216595D01*
X181331198Y-94299888D01*
X181344663Y-94331258D01*
X181456081Y-94369548D01*
X181487764Y-94361665D01*
X181538919Y-94256142D01*
X181527836Y-94070116D01*
X181462685Y-93857998D01*
X181351641Y-93674201D01*
X181341398Y-93661894D01*
X181269414Y-93481639D01*
X181322830Y-93331592D01*
X181483116Y-93268881D01*
X181619687Y-93295898D01*
G37*
G36*
X166670168Y-89393743D02*
G01*
X166599198Y-89549253D01*
X166586232Y-89642117D01*
X166526291Y-89712881D01*
X166489100Y-89761739D01*
X166439686Y-89938442D01*
X166399073Y-90199714D01*
X166379023Y-90377817D01*
X166334311Y-90767575D01*
X166294112Y-91109881D01*
X166281642Y-91224017D01*
X166278852Y-91450816D01*
X166337648Y-91613685D01*
X166478316Y-91787214D01*
X166549966Y-91856637D01*
X166812149Y-92052196D01*
X167100683Y-92210548D01*
X167310625Y-92305808D01*
X167712291Y-92518943D01*
X167956290Y-92703528D01*
X168038531Y-92856747D01*
X168048273Y-92931930D01*
X168112007Y-93028992D01*
X168170435Y-93087888D01*
X168244844Y-93248131D01*
X168259479Y-93398781D01*
X168177229Y-93477306D01*
X167983716Y-93483271D01*
X167664831Y-93417098D01*
X167206462Y-93279209D01*
X166762144Y-93148710D01*
X166289929Y-93048359D01*
X165913527Y-93014363D01*
X165652280Y-93048192D01*
X165525528Y-93151318D01*
X165523436Y-93257783D01*
X165592929Y-93472239D01*
X165719669Y-93709503D01*
X165874780Y-93907093D01*
X165970347Y-93980669D01*
X166255678Y-94123544D01*
X166642862Y-94258899D01*
X167088510Y-94370180D01*
X167381498Y-94437471D01*
X167598099Y-94515679D01*
X167683299Y-94601881D01*
X167657531Y-94708214D01*
X167656371Y-94710028D01*
X167524797Y-94770036D01*
X167273725Y-94775187D01*
X166940610Y-94732165D01*
X166562903Y-94647655D01*
X166178058Y-94528340D01*
X165823526Y-94380904D01*
X165610809Y-94256463D01*
X165285766Y-93962166D01*
X165069229Y-93615645D01*
X164990531Y-93256496D01*
X165000472Y-93101443D01*
X165076751Y-92939453D01*
X165268636Y-92807110D01*
X165406853Y-92744468D01*
X165606409Y-92698092D01*
X165875602Y-92685515D01*
X166263470Y-92701533D01*
X166353912Y-92707391D01*
X166717192Y-92736100D01*
X167030476Y-92768332D01*
X167234198Y-92798157D01*
X167272023Y-92805443D01*
X167346956Y-92805954D01*
X167280230Y-92752793D01*
X167064865Y-92639419D01*
X166888151Y-92554162D01*
X166679012Y-92462183D01*
X166567339Y-92425232D01*
X166470736Y-92392816D01*
X166265378Y-92301483D01*
X166001465Y-92172360D01*
X165695722Y-92032417D01*
X165284060Y-91870059D01*
X164890325Y-91737256D01*
X164855550Y-91726796D01*
X164533500Y-91624475D01*
X164263725Y-91529871D01*
X164101531Y-91462265D01*
X164029313Y-91434594D01*
X163793335Y-91388394D01*
X163508865Y-91368203D01*
X163085531Y-91363881D01*
X163087178Y-90322608D01*
X163089413Y-90058119D01*
X163566654Y-90058119D01*
X163568379Y-90397674D01*
X163593531Y-91025214D01*
X163932198Y-91093566D01*
X164138699Y-91139535D01*
X164474836Y-91222425D01*
X164821198Y-91314469D01*
X165103597Y-91395497D01*
X165364050Y-91475728D01*
X165519698Y-91530342D01*
X165547034Y-91541053D01*
X165624718Y-91539348D01*
X165659717Y-91438505D01*
X165667865Y-91203606D01*
X165671648Y-91081587D01*
X165698592Y-90889347D01*
X165742918Y-90813548D01*
X165744347Y-90813517D01*
X165785198Y-90779549D01*
X165823681Y-90666421D01*
X165864034Y-90451746D01*
X165910495Y-90113139D01*
X165967302Y-89628214D01*
X165984020Y-89484783D01*
X165995326Y-89307274D01*
X165962166Y-89185601D01*
X165858147Y-89086179D01*
X165656877Y-88975424D01*
X165331962Y-88819750D01*
X165313546Y-88810763D01*
X165059366Y-88660551D01*
X164849641Y-88497555D01*
X164846109Y-88494180D01*
X164614947Y-88357042D01*
X164285901Y-88313565D01*
X163910913Y-88311250D01*
X163815484Y-88986049D01*
X163802328Y-89074243D01*
X163744746Y-89382615D01*
X163684139Y-89611087D01*
X163631641Y-89715492D01*
X163589622Y-89818655D01*
X163566654Y-90058119D01*
X163089413Y-90058119D01*
X163089479Y-90050350D01*
X163106016Y-89610710D01*
X163138667Y-89335040D01*
X163187719Y-89220216D01*
X163197344Y-89211526D01*
X163252458Y-89076836D01*
X163305224Y-88827764D01*
X163345392Y-88510451D01*
X163404171Y-87861807D01*
X163117851Y-87740811D01*
X162685512Y-87550677D01*
X162315994Y-87365847D01*
X162098450Y-87222890D01*
X162027198Y-87118566D01*
X162050566Y-87020776D01*
X162186708Y-86953908D01*
X162440673Y-87001201D01*
X162808192Y-87162414D01*
X162817884Y-87167404D01*
X163077339Y-87294906D01*
X163269375Y-87378122D01*
X163353048Y-87399253D01*
X163353267Y-87399028D01*
X163366548Y-87298916D01*
X163354854Y-87094466D01*
X163325619Y-86840325D01*
X163286281Y-86591139D01*
X163244275Y-86401553D01*
X163207036Y-86326214D01*
X163171028Y-86304499D01*
X163095603Y-86170568D01*
X163028146Y-85971980D01*
X162989334Y-85776161D01*
X162999842Y-85650536D01*
X163042893Y-85599869D01*
X163194364Y-85568240D01*
X163380706Y-85674236D01*
X163575702Y-85906217D01*
X163672504Y-86072404D01*
X163759290Y-86299486D01*
X163815981Y-86590156D01*
X163856164Y-86997273D01*
X163912710Y-87746326D01*
X164248000Y-87925294D01*
X164345074Y-87973350D01*
X164546959Y-88047742D01*
X164664723Y-88053934D01*
X164668659Y-88051595D01*
X164845948Y-88033637D01*
X165078432Y-88112466D01*
X165302501Y-88266847D01*
X165473674Y-88389479D01*
X165712519Y-88493362D01*
X165940938Y-88550692D01*
X165879216Y-88094620D01*
X165848668Y-87911920D01*
X165794635Y-87703155D01*
X165742679Y-87610325D01*
X165712440Y-87588624D01*
X165667865Y-87462159D01*
X165618802Y-87330693D01*
X165489460Y-87163809D01*
X165392409Y-87058063D01*
X165363056Y-86958818D01*
X165445796Y-86850664D01*
X165565538Y-86783185D01*
X165777894Y-86783801D01*
X165973042Y-86879413D01*
X166079003Y-87047630D01*
X166110100Y-87148057D01*
X166194010Y-87267705D01*
X166197877Y-87270700D01*
X166252381Y-87387051D01*
X166314767Y-87620417D01*
X166372288Y-87923872D01*
X166378216Y-87960743D01*
X166433637Y-88247705D01*
X166489046Y-88450604D01*
X166533271Y-88527548D01*
X166576304Y-88578460D01*
X166599198Y-88736235D01*
X166629399Y-88877031D01*
X166768531Y-89035548D01*
X166871967Y-89106832D01*
X166937865Y-89202154D01*
X166905325Y-89257132D01*
X166813563Y-89307274D01*
X166768531Y-89331881D01*
X166670168Y-89393743D01*
G37*
G36*
X178415828Y-93017553D02*
G01*
X178353754Y-93099548D01*
X178319676Y-93103914D01*
X178310043Y-93154615D01*
X178319888Y-93189755D01*
X178248847Y-93307746D01*
X178085395Y-93459642D01*
X177867255Y-93613106D01*
X177632147Y-93735797D01*
X177619100Y-93741134D01*
X177320572Y-93826358D01*
X177023225Y-93861548D01*
X176762855Y-93901681D01*
X176606169Y-94036237D01*
X176513488Y-94135600D01*
X176310636Y-94184404D01*
X176206136Y-94154397D01*
X176147533Y-94057598D01*
X176148221Y-93846861D01*
X176151298Y-93798481D01*
X176141341Y-93637720D01*
X176078229Y-93489530D01*
X176037630Y-93438214D01*
X176820551Y-93438214D01*
X177065041Y-93432847D01*
X177365257Y-93392859D01*
X177622223Y-93275826D01*
X177750725Y-93099322D01*
X177790664Y-93000668D01*
X177869740Y-92930214D01*
X177886488Y-92921596D01*
X177927938Y-92803651D01*
X177944531Y-92591548D01*
X177942373Y-92515632D01*
X177912883Y-92327993D01*
X177859865Y-92252881D01*
X177802965Y-92194954D01*
X177775198Y-92031032D01*
X177772207Y-91994278D01*
X177714522Y-91801242D01*
X177604811Y-91561087D01*
X177471325Y-91325086D01*
X177342315Y-91144512D01*
X177246031Y-91070639D01*
X177220218Y-91109400D01*
X177193066Y-91275400D01*
X177183226Y-91511546D01*
X177182531Y-91528217D01*
X177175597Y-91713182D01*
X177144357Y-91934073D01*
X177096484Y-92042068D01*
X177069833Y-92065646D01*
X177061439Y-92177773D01*
X177074882Y-92231039D01*
X177023059Y-92367999D01*
X176982173Y-92452565D01*
X176923213Y-92673646D01*
X176877113Y-92956957D01*
X176820551Y-93438214D01*
X176037630Y-93438214D01*
X175937735Y-93311950D01*
X175695631Y-93063022D01*
X175565839Y-92932884D01*
X175373123Y-92721134D01*
X175262778Y-92547224D01*
X175206510Y-92358933D01*
X175176025Y-92104041D01*
X175173967Y-92077059D01*
X175668684Y-92077059D01*
X175745444Y-92211935D01*
X175771250Y-92233434D01*
X175810764Y-92365099D01*
X175842183Y-92487527D01*
X175954335Y-92655048D01*
X176065716Y-92771540D01*
X176203006Y-92850988D01*
X176306783Y-92794799D01*
X176390585Y-92591790D01*
X176467949Y-92230779D01*
X176478213Y-92177969D01*
X176537150Y-91972732D01*
X176599463Y-91865949D01*
X176611865Y-91855441D01*
X176660334Y-91719589D01*
X176672114Y-91511546D01*
X176648312Y-91310254D01*
X176590039Y-91194655D01*
X176575705Y-91188432D01*
X176429682Y-91208794D01*
X176218178Y-91306479D01*
X175994483Y-91452502D01*
X175811886Y-91617881D01*
X175778858Y-91659879D01*
X175682312Y-91870778D01*
X175668684Y-92077059D01*
X175173967Y-92077059D01*
X175163962Y-91945881D01*
X175166551Y-91710047D01*
X175218023Y-91547982D01*
X175332281Y-91396755D01*
X175377635Y-91352727D01*
X175581917Y-91202865D01*
X175857299Y-91037528D01*
X176151239Y-90884738D01*
X176411194Y-90772515D01*
X176584622Y-90728881D01*
X176636906Y-90697092D01*
X176674531Y-90559548D01*
X176675413Y-90541487D01*
X176751171Y-90421018D01*
X176901482Y-90381507D01*
X177058812Y-90424231D01*
X177155624Y-90550464D01*
X177242592Y-90669970D01*
X177443669Y-90759942D01*
X177738472Y-90854835D01*
X178014434Y-91065994D01*
X178151374Y-91367944D01*
X178158849Y-91404845D01*
X178215645Y-91586341D01*
X178275294Y-91660214D01*
X178310993Y-91714495D01*
X178303920Y-91871881D01*
X178298922Y-92012831D01*
X178357995Y-92083548D01*
X178395300Y-92113755D01*
X178437560Y-92285838D01*
X178452531Y-92591548D01*
X178448105Y-92777584D01*
X178415828Y-93017553D01*
G37*
G36*
X174240365Y-91034354D02*
G01*
X174119101Y-91090206D01*
X173849021Y-91137242D01*
X173528902Y-91143546D01*
X173226537Y-91109136D01*
X173009719Y-91034030D01*
X172859304Y-90951507D01*
X172642854Y-90862532D01*
X172516717Y-90860303D01*
X172346411Y-90992804D01*
X172203373Y-91283280D01*
X172091472Y-91725676D01*
X172046885Y-91934993D01*
X171977399Y-92178836D01*
X171915009Y-92316381D01*
X171862510Y-92369796D01*
X171704884Y-92428367D01*
X171564442Y-92363469D01*
X171466550Y-92208796D01*
X171436569Y-91998042D01*
X171499863Y-91764899D01*
X171529367Y-91694643D01*
X171601413Y-91471652D01*
X171673988Y-91196583D01*
X171714741Y-91045630D01*
X171795383Y-90827622D01*
X171867928Y-90716893D01*
X171898772Y-90673807D01*
X171940658Y-90496118D01*
X171952949Y-90243239D01*
X171952612Y-90220881D01*
X172699965Y-90220881D01*
X172734270Y-90366027D01*
X172858491Y-90488496D01*
X173108895Y-90623048D01*
X173373866Y-90730898D01*
X173662832Y-90795597D01*
X173839727Y-90766703D01*
X173892231Y-90654767D01*
X173808027Y-90470342D01*
X173574792Y-90223980D01*
X173368511Y-90055576D01*
X173076616Y-89879973D01*
X172866497Y-89848985D01*
X172740249Y-89962618D01*
X172699965Y-90220881D01*
X171952612Y-90220881D01*
X171951661Y-90157723D01*
X171967054Y-89931898D01*
X172032224Y-89797324D01*
X172171178Y-89693530D01*
X172478617Y-89561062D01*
X172895864Y-89480528D01*
X173280987Y-89499703D01*
X173457573Y-89576397D01*
X173708709Y-89743097D01*
X173964939Y-89958778D01*
X174073849Y-90064470D01*
X174267061Y-90280919D01*
X174362761Y-90458373D01*
X174388531Y-90641274D01*
X174386394Y-90654767D01*
X174354413Y-90856742D01*
X174240365Y-91034354D01*
G37*
G36*
X185062314Y-89543704D02*
G01*
X185260392Y-89602593D01*
X185522031Y-89742855D01*
X185793656Y-89928139D01*
X186021691Y-90122093D01*
X186152561Y-90288365D01*
X186206754Y-90439079D01*
X186241865Y-90641142D01*
X186254994Y-90730914D01*
X186324614Y-90827659D01*
X186327590Y-90828829D01*
X186400223Y-90929230D01*
X186460376Y-91121938D01*
X186475265Y-91303515D01*
X186411488Y-91461865D01*
X186238069Y-91651105D01*
X186115918Y-91758430D01*
X185890467Y-91880929D01*
X185615474Y-91912221D01*
X185524801Y-91908949D01*
X185100681Y-91849232D01*
X184587899Y-91725467D01*
X184033532Y-91551975D01*
X183484660Y-91343076D01*
X182988359Y-91113090D01*
X182913863Y-91072737D01*
X182689869Y-90915030D01*
X182612298Y-90792271D01*
X182663731Y-90714816D01*
X182826748Y-90693018D01*
X183083928Y-90737231D01*
X183417853Y-90857809D01*
X183685678Y-90975823D01*
X183967773Y-91096751D01*
X184190002Y-91184847D01*
X184407532Y-91261642D01*
X184675531Y-91348667D01*
X184879185Y-91409583D01*
X185190582Y-91489575D01*
X185464617Y-91546254D01*
X185659606Y-91571418D01*
X185733865Y-91556868D01*
X185689790Y-91522327D01*
X185522055Y-91424311D01*
X185258241Y-91281814D01*
X184929531Y-91112080D01*
X184671501Y-90975325D01*
X184389052Y-90808406D01*
X184196425Y-90673079D01*
X184125198Y-90589849D01*
X184139285Y-90543871D01*
X184261227Y-90483455D01*
X184467138Y-90483179D01*
X184706684Y-90539380D01*
X184929531Y-90648393D01*
X185031182Y-90713298D01*
X185266775Y-90844464D01*
X185504043Y-90958306D01*
X185693697Y-91032116D01*
X185786448Y-91043187D01*
X185789325Y-91036309D01*
X185775029Y-90922798D01*
X185721574Y-90724575D01*
X185696301Y-90659496D01*
X185516951Y-90392395D01*
X185235694Y-90118512D01*
X184896027Y-89882228D01*
X184852942Y-89847878D01*
X184820517Y-89720602D01*
X184897623Y-89598260D01*
X185054858Y-89543548D01*
X185062314Y-89543704D01*
G37*
G36*
X158790015Y-89882705D02*
G01*
X158957059Y-89923221D01*
X159181570Y-90010661D01*
X159409212Y-90119352D01*
X159585645Y-90223619D01*
X159656531Y-90297789D01*
X159688155Y-90348337D01*
X159824845Y-90414480D01*
X159953313Y-90493863D01*
X160073623Y-90670130D01*
X160147848Y-90821454D01*
X160243976Y-90937320D01*
X160259562Y-90951902D01*
X160312493Y-91095452D01*
X160333865Y-91319489D01*
X160322402Y-91511222D01*
X160256852Y-91647820D01*
X160101031Y-91731141D01*
X159913967Y-91778726D01*
X159509126Y-91808936D01*
X159044277Y-91780604D01*
X158579498Y-91698799D01*
X158174865Y-91568591D01*
X158145327Y-91556485D01*
X157952472Y-91484898D01*
X157663245Y-91383317D01*
X157328198Y-91269595D01*
X157245836Y-91241908D01*
X156859493Y-91103042D01*
X156611134Y-90992284D01*
X156478467Y-90898083D01*
X156439198Y-90808886D01*
X156458449Y-90747924D01*
X156598792Y-90689775D01*
X156859418Y-90709181D01*
X157221663Y-90803680D01*
X157666865Y-90970811D01*
X157725429Y-90994935D01*
X158087207Y-91125762D01*
X158489949Y-91247770D01*
X158893539Y-91351411D01*
X159257864Y-91427138D01*
X159542808Y-91465402D01*
X159708258Y-91456659D01*
X159735647Y-91442778D01*
X159816405Y-91313654D01*
X159803495Y-91149364D01*
X159698865Y-91036930D01*
X159640245Y-91000487D01*
X159571865Y-90865443D01*
X159539190Y-90781768D01*
X159388700Y-90637961D01*
X159164861Y-90501933D01*
X158922168Y-90404728D01*
X158715119Y-90377391D01*
X158550965Y-90373598D01*
X158440792Y-90324846D01*
X158434597Y-90239901D01*
X158511069Y-90084382D01*
X158641599Y-89943555D01*
X158776978Y-89882214D01*
X158790015Y-89882705D01*
G37*
G36*
X169196764Y-88361245D02*
G01*
X169496326Y-88482754D01*
X169879062Y-88703275D01*
X170121741Y-88858505D01*
X170323008Y-89005231D01*
X170436794Y-89132675D01*
X170495047Y-89279111D01*
X170529714Y-89482819D01*
X170544607Y-89614952D01*
X170553602Y-89843082D01*
X170534485Y-89969652D01*
X170492332Y-90011762D01*
X170300515Y-90047604D01*
X170000336Y-89989324D01*
X169612799Y-89839881D01*
X169492165Y-89787806D01*
X169084382Y-89662282D01*
X168746031Y-89636486D01*
X168496689Y-89706175D01*
X168355930Y-89867107D01*
X168343330Y-90115038D01*
X168402505Y-90287239D01*
X168618509Y-90541311D01*
X168955334Y-90705657D01*
X169391005Y-90766610D01*
X169556733Y-90764923D01*
X169907726Y-90745326D01*
X170197531Y-90710398D01*
X170253218Y-90701300D01*
X170542688Y-90692637D01*
X170701779Y-90751885D01*
X170721933Y-90852132D01*
X170594595Y-90966464D01*
X170311209Y-91067970D01*
X170246345Y-91081829D01*
X169872384Y-91127492D01*
X169442347Y-91140293D01*
X169030304Y-91120257D01*
X168710322Y-91067410D01*
X168453502Y-90965712D01*
X168152433Y-90748485D01*
X167935264Y-90473531D01*
X167812965Y-90171809D01*
X167796507Y-89874278D01*
X167896859Y-89611895D01*
X168124994Y-89415619D01*
X168339745Y-89345566D01*
X168681436Y-89301640D01*
X169057358Y-89298855D01*
X169401336Y-89337171D01*
X169647198Y-89416548D01*
X169761740Y-89479224D01*
X169901422Y-89530327D01*
X169921536Y-89470081D01*
X169833760Y-89290604D01*
X169708639Y-89131272D01*
X169500992Y-88970409D01*
X169185400Y-88793139D01*
X168735091Y-88582199D01*
X168608171Y-88504152D01*
X168581438Y-88411162D01*
X168698489Y-88344583D01*
X168944909Y-88322275D01*
X169196764Y-88361245D01*
G37*
G36*
X180681482Y-88178423D02*
G01*
X181096672Y-88314225D01*
X181206543Y-88354201D01*
X181553539Y-88515980D01*
X181858383Y-88701045D01*
X181986701Y-88790009D01*
X182157424Y-88892680D01*
X182238525Y-88918443D01*
X182238078Y-88879106D01*
X182187014Y-88722471D01*
X182088827Y-88494829D01*
X182035740Y-88373585D01*
X181957210Y-88085676D01*
X181996815Y-87909967D01*
X182154041Y-87851511D01*
X182164779Y-87851785D01*
X182329223Y-87887333D01*
X182470702Y-87958023D01*
X182517811Y-88029014D01*
X182534984Y-88121767D01*
X182595246Y-88300226D01*
X182657986Y-88487418D01*
X182685865Y-88617726D01*
X182688285Y-88636492D01*
X182770531Y-88696881D01*
X182771053Y-88696886D01*
X182830499Y-88771433D01*
X182855198Y-88948929D01*
X182822252Y-89136584D01*
X182653931Y-89332852D01*
X182610918Y-89358666D01*
X182445314Y-89408129D01*
X182247724Y-89376191D01*
X181985884Y-89253334D01*
X181627531Y-89030040D01*
X181359397Y-88870012D01*
X181025761Y-88715931D01*
X180740956Y-88632210D01*
X180548154Y-88634662D01*
X180515148Y-88657320D01*
X180426355Y-88815322D01*
X180363263Y-89069174D01*
X180343184Y-89184696D01*
X180289588Y-89394739D01*
X180237254Y-89497060D01*
X180207798Y-89534938D01*
X180135217Y-89700884D01*
X180057913Y-89943533D01*
X180016400Y-90079710D01*
X179930019Y-90297895D01*
X179855799Y-90412147D01*
X179751072Y-90447675D01*
X179553198Y-90454480D01*
X179469474Y-90440894D01*
X179371024Y-90366607D01*
X179359407Y-90185579D01*
X179393505Y-90001692D01*
X179455883Y-89889245D01*
X179484310Y-89857096D01*
X179562771Y-89695992D01*
X179643331Y-89458881D01*
X179677154Y-89345635D01*
X179753657Y-89121062D01*
X179810982Y-88993214D01*
X179818356Y-88980988D01*
X179873303Y-88827222D01*
X179925152Y-88600871D01*
X179940657Y-88499788D01*
X179934083Y-88323999D01*
X179851525Y-88243695D01*
X179738782Y-88140715D01*
X179746762Y-88000163D01*
X179878309Y-87896850D01*
X179984894Y-87841833D01*
X180123061Y-87656019D01*
X180209512Y-87340019D01*
X180250554Y-86876548D01*
X180256286Y-86733538D01*
X180273964Y-86481548D01*
X180308201Y-86347171D01*
X180373542Y-86293563D01*
X180484531Y-86283881D01*
X180696198Y-86283881D01*
X180681482Y-88178423D01*
G37*
G36*
X176944758Y-87525738D02*
G01*
X177281228Y-87741030D01*
X177669520Y-88078909D01*
X177724936Y-88132841D01*
X177948551Y-88364644D01*
X178079357Y-88546248D01*
X178146860Y-88728703D01*
X178180569Y-88963060D01*
X178192222Y-89129813D01*
X178176293Y-89355486D01*
X178104333Y-89466564D01*
X178023761Y-89498662D01*
X177776608Y-89533509D01*
X177452046Y-89536460D01*
X177107784Y-89508264D01*
X176801531Y-89449667D01*
X176529691Y-89363983D01*
X175917977Y-89103687D01*
X175362198Y-88781957D01*
X175260298Y-88715090D01*
X175020490Y-88575425D01*
X174840677Y-88493534D01*
X174798093Y-88478792D01*
X174601395Y-88362107D01*
X174504742Y-88219041D01*
X174538321Y-88089891D01*
X174581158Y-88057622D01*
X174721416Y-88035124D01*
X174933863Y-88093524D01*
X175239301Y-88240105D01*
X175658531Y-88482153D01*
X175691425Y-88501826D01*
X176077351Y-88707730D01*
X176502676Y-88898686D01*
X176921045Y-89056996D01*
X177286102Y-89164960D01*
X177551493Y-89204881D01*
X177582842Y-89201364D01*
X177674296Y-89113696D01*
X177678354Y-88957388D01*
X177588931Y-88798481D01*
X177543698Y-88743647D01*
X177547625Y-88696881D01*
X177550421Y-88696704D01*
X177538443Y-88641158D01*
X177432065Y-88508232D01*
X177262946Y-88329777D01*
X177062741Y-88137642D01*
X176863106Y-87963679D01*
X176695698Y-87839736D01*
X176677399Y-87828138D01*
X176474644Y-87667720D01*
X176432634Y-87545995D01*
X176549052Y-87456915D01*
X176674638Y-87441097D01*
X176944758Y-87525738D01*
G37*
G36*
X172973689Y-84492746D02*
G01*
X173214672Y-84590063D01*
X173467505Y-84746849D01*
X173668865Y-84928607D01*
X173681190Y-84940233D01*
X173825685Y-85021047D01*
X174076756Y-85127584D01*
X174388531Y-85239995D01*
X174689606Y-85350680D01*
X174949392Y-85481408D01*
X175050906Y-85592397D01*
X175054225Y-85643377D01*
X174988562Y-85714193D01*
X174791794Y-85733548D01*
X174752992Y-85731916D01*
X174496466Y-85684920D01*
X174164542Y-85588680D01*
X173817466Y-85464359D01*
X173515486Y-85333120D01*
X173318848Y-85216128D01*
X173248637Y-85167371D01*
X173168685Y-85149982D01*
X173151242Y-85231572D01*
X173122719Y-85450053D01*
X173088010Y-85770083D01*
X173051174Y-86156881D01*
X172993889Y-86655464D01*
X172886873Y-87197121D01*
X172747116Y-87574015D01*
X172574831Y-87785418D01*
X172551576Y-87800369D01*
X172357636Y-87852335D01*
X172219358Y-87775371D01*
X172166323Y-87604511D01*
X172228112Y-87374790D01*
X172318092Y-87164134D01*
X172356010Y-86999314D01*
X172363922Y-86939558D01*
X172449923Y-86774689D01*
X172478995Y-86721319D01*
X172513596Y-86522594D01*
X172513423Y-86249703D01*
X172506622Y-86088647D01*
X172514877Y-85894070D01*
X172543470Y-85818162D01*
X172550720Y-85813587D01*
X172581819Y-85701883D01*
X172609375Y-85471136D01*
X172628137Y-85162048D01*
X172634883Y-84997821D01*
X172653923Y-84728913D01*
X172687363Y-84577019D01*
X172746646Y-84505782D01*
X172843219Y-84478845D01*
X172973689Y-84492746D01*
G37*
G36*
X161565273Y-85588859D02*
G01*
X161387602Y-85699933D01*
X161114656Y-85728530D01*
X160691008Y-85650104D01*
X160274755Y-85441520D01*
X160074439Y-85316449D01*
X159968232Y-85288430D01*
X159925490Y-85350818D01*
X159905056Y-85410485D01*
X159830552Y-85479548D01*
X159809074Y-85507838D01*
X159762177Y-85668423D01*
X159708702Y-85939246D01*
X159656531Y-86283881D01*
X159626010Y-86494901D01*
X159570871Y-86800230D01*
X159518247Y-87010146D01*
X159476303Y-87088214D01*
X159461900Y-87094467D01*
X159419563Y-87205935D01*
X159402531Y-87412770D01*
X159401701Y-87467395D01*
X159381426Y-87680478D01*
X159342516Y-87797341D01*
X159277919Y-87826955D01*
X159109682Y-87832619D01*
X159082632Y-87828031D01*
X159004599Y-87791145D01*
X158962423Y-87696069D01*
X158946954Y-87505825D01*
X158949041Y-87183434D01*
X158950014Y-87142216D01*
X158968185Y-86838484D01*
X159000433Y-86610919D01*
X159040472Y-86506101D01*
X159055649Y-86486229D01*
X159107308Y-86333173D01*
X159165067Y-86069721D01*
X159219034Y-85738397D01*
X159237470Y-85613587D01*
X159293863Y-85302803D01*
X159350437Y-85075788D01*
X159397333Y-84974760D01*
X159426034Y-84932342D01*
X159448412Y-84848664D01*
X160292585Y-84848664D01*
X160362769Y-84986119D01*
X160585537Y-85166955D01*
X160770184Y-85263555D01*
X160960129Y-85310214D01*
X160970562Y-85310187D01*
X161062427Y-85297226D01*
X161047792Y-85236034D01*
X160920123Y-85090773D01*
X160907232Y-85077092D01*
X160662448Y-84857676D01*
X160461049Y-84752107D01*
X160328301Y-84773912D01*
X160292585Y-84848664D01*
X159448412Y-84848664D01*
X159472927Y-84756996D01*
X159502928Y-84504244D01*
X159514104Y-84355036D01*
X159547977Y-84171880D01*
X159620088Y-84087739D01*
X159756670Y-84056307D01*
X159923578Y-84066325D01*
X160071069Y-84193113D01*
X160081703Y-84211059D01*
X160245433Y-84332948D01*
X160551812Y-84400511D01*
X160776621Y-84441491D01*
X161019898Y-84554521D01*
X161271794Y-84771705D01*
X161358407Y-84864669D01*
X161547332Y-85144427D01*
X161590102Y-85297226D01*
X161617402Y-85394757D01*
X161565273Y-85588859D01*
G37*
G36*
X183862418Y-83689279D02*
G01*
X184282878Y-83805790D01*
X184716316Y-83976545D01*
X185134745Y-84197168D01*
X185186424Y-84229287D01*
X185445623Y-84424781D01*
X185555065Y-84573181D01*
X185528694Y-84663611D01*
X185380456Y-84685198D01*
X185124296Y-84627068D01*
X184774160Y-84478346D01*
X184620652Y-84402045D01*
X184215245Y-84211326D01*
X183886242Y-84072780D01*
X183657733Y-83996035D01*
X183553808Y-83990715D01*
X183537530Y-84101968D01*
X183580134Y-84302020D01*
X183663873Y-84525112D01*
X183769403Y-84706977D01*
X183820435Y-84770065D01*
X183994993Y-84975777D01*
X184194785Y-85202175D01*
X184272773Y-85292879D01*
X184465219Y-85548813D01*
X184600217Y-85772001D01*
X184608583Y-85789312D01*
X184740174Y-86053099D01*
X184881665Y-86326214D01*
X184920434Y-86402721D01*
X184983020Y-86589707D01*
X184941899Y-86684751D01*
X184889897Y-86710181D01*
X184637982Y-86729903D01*
X184298990Y-86650664D01*
X183904283Y-86482167D01*
X183485222Y-86234114D01*
X183318543Y-86135919D01*
X182981991Y-85979500D01*
X182638555Y-85857804D01*
X182558855Y-85834415D01*
X182177728Y-85707645D01*
X181821690Y-85567633D01*
X181524985Y-85429968D01*
X181321852Y-85310240D01*
X181246531Y-85224038D01*
X181258131Y-85181478D01*
X181364738Y-85090206D01*
X181486959Y-85093913D01*
X181735234Y-85148680D01*
X182068789Y-85243808D01*
X182450737Y-85366824D01*
X182844194Y-85505253D01*
X183212272Y-85646623D01*
X183518087Y-85778459D01*
X183724753Y-85888287D01*
X183820899Y-85947250D01*
X184001433Y-86033858D01*
X184097163Y-86043804D01*
X184100701Y-85994532D01*
X184028249Y-85835850D01*
X183881122Y-85608867D01*
X183682945Y-85348774D01*
X183457339Y-85090757D01*
X183367663Y-84986212D01*
X183170519Y-84693179D01*
X183005203Y-84369087D01*
X182897031Y-84067825D01*
X182871319Y-83843283D01*
X182958807Y-83708970D01*
X183172394Y-83636493D01*
X183482927Y-83631388D01*
X183862418Y-83689279D01*
G37*
G36*
X169636173Y-83627957D02*
G01*
X169969537Y-83699270D01*
X170318795Y-83821278D01*
X170647838Y-83975938D01*
X170920557Y-84145203D01*
X171100841Y-84311026D01*
X171152580Y-84455363D01*
X171124594Y-84531970D01*
X170993091Y-84608270D01*
X170781721Y-84557396D01*
X170509886Y-84381576D01*
X170488653Y-84365012D01*
X170274920Y-84232629D01*
X170030564Y-84123226D01*
X169800464Y-84051225D01*
X169629494Y-84031049D01*
X169562531Y-84077119D01*
X169569709Y-84101435D01*
X169647608Y-84235141D01*
X169783588Y-84425999D01*
X169801576Y-84449799D01*
X169942886Y-84672198D01*
X169966139Y-84822529D01*
X169859077Y-84911952D01*
X169609437Y-84951627D01*
X169204961Y-84952716D01*
X169051314Y-84950383D01*
X168605262Y-84973582D01*
X168258522Y-85039361D01*
X168033816Y-85141864D01*
X167953865Y-85275233D01*
X167965138Y-85326346D01*
X168073433Y-85496891D01*
X168259156Y-85694637D01*
X168476027Y-85873940D01*
X168677762Y-85989156D01*
X168758781Y-86009848D01*
X169009203Y-86041909D01*
X169351904Y-86063991D01*
X169737377Y-86072214D01*
X169930845Y-86072936D01*
X170256751Y-86081354D01*
X170454427Y-86102745D01*
X170552232Y-86141483D01*
X170578531Y-86201942D01*
X170535375Y-86301284D01*
X170388031Y-86408242D01*
X170170558Y-86457887D01*
X169811055Y-86480819D01*
X169375763Y-86468538D01*
X168912324Y-86420643D01*
X168854482Y-86410976D01*
X168511199Y-86307920D01*
X168159077Y-86140456D01*
X167841216Y-85935634D01*
X167600722Y-85720507D01*
X167480695Y-85522128D01*
X167451698Y-85320033D01*
X167518842Y-85027267D01*
X167736246Y-84803153D01*
X168106251Y-84645719D01*
X168631198Y-84552994D01*
X169096865Y-84505881D01*
X169068846Y-84184145D01*
X169067316Y-84165216D01*
X169092767Y-83857034D01*
X169227316Y-83676031D01*
X169474776Y-83616881D01*
X169636173Y-83627957D01*
G37*
G36*
X181333676Y-84574850D02*
G01*
X181139063Y-84793964D01*
X180802661Y-84926833D01*
X180328285Y-84971548D01*
X180312750Y-84971597D01*
X179985706Y-85006208D01*
X179803807Y-85102633D01*
X179711983Y-85171856D01*
X179518274Y-85208381D01*
X179490105Y-85203434D01*
X179377311Y-85129185D01*
X179358012Y-84946345D01*
X179359818Y-84908684D01*
X179316357Y-84727752D01*
X179146345Y-84611434D01*
X178949311Y-84511684D01*
X178687806Y-84356368D01*
X178424758Y-84183847D01*
X178210157Y-84027024D01*
X178093995Y-83918802D01*
X178050550Y-83783806D01*
X178036783Y-83637029D01*
X178559302Y-83637029D01*
X178574666Y-83666899D01*
X178700191Y-83814578D01*
X178890937Y-83979097D01*
X178938762Y-84013811D01*
X179172228Y-84159624D01*
X179366547Y-84248981D01*
X179435066Y-84267857D01*
X179505881Y-84262543D01*
X179539747Y-84185714D01*
X179546475Y-84004819D01*
X179539181Y-83786214D01*
X180061198Y-83786214D01*
X180061198Y-84548214D01*
X180389498Y-84548214D01*
X180582344Y-84535172D01*
X180797154Y-84450057D01*
X180865079Y-84282865D01*
X180788630Y-84030341D01*
X180776130Y-84004852D01*
X180689378Y-83798571D01*
X180653865Y-83659328D01*
X180611499Y-83554427D01*
X180484531Y-83405214D01*
X180373231Y-83276255D01*
X180315198Y-83138092D01*
X180300595Y-83085235D01*
X180188198Y-83024214D01*
X180178969Y-83024616D01*
X180120210Y-83062603D01*
X180084210Y-83182907D01*
X180066147Y-83414464D01*
X180061198Y-83786214D01*
X179539181Y-83786214D01*
X179535881Y-83687308D01*
X179527459Y-83494346D01*
X179507953Y-83251867D01*
X179470757Y-83120468D01*
X179401277Y-83062527D01*
X179284918Y-83040422D01*
X179134623Y-83057563D01*
X178916471Y-83159101D01*
X178716828Y-83315045D01*
X178582253Y-83487114D01*
X178559302Y-83637029D01*
X178036783Y-83637029D01*
X178030495Y-83569990D01*
X178102004Y-83290967D01*
X178314718Y-83026860D01*
X178639725Y-82816490D01*
X179047872Y-82685212D01*
X179239291Y-82643909D01*
X179444570Y-82584136D01*
X179533353Y-82535729D01*
X179618701Y-82341236D01*
X179801099Y-82104474D01*
X180009309Y-82021002D01*
X180230531Y-82098842D01*
X180305711Y-82174896D01*
X180251698Y-82233382D01*
X180212270Y-82255855D01*
X180145865Y-82365769D01*
X180146909Y-82378855D01*
X180229423Y-82508808D01*
X180392510Y-82628493D01*
X180563634Y-82682855D01*
X180715191Y-82714581D01*
X180941338Y-82808119D01*
X181169231Y-82933853D01*
X181345273Y-83061679D01*
X181415865Y-83161495D01*
X181372598Y-83256194D01*
X181225365Y-83360242D01*
X181125342Y-83413649D01*
X181144410Y-83442181D01*
X181187178Y-83453421D01*
X181236665Y-83553381D01*
X181236515Y-83554337D01*
X181255220Y-83703538D01*
X181323237Y-83912333D01*
X181379900Y-84157679D01*
X181377401Y-84282865D01*
X181374106Y-84447927D01*
X181333676Y-84574850D01*
G37*
G36*
X165974264Y-83561206D02*
G01*
X166240860Y-83638936D01*
X166513888Y-83773287D01*
X166755420Y-83955754D01*
X166875613Y-84082160D01*
X166992410Y-84291380D01*
X167022531Y-84560783D01*
X166992274Y-84828245D01*
X166874365Y-85029761D01*
X166822554Y-85062452D01*
X166657814Y-85107567D01*
X166391637Y-85121921D01*
X165990993Y-85108457D01*
X165689559Y-85087048D01*
X165361569Y-85040173D01*
X165101002Y-84961331D01*
X164847993Y-84836266D01*
X164704405Y-84755862D01*
X164389449Y-84585264D01*
X164122698Y-84447427D01*
X164011470Y-84388833D01*
X163840736Y-84261302D01*
X163831809Y-84160656D01*
X163982106Y-84080144D01*
X164145018Y-84083868D01*
X164430159Y-84179482D01*
X164840224Y-84373266D01*
X165032936Y-84468252D01*
X165557661Y-84676918D01*
X166017983Y-84774437D01*
X166047850Y-84777549D01*
X166311800Y-84800442D01*
X166450649Y-84790513D01*
X166504064Y-84735660D01*
X166511715Y-84623775D01*
X166500246Y-84530787D01*
X166394613Y-84296992D01*
X166218271Y-84114095D01*
X166020174Y-84040214D01*
X166006600Y-84039826D01*
X165818163Y-83976041D01*
X165653636Y-83841783D01*
X165583198Y-83692843D01*
X165612075Y-83609639D01*
X165752026Y-83548605D01*
X165974264Y-83561206D01*
G37*
G36*
X173540512Y-80030577D02*
G01*
X173931262Y-80118994D01*
X174402877Y-80265715D01*
X174936865Y-80465513D01*
X175514735Y-80713162D01*
X176117996Y-81003433D01*
X176405156Y-81149036D01*
X176762289Y-81329295D01*
X177057386Y-81477331D01*
X177246031Y-81570805D01*
X177370374Y-81647061D01*
X177494993Y-81772294D01*
X177532234Y-81878491D01*
X177457698Y-81924844D01*
X177410975Y-81935496D01*
X177269417Y-82005051D01*
X177212205Y-82054009D01*
X177217515Y-82141976D01*
X177339891Y-82291802D01*
X177439209Y-82429737D01*
X177503821Y-82646891D01*
X177465551Y-82828695D01*
X177325543Y-82924717D01*
X177302095Y-82928467D01*
X177211866Y-82927304D01*
X177086442Y-82895667D01*
X176896538Y-82822687D01*
X176612870Y-82697495D01*
X176206155Y-82509220D01*
X176028339Y-82436618D01*
X175645288Y-82345161D01*
X175291639Y-82339122D01*
X174999400Y-82412733D01*
X174800584Y-82560223D01*
X174727198Y-82775822D01*
X174729143Y-82816215D01*
X174830195Y-83065214D01*
X175060199Y-83280449D01*
X175385321Y-83451283D01*
X175771727Y-83567079D01*
X176185581Y-83617200D01*
X176593049Y-83591009D01*
X176960297Y-83477869D01*
X177120841Y-83417388D01*
X177336014Y-83390286D01*
X177476906Y-83437560D01*
X177502030Y-83553425D01*
X177492455Y-83573121D01*
X177374280Y-83687353D01*
X177177490Y-83811375D01*
X177051694Y-83863051D01*
X176683774Y-83935888D01*
X176236102Y-83954130D01*
X175763193Y-83920343D01*
X175319561Y-83837095D01*
X174959721Y-83706952D01*
X174796864Y-83621589D01*
X174501351Y-83438397D01*
X174326054Y-83261773D01*
X174242917Y-83056680D01*
X174223883Y-82788083D01*
X174224081Y-82773253D01*
X174246311Y-82511471D01*
X174325639Y-82338242D01*
X174495937Y-82177548D01*
X174513222Y-82163979D01*
X174669919Y-82059578D01*
X174837530Y-82001349D01*
X175068723Y-81977851D01*
X175416166Y-81977644D01*
X175693608Y-81990836D01*
X176073014Y-82041384D01*
X176333765Y-82121476D01*
X176389261Y-82147417D01*
X176581073Y-82188047D01*
X176669509Y-82095244D01*
X176659406Y-81865203D01*
X176589386Y-81778527D01*
X176394231Y-81634737D01*
X176109027Y-81459702D01*
X175768322Y-81272325D01*
X175406663Y-81091511D01*
X175058598Y-80936161D01*
X174758675Y-80825181D01*
X174380938Y-80701298D01*
X173981005Y-80558730D01*
X173614451Y-80417662D01*
X173313157Y-80290914D01*
X173109001Y-80191304D01*
X173033865Y-80131651D01*
X173075569Y-80049562D01*
X173249117Y-80005691D01*
X173540512Y-80030577D01*
G37*
G36*
X163632978Y-76366625D02*
G01*
X163867616Y-76516857D01*
X164068807Y-76747577D01*
X164185423Y-77009350D01*
X164187259Y-77017558D01*
X164246356Y-77193926D01*
X164308989Y-77266881D01*
X164345075Y-77320271D01*
X164392254Y-77501447D01*
X164432523Y-77766543D01*
X164489053Y-78266204D01*
X165238164Y-78543804D01*
X165572930Y-78671500D01*
X165920973Y-78819905D01*
X166134166Y-78938320D01*
X166228929Y-79036428D01*
X166221680Y-79123914D01*
X166216028Y-79132257D01*
X166069649Y-79204541D01*
X165838201Y-79193183D01*
X165578530Y-79100273D01*
X165538394Y-79080721D01*
X165348900Y-79000125D01*
X165097543Y-78902041D01*
X164838998Y-78806805D01*
X164627937Y-78734751D01*
X164519036Y-78706214D01*
X164508928Y-78764935D01*
X164489998Y-78961717D01*
X164466110Y-79264195D01*
X164440149Y-79638300D01*
X164414786Y-79959592D01*
X164378172Y-80287166D01*
X164339518Y-80518427D01*
X164303895Y-80616964D01*
X164272039Y-80648849D01*
X164231806Y-80782709D01*
X164246231Y-80925613D01*
X164313198Y-80992214D01*
X164366915Y-81037212D01*
X164397865Y-81189122D01*
X164404345Y-81254010D01*
X164521123Y-81482115D01*
X164751642Y-81675267D01*
X165053061Y-81793921D01*
X165288951Y-81872565D01*
X165394659Y-81984632D01*
X165339923Y-82116023D01*
X165235869Y-82149735D01*
X165005573Y-82146353D01*
X164706366Y-82104568D01*
X164387707Y-82033719D01*
X164099054Y-81943146D01*
X163889865Y-81842188D01*
X163638266Y-81692342D01*
X163221706Y-81497613D01*
X162831531Y-81368035D01*
X162577531Y-81307464D01*
X162766402Y-81467339D01*
X162946121Y-81612201D01*
X163174360Y-81783701D01*
X163188867Y-81794274D01*
X163316369Y-81915089D01*
X163338103Y-81995368D01*
X163325150Y-82001382D01*
X163182030Y-82020685D01*
X162911441Y-82036295D01*
X162545907Y-82046739D01*
X162117952Y-82050548D01*
X161938265Y-82051034D01*
X161467622Y-82059656D01*
X161137604Y-82080530D01*
X160926559Y-82115585D01*
X160812838Y-82166748D01*
X160753193Y-82221764D01*
X160683393Y-82357404D01*
X160732048Y-82521696D01*
X160905365Y-82754043D01*
X160928625Y-82780667D01*
X161118561Y-82946450D01*
X161375802Y-83075871D01*
X161750960Y-83195345D01*
X162105096Y-83279654D01*
X162445716Y-83339899D01*
X162698463Y-83362881D01*
X162968391Y-83393346D01*
X163102903Y-83480753D01*
X163085531Y-83616881D01*
X163056187Y-83639867D01*
X162889482Y-83679722D01*
X162628915Y-83697935D01*
X162326782Y-83694335D01*
X162035378Y-83668753D01*
X161806999Y-83621021D01*
X161763066Y-83606940D01*
X161496808Y-83528243D01*
X161206578Y-83449738D01*
X161071185Y-83406377D01*
X160731201Y-83222995D01*
X160441574Y-82968600D01*
X160240090Y-82681287D01*
X160164531Y-82399150D01*
X160229762Y-82106221D01*
X160435360Y-81849134D01*
X160755513Y-81690198D01*
X160756124Y-81690034D01*
X160947964Y-81660785D01*
X161244784Y-81639212D01*
X161582588Y-81629975D01*
X161918040Y-81620363D01*
X162131808Y-81590279D01*
X162193563Y-81537046D01*
X162111865Y-81457881D01*
X162053297Y-81352079D01*
X162027198Y-81156551D01*
X162031171Y-81042228D01*
X162071806Y-80949632D01*
X162193349Y-80913625D01*
X162439996Y-80907548D01*
X162450059Y-80907589D01*
X162874920Y-80965108D01*
X163325590Y-81116640D01*
X163533041Y-81199684D01*
X163747735Y-81257864D01*
X163849122Y-81243640D01*
X163861128Y-81212674D01*
X163803839Y-81161548D01*
X163788964Y-81151916D01*
X163760199Y-81027555D01*
X163750922Y-80793640D01*
X163758504Y-80493478D01*
X163780318Y-80170377D01*
X163813736Y-79867645D01*
X163856130Y-79628592D01*
X163904872Y-79496524D01*
X163934837Y-79413028D01*
X163958902Y-79194940D01*
X163957803Y-78912842D01*
X163932198Y-78427850D01*
X163568378Y-78320787D01*
X163397142Y-78266077D01*
X163026487Y-78121930D01*
X162678115Y-77956373D01*
X162386543Y-77788364D01*
X162186287Y-77636861D01*
X162111865Y-77520821D01*
X162143020Y-77447250D01*
X162282210Y-77393515D01*
X162481437Y-77410816D01*
X162683423Y-77501129D01*
X162745874Y-77541656D01*
X163002810Y-77679546D01*
X163298132Y-77809593D01*
X163570091Y-77906311D01*
X163756941Y-77944214D01*
X163808585Y-77893028D01*
X163815291Y-77727419D01*
X163774175Y-77491047D01*
X163696493Y-77229354D01*
X163593499Y-76987781D01*
X163476449Y-76811771D01*
X163401843Y-76723131D01*
X163305094Y-76526948D01*
X163334244Y-76388183D01*
X163488563Y-76335548D01*
X163632978Y-76366625D01*
G37*
G36*
X173625418Y-82337270D02*
G01*
X173397145Y-82541170D01*
X173356081Y-82566179D01*
X173174295Y-82639175D01*
X172937344Y-82665224D01*
X172589640Y-82651953D01*
X172296679Y-82618178D01*
X171991770Y-82556633D01*
X171785306Y-82484636D01*
X171693144Y-82436125D01*
X171432732Y-82305096D01*
X171147935Y-82167299D01*
X171029060Y-82109574D01*
X170762718Y-81954871D01*
X170554786Y-81772188D01*
X170333026Y-81502601D01*
X170272146Y-81427766D01*
X170192076Y-81364277D01*
X170074826Y-81326688D01*
X169887374Y-81309713D01*
X169596698Y-81308071D01*
X169169778Y-81316476D01*
X168873951Y-81322560D01*
X168527721Y-81323239D01*
X168281820Y-81307781D01*
X168094347Y-81269971D01*
X167923400Y-81203590D01*
X167758793Y-81118766D01*
X170747865Y-81118766D01*
X170749336Y-81142064D01*
X170841316Y-81340610D01*
X171053142Y-81569572D01*
X171352446Y-81799215D01*
X171706861Y-81999802D01*
X171897909Y-82086234D01*
X172344837Y-82249115D01*
X172700186Y-82319657D01*
X172952422Y-82300333D01*
X173090007Y-82193616D01*
X173101405Y-82001979D01*
X172975081Y-81727897D01*
X172895554Y-81617816D01*
X172658871Y-81361942D01*
X172394646Y-81140530D01*
X172247270Y-81028523D01*
X172082115Y-80875284D01*
X172017865Y-80773512D01*
X171998477Y-80734380D01*
X171862302Y-80668973D01*
X171645417Y-80629047D01*
X171406819Y-80622925D01*
X171205503Y-80658926D01*
X170993789Y-80776473D01*
X170818356Y-80949580D01*
X170747865Y-81118766D01*
X167758793Y-81118766D01*
X167727078Y-81102423D01*
X167410637Y-80912913D01*
X166976388Y-80580215D01*
X166639896Y-80226912D01*
X166422415Y-79876822D01*
X166345198Y-79553764D01*
X166381266Y-79372262D01*
X166522984Y-79231150D01*
X166790100Y-79153381D01*
X167201601Y-79129548D01*
X167323419Y-79138238D01*
X167630814Y-79192530D01*
X168009684Y-79284524D01*
X168412503Y-79400142D01*
X168791747Y-79525307D01*
X169099891Y-79645943D01*
X169289411Y-79747971D01*
X169307888Y-79761551D01*
X169418929Y-79801114D01*
X169437174Y-79734575D01*
X169346489Y-79602933D01*
X169336677Y-79592995D01*
X169255134Y-79462874D01*
X169310490Y-79338854D01*
X169315012Y-79333374D01*
X169367484Y-79237802D01*
X169283308Y-79214214D01*
X169265184Y-79212343D01*
X169104716Y-79160826D01*
X168851104Y-79053053D01*
X168550506Y-78908293D01*
X168417685Y-78842843D01*
X168015338Y-78658307D01*
X167559693Y-78463364D01*
X167126022Y-78290649D01*
X167069268Y-78268967D01*
X166641173Y-78089708D01*
X166376314Y-77944613D01*
X166275867Y-77834315D01*
X166280521Y-77729114D01*
X166389623Y-77643351D01*
X166601036Y-77653785D01*
X166890375Y-77763237D01*
X167003678Y-77816983D01*
X167231147Y-77908164D01*
X167378310Y-77944214D01*
X167390784Y-77945208D01*
X167543517Y-77991558D01*
X167791900Y-78093366D01*
X168088703Y-78231529D01*
X168771647Y-78556050D01*
X169673853Y-78947823D01*
X169709707Y-78963330D01*
X169854515Y-79068223D01*
X169861707Y-79205259D01*
X169876514Y-79379571D01*
X170025552Y-79618963D01*
X170121353Y-79747405D01*
X170232111Y-80010504D01*
X170202883Y-80210650D01*
X170051590Y-80328391D01*
X169796152Y-80344276D01*
X169454489Y-80238850D01*
X169315918Y-80177413D01*
X168918710Y-80014526D01*
X168487323Y-79852294D01*
X168059846Y-79703632D01*
X167674369Y-79581454D01*
X167368979Y-79498677D01*
X167181765Y-79468214D01*
X167023419Y-79499216D01*
X166939567Y-79619420D01*
X166982322Y-79815998D01*
X167147534Y-80073801D01*
X167431049Y-80377683D01*
X167479123Y-80422481D01*
X167755011Y-80649371D01*
X168026910Y-80801288D01*
X168337800Y-80891536D01*
X168730660Y-80933420D01*
X169248470Y-80940242D01*
X169589608Y-80934363D01*
X169900016Y-80918624D01*
X170105903Y-80888077D01*
X170243525Y-80836740D01*
X170349137Y-80758632D01*
X170440580Y-80679025D01*
X170768334Y-80449091D01*
X171095181Y-80290078D01*
X171366151Y-80230531D01*
X171477909Y-80237107D01*
X171757588Y-80277427D01*
X172091544Y-80343623D01*
X172424323Y-80423082D01*
X172700470Y-80503190D01*
X172864531Y-80571335D01*
X172945943Y-80651802D01*
X172876095Y-80727979D01*
X172849754Y-80753979D01*
X172856893Y-80844422D01*
X172965401Y-80998864D01*
X173189181Y-81240048D01*
X173427291Y-81503821D01*
X173642384Y-81830436D01*
X173683355Y-82001979D01*
X173707795Y-82104305D01*
X173625418Y-82337270D01*
G37*
G36*
X159704792Y-82111027D02*
G01*
X159553026Y-82299747D01*
X159507151Y-82329405D01*
X159181748Y-82427893D01*
X158808781Y-82371182D01*
X158401786Y-82160907D01*
X158238241Y-82045722D01*
X158034938Y-81891424D01*
X157920865Y-81789907D01*
X157914367Y-81783554D01*
X157776400Y-81728342D01*
X157524473Y-81677364D01*
X157207939Y-81640931D01*
X157092014Y-81630456D01*
X156715619Y-81568289D01*
X156468704Y-81477210D01*
X156419820Y-81424104D01*
X158417599Y-81424104D01*
X158438130Y-81586497D01*
X158549740Y-81730300D01*
X158780602Y-81906460D01*
X158824546Y-81936300D01*
X159015471Y-82047770D01*
X159140435Y-82092881D01*
X159215811Y-82036017D01*
X159228383Y-81878911D01*
X159175511Y-81674734D01*
X159063865Y-81477111D01*
X159059080Y-81470996D01*
X158942702Y-81298036D01*
X158894531Y-81179235D01*
X158870855Y-81141108D01*
X158749463Y-81066679D01*
X158599401Y-81013335D01*
X158505953Y-81016739D01*
X158505760Y-81016984D01*
X158479801Y-81105063D01*
X158438905Y-81288548D01*
X158417599Y-81424104D01*
X156419820Y-81424104D01*
X156364482Y-81363986D01*
X156416162Y-81235383D01*
X156468714Y-81199558D01*
X156625788Y-81183273D01*
X156894526Y-81234779D01*
X157138755Y-81290269D01*
X157462082Y-81329817D01*
X157649022Y-81292457D01*
X157709198Y-81177512D01*
X157729560Y-81079504D01*
X157846164Y-80885103D01*
X158016682Y-80721997D01*
X158183729Y-80653548D01*
X158279827Y-80667320D01*
X158471626Y-80738443D01*
X158570276Y-80777282D01*
X158682723Y-80738443D01*
X158792055Y-80664082D01*
X158978732Y-80673900D01*
X159178440Y-80762985D01*
X159337575Y-80906059D01*
X159402531Y-81077849D01*
X159404393Y-81096858D01*
X159473608Y-81161548D01*
X159550657Y-81212429D01*
X159642888Y-81384306D01*
X159713214Y-81625263D01*
X159741035Y-81878911D01*
X159741198Y-81880397D01*
X159704792Y-82111027D01*
G37*
G36*
X160809321Y-78237489D02*
G01*
X160776258Y-78285296D01*
X160663947Y-78391725D01*
X160500008Y-78438270D01*
X160226080Y-78445773D01*
X159730542Y-78395319D01*
X159301610Y-78238732D01*
X158891325Y-77951934D01*
X158825957Y-77893464D01*
X158601959Y-77607597D01*
X158550197Y-77364855D01*
X159063865Y-77364855D01*
X159081432Y-77450065D01*
X159220053Y-77648354D01*
X159464907Y-77843467D01*
X159777711Y-78001273D01*
X159847183Y-78027380D01*
X160069745Y-78094684D01*
X160207957Y-78089176D01*
X160316931Y-78011948D01*
X160375823Y-77917260D01*
X160414608Y-77744657D01*
X160401443Y-77588727D01*
X160333865Y-77520881D01*
X160332098Y-77520825D01*
X160273488Y-77443711D01*
X160249198Y-77264224D01*
X160214418Y-77062314D01*
X160095031Y-76961489D01*
X159870520Y-76958412D01*
X159520370Y-77046967D01*
X159503935Y-77052174D01*
X159236927Y-77152156D01*
X159101499Y-77248540D01*
X159063865Y-77364855D01*
X158550197Y-77364855D01*
X158543918Y-77335411D01*
X158649065Y-77084791D01*
X158914632Y-76863622D01*
X159337852Y-76679789D01*
X159555068Y-76598894D01*
X159680276Y-76503078D01*
X159654750Y-76386479D01*
X159487425Y-76221731D01*
X159438376Y-76179337D01*
X159292075Y-76035777D01*
X159233198Y-75948181D01*
X159241416Y-75910765D01*
X159267994Y-75883820D01*
X159960191Y-75883820D01*
X159995834Y-76029736D01*
X160120584Y-76194221D01*
X160280496Y-76320663D01*
X160421623Y-76352452D01*
X160432332Y-76349075D01*
X160601386Y-76284109D01*
X160823233Y-76187410D01*
X161100935Y-76059848D01*
X160902661Y-75956982D01*
X160804402Y-75912595D01*
X160542868Y-75835689D01*
X160279700Y-75800036D01*
X160068726Y-75810509D01*
X159963774Y-75871983D01*
X159960191Y-75883820D01*
X159267994Y-75883820D01*
X159357006Y-75793577D01*
X159562898Y-75700252D01*
X159799701Y-75660907D01*
X159806793Y-75660808D01*
X160008659Y-75633374D01*
X160122198Y-75573548D01*
X160124832Y-75569572D01*
X160261683Y-75505154D01*
X160513081Y-75494442D01*
X160835594Y-75535308D01*
X161185790Y-75625626D01*
X161214798Y-75635207D01*
X161456428Y-75731446D01*
X161573376Y-75829074D01*
X161603865Y-75958528D01*
X161598065Y-76010175D01*
X161569041Y-76059848D01*
X161477582Y-76216374D01*
X161217763Y-76426123D01*
X160840533Y-76620414D01*
X160673414Y-76700638D01*
X160633373Y-76770283D01*
X160708522Y-76867443D01*
X160814610Y-77059888D01*
X160884269Y-77358748D01*
X160909739Y-77697188D01*
X160906201Y-77744657D01*
X160886321Y-78011378D01*
X160809321Y-78237489D01*
G37*
G36*
X157522433Y-73747681D02*
G01*
X157637906Y-73816044D01*
X157709198Y-73954149D01*
X157705955Y-73970672D01*
X157624024Y-74106441D01*
X157448353Y-74327533D01*
X157201210Y-74607239D01*
X156904865Y-74918849D01*
X156830055Y-74995391D01*
X156544086Y-75298075D01*
X156312421Y-75559153D01*
X156157193Y-75752905D01*
X156100531Y-75853612D01*
X156100140Y-75863380D01*
X156057833Y-76024946D01*
X155966965Y-76238605D01*
X155933389Y-76313366D01*
X155874503Y-76651973D01*
X155970701Y-76953177D01*
X156214445Y-77188056D01*
X156488123Y-77319370D01*
X156736526Y-77332614D01*
X156992510Y-77214810D01*
X157105751Y-77107957D01*
X157189689Y-76951008D01*
X157200446Y-76816158D01*
X157122237Y-76758881D01*
X157067901Y-76729666D01*
X156991778Y-76596624D01*
X156883916Y-76458122D01*
X156689739Y-76347028D01*
X156612387Y-76316778D01*
X156463105Y-76212242D01*
X156475272Y-76111846D01*
X156650865Y-76031649D01*
X156893976Y-76005573D01*
X157198670Y-76097656D01*
X157426618Y-76336031D01*
X157442956Y-76363050D01*
X157559506Y-76523869D01*
X157642786Y-76589548D01*
X157655074Y-76595074D01*
X157693652Y-76704328D01*
X157709198Y-76909398D01*
X157708866Y-76939325D01*
X157662201Y-77194094D01*
X157514440Y-77396542D01*
X157233755Y-77592391D01*
X157202427Y-77608010D01*
X156966865Y-77664689D01*
X156652285Y-77685044D01*
X156330904Y-77667858D01*
X156074941Y-77611913D01*
X156050044Y-77601992D01*
X155756851Y-77421244D01*
X155513223Y-77166994D01*
X155376240Y-76897599D01*
X155361661Y-76752647D01*
X155376307Y-76469919D01*
X155425570Y-76155039D01*
X155463579Y-75989732D01*
X155524558Y-75802402D01*
X155616529Y-75629337D01*
X155762040Y-75437402D01*
X155983640Y-75193464D01*
X156303877Y-74864389D01*
X156329969Y-74837872D01*
X156631480Y-74526202D01*
X156896331Y-74243463D01*
X157096742Y-74019835D01*
X157204933Y-73885499D01*
X157210881Y-73876633D01*
X157350773Y-73742589D01*
X157522433Y-73747681D01*
G37*
D11*
X177513613Y-55500000D02*
X177188055Y-55500000D01*
X177513613Y-54480000D02*
X177188055Y-54480000D01*
X174106113Y-64180000D02*
X173780555Y-64180000D01*
X174106113Y-63160000D02*
X173780555Y-63160000D01*
X174116113Y-55500000D02*
X173790555Y-55500000D01*
X174116113Y-54480000D02*
X173790555Y-54480000D01*
X145673334Y-68877221D02*
X145673334Y-69202779D01*
X146693334Y-68877221D02*
X146693334Y-69202779D01*
X123513334Y-55837221D02*
X123513334Y-56162779D01*
X122493334Y-55837221D02*
X122493334Y-56162779D01*
X122403334Y-63122779D02*
X122403334Y-62797221D01*
X123423334Y-63122779D02*
X123423334Y-62797221D01*
X161613334Y-49995000D02*
X159328334Y-49995000D01*
X159328334Y-48525000D02*
X161613334Y-48525000D01*
X159328334Y-49995000D02*
X159328334Y-48525000D01*
X106695000Y-71345000D02*
X108025000Y-71345000D01*
X111895000Y-71345000D02*
X111895000Y-63605000D01*
X106695000Y-68745000D02*
X106695000Y-63605000D01*
X109295000Y-71345000D02*
X111895000Y-71345000D01*
X106695000Y-68745000D02*
X109295000Y-68745000D01*
X109295000Y-68745000D02*
X109295000Y-71345000D01*
X106695000Y-70015000D02*
X106695000Y-71345000D01*
X106695000Y-63605000D02*
X111895000Y-63605000D01*
X184563334Y-63370000D02*
X186333334Y-63370000D01*
X186333334Y-55750000D02*
X184563334Y-55750000D01*
X184563334Y-63370000D02*
X184563334Y-62990000D01*
X188873334Y-55750000D02*
X188613334Y-55750000D01*
X184563334Y-55750000D02*
X184563334Y-56130000D01*
X188613334Y-63370000D02*
X188873334Y-63370000D01*
X161530000Y-54310000D02*
X161530000Y-53710000D01*
X159430000Y-55010000D02*
X160830000Y-55010000D01*
X160830000Y-53010000D02*
X159430000Y-53010000D01*
X158730000Y-53710000D02*
X158730000Y-54310000D01*
X161530000Y-53710000D02*
G75*
G03*
X160830000Y-53010000I-700000J0D01*
G01*
X160830000Y-55010000D02*
G75*
G03*
X161530000Y-54310000I0J700000D01*
G01*
X159430000Y-53010000D02*
G75*
G03*
X158730000Y-53710000I0J-700000D01*
G01*
X158730000Y-54310000D02*
G75*
G03*
X159430000Y-55010000I700000J0D01*
G01*
X179140555Y-60090000D02*
X179466113Y-60090000D01*
X179140555Y-61110000D02*
X179466113Y-61110000D01*
X179140555Y-58300000D02*
X179466113Y-58300000D01*
X179140555Y-59320000D02*
X179466113Y-59320000D01*
X117600000Y-53102779D02*
X117600000Y-52777221D01*
X118620000Y-53102779D02*
X118620000Y-52777221D01*
X156696113Y-49770000D02*
X156370555Y-49770000D01*
X156696113Y-48750000D02*
X156370555Y-48750000D01*
X168956113Y-51790000D02*
X168630555Y-51790000D01*
X168956113Y-52810000D02*
X168630555Y-52810000D01*
X126403334Y-48810000D02*
X126403334Y-51210000D01*
X128803334Y-51210000D02*
X128803334Y-48810000D01*
X126403334Y-51210000D02*
X128803334Y-51210000D01*
X128803334Y-48810000D02*
X126403334Y-48810000D01*
D10*
X116370000Y-50205000D02*
X119870000Y-50205000D01*
D11*
X132513334Y-48810000D02*
X132513334Y-51210000D01*
X134913334Y-51210000D02*
X134913334Y-48810000D01*
X134913334Y-48810000D02*
X132513334Y-48810000D01*
X132513334Y-51210000D02*
X134913334Y-51210000D01*
X174823334Y-60870000D02*
X173023334Y-60870000D01*
X173023334Y-57650000D02*
X175473334Y-57650000D01*
D10*
X151123334Y-64635000D02*
X151123334Y-65910000D01*
X141348334Y-64635000D02*
X142023334Y-64635000D01*
X151698334Y-64635000D02*
X151698334Y-63960000D01*
X151698334Y-54285000D02*
X151698334Y-54960000D01*
X151698334Y-64635000D02*
X151123334Y-64635000D01*
X141348334Y-54285000D02*
X142023334Y-54285000D01*
X141348334Y-64635000D02*
X141348334Y-63960000D01*
X151698334Y-54285000D02*
X151023334Y-54285000D01*
X141348334Y-54285000D02*
X141348334Y-54960000D01*
D11*
X129693334Y-53660000D02*
X129693334Y-66260000D01*
X129693334Y-66260000D02*
X124593334Y-66260000D01*
X124593334Y-66260000D02*
X124593334Y-53660000D01*
%LPC*%
D12*
X178138334Y-54990000D03*
X176563334Y-54990000D03*
X174730834Y-63670000D03*
X173155834Y-63670000D03*
X174740834Y-54990000D03*
X173165834Y-54990000D03*
D13*
X146183334Y-68252500D03*
X146183334Y-69827500D03*
X123003334Y-55212500D03*
X123003334Y-56787500D03*
D14*
X122913334Y-63747500D03*
X122913334Y-62172500D03*
D15*
X160025834Y-49260000D03*
X161600834Y-49260000D03*
D16*
X108025000Y-70015000D03*
D17*
X110565000Y-70015000D03*
X108025000Y-67475000D03*
X110565000Y-67475000D03*
X108025000Y-64935000D03*
X110565000Y-64935000D03*
D18*
X184813334Y-58260000D03*
X184813334Y-58910000D03*
X184813334Y-59560000D03*
X184813334Y-60210000D03*
X184813334Y-60860000D03*
D19*
X187473334Y-60400000D03*
X187473334Y-58720000D03*
D20*
X187473334Y-62470000D03*
D21*
X185173334Y-62022500D03*
D20*
X187473334Y-56650000D03*
D21*
X185173334Y-57097500D03*
D22*
X159480000Y-54010000D03*
D23*
X160780000Y-54010000D03*
D15*
X178515834Y-60600000D03*
X180090834Y-60600000D03*
X178515834Y-58810000D03*
X180090834Y-58810000D03*
D14*
X118110000Y-53727500D03*
X118110000Y-52152500D03*
D12*
X157320834Y-49260000D03*
X155745834Y-49260000D03*
X169580834Y-52300000D03*
X168005834Y-52300000D03*
D24*
X127603334Y-50010000D03*
D25*
X116230000Y-49375000D03*
X120030000Y-49375000D03*
X116230000Y-47975000D03*
X120030000Y-47975000D03*
D24*
X133713334Y-50010000D03*
D26*
X175023334Y-58310000D03*
X175023334Y-59260000D03*
X175023334Y-60210000D03*
X172823334Y-60210000D03*
X172823334Y-58310000D03*
D27*
X150523334Y-65160000D03*
X149723334Y-65160000D03*
X148923334Y-65160000D03*
X148123334Y-65160000D03*
X147323334Y-65160000D03*
X146523334Y-65160000D03*
X145723334Y-65160000D03*
X144923334Y-65160000D03*
X144123334Y-65160000D03*
X143323334Y-65160000D03*
X142523334Y-65160000D03*
D28*
X140823334Y-63460000D03*
X140823334Y-62660000D03*
X140823334Y-61860000D03*
X140823334Y-61060000D03*
X140823334Y-60260000D03*
X140823334Y-59460000D03*
X140823334Y-58660000D03*
X140823334Y-57860000D03*
X140823334Y-57060000D03*
X140823334Y-56260000D03*
X140823334Y-55460000D03*
D27*
X142523334Y-53760000D03*
X143323334Y-53760000D03*
X144123334Y-53760000D03*
X144923334Y-53760000D03*
X145723334Y-53760000D03*
X146523334Y-53760000D03*
X147323334Y-53760000D03*
X148123334Y-53760000D03*
X148923334Y-53760000D03*
X149723334Y-53760000D03*
X150523334Y-53760000D03*
D28*
X152223334Y-55460000D03*
X152223334Y-56260000D03*
X152223334Y-57060000D03*
X152223334Y-57860000D03*
X152223334Y-58660000D03*
X152223334Y-59460000D03*
X152223334Y-60260000D03*
X152223334Y-61060000D03*
X152223334Y-61860000D03*
X152223334Y-62660000D03*
X152223334Y-63460000D03*
D17*
X141373334Y-74600000D03*
X141373334Y-77140000D03*
D29*
X143913334Y-74600000D03*
D17*
X143913334Y-77140000D03*
D29*
X146453334Y-74600000D03*
D17*
X146453334Y-77140000D03*
D30*
X127143334Y-63810000D03*
X127143334Y-55310000D03*
M02*
