G04 #@! TF.GenerationSoftware,KiCad,Pcbnew,(5.99.0-10336-g9846076676)*
G04 #@! TF.CreationDate,2021-04-17T01:38:01-06:00*
G04 #@! TF.ProjectId,yolo-badge,796f6c6f-2d62-4616-9467-652e6b696361,rev?*
G04 #@! TF.SameCoordinates,Original*
G04 #@! TF.FileFunction,Copper,L2,Bot*
G04 #@! TF.FilePolarity,Positive*
%FSLAX46Y46*%
G04 Gerber Fmt 4.6, Leading zero omitted, Abs format (unit mm)*
G04 Created by KiCad (PCBNEW (5.99.0-10336-g9846076676)) date 2021-04-17 01:38:01*
%MOMM*%
%LPD*%
G01*
G04 APERTURE LIST*
G04 Aperture macros list*
%AMRoundRect*
0 Rectangle with rounded corners*
0 $1 Rounding radius*
0 $2 $3 $4 $5 $6 $7 $8 $9 X,Y pos of 4 corners*
0 Add a 4 corners polygon primitive as box body*
4,1,4,$2,$3,$4,$5,$6,$7,$8,$9,$2,$3,0*
0 Add four circle primitives for the rounded corners*
1,1,$1+$1,$2,$3*
1,1,$1+$1,$4,$5*
1,1,$1+$1,$6,$7*
1,1,$1+$1,$8,$9*
0 Add four rect primitives between the rounded corners*
20,1,$1+$1,$2,$3,$4,$5,0*
20,1,$1+$1,$4,$5,$6,$7,0*
20,1,$1+$1,$6,$7,$8,$9,0*
20,1,$1+$1,$8,$9,$2,$3,0*%
%AMFreePoly0*
4,1,22,0.500000,-0.750000,0.000000,-0.750000,0.000000,-0.745033,-0.079941,-0.743568,-0.215256,-0.701293,-0.333266,-0.622738,-0.424486,-0.514219,-0.481581,-0.384460,-0.499164,-0.250000,-0.500000,-0.250000,-0.500000,0.250000,-0.499164,0.250000,-0.499963,0.256109,-0.478152,0.396186,-0.417904,0.524511,-0.324060,0.630769,-0.204165,0.706417,-0.067858,0.745374,0.000000,0.744959,0.000000,0.750000,
0.500000,0.750000,0.500000,-0.750000,0.500000,-0.750000,$1*%
%AMFreePoly1*
4,1,20,0.000000,0.744959,0.073905,0.744508,0.209726,0.703889,0.328688,0.626782,0.421226,0.519385,0.479903,0.390333,0.500000,0.250000,0.500000,-0.250000,0.499851,-0.262216,0.476331,-0.402017,0.414519,-0.529596,0.319384,-0.634700,0.198574,-0.708877,0.061801,-0.746166,0.000000,-0.745033,0.000000,-0.750000,-0.500000,-0.750000,-0.500000,0.750000,0.000000,0.750000,0.000000,0.744959,
0.000000,0.744959,$1*%
G04 Aperture macros list end*
%ADD10C,0.300000*%
G04 #@! TA.AperFunction,NonConductor*
%ADD11C,0.300000*%
G04 #@! TD*
G04 #@! TA.AperFunction,SMDPad,CuDef*
%ADD12RoundRect,0.218750X0.218750X0.256250X-0.218750X0.256250X-0.218750X-0.256250X0.218750X-0.256250X0*%
G04 #@! TD*
G04 #@! TA.AperFunction,SMDPad,CuDef*
%ADD13RoundRect,0.218750X-0.256250X0.218750X-0.256250X-0.218750X0.256250X-0.218750X0.256250X0.218750X0*%
G04 #@! TD*
G04 #@! TA.AperFunction,SMDPad,CuDef*
%ADD14RoundRect,0.218750X0.256250X-0.218750X0.256250X0.218750X-0.256250X0.218750X-0.256250X-0.218750X0*%
G04 #@! TD*
G04 #@! TA.AperFunction,SMDPad,CuDef*
%ADD15RoundRect,0.218750X-0.218750X-0.256250X0.218750X-0.256250X0.218750X0.256250X-0.218750X0.256250X0*%
G04 #@! TD*
G04 #@! TA.AperFunction,ComponentPad*
%ADD16R,1.700000X1.700000*%
G04 #@! TD*
G04 #@! TA.AperFunction,ComponentPad*
%ADD17O,1.700000X1.700000*%
G04 #@! TD*
G04 #@! TA.AperFunction,SMDPad,CuDef*
%ADD18R,1.380000X0.450000*%
G04 #@! TD*
G04 #@! TA.AperFunction,SMDPad,CuDef*
%ADD19R,1.900000X1.175000*%
G04 #@! TD*
G04 #@! TA.AperFunction,SMDPad,CuDef*
%ADD20R,1.900000X2.375000*%
G04 #@! TD*
G04 #@! TA.AperFunction,SMDPad,CuDef*
%ADD21R,2.100000X1.475000*%
G04 #@! TD*
G04 #@! TA.AperFunction,SMDPad,CuDef*
%ADD22FreePoly0,0.000000*%
G04 #@! TD*
G04 #@! TA.AperFunction,SMDPad,CuDef*
%ADD23FreePoly1,0.000000*%
G04 #@! TD*
G04 #@! TA.AperFunction,SMDPad,CuDef*
%ADD24R,2.000000X2.000000*%
G04 #@! TD*
G04 #@! TA.AperFunction,SMDPad,CuDef*
%ADD25R,1.600000X1.000000*%
G04 #@! TD*
G04 #@! TA.AperFunction,SMDPad,CuDef*
%ADD26R,1.060000X0.650000*%
G04 #@! TD*
G04 #@! TA.AperFunction,SMDPad,CuDef*
%ADD27R,0.550000X1.500000*%
G04 #@! TD*
G04 #@! TA.AperFunction,SMDPad,CuDef*
%ADD28R,1.500000X0.550000*%
G04 #@! TD*
G04 #@! TA.AperFunction,ComponentPad*
%ADD29C,1.700000*%
G04 #@! TD*
G04 #@! TA.AperFunction,SMDPad,CuDef*
%ADD30R,2.000000X4.500000*%
G04 #@! TD*
G04 #@! TA.AperFunction,ViaPad*
%ADD31C,0.800000*%
G04 #@! TD*
G04 #@! TA.AperFunction,Conductor*
%ADD32C,0.203200*%
G04 #@! TD*
G04 #@! TA.AperFunction,Conductor*
%ADD33C,0.304800*%
G04 #@! TD*
G04 #@! TA.AperFunction,Conductor*
%ADD34C,0.381000*%
G04 #@! TD*
G04 #@! TA.AperFunction,Conductor*
%ADD35C,0.254000*%
G04 #@! TD*
G04 APERTURE END LIST*
D10*
D11*
X145787566Y-92999657D02*
X145932709Y-92927085D01*
X146150423Y-92927085D01*
X146368137Y-92999657D01*
X146513280Y-93144799D01*
X146585852Y-93289942D01*
X146658423Y-93580228D01*
X146658423Y-93797942D01*
X146585852Y-94088228D01*
X146513280Y-94233371D01*
X146368137Y-94378514D01*
X146150423Y-94451085D01*
X146005280Y-94451085D01*
X145787566Y-94378514D01*
X145714995Y-94305942D01*
X145714995Y-93797942D01*
X146005280Y-93797942D01*
X144844137Y-92927085D02*
X144844137Y-93289942D01*
X145206995Y-93144799D02*
X144844137Y-93289942D01*
X144481280Y-93144799D01*
X145061852Y-93580228D02*
X144844137Y-93289942D01*
X144626423Y-93580228D01*
X143682995Y-92927085D02*
X143682995Y-93289942D01*
X144045852Y-93144799D02*
X143682995Y-93289942D01*
X143320137Y-93144799D01*
X143900709Y-93580228D02*
X143682995Y-93289942D01*
X143465280Y-93580228D01*
X142521852Y-92927085D02*
X142521852Y-93289942D01*
X142884709Y-93144799D02*
X142521852Y-93289942D01*
X142158995Y-93144799D01*
X142739566Y-93580228D02*
X142521852Y-93289942D01*
X142304137Y-93580228D01*
G36*
X175225730Y-109469562D02*
G01*
X175568707Y-109739498D01*
X175896424Y-110140240D01*
X176152662Y-110554680D01*
X176174975Y-125621945D01*
X176177606Y-127592294D01*
X176179438Y-129441004D01*
X176180383Y-131130123D01*
X176180418Y-132664574D01*
X176179518Y-134049278D01*
X176177661Y-135289154D01*
X176174820Y-136389126D01*
X176170974Y-137354113D01*
X176166098Y-138189036D01*
X176160167Y-138898818D01*
X176153159Y-139488378D01*
X176145048Y-139962638D01*
X176135812Y-140326520D01*
X176125426Y-140584943D01*
X176113866Y-140742830D01*
X176101108Y-140805100D01*
X176046052Y-140813742D01*
X175830103Y-140824727D01*
X175458104Y-140835192D01*
X174937623Y-140845137D01*
X174276225Y-140854561D01*
X173481479Y-140863466D01*
X172560951Y-140871850D01*
X171522208Y-140879715D01*
X170372817Y-140887059D01*
X169120346Y-140893884D01*
X167772361Y-140900188D01*
X166336430Y-140905972D01*
X164820118Y-140911236D01*
X163230995Y-140915981D01*
X161576626Y-140920205D01*
X159864578Y-140923909D01*
X158102419Y-140927093D01*
X156297716Y-140929757D01*
X154458035Y-140931900D01*
X152590944Y-140933524D01*
X150704010Y-140934628D01*
X148804799Y-140935212D01*
X146900879Y-140935275D01*
X144999817Y-140934819D01*
X143109180Y-140933842D01*
X141236535Y-140932346D01*
X139389448Y-140930329D01*
X137575488Y-140927792D01*
X135802220Y-140924736D01*
X134077213Y-140921159D01*
X132408032Y-140917062D01*
X130802246Y-140912445D01*
X129267421Y-140907308D01*
X127811123Y-140901651D01*
X126440921Y-140895474D01*
X125164382Y-140888777D01*
X123989071Y-140881560D01*
X122922557Y-140873823D01*
X121972406Y-140865565D01*
X121146185Y-140856788D01*
X120451462Y-140847491D01*
X119895803Y-140837673D01*
X119486775Y-140827336D01*
X119231946Y-140816478D01*
X119138883Y-140805100D01*
X119126374Y-140745045D01*
X119114790Y-140589164D01*
X119104380Y-140332847D01*
X119095120Y-139971173D01*
X119086987Y-139499220D01*
X119079956Y-138912068D01*
X119074004Y-138204796D01*
X119069106Y-137372482D01*
X119065239Y-136410205D01*
X119062379Y-135313045D01*
X119060501Y-134076080D01*
X119059582Y-132694389D01*
X119059598Y-131163051D01*
X119060525Y-129477145D01*
X119062339Y-127631750D01*
X119065016Y-125621945D01*
X119087329Y-110554680D01*
X119343567Y-110140240D01*
X119613507Y-109797274D01*
X120014261Y-109469562D01*
X120428716Y-109213324D01*
X174811275Y-109213324D01*
X175225730Y-109469562D01*
G37*
G36*
X145220361Y-83761415D02*
G01*
X145949982Y-83823179D01*
X146627434Y-83940493D01*
X147311522Y-84123740D01*
X148061052Y-84383307D01*
X149119322Y-84853900D01*
X150187521Y-85495551D01*
X151156832Y-86257256D01*
X152020269Y-87125615D01*
X152770844Y-88087231D01*
X153401571Y-89128705D01*
X153905461Y-90236639D01*
X154275528Y-91397634D01*
X154504785Y-92598293D01*
X154586243Y-93825216D01*
X154512917Y-95065006D01*
X154277819Y-96304264D01*
X154071735Y-97002997D01*
X153586174Y-98205807D01*
X152964351Y-99321593D01*
X152216700Y-100341122D01*
X151353653Y-101255159D01*
X150385644Y-102054471D01*
X149323107Y-102729824D01*
X148176476Y-103271986D01*
X146956183Y-103671722D01*
X145672662Y-103919798D01*
X145525963Y-103936144D01*
X144939350Y-103967195D01*
X144266786Y-103962152D01*
X143569085Y-103923938D01*
X142907063Y-103855476D01*
X142341533Y-103759690D01*
X141734214Y-103607846D01*
X140508771Y-103177278D01*
X139356659Y-102601877D01*
X138290684Y-101890803D01*
X137323652Y-101053220D01*
X136468367Y-100098286D01*
X135737636Y-99035164D01*
X135423584Y-98468304D01*
X134919240Y-97313045D01*
X134569816Y-96129144D01*
X134370830Y-94929498D01*
X134317798Y-93727007D01*
X134406239Y-92534569D01*
X134631670Y-91365082D01*
X134989611Y-90231447D01*
X135475578Y-89146561D01*
X136085089Y-88123322D01*
X136813663Y-87174631D01*
X137656817Y-86313385D01*
X138610069Y-85552483D01*
X139668937Y-84904825D01*
X140828939Y-84383307D01*
X141527597Y-84139691D01*
X142214420Y-83951316D01*
X142890391Y-83829620D01*
X143614314Y-83764218D01*
X144444995Y-83744725D01*
X145220361Y-83761415D01*
G37*
D12*
X178138334Y-54990000D03*
X176563334Y-54990000D03*
X174730834Y-63670000D03*
X173155834Y-63670000D03*
X174740834Y-54990000D03*
X173165834Y-54990000D03*
D13*
X146183334Y-68252500D03*
X146183334Y-69827500D03*
X123003334Y-55212500D03*
X123003334Y-56787500D03*
D14*
X122913334Y-63747500D03*
X122913334Y-62172500D03*
D15*
X160025834Y-49260000D03*
X161600834Y-49260000D03*
D16*
X108025000Y-70015000D03*
D17*
X110565000Y-70015000D03*
X108025000Y-67475000D03*
X110565000Y-67475000D03*
X108025000Y-64935000D03*
X110565000Y-64935000D03*
D18*
X184813334Y-58260000D03*
X184813334Y-58910000D03*
X184813334Y-59560000D03*
X184813334Y-60210000D03*
X184813334Y-60860000D03*
D19*
X187473334Y-60400000D03*
X187473334Y-58720000D03*
D20*
X187473334Y-62470000D03*
D21*
X185173334Y-62022500D03*
D20*
X187473334Y-56650000D03*
D21*
X185173334Y-57097500D03*
D22*
X159480000Y-54010000D03*
D23*
X160780000Y-54010000D03*
D15*
X178515834Y-60600000D03*
X180090834Y-60600000D03*
X178515834Y-58810000D03*
X180090834Y-58810000D03*
D14*
X118110000Y-53727500D03*
X118110000Y-52152500D03*
D12*
X157320834Y-49260000D03*
X155745834Y-49260000D03*
X169580834Y-52300000D03*
X168005834Y-52300000D03*
D24*
X127603334Y-50010000D03*
D25*
X116230000Y-49375000D03*
X120030000Y-49375000D03*
X116230000Y-47975000D03*
X120030000Y-47975000D03*
D24*
X133713334Y-50010000D03*
D26*
X175023334Y-58310000D03*
X175023334Y-59260000D03*
X175023334Y-60210000D03*
X172823334Y-60210000D03*
X172823334Y-58310000D03*
D27*
X150523334Y-65160000D03*
X149723334Y-65160000D03*
X148923334Y-65160000D03*
X148123334Y-65160000D03*
X147323334Y-65160000D03*
X146523334Y-65160000D03*
X145723334Y-65160000D03*
X144923334Y-65160000D03*
X144123334Y-65160000D03*
X143323334Y-65160000D03*
X142523334Y-65160000D03*
D28*
X140823334Y-63460000D03*
X140823334Y-62660000D03*
X140823334Y-61860000D03*
X140823334Y-61060000D03*
X140823334Y-60260000D03*
X140823334Y-59460000D03*
X140823334Y-58660000D03*
X140823334Y-57860000D03*
X140823334Y-57060000D03*
X140823334Y-56260000D03*
X140823334Y-55460000D03*
D27*
X142523334Y-53760000D03*
X143323334Y-53760000D03*
X144123334Y-53760000D03*
X144923334Y-53760000D03*
X145723334Y-53760000D03*
X146523334Y-53760000D03*
X147323334Y-53760000D03*
X148123334Y-53760000D03*
X148923334Y-53760000D03*
X149723334Y-53760000D03*
X150523334Y-53760000D03*
D28*
X152223334Y-55460000D03*
X152223334Y-56260000D03*
X152223334Y-57060000D03*
X152223334Y-57860000D03*
X152223334Y-58660000D03*
X152223334Y-59460000D03*
X152223334Y-60260000D03*
X152223334Y-61060000D03*
X152223334Y-61860000D03*
X152223334Y-62660000D03*
X152223334Y-63460000D03*
D17*
X141373334Y-74600000D03*
X141373334Y-77140000D03*
D29*
X143913334Y-74600000D03*
D17*
X143913334Y-77140000D03*
D29*
X146453334Y-74600000D03*
D17*
X146453334Y-77140000D03*
D30*
X127143334Y-63810000D03*
X127143334Y-55310000D03*
D31*
X118095000Y-47875000D03*
X165740000Y-53260000D03*
X165730000Y-50730000D03*
X137400000Y-61340000D03*
X137390000Y-54830000D03*
X179500000Y-73490000D03*
X177960000Y-64540000D03*
X116410000Y-53860000D03*
X104910000Y-57170000D03*
X104930000Y-73040000D03*
X108330000Y-91570000D03*
X114890000Y-93120000D03*
X114840000Y-97200000D03*
X132570000Y-93750000D03*
X132550000Y-97760000D03*
X172823334Y-56473334D03*
X154730000Y-61080000D03*
X181480000Y-60690000D03*
X180960000Y-77590000D03*
X180940000Y-94800000D03*
X172780000Y-102160000D03*
X155110000Y-102170000D03*
X137030000Y-102310000D03*
X119800000Y-102170000D03*
X111720000Y-94790000D03*
X111710000Y-77600000D03*
X111730000Y-60390000D03*
X113550000Y-53650000D03*
X113520000Y-50730000D03*
X113510000Y-68700000D03*
X152343334Y-65650000D03*
X142443334Y-57740000D03*
X142443334Y-58780000D03*
X143383334Y-51950000D03*
X178633334Y-65430000D03*
X174233334Y-65460000D03*
X169573334Y-50910000D03*
X163503334Y-49270000D03*
D32*
X148983334Y-53700000D02*
X148923334Y-53760000D01*
X148983334Y-50010000D02*
X148983334Y-53700000D01*
X179180000Y-64540000D02*
X179500000Y-64860000D01*
X177960000Y-64540000D02*
X179180000Y-64540000D01*
X179500000Y-64860000D02*
X179500000Y-73490000D01*
D33*
X117977500Y-53860000D02*
X118110000Y-53727500D01*
X116410000Y-53860000D02*
X117977500Y-53860000D01*
X104930000Y-57190000D02*
X104910000Y-57170000D01*
X104930000Y-73040000D02*
X104930000Y-57190000D01*
X108330000Y-91570000D02*
X113340000Y-91570000D01*
X113340000Y-91570000D02*
X114890000Y-93120000D01*
X114840000Y-93170000D02*
X114890000Y-93120000D01*
X114840000Y-97200000D02*
X114840000Y-93170000D01*
X132550000Y-97760000D02*
X132550000Y-93770000D01*
X132550000Y-93770000D02*
X132570000Y-93750000D01*
D34*
X172823334Y-58310000D02*
X172823334Y-56473334D01*
X172823334Y-56473334D02*
X172823334Y-55332500D01*
D32*
X152243334Y-61080000D02*
X152223334Y-61060000D01*
X154730000Y-61080000D02*
X152243334Y-61080000D01*
X144123334Y-67790000D02*
X144123334Y-65160000D01*
X142963334Y-68950000D02*
X144123334Y-67790000D01*
X114740000Y-68950000D02*
X142963334Y-68950000D01*
X105570000Y-68370000D02*
X105570000Y-71250000D01*
X105570000Y-71250000D02*
X106450000Y-72130000D01*
X108025000Y-67475000D02*
X106465000Y-67475000D01*
X111560000Y-72130000D02*
X114740000Y-68950000D01*
X106450000Y-72130000D02*
X111560000Y-72130000D01*
X106465000Y-67475000D02*
X105570000Y-68370000D01*
X113840000Y-68370000D02*
X113510000Y-68700000D01*
X142043334Y-68370000D02*
X113840000Y-68370000D01*
X113190000Y-67830000D02*
X112320000Y-68700000D01*
X112320000Y-68700000D02*
X109140000Y-68700000D01*
X141473334Y-67830000D02*
X113190000Y-67830000D01*
X142523334Y-66780000D02*
X141473334Y-67830000D01*
X109140000Y-68700000D02*
X108025000Y-69815000D01*
X142523334Y-65160000D02*
X142523334Y-66780000D01*
X108025000Y-69815000D02*
X108025000Y-70015000D01*
X109757500Y-52152500D02*
X118110000Y-52152500D01*
X108025000Y-53885000D02*
X109757500Y-52152500D01*
X108025000Y-64935000D02*
X108025000Y-53885000D01*
X120360000Y-52760000D02*
X119752500Y-52152500D01*
X120360000Y-65630000D02*
X120360000Y-52760000D01*
X121930000Y-67200000D02*
X120360000Y-65630000D01*
X130020000Y-67200000D02*
X121930000Y-67200000D01*
X134760000Y-62460000D02*
X130020000Y-67200000D01*
X138533334Y-62460000D02*
X134760000Y-62460000D01*
X119752500Y-52152500D02*
X118110000Y-52152500D01*
X118110000Y-48090000D02*
X118225000Y-47975000D01*
X118110000Y-52152500D02*
X118110000Y-48090000D01*
X118225000Y-47975000D02*
X120080000Y-47975000D01*
X116230000Y-47975000D02*
X118225000Y-47975000D01*
X120080000Y-47975000D02*
X120180000Y-47875000D01*
X159480000Y-54010000D02*
X159510000Y-53980000D01*
X159510000Y-52170000D02*
X151613334Y-52170000D01*
X159510000Y-53980000D02*
X159510000Y-52170000D01*
X165273334Y-52170000D02*
X159510000Y-52170000D01*
X138733334Y-62660000D02*
X138533334Y-62460000D01*
X140823334Y-62660000D02*
X138733334Y-62660000D01*
X133653334Y-50070000D02*
X133713334Y-50010000D01*
X133653334Y-55170000D02*
X133653334Y-50070000D01*
X151853334Y-65160000D02*
X152343334Y-65650000D01*
X150523334Y-65160000D02*
X151853334Y-65160000D01*
X140823334Y-57860000D02*
X142323334Y-57860000D01*
X142323334Y-57860000D02*
X142443334Y-57740000D01*
X140943334Y-58780000D02*
X140823334Y-58660000D01*
X142443334Y-58780000D02*
X140943334Y-58780000D01*
D35*
X143323334Y-53760000D02*
X143323334Y-52010000D01*
X143323334Y-52010000D02*
X143383334Y-51950000D01*
D33*
X149723334Y-66350000D02*
X150183334Y-66810000D01*
X149723334Y-65160000D02*
X149723334Y-66350000D01*
X150183334Y-66810000D02*
X175313334Y-66810000D01*
X176303334Y-65820000D02*
X176303334Y-60570000D01*
X176303334Y-60570000D02*
X175943334Y-60210000D01*
X175313334Y-66810000D02*
X176303334Y-65820000D01*
D32*
X148923334Y-66920000D02*
X148923334Y-65160000D01*
X176763334Y-66310000D02*
X175803334Y-67270000D01*
X178303334Y-58810000D02*
X176763334Y-60350000D01*
X149273334Y-67270000D02*
X148923334Y-66920000D01*
X178515834Y-58810000D02*
X178303334Y-58810000D01*
X176763334Y-60350000D02*
X176763334Y-66310000D01*
X175803334Y-67270000D02*
X149273334Y-67270000D01*
X175803334Y-67270000D02*
X171173334Y-67270000D01*
X177173334Y-66910000D02*
X177173334Y-61740000D01*
X176403334Y-67680000D02*
X177173334Y-66910000D01*
X177173334Y-61740000D02*
X178313334Y-60600000D01*
X178313334Y-60600000D02*
X178515834Y-60600000D01*
X148123334Y-67290000D02*
X148513334Y-67680000D01*
X148123334Y-65160000D02*
X148123334Y-67290000D01*
X177173334Y-66910000D02*
X177173334Y-66180000D01*
X148513334Y-67680000D02*
X176403334Y-67680000D01*
X143323334Y-65160000D02*
X143323334Y-67090000D01*
X143323334Y-67090000D02*
X142043334Y-68370000D01*
X146523334Y-68282500D02*
X146593334Y-68352500D01*
X146523334Y-65160000D02*
X146523334Y-68282500D01*
D35*
X143703334Y-55460000D02*
X143323334Y-55080000D01*
X152223334Y-55460000D02*
X143703334Y-55460000D01*
X143323334Y-55080000D02*
X143323334Y-53760000D01*
X143323334Y-61140000D02*
X143323334Y-55080000D01*
X150008334Y-61705000D02*
X149443334Y-61140000D01*
X150163334Y-61860000D02*
X150008334Y-61705000D01*
X150453334Y-62150000D02*
X150008334Y-61705000D01*
X152223334Y-61860000D02*
X150163334Y-61860000D01*
X150453334Y-63010000D02*
X150453334Y-62150000D01*
X150903334Y-63460000D02*
X150453334Y-63010000D01*
X152223334Y-63460000D02*
X150903334Y-63460000D01*
X149443334Y-61140000D02*
X143323334Y-61140000D01*
X142603334Y-61860000D02*
X143323334Y-61140000D01*
X140823334Y-61860000D02*
X142603334Y-61860000D01*
D32*
X169573334Y-52292500D02*
X169580834Y-52300000D01*
X169573334Y-50910000D02*
X169573334Y-52292500D01*
X173165834Y-54502500D02*
X173165834Y-54990000D01*
D34*
X169573342Y-50910007D02*
X173165842Y-54502507D01*
D33*
X152223334Y-62660000D02*
X152183334Y-62620000D01*
X149723334Y-62540000D02*
X149723334Y-65160000D01*
X149423334Y-62240000D02*
X149723334Y-62540000D01*
X146113334Y-62240000D02*
X149423334Y-62240000D01*
X145723334Y-62630000D02*
X146113334Y-62240000D01*
X145723334Y-65160000D02*
X145723334Y-62630000D01*
D34*
X173903334Y-59260000D02*
X173903334Y-61720000D01*
X173903334Y-59260000D02*
X173903334Y-56920000D01*
X173903334Y-59260000D02*
X171273334Y-59260000D01*
X175023334Y-59260000D02*
X173903334Y-59260000D01*
X171273334Y-59260000D02*
X171043334Y-59260000D01*
D32*
X161610834Y-49270000D02*
X161600834Y-49260000D01*
X169580834Y-50917500D02*
X169573334Y-50910000D01*
X163503334Y-49270000D02*
X161610834Y-49270000D01*
X157320834Y-49260000D02*
X160025834Y-49260000D01*
X134743334Y-56260000D02*
X133653334Y-55170000D01*
X140823334Y-56260000D02*
X134743334Y-56260000D01*
X134373334Y-57060000D02*
X127543334Y-50230000D01*
X140823334Y-57060000D02*
X134373334Y-57060000D01*
X127080834Y-63747500D02*
X127143334Y-63810000D01*
X122913334Y-63747500D02*
X127080834Y-63747500D01*
X127045834Y-55212500D02*
X127143334Y-55310000D01*
X123003334Y-55212500D02*
X127045834Y-55212500D01*
X132873334Y-60250000D02*
X140813334Y-60250000D01*
X129313334Y-63810000D02*
X132873334Y-60250000D01*
X140813334Y-60250000D02*
X140823334Y-60260000D01*
X127143334Y-63810000D02*
X129313334Y-63810000D01*
X128723334Y-55310000D02*
X132873334Y-59460000D01*
X132873334Y-59460000D02*
X140823334Y-59460000D01*
X127143334Y-55310000D02*
X128723334Y-55310000D01*
D33*
X140823334Y-61060000D02*
X138623334Y-61060000D01*
X142523334Y-53760000D02*
X142523334Y-51580000D01*
X152223334Y-56260000D02*
X154263334Y-56260000D01*
X152223334Y-62660000D02*
X154803334Y-62660000D01*
X147323334Y-65160000D02*
X147323334Y-67080000D01*
D32*
X149733334Y-49260000D02*
X148983334Y-50010000D01*
X155745834Y-49260000D02*
X149733334Y-49260000D01*
X167875834Y-52170000D02*
X168005834Y-52300000D01*
X165273334Y-52170000D02*
X167875834Y-52170000D01*
X151613334Y-52170000D02*
X150583334Y-53200000D01*
D34*
X172823334Y-63337500D02*
X173155834Y-63670000D01*
X172823334Y-60210000D02*
X172823334Y-63337500D01*
X172823334Y-55332500D02*
X173165834Y-54990000D01*
X175943334Y-60210000D02*
X176423334Y-59730000D01*
X176423334Y-59730000D02*
X176423334Y-56910000D01*
X175023334Y-60210000D02*
X175943334Y-60210000D01*
X176913334Y-56910000D02*
X178193334Y-56910000D01*
X176423334Y-56910000D02*
X176913334Y-56910000D01*
X178138334Y-56855000D02*
X178193334Y-56910000D01*
X178193334Y-56910000D02*
X181343334Y-56910000D01*
X178138334Y-54990000D02*
X178138334Y-56855000D01*
X175023334Y-58310000D02*
X176423334Y-56910000D01*
X184813334Y-58260000D02*
X182693334Y-58260000D01*
X182693334Y-58260000D02*
X181343334Y-56910000D01*
D35*
X182893334Y-60860000D02*
X182723334Y-61030000D01*
D34*
X184813342Y-60860000D02*
X182893331Y-60860000D01*
D35*
X185620834Y-62470000D02*
X185173334Y-62022500D01*
X187473334Y-62470000D02*
X185620834Y-62470000D01*
X187473334Y-60400000D02*
X187473334Y-62470000D01*
X187473334Y-58720000D02*
X187473334Y-60400000D01*
X187473334Y-56650000D02*
X187473334Y-58720000D01*
X187025834Y-57097500D02*
X187473334Y-56650000D01*
X185173334Y-57097500D02*
X187025834Y-57097500D01*
X184813334Y-60860000D02*
X184793334Y-60880000D01*
X184813334Y-59560000D02*
X181130834Y-59560000D01*
X181130834Y-59560000D02*
X180090834Y-60600000D01*
X180190834Y-58910000D02*
X180090834Y-58810000D01*
X184813334Y-58910000D02*
X180190834Y-58910000D01*
G04 #@! TA.AperFunction,Conductor*
G36*
X114858621Y-47428002D02*
G01*
X114905114Y-47481658D01*
X114916500Y-47534000D01*
X114916500Y-48475000D01*
X114921727Y-48548079D01*
X114945244Y-48628171D01*
X114947366Y-48635397D01*
X114947366Y-48706393D01*
X114941820Y-48721263D01*
X114936498Y-48739388D01*
X114917639Y-48870554D01*
X114917000Y-48879495D01*
X114917000Y-49102885D01*
X114921475Y-49118124D01*
X114922865Y-49119329D01*
X114930548Y-49121000D01*
X116358000Y-49121000D01*
X116426121Y-49141002D01*
X116472614Y-49194658D01*
X116484000Y-49247000D01*
X116484000Y-50369885D01*
X116488475Y-50385124D01*
X116489865Y-50386329D01*
X116497548Y-50388000D01*
X117027743Y-50388000D01*
X117032250Y-50387839D01*
X117096269Y-50383260D01*
X117109491Y-50380874D01*
X117234458Y-50344181D01*
X117250687Y-50336769D01*
X117305780Y-50301364D01*
X117373901Y-50281363D01*
X117442022Y-50301366D01*
X117488514Y-50355022D01*
X117499900Y-50407363D01*
X117499900Y-51227981D01*
X117479898Y-51296102D01*
X117442985Y-51333353D01*
X117396944Y-51363539D01*
X117384049Y-51371993D01*
X117267414Y-51495115D01*
X117267042Y-51494762D01*
X117214077Y-51534440D01*
X117170003Y-51542400D01*
X109834783Y-51542400D01*
X109823073Y-51541848D01*
X109815387Y-51540130D01*
X109807461Y-51540379D01*
X109807460Y-51540379D01*
X109745126Y-51542338D01*
X109741168Y-51542400D01*
X109717920Y-51542400D01*
X109713999Y-51542896D01*
X109710034Y-51543145D01*
X109710034Y-51543138D01*
X109703624Y-51543643D01*
X109672062Y-51544634D01*
X109669203Y-51544724D01*
X109661278Y-51544973D01*
X109642894Y-51550314D01*
X109623532Y-51554324D01*
X109619702Y-51554808D01*
X109612398Y-51555730D01*
X109612396Y-51555730D01*
X109604531Y-51556724D01*
X109565122Y-51572328D01*
X109553921Y-51576163D01*
X109513214Y-51587989D01*
X109506390Y-51592025D01*
X109506387Y-51592026D01*
X109496725Y-51597740D01*
X109478975Y-51606436D01*
X109461173Y-51613484D01*
X109454757Y-51618145D01*
X109454756Y-51618146D01*
X109426900Y-51638385D01*
X109416976Y-51644904D01*
X109387842Y-51662133D01*
X109387837Y-51662137D01*
X109381019Y-51666169D01*
X109367738Y-51679450D01*
X109352703Y-51692291D01*
X109342852Y-51699448D01*
X109342848Y-51699451D01*
X109336435Y-51704111D01*
X109331382Y-51710219D01*
X109308408Y-51737990D01*
X109300418Y-51746770D01*
X107648245Y-53398943D01*
X107639570Y-53406838D01*
X107632921Y-53411057D01*
X107627495Y-53416835D01*
X107627494Y-53416836D01*
X107584794Y-53462307D01*
X107582039Y-53465149D01*
X107565607Y-53481581D01*
X107563178Y-53484713D01*
X107560558Y-53487684D01*
X107560552Y-53487679D01*
X107556378Y-53492567D01*
X107527374Y-53523453D01*
X107523557Y-53530397D01*
X107523555Y-53530399D01*
X107518151Y-53540229D01*
X107507294Y-53556757D01*
X107495557Y-53571888D01*
X107492409Y-53579163D01*
X107478726Y-53610782D01*
X107473509Y-53621431D01*
X107453094Y-53658567D01*
X107448332Y-53677114D01*
X107441930Y-53695813D01*
X107437471Y-53706117D01*
X107437470Y-53706121D01*
X107434323Y-53713393D01*
X107433083Y-53721222D01*
X107427694Y-53755248D01*
X107425286Y-53766874D01*
X107414900Y-53807324D01*
X107414900Y-53826105D01*
X107413349Y-53845816D01*
X107410203Y-53865679D01*
X107410949Y-53873570D01*
X107414341Y-53909452D01*
X107414900Y-53921310D01*
X107414900Y-63645102D01*
X107394898Y-63713223D01*
X107354265Y-63752821D01*
X107226196Y-63830535D01*
X107226189Y-63830540D01*
X107221631Y-63833306D01*
X107217601Y-63836803D01*
X107060905Y-63972776D01*
X107047492Y-63984415D01*
X107044109Y-63988541D01*
X107044105Y-63988545D01*
X106953987Y-64098453D01*
X106901304Y-64162705D01*
X106898665Y-64167341D01*
X106898663Y-64167344D01*
X106828430Y-64290725D01*
X106787245Y-64363077D01*
X106708578Y-64579802D01*
X106707629Y-64585051D01*
X106707628Y-64585054D01*
X106679337Y-64741504D01*
X106667551Y-64806683D01*
X106665338Y-65037233D01*
X106702002Y-65264861D01*
X106776494Y-65483056D01*
X106779044Y-65487743D01*
X106779045Y-65487745D01*
X106810875Y-65546246D01*
X106886685Y-65685580D01*
X107029424Y-65866644D01*
X107056177Y-65890775D01*
X107196659Y-66017489D01*
X107196665Y-66017494D01*
X107200629Y-66021069D01*
X107205142Y-66023928D01*
X107205144Y-66023929D01*
X107323242Y-66098731D01*
X107370087Y-66152079D01*
X107380654Y-66222285D01*
X107351587Y-66287058D01*
X107321186Y-66312894D01*
X107226196Y-66370535D01*
X107226191Y-66370539D01*
X107221631Y-66373306D01*
X107217601Y-66376803D01*
X107056911Y-66516242D01*
X107047492Y-66524415D01*
X107044109Y-66528541D01*
X107044105Y-66528545D01*
X106993798Y-66589900D01*
X106901304Y-66702705D01*
X106898666Y-66707339D01*
X106898663Y-66707344D01*
X106845219Y-66801232D01*
X106794137Y-66850539D01*
X106735717Y-66864900D01*
X106542282Y-66864900D01*
X106530572Y-66864348D01*
X106522886Y-66862630D01*
X106514960Y-66862879D01*
X106514959Y-66862879D01*
X106452626Y-66864838D01*
X106448668Y-66864900D01*
X106425420Y-66864900D01*
X106421499Y-66865396D01*
X106417534Y-66865645D01*
X106417534Y-66865638D01*
X106411124Y-66866143D01*
X106379562Y-66867134D01*
X106376703Y-66867224D01*
X106368778Y-66867473D01*
X106350394Y-66872814D01*
X106331032Y-66876824D01*
X106327202Y-66877308D01*
X106319898Y-66878230D01*
X106319896Y-66878230D01*
X106312031Y-66879224D01*
X106272622Y-66894828D01*
X106261421Y-66898663D01*
X106220714Y-66910489D01*
X106213890Y-66914525D01*
X106213887Y-66914526D01*
X106204225Y-66920240D01*
X106186475Y-66928936D01*
X106168673Y-66935984D01*
X106162257Y-66940645D01*
X106162256Y-66940646D01*
X106134400Y-66960885D01*
X106124476Y-66967404D01*
X106095342Y-66984633D01*
X106095337Y-66984637D01*
X106088519Y-66988669D01*
X106075238Y-67001950D01*
X106060203Y-67014791D01*
X106050352Y-67021948D01*
X106050348Y-67021951D01*
X106043935Y-67026611D01*
X106038882Y-67032719D01*
X106015908Y-67060490D01*
X106007918Y-67069270D01*
X105805995Y-67271193D01*
X105743683Y-67305219D01*
X105672868Y-67300154D01*
X105616032Y-67257607D01*
X105591221Y-67191087D01*
X105590900Y-67182098D01*
X105590900Y-57819876D01*
X105610902Y-57751755D01*
X105623258Y-57735573D01*
X105649037Y-57706942D01*
X105715058Y-57592591D01*
X105741220Y-57547277D01*
X105741221Y-57547276D01*
X105744524Y-57541554D01*
X105775726Y-57445525D01*
X105801498Y-57366206D01*
X105801498Y-57366205D01*
X105803538Y-57359927D01*
X105805691Y-57339448D01*
X105822810Y-57176565D01*
X105823500Y-57170000D01*
X105810465Y-57045975D01*
X105804228Y-56986637D01*
X105804228Y-56986636D01*
X105803538Y-56980073D01*
X105744524Y-56798446D01*
X105649037Y-56633058D01*
X105555366Y-56529025D01*
X105525673Y-56496048D01*
X105525672Y-56496047D01*
X105521251Y-56491137D01*
X105515909Y-56487256D01*
X105515907Y-56487254D01*
X105372092Y-56382767D01*
X105372091Y-56382766D01*
X105366750Y-56378886D01*
X105360722Y-56376202D01*
X105360720Y-56376201D01*
X105198318Y-56303895D01*
X105198317Y-56303895D01*
X105192287Y-56301210D01*
X105098887Y-56281357D01*
X105011944Y-56262876D01*
X105011939Y-56262876D01*
X105005487Y-56261504D01*
X104814513Y-56261504D01*
X104808061Y-56262876D01*
X104808056Y-56262876D01*
X104721113Y-56281357D01*
X104627713Y-56301210D01*
X104621683Y-56303895D01*
X104621682Y-56303895D01*
X104459280Y-56376201D01*
X104459278Y-56376202D01*
X104453250Y-56378886D01*
X104447909Y-56382766D01*
X104447908Y-56382767D01*
X104304093Y-56487254D01*
X104304091Y-56487256D01*
X104298749Y-56491137D01*
X104294328Y-56496047D01*
X104294327Y-56496048D01*
X104264635Y-56529025D01*
X104170963Y-56633058D01*
X104075476Y-56798446D01*
X104016462Y-56980073D01*
X104015772Y-56986636D01*
X104015772Y-56986637D01*
X104009535Y-57045975D01*
X103996500Y-57170000D01*
X103997190Y-57176565D01*
X104014310Y-57339448D01*
X104016462Y-57359927D01*
X104018502Y-57366205D01*
X104018502Y-57366206D01*
X104044274Y-57445525D01*
X104075476Y-57541554D01*
X104078779Y-57547276D01*
X104078780Y-57547277D01*
X104104942Y-57592591D01*
X104170963Y-57706942D01*
X104175381Y-57711849D01*
X104175382Y-57711850D01*
X104194426Y-57733000D01*
X104229101Y-57771510D01*
X104236736Y-57779990D01*
X104267453Y-57843998D01*
X104269100Y-57864301D01*
X104269100Y-72367912D01*
X104249098Y-72436033D01*
X104236742Y-72452216D01*
X104190963Y-72503058D01*
X104137282Y-72596036D01*
X104109524Y-72644115D01*
X104095476Y-72668446D01*
X104083167Y-72706329D01*
X104043110Y-72829614D01*
X104036462Y-72850073D01*
X104016500Y-73040000D01*
X104017190Y-73046565D01*
X104025406Y-73124731D01*
X104036462Y-73229927D01*
X104038502Y-73236205D01*
X104038502Y-73236206D01*
X104070633Y-73335094D01*
X104095476Y-73411554D01*
X104190963Y-73576942D01*
X104195381Y-73581849D01*
X104195382Y-73581850D01*
X104314327Y-73713952D01*
X104318749Y-73718863D01*
X104324091Y-73722744D01*
X104324093Y-73722746D01*
X104462876Y-73823577D01*
X104473250Y-73831114D01*
X104479278Y-73833798D01*
X104479280Y-73833799D01*
X104541619Y-73861554D01*
X104647713Y-73908790D01*
X104740257Y-73928461D01*
X104828056Y-73947124D01*
X104828061Y-73947124D01*
X104834513Y-73948496D01*
X105025487Y-73948496D01*
X105031939Y-73947124D01*
X105031944Y-73947124D01*
X105119743Y-73928461D01*
X105212287Y-73908790D01*
X105318381Y-73861554D01*
X105380720Y-73833799D01*
X105380722Y-73833798D01*
X105386750Y-73831114D01*
X105397124Y-73823577D01*
X105535907Y-73722746D01*
X105535909Y-73722744D01*
X105541251Y-73718863D01*
X105545673Y-73713952D01*
X105664618Y-73581850D01*
X105664619Y-73581849D01*
X105669037Y-73576942D01*
X105764524Y-73411554D01*
X105789367Y-73335094D01*
X105821498Y-73236206D01*
X105821498Y-73236205D01*
X105823538Y-73229927D01*
X105834595Y-73124731D01*
X105842810Y-73046565D01*
X105843500Y-73040000D01*
X105823538Y-72850073D01*
X105816891Y-72829614D01*
X105776833Y-72706329D01*
X105764524Y-72668446D01*
X105749768Y-72642889D01*
X105733031Y-72573896D01*
X105756251Y-72506804D01*
X105812058Y-72462916D01*
X105882733Y-72456167D01*
X105947983Y-72490795D01*
X105963943Y-72506755D01*
X105971838Y-72515430D01*
X105976057Y-72522079D01*
X105981835Y-72527505D01*
X105981836Y-72527506D01*
X106027307Y-72570206D01*
X106030149Y-72572961D01*
X106046581Y-72589393D01*
X106049713Y-72591822D01*
X106052684Y-72594442D01*
X106052679Y-72594448D01*
X106057567Y-72598622D01*
X106088453Y-72627626D01*
X106095397Y-72631443D01*
X106095399Y-72631445D01*
X106105229Y-72636849D01*
X106121758Y-72647706D01*
X106136888Y-72659443D01*
X106175782Y-72676274D01*
X106186431Y-72681491D01*
X106223567Y-72701906D01*
X106242114Y-72706668D01*
X106260813Y-72713070D01*
X106271117Y-72717529D01*
X106271121Y-72717530D01*
X106278393Y-72720677D01*
X106286222Y-72721917D01*
X106320248Y-72727306D01*
X106331874Y-72729714D01*
X106364647Y-72738129D01*
X106364648Y-72738129D01*
X106372324Y-72740100D01*
X106391105Y-72740100D01*
X106410816Y-72741651D01*
X106415356Y-72742370D01*
X106430679Y-72744797D01*
X106438570Y-72744051D01*
X106474452Y-72740659D01*
X106486310Y-72740100D01*
X111482717Y-72740100D01*
X111494427Y-72740652D01*
X111502113Y-72742370D01*
X111510039Y-72742121D01*
X111510040Y-72742121D01*
X111572374Y-72740162D01*
X111576332Y-72740100D01*
X111599580Y-72740100D01*
X111603501Y-72739604D01*
X111607466Y-72739355D01*
X111607466Y-72739362D01*
X111613876Y-72738857D01*
X111645438Y-72737866D01*
X111648297Y-72737776D01*
X111656222Y-72737527D01*
X111674606Y-72732186D01*
X111693968Y-72728176D01*
X111697798Y-72727692D01*
X111705102Y-72726770D01*
X111705104Y-72726770D01*
X111712969Y-72725776D01*
X111752378Y-72710172D01*
X111763579Y-72706337D01*
X111804286Y-72694511D01*
X111811110Y-72690475D01*
X111811113Y-72690474D01*
X111820775Y-72684760D01*
X111838526Y-72676064D01*
X111841893Y-72674731D01*
X111856327Y-72669016D01*
X111865171Y-72662591D01*
X111890600Y-72644115D01*
X111900524Y-72637596D01*
X111929658Y-72620367D01*
X111929663Y-72620363D01*
X111936481Y-72616331D01*
X111949762Y-72603050D01*
X111964797Y-72590209D01*
X111974648Y-72583052D01*
X111974652Y-72583049D01*
X111981065Y-72578389D01*
X112009092Y-72544510D01*
X112017082Y-72535730D01*
X114459827Y-70092985D01*
X145200783Y-70092985D01*
X145214112Y-70207319D01*
X145217456Y-70221466D01*
X145270291Y-70367022D01*
X145276799Y-70380017D01*
X145361699Y-70509511D01*
X145371023Y-70520663D01*
X145483432Y-70627149D01*
X145495079Y-70635862D01*
X145628974Y-70713635D01*
X145642299Y-70719429D01*
X145791318Y-70764562D01*
X145803941Y-70767010D01*
X145868268Y-70772751D01*
X145873863Y-70773000D01*
X145911219Y-70773000D01*
X145926458Y-70768525D01*
X145927663Y-70767135D01*
X145929334Y-70759452D01*
X145929334Y-70099615D01*
X145927993Y-70095048D01*
X146437334Y-70095048D01*
X146437334Y-70754885D01*
X146441809Y-70770124D01*
X146443199Y-70771329D01*
X146450882Y-70773000D01*
X146478808Y-70773000D01*
X146486112Y-70772575D01*
X146600653Y-70759222D01*
X146614800Y-70755878D01*
X146760356Y-70703043D01*
X146773351Y-70696535D01*
X146902845Y-70611635D01*
X146913997Y-70602311D01*
X147020483Y-70489902D01*
X147029196Y-70478255D01*
X147106969Y-70344360D01*
X147112763Y-70331035D01*
X147157896Y-70182016D01*
X147160344Y-70169393D01*
X147166085Y-70105066D01*
X147166328Y-70099596D01*
X147161859Y-70084376D01*
X147160469Y-70083171D01*
X147152786Y-70081500D01*
X146455449Y-70081500D01*
X146440210Y-70085975D01*
X146439005Y-70087365D01*
X146437334Y-70095048D01*
X145927993Y-70095048D01*
X145924859Y-70084376D01*
X145923469Y-70083171D01*
X145915786Y-70081500D01*
X145218449Y-70081500D01*
X145203210Y-70085975D01*
X145202005Y-70087365D01*
X145200783Y-70092985D01*
X114459827Y-70092985D01*
X114955807Y-69597005D01*
X115018119Y-69562979D01*
X115044902Y-69560100D01*
X142886051Y-69560100D01*
X142897761Y-69560652D01*
X142905447Y-69562370D01*
X142913373Y-69562121D01*
X142913374Y-69562121D01*
X142975708Y-69560162D01*
X142979666Y-69560100D01*
X143002914Y-69560100D01*
X143006835Y-69559604D01*
X143010800Y-69559355D01*
X143010800Y-69559362D01*
X143017210Y-69558857D01*
X143048772Y-69557866D01*
X143051631Y-69557776D01*
X143059556Y-69557527D01*
X143077940Y-69552186D01*
X143097302Y-69548176D01*
X143101132Y-69547692D01*
X143108436Y-69546770D01*
X143108438Y-69546770D01*
X143116303Y-69545776D01*
X143155712Y-69530172D01*
X143166913Y-69526337D01*
X143207620Y-69514511D01*
X143214444Y-69510475D01*
X143214447Y-69510474D01*
X143224109Y-69504760D01*
X143241860Y-69496064D01*
X143247573Y-69493802D01*
X143259661Y-69489016D01*
X143293936Y-69464114D01*
X143303858Y-69457596D01*
X143332992Y-69440367D01*
X143332997Y-69440363D01*
X143339815Y-69436331D01*
X143353096Y-69423050D01*
X143368131Y-69410209D01*
X143377982Y-69403052D01*
X143377986Y-69403049D01*
X143384399Y-69398389D01*
X143412427Y-69364509D01*
X143420416Y-69355730D01*
X144500080Y-68276065D01*
X144508764Y-68268163D01*
X144515413Y-68263943D01*
X144563556Y-68212676D01*
X144566310Y-68209835D01*
X144582727Y-68193418D01*
X144585155Y-68190288D01*
X144587777Y-68187314D01*
X144587783Y-68187319D01*
X144591955Y-68182434D01*
X144615536Y-68157323D01*
X144620960Y-68151547D01*
X144624804Y-68144556D01*
X144630183Y-68134771D01*
X144641040Y-68118243D01*
X144647918Y-68109376D01*
X144652777Y-68103112D01*
X144669609Y-68064216D01*
X144674825Y-68053569D01*
X144695240Y-68016433D01*
X144700002Y-67997886D01*
X144706404Y-67979187D01*
X144710863Y-67968883D01*
X144710864Y-67968879D01*
X144714011Y-67961607D01*
X144720640Y-67919752D01*
X144723048Y-67908126D01*
X144731463Y-67875353D01*
X144731463Y-67875352D01*
X144733434Y-67867676D01*
X144733434Y-67848895D01*
X144734985Y-67829184D01*
X144736891Y-67817150D01*
X144738131Y-67809321D01*
X144733993Y-67765548D01*
X144733434Y-67753690D01*
X144733434Y-66549500D01*
X144753436Y-66481379D01*
X144807092Y-66434886D01*
X144859434Y-66423500D01*
X145198334Y-66423500D01*
X145271413Y-66418273D01*
X145291319Y-66412428D01*
X145344746Y-66408607D01*
X145443886Y-66422861D01*
X145443893Y-66422862D01*
X145448334Y-66423500D01*
X145787234Y-66423500D01*
X145855355Y-66443502D01*
X145901848Y-66497158D01*
X145913234Y-66549500D01*
X145913234Y-67190952D01*
X145893232Y-67259073D01*
X145839576Y-67305566D01*
X145801825Y-67316104D01*
X145800787Y-67316225D01*
X145765902Y-67320292D01*
X145765901Y-67320292D01*
X145758630Y-67321140D01*
X145751753Y-67323636D01*
X145751750Y-67323637D01*
X145659975Y-67356950D01*
X145599212Y-67379006D01*
X145457383Y-67471993D01*
X145340748Y-67595115D01*
X145255567Y-67741766D01*
X145206407Y-67904080D01*
X145205832Y-67910520D01*
X145205832Y-67910521D01*
X145201273Y-67961607D01*
X145199834Y-67977727D01*
X145199834Y-68514135D01*
X145214474Y-68639704D01*
X145216970Y-68646581D01*
X145216971Y-68646584D01*
X145256769Y-68756226D01*
X145272340Y-68799122D01*
X145365327Y-68940951D01*
X145370647Y-68945990D01*
X145370648Y-68945992D01*
X145375676Y-68950756D01*
X145411373Y-69012125D01*
X145408225Y-69083052D01*
X145380494Y-69128881D01*
X145346185Y-69165098D01*
X145337472Y-69176745D01*
X145259699Y-69310640D01*
X145253905Y-69323965D01*
X145208772Y-69472984D01*
X145206324Y-69485607D01*
X145200583Y-69549934D01*
X145200340Y-69555404D01*
X145204809Y-69570624D01*
X145206199Y-69571829D01*
X145213882Y-69573500D01*
X147148219Y-69573500D01*
X147163458Y-69569025D01*
X147164663Y-69567635D01*
X147165885Y-69562015D01*
X147152556Y-69447681D01*
X147149212Y-69433534D01*
X147096377Y-69287978D01*
X147089869Y-69274983D01*
X147004969Y-69145489D01*
X146995645Y-69134337D01*
X146991012Y-69129948D01*
X146955314Y-69068579D01*
X146958462Y-68997652D01*
X146986192Y-68951822D01*
X147025920Y-68909885D01*
X147111101Y-68763234D01*
X147147724Y-68642314D01*
X147158387Y-68607108D01*
X147158387Y-68607107D01*
X147160261Y-68600920D01*
X147160836Y-68594481D01*
X147161234Y-68592427D01*
X147166379Y-68573731D01*
X147168470Y-68567923D01*
X147172070Y-68560858D01*
X147205704Y-68410387D01*
X147200861Y-68256278D01*
X147171837Y-68156375D01*
X147166834Y-68121223D01*
X147166834Y-67990865D01*
X147152194Y-67865296D01*
X147149698Y-67858420D01*
X147149697Y-67858415D01*
X147140995Y-67834443D01*
X147133434Y-67791452D01*
X147133434Y-66346424D01*
X147153436Y-66278303D01*
X147164210Y-66263911D01*
X147186064Y-66238691D01*
X147230318Y-66187619D01*
X147233193Y-66190110D01*
X147273242Y-66155349D01*
X147343508Y-66145188D01*
X147408113Y-66174628D01*
X147431675Y-66201798D01*
X147438025Y-66211678D01*
X147460257Y-66246271D01*
X147467066Y-66252171D01*
X147469746Y-66254493D01*
X147471663Y-66257476D01*
X147472968Y-66258982D01*
X147472752Y-66259170D01*
X147508130Y-66314219D01*
X147513234Y-66349718D01*
X147513234Y-67212717D01*
X147512682Y-67224427D01*
X147510964Y-67232113D01*
X147511213Y-67240039D01*
X147511213Y-67240040D01*
X147513172Y-67302374D01*
X147513234Y-67306332D01*
X147513234Y-67329580D01*
X147513730Y-67333501D01*
X147513979Y-67337466D01*
X147513972Y-67337466D01*
X147514477Y-67343876D01*
X147515807Y-67386222D01*
X147518019Y-67393836D01*
X147521147Y-67404601D01*
X147525158Y-67423968D01*
X147527558Y-67442969D01*
X147543162Y-67482378D01*
X147546997Y-67493579D01*
X147558823Y-67534286D01*
X147562859Y-67541110D01*
X147562860Y-67541113D01*
X147568574Y-67550775D01*
X147577270Y-67568525D01*
X147584318Y-67586327D01*
X147588979Y-67592743D01*
X147588980Y-67592744D01*
X147609219Y-67620600D01*
X147615738Y-67630524D01*
X147632967Y-67659658D01*
X147632971Y-67659663D01*
X147637003Y-67666481D01*
X147650284Y-67679762D01*
X147663125Y-67694797D01*
X147670282Y-67704648D01*
X147670285Y-67704652D01*
X147674945Y-67711065D01*
X147681053Y-67716118D01*
X147708824Y-67739092D01*
X147717604Y-67747082D01*
X148027277Y-68056755D01*
X148035172Y-68065430D01*
X148039391Y-68072079D01*
X148045169Y-68077505D01*
X148045170Y-68077506D01*
X148090641Y-68120206D01*
X148093483Y-68122961D01*
X148109915Y-68139393D01*
X148113047Y-68141822D01*
X148116018Y-68144442D01*
X148116013Y-68144448D01*
X148120901Y-68148622D01*
X148151787Y-68177626D01*
X148168571Y-68186853D01*
X148185091Y-68197705D01*
X148200222Y-68209442D01*
X148229092Y-68221935D01*
X148239103Y-68226267D01*
X148249764Y-68231490D01*
X148286901Y-68251906D01*
X148294582Y-68253878D01*
X148305449Y-68256668D01*
X148324158Y-68263073D01*
X148341727Y-68270676D01*
X148383578Y-68277304D01*
X148395201Y-68279712D01*
X148427981Y-68288129D01*
X148427983Y-68288129D01*
X148435658Y-68290100D01*
X148454439Y-68290100D01*
X148474151Y-68291651D01*
X148494013Y-68294797D01*
X148501904Y-68294051D01*
X148537786Y-68290659D01*
X148549644Y-68290100D01*
X176326051Y-68290100D01*
X176337761Y-68290652D01*
X176345447Y-68292370D01*
X176353373Y-68292121D01*
X176353374Y-68292121D01*
X176415708Y-68290162D01*
X176419666Y-68290100D01*
X176442914Y-68290100D01*
X176446835Y-68289604D01*
X176450800Y-68289355D01*
X176450800Y-68289362D01*
X176457210Y-68288857D01*
X176488772Y-68287866D01*
X176491631Y-68287776D01*
X176499556Y-68287527D01*
X176517940Y-68282186D01*
X176537302Y-68278176D01*
X176541132Y-68277692D01*
X176548436Y-68276770D01*
X176548438Y-68276770D01*
X176556303Y-68275776D01*
X176595712Y-68260172D01*
X176606913Y-68256337D01*
X176647620Y-68244511D01*
X176654444Y-68240475D01*
X176654447Y-68240474D01*
X176664109Y-68234760D01*
X176681860Y-68226064D01*
X176699661Y-68219016D01*
X176708505Y-68212591D01*
X176733934Y-68194115D01*
X176743858Y-68187596D01*
X176772992Y-68170367D01*
X176772997Y-68170363D01*
X176779815Y-68166331D01*
X176793096Y-68153050D01*
X176808131Y-68140209D01*
X176817982Y-68133052D01*
X176817986Y-68133049D01*
X176824399Y-68128389D01*
X176852426Y-68094510D01*
X176860416Y-68085730D01*
X177550089Y-67396057D01*
X177558764Y-67388162D01*
X177565413Y-67383943D01*
X177584177Y-67363962D01*
X177613540Y-67332693D01*
X177616295Y-67329851D01*
X177632727Y-67313419D01*
X177635156Y-67310287D01*
X177637776Y-67307316D01*
X177637782Y-67307321D01*
X177641957Y-67302432D01*
X177670960Y-67271547D01*
X177680187Y-67254763D01*
X177691040Y-67238242D01*
X177697916Y-67229378D01*
X177697917Y-67229376D01*
X177702776Y-67223112D01*
X177719601Y-67184231D01*
X177724824Y-67173569D01*
X177741419Y-67143383D01*
X177745240Y-67136433D01*
X177750002Y-67117885D01*
X177756407Y-67099176D01*
X177760863Y-67088878D01*
X177764010Y-67081607D01*
X177770638Y-67039756D01*
X177773046Y-67028133D01*
X177781463Y-66995353D01*
X177781463Y-66995351D01*
X177783434Y-66987676D01*
X177783434Y-66968895D01*
X177784985Y-66949183D01*
X177786891Y-66937149D01*
X177788131Y-66929321D01*
X177783993Y-66885548D01*
X177783434Y-66873690D01*
X177783434Y-65574496D01*
X177803436Y-65506375D01*
X177857092Y-65459882D01*
X177909434Y-65448496D01*
X178055487Y-65448496D01*
X178061939Y-65447124D01*
X178061944Y-65447124D01*
X178148887Y-65428643D01*
X178242287Y-65408790D01*
X178370107Y-65351881D01*
X178410720Y-65333799D01*
X178410722Y-65333798D01*
X178416750Y-65331114D01*
X178422092Y-65327233D01*
X178565907Y-65222746D01*
X178565909Y-65222744D01*
X178571251Y-65218863D01*
X178575668Y-65213957D01*
X178575675Y-65213951D01*
X178595627Y-65191791D01*
X178656072Y-65154550D01*
X178689264Y-65150100D01*
X178763900Y-65150100D01*
X178832021Y-65170102D01*
X178878514Y-65223758D01*
X178889900Y-65276100D01*
X178889900Y-72761493D01*
X178869898Y-72829614D01*
X178857543Y-72845795D01*
X178760963Y-72953058D01*
X178665476Y-73118446D01*
X178663434Y-73124731D01*
X178631387Y-73223363D01*
X178606462Y-73300073D01*
X178605772Y-73306636D01*
X178605772Y-73306637D01*
X178594745Y-73411554D01*
X178586500Y-73490000D01*
X178587190Y-73496565D01*
X178595499Y-73575616D01*
X178606462Y-73679927D01*
X178665476Y-73861554D01*
X178760963Y-74026942D01*
X178888749Y-74168863D01*
X178894091Y-74172744D01*
X178894093Y-74172746D01*
X179000499Y-74250054D01*
X179043250Y-74281114D01*
X179049278Y-74283798D01*
X179049280Y-74283799D01*
X179211682Y-74356105D01*
X179217713Y-74358790D01*
X179296684Y-74375576D01*
X179398056Y-74397124D01*
X179398061Y-74397124D01*
X179404513Y-74398496D01*
X179595487Y-74398496D01*
X179601939Y-74397124D01*
X179601944Y-74397124D01*
X179703316Y-74375576D01*
X179782287Y-74358790D01*
X179788318Y-74356105D01*
X179950720Y-74283799D01*
X179950722Y-74283798D01*
X179956750Y-74281114D01*
X179999501Y-74250054D01*
X180105907Y-74172746D01*
X180105909Y-74172744D01*
X180111251Y-74168863D01*
X180239037Y-74026942D01*
X180334524Y-73861554D01*
X180393538Y-73679927D01*
X180404502Y-73575616D01*
X180412810Y-73496565D01*
X180413500Y-73490000D01*
X180405255Y-73411554D01*
X180394228Y-73306637D01*
X180394228Y-73306636D01*
X180393538Y-73300073D01*
X180368614Y-73223363D01*
X180336566Y-73124731D01*
X180334524Y-73118446D01*
X180239037Y-72953058D01*
X180142463Y-72845801D01*
X180111747Y-72781796D01*
X180110100Y-72761493D01*
X180110100Y-64937282D01*
X180110652Y-64925572D01*
X180112370Y-64917886D01*
X180110162Y-64847625D01*
X180110100Y-64843667D01*
X180110100Y-64820420D01*
X180109604Y-64816499D01*
X180109355Y-64812534D01*
X180109362Y-64812534D01*
X180108857Y-64806119D01*
X180107776Y-64771703D01*
X180107527Y-64763777D01*
X180102185Y-64745389D01*
X180098176Y-64726029D01*
X180096770Y-64714899D01*
X180095776Y-64707031D01*
X180080178Y-64667633D01*
X180076336Y-64656410D01*
X180066724Y-64623329D01*
X180066723Y-64623327D01*
X180064511Y-64615713D01*
X180054761Y-64599227D01*
X180046064Y-64581474D01*
X180041934Y-64571042D01*
X180041933Y-64571039D01*
X180039016Y-64563673D01*
X180033633Y-64556263D01*
X180014113Y-64529397D01*
X180007596Y-64519475D01*
X179990371Y-64490349D01*
X179990368Y-64490345D01*
X179986331Y-64483519D01*
X179973050Y-64470238D01*
X179960209Y-64455203D01*
X179953052Y-64445352D01*
X179953049Y-64445348D01*
X179948389Y-64438935D01*
X179914510Y-64410908D01*
X179905730Y-64402918D01*
X179666057Y-64163245D01*
X179658162Y-64154570D01*
X179653943Y-64147921D01*
X179632125Y-64127432D01*
X179602693Y-64099794D01*
X179599851Y-64097039D01*
X179583419Y-64080607D01*
X179580287Y-64078178D01*
X179577316Y-64075558D01*
X179577321Y-64075552D01*
X179572432Y-64071377D01*
X179547323Y-64047798D01*
X179541547Y-64042374D01*
X179534603Y-64038557D01*
X179534601Y-64038555D01*
X179524771Y-64033151D01*
X179508243Y-64022294D01*
X179499376Y-64015416D01*
X179493112Y-64010557D01*
X179454216Y-63993725D01*
X179443569Y-63988509D01*
X179406433Y-63968094D01*
X179387886Y-63963332D01*
X179369187Y-63956930D01*
X179358883Y-63952471D01*
X179358879Y-63952470D01*
X179351607Y-63949323D01*
X179309753Y-63942694D01*
X179298126Y-63940286D01*
X179265353Y-63931871D01*
X179265352Y-63931871D01*
X179257676Y-63929900D01*
X179238895Y-63929900D01*
X179219184Y-63928349D01*
X179207150Y-63926443D01*
X179199321Y-63925203D01*
X179191430Y-63925949D01*
X179155548Y-63929341D01*
X179143690Y-63929900D01*
X178689264Y-63929900D01*
X178621143Y-63909898D01*
X178595627Y-63888209D01*
X178575675Y-63866049D01*
X178575668Y-63866043D01*
X178571251Y-63861137D01*
X178565909Y-63857256D01*
X178565907Y-63857254D01*
X178422092Y-63752767D01*
X178422091Y-63752766D01*
X178416750Y-63748886D01*
X178410722Y-63746202D01*
X178410720Y-63746201D01*
X178248318Y-63673895D01*
X178248317Y-63673895D01*
X178242287Y-63671210D01*
X178136566Y-63648738D01*
X178061944Y-63632876D01*
X178061939Y-63632876D01*
X178055487Y-63631504D01*
X177909434Y-63631504D01*
X177841313Y-63611502D01*
X177794820Y-63557846D01*
X177783434Y-63505504D01*
X177783434Y-62044902D01*
X177803436Y-61976781D01*
X177820339Y-61955807D01*
X178155741Y-61620405D01*
X178218053Y-61586379D01*
X178244836Y-61583500D01*
X178777469Y-61583500D01*
X178867547Y-61572998D01*
X178895766Y-61569708D01*
X178895767Y-61569708D01*
X178903038Y-61568860D01*
X178909915Y-61566364D01*
X178909918Y-61566363D01*
X179055577Y-61513491D01*
X179062456Y-61510994D01*
X179204285Y-61418007D01*
X179213747Y-61408018D01*
X179275117Y-61372321D01*
X179346044Y-61375469D01*
X179391871Y-61403199D01*
X179433449Y-61442586D01*
X179580100Y-61527767D01*
X179742414Y-61576927D01*
X179748854Y-61577502D01*
X179748855Y-61577502D01*
X179813268Y-61583251D01*
X179813274Y-61583251D01*
X179816061Y-61583500D01*
X180352469Y-61583500D01*
X180442547Y-61572998D01*
X180470766Y-61569708D01*
X180470767Y-61569708D01*
X180478038Y-61568860D01*
X180484915Y-61566364D01*
X180484918Y-61566363D01*
X180630577Y-61513491D01*
X180637456Y-61510994D01*
X180779285Y-61418007D01*
X180895920Y-61294885D01*
X180981101Y-61148234D01*
X181030261Y-60985920D01*
X181031617Y-60970728D01*
X181036585Y-60915066D01*
X181036585Y-60915060D01*
X181036834Y-60912273D01*
X181036834Y-60604923D01*
X181056836Y-60536802D01*
X181073739Y-60515828D01*
X181357162Y-60232405D01*
X181419474Y-60198379D01*
X181446257Y-60195500D01*
X183483834Y-60195500D01*
X183551955Y-60215502D01*
X183598448Y-60269158D01*
X183609834Y-60321500D01*
X183609834Y-60435000D01*
X183615061Y-60508079D01*
X183616964Y-60514559D01*
X183618163Y-60521206D01*
X183617039Y-60521409D01*
X183620237Y-60566124D01*
X183612912Y-60617066D01*
X183615173Y-60632791D01*
X183617406Y-60635368D01*
X183666788Y-60667104D01*
X183677561Y-60681495D01*
X183720505Y-60748316D01*
X183735257Y-60771271D01*
X183742063Y-60777169D01*
X183744949Y-60780499D01*
X183774442Y-60845079D01*
X183764339Y-60915353D01*
X183744950Y-60945523D01*
X183697252Y-61000569D01*
X183697250Y-61000572D01*
X183691350Y-61007381D01*
X183687606Y-61015580D01*
X183684056Y-61023352D01*
X183637561Y-61077006D01*
X183615143Y-61087244D01*
X183613581Y-61089047D01*
X183611463Y-61100785D01*
X183615074Y-61151273D01*
X183618658Y-61171137D01*
X183617040Y-61171429D01*
X183620071Y-61213800D01*
X183609834Y-61285000D01*
X183609834Y-62760000D01*
X183615061Y-62833079D01*
X183627078Y-62874006D01*
X183651970Y-62958779D01*
X183656238Y-62973316D01*
X183661109Y-62980895D01*
X183730385Y-63088691D01*
X183730387Y-63088694D01*
X183735257Y-63096271D01*
X183742067Y-63102172D01*
X183838903Y-63186082D01*
X183838906Y-63186084D01*
X183845715Y-63191984D01*
X183853913Y-63195728D01*
X183962452Y-63245296D01*
X183978664Y-63252700D01*
X183987579Y-63253982D01*
X183987580Y-63253982D01*
X184118886Y-63272861D01*
X184118893Y-63272862D01*
X184123334Y-63273500D01*
X185883834Y-63273500D01*
X185951955Y-63293502D01*
X185998448Y-63347158D01*
X186009834Y-63399500D01*
X186009834Y-63657500D01*
X186015061Y-63730579D01*
X186022550Y-63756083D01*
X186053039Y-63859920D01*
X186056238Y-63870816D01*
X186076112Y-63901740D01*
X186130385Y-63986191D01*
X186130387Y-63986194D01*
X186135257Y-63993771D01*
X186142067Y-63999672D01*
X186238903Y-64083582D01*
X186238906Y-64083584D01*
X186245715Y-64089484D01*
X186253913Y-64093228D01*
X186359798Y-64141584D01*
X186378664Y-64150200D01*
X186387579Y-64151482D01*
X186387580Y-64151482D01*
X186518886Y-64170361D01*
X186518893Y-64170362D01*
X186523334Y-64171000D01*
X188299334Y-64171000D01*
X188367455Y-64191002D01*
X188413948Y-64244658D01*
X188425334Y-64297000D01*
X188425334Y-139317393D01*
X188423463Y-139339026D01*
X188421108Y-139352539D01*
X188421020Y-139357406D01*
X188419271Y-139454135D01*
X188418904Y-139461743D01*
X188417519Y-139479340D01*
X188416356Y-139489164D01*
X188412923Y-139510843D01*
X188395795Y-139618981D01*
X188393866Y-139628679D01*
X188393041Y-139632112D01*
X188392983Y-139632355D01*
X188390303Y-139641852D01*
X188349690Y-139766845D01*
X188346271Y-139776114D01*
X188344842Y-139779565D01*
X188340694Y-139788564D01*
X188281020Y-139905679D01*
X188276181Y-139914319D01*
X188274227Y-139917507D01*
X188268737Y-139925723D01*
X188235962Y-139970834D01*
X188191476Y-140032064D01*
X188185362Y-140039819D01*
X188182909Y-140042691D01*
X188176203Y-140049945D01*
X188083274Y-140142873D01*
X188076010Y-140149588D01*
X188073152Y-140152029D01*
X188065382Y-140158154D01*
X187959060Y-140235401D01*
X187950838Y-140240895D01*
X187947648Y-140242850D01*
X187939012Y-140247687D01*
X187821900Y-140307359D01*
X187812903Y-140311506D01*
X187809440Y-140312940D01*
X187800171Y-140316359D01*
X187675186Y-140356970D01*
X187665698Y-140359647D01*
X187662003Y-140360534D01*
X187652319Y-140362461D01*
X187552257Y-140378309D01*
X187522490Y-140383023D01*
X187512668Y-140384186D01*
X187495092Y-140385569D01*
X187487486Y-140385936D01*
X187421389Y-140387132D01*
X187389150Y-140387715D01*
X187384732Y-140388429D01*
X187384726Y-140388430D01*
X187372646Y-140390384D01*
X187352531Y-140392000D01*
X180567334Y-140392000D01*
X180499213Y-140371998D01*
X180452720Y-140318342D01*
X180441334Y-140266000D01*
X180441334Y-139677925D01*
X180442229Y-139662933D01*
X180446100Y-139630626D01*
X180447360Y-139620115D01*
X180445441Y-139565603D01*
X180445498Y-139555355D01*
X180447143Y-139519811D01*
X180447558Y-139510843D01*
X180435634Y-139461743D01*
X180434814Y-139458366D01*
X180433234Y-139450873D01*
X180425284Y-139406544D01*
X180425282Y-139406539D01*
X180423698Y-139397704D01*
X180402322Y-139354767D01*
X180398710Y-139346835D01*
X180391704Y-139329921D01*
X180379393Y-139300202D01*
X180377290Y-139294773D01*
X180362121Y-139252755D01*
X180359073Y-139244311D01*
X180353777Y-139237062D01*
X180353775Y-139237058D01*
X180333853Y-139209788D01*
X180327199Y-139199697D01*
X180309979Y-139170638D01*
X180309976Y-139170634D01*
X180305401Y-139162914D01*
X180264655Y-139124851D01*
X180261572Y-139121871D01*
X180215502Y-139075801D01*
X180211477Y-139071586D01*
X180181377Y-139038564D01*
X180175329Y-139031929D01*
X180167665Y-139027260D01*
X180167664Y-139027259D01*
X180138814Y-139009683D01*
X180128806Y-139002907D01*
X180101774Y-138982649D01*
X180094593Y-138977267D01*
X180052319Y-138961419D01*
X180042402Y-138957701D01*
X180038413Y-138956128D01*
X179990576Y-138936313D01*
X179981266Y-138932004D01*
X179949614Y-138915760D01*
X179949611Y-138915759D01*
X179941626Y-138911661D01*
X179932811Y-138909969D01*
X179932808Y-138909968D01*
X179903438Y-138904331D01*
X179888585Y-138901480D01*
X179881137Y-138899814D01*
X179828788Y-138886421D01*
X179819817Y-138886726D01*
X179819813Y-138886726D01*
X179780846Y-138888053D01*
X179772125Y-138888048D01*
X179729696Y-138886554D01*
X179716494Y-138886089D01*
X179688015Y-138889149D01*
X179668198Y-138891279D01*
X179654735Y-138892000D01*
X177094101Y-138892000D01*
X177079109Y-138891105D01*
X177036291Y-138885974D01*
X177031427Y-138886145D01*
X177031422Y-138886145D01*
X176981793Y-138887892D01*
X176971536Y-138887835D01*
X176935993Y-138886190D01*
X176935992Y-138886190D01*
X176927024Y-138885775D01*
X176874533Y-138898523D01*
X176867045Y-138900102D01*
X176849056Y-138903328D01*
X176817381Y-138909008D01*
X176746799Y-138901343D01*
X176691565Y-138856736D01*
X176669145Y-138783933D01*
X176673680Y-138241215D01*
X176673764Y-138231067D01*
X176673783Y-138230652D01*
X176673867Y-138230137D01*
X176674087Y-138192515D01*
X176674372Y-138158369D01*
X176674304Y-138157863D01*
X176674292Y-138157438D01*
X176678744Y-137394962D01*
X176678758Y-137394649D01*
X176678818Y-137394272D01*
X176678969Y-137356492D01*
X176679169Y-137322168D01*
X176679118Y-137321794D01*
X176679108Y-137321483D01*
X176682595Y-136446442D01*
X176682664Y-136429094D01*
X176682674Y-136428861D01*
X176682720Y-136428573D01*
X176682818Y-136390599D01*
X176682819Y-136390423D01*
X176682952Y-136357077D01*
X176682952Y-136357068D01*
X176682955Y-136356238D01*
X176682915Y-136355949D01*
X176682908Y-136355733D01*
X176685561Y-135328448D01*
X176685568Y-135328270D01*
X176685603Y-135328050D01*
X176685660Y-135290041D01*
X176685749Y-135255553D01*
X176685718Y-135255332D01*
X176685712Y-135255154D01*
X176685849Y-135164173D01*
X176686720Y-134582584D01*
X176687461Y-134088048D01*
X176687466Y-134087915D01*
X176687493Y-134087743D01*
X176687517Y-134050245D01*
X176687570Y-134015126D01*
X176687545Y-134014951D01*
X176687540Y-134014810D01*
X176688394Y-132702941D01*
X176688398Y-132702833D01*
X176688419Y-132702697D01*
X176688418Y-132665150D01*
X176688441Y-132629991D01*
X176688421Y-132629853D01*
X176688417Y-132629741D01*
X176688384Y-131168172D01*
X176688387Y-131168083D01*
X176688404Y-131167974D01*
X176688383Y-131130091D01*
X176688382Y-131095198D01*
X176688366Y-131095089D01*
X176688363Y-131095000D01*
X176687459Y-129478804D01*
X176687462Y-129478728D01*
X176687476Y-129478636D01*
X176687475Y-129477031D01*
X176687436Y-129438683D01*
X176687436Y-129438626D01*
X176687418Y-129406060D01*
X176687418Y-129405807D01*
X176687406Y-129405723D01*
X176687404Y-129405664D01*
X176685643Y-127629874D01*
X176685645Y-127629819D01*
X176685656Y-127629751D01*
X176685606Y-127592294D01*
X176685571Y-127556878D01*
X176685561Y-127556806D01*
X176685559Y-127556749D01*
X176683025Y-125659381D01*
X176683026Y-125659358D01*
X176683031Y-125659328D01*
X176682974Y-125621087D01*
X176682928Y-125586354D01*
X176682924Y-125586324D01*
X176682923Y-125586304D01*
X176660741Y-110607260D01*
X176662550Y-110585796D01*
X176663953Y-110577605D01*
X176665469Y-110568758D01*
X176663721Y-110553592D01*
X176661440Y-110533816D01*
X176661098Y-110527960D01*
X176660942Y-110527971D01*
X176660616Y-110523493D01*
X176660610Y-110519015D01*
X176659449Y-110510988D01*
X176656558Y-110491018D01*
X176656087Y-110487399D01*
X176649836Y-110433181D01*
X176648808Y-110424265D01*
X176645899Y-110417372D01*
X176644828Y-110409969D01*
X176618436Y-110352149D01*
X176616976Y-110348825D01*
X176606694Y-110324458D01*
X176604800Y-110319969D01*
X176602234Y-110315819D01*
X176600323Y-110312117D01*
X176597676Y-110306670D01*
X176584430Y-110277651D01*
X176578562Y-110270861D01*
X176578560Y-110270858D01*
X176570629Y-110261681D01*
X176558794Y-110245557D01*
X176328120Y-109872465D01*
X176326643Y-109870014D01*
X176316285Y-109852379D01*
X176316283Y-109852377D01*
X176313814Y-109848172D01*
X176310886Y-109844591D01*
X176310148Y-109843398D01*
X176308019Y-109840850D01*
X176308010Y-109840838D01*
X176299282Y-109830391D01*
X176298438Y-109829370D01*
X176290100Y-109819174D01*
X176005842Y-109471575D01*
X175999541Y-109461855D01*
X175999124Y-109462144D01*
X175994003Y-109454774D01*
X175989978Y-109446753D01*
X175983866Y-109440186D01*
X175983863Y-109440182D01*
X175956200Y-109410461D01*
X175950892Y-109404380D01*
X175942685Y-109394344D01*
X175939854Y-109390882D01*
X175936561Y-109387857D01*
X175936552Y-109387847D01*
X175930514Y-109382300D01*
X175923543Y-109375375D01*
X175912854Y-109363891D01*
X175900031Y-109353799D01*
X175892712Y-109347572D01*
X175865329Y-109322414D01*
X175865327Y-109322412D01*
X175858716Y-109316339D01*
X175850667Y-109312365D01*
X175843262Y-109307290D01*
X175843265Y-109307285D01*
X175831520Y-109299877D01*
X175546789Y-109075783D01*
X175542760Y-109072474D01*
X175529014Y-109060702D01*
X175529003Y-109060694D01*
X175525306Y-109057528D01*
X175521162Y-109054966D01*
X175520869Y-109054752D01*
X175517558Y-109052607D01*
X175515995Y-109051548D01*
X175512475Y-109048777D01*
X175493397Y-109037738D01*
X175490249Y-109035854D01*
X175123373Y-108809031D01*
X175106225Y-108796302D01*
X175104993Y-108795214D01*
X175092924Y-108784555D01*
X175084803Y-108780742D01*
X175084801Y-108780741D01*
X175061492Y-108769798D01*
X175056586Y-108767160D01*
X175056505Y-108767315D01*
X175052531Y-108765233D01*
X175048719Y-108762876D01*
X175022348Y-108751367D01*
X175019244Y-108749962D01*
X174961262Y-108722740D01*
X174954245Y-108721647D01*
X174947734Y-108718806D01*
X174884256Y-108710701D01*
X174880832Y-108710217D01*
X174854223Y-108706073D01*
X174854217Y-108706073D01*
X174849410Y-108705324D01*
X174844538Y-108705324D01*
X174841577Y-108705095D01*
X174835339Y-108704455D01*
X174803455Y-108700384D01*
X174794595Y-108701791D01*
X174794593Y-108701791D01*
X174782164Y-108703765D01*
X174762403Y-108705324D01*
X120481573Y-108705324D01*
X120460294Y-108703514D01*
X120455116Y-108702627D01*
X120451645Y-108702032D01*
X120451644Y-108702032D01*
X120442803Y-108700517D01*
X120411040Y-108704179D01*
X120408299Y-108704495D01*
X120402740Y-108704814D01*
X120402754Y-108705006D01*
X120398289Y-108705324D01*
X120393803Y-108705324D01*
X120389363Y-108705960D01*
X120389360Y-108705960D01*
X120365341Y-108709399D01*
X120361915Y-108709842D01*
X120307224Y-108716148D01*
X120307223Y-108716148D01*
X120298309Y-108717176D01*
X120291765Y-108719937D01*
X120284734Y-108720944D01*
X120276571Y-108724656D01*
X120276566Y-108724657D01*
X120226447Y-108747445D01*
X120223278Y-108748833D01*
X120198509Y-108759284D01*
X120198498Y-108759290D01*
X120194013Y-108761182D01*
X120189870Y-108763744D01*
X120187248Y-108765097D01*
X120181604Y-108767835D01*
X120152327Y-108781146D01*
X120145527Y-108787005D01*
X120136000Y-108795214D01*
X120120013Y-108806932D01*
X119933332Y-108922348D01*
X119746439Y-109037895D01*
X119743986Y-109039373D01*
X119722202Y-109052166D01*
X119718625Y-109055091D01*
X119717425Y-109055833D01*
X119714855Y-109057980D01*
X119714846Y-109057987D01*
X119704377Y-109066733D01*
X119703372Y-109067564D01*
X119353340Y-109353799D01*
X119345599Y-109360129D01*
X119335878Y-109366431D01*
X119336168Y-109366848D01*
X119328794Y-109371972D01*
X119320771Y-109375997D01*
X119314200Y-109382112D01*
X119314198Y-109382114D01*
X119284477Y-109409776D01*
X119278397Y-109415082D01*
X119264900Y-109426119D01*
X119261872Y-109429415D01*
X119261862Y-109429424D01*
X119256322Y-109435454D01*
X119249398Y-109442424D01*
X119237907Y-109453119D01*
X119227813Y-109465944D01*
X119221596Y-109473251D01*
X119190354Y-109507255D01*
X119186381Y-109515302D01*
X119181305Y-109522709D01*
X119181300Y-109522706D01*
X119173894Y-109534450D01*
X119017471Y-109733188D01*
X118949793Y-109819174D01*
X118946484Y-109823204D01*
X118931537Y-109840657D01*
X118928981Y-109844790D01*
X118928766Y-109845085D01*
X118926612Y-109848411D01*
X118925562Y-109849961D01*
X118922788Y-109853485D01*
X118911757Y-109872549D01*
X118909899Y-109875653D01*
X118683288Y-110242175D01*
X118670436Y-110259461D01*
X118658978Y-110272396D01*
X118643980Y-110304218D01*
X118641183Y-110309371D01*
X118641324Y-110309445D01*
X118639245Y-110313413D01*
X118636885Y-110317229D01*
X118635093Y-110321336D01*
X118625571Y-110343154D01*
X118624064Y-110346474D01*
X118600794Y-110395847D01*
X118600793Y-110395850D01*
X118596968Y-110403966D01*
X118595806Y-110411357D01*
X118592814Y-110418213D01*
X118591677Y-110427118D01*
X118584767Y-110481229D01*
X118584257Y-110484815D01*
X118579386Y-110515792D01*
X118579379Y-110520658D01*
X118579050Y-110524833D01*
X118578427Y-110530875D01*
X118574389Y-110562492D01*
X118575796Y-110571354D01*
X118575796Y-110571356D01*
X118577697Y-110583328D01*
X118579256Y-110603272D01*
X118557073Y-125583075D01*
X118557072Y-125583100D01*
X118557067Y-125583133D01*
X118557013Y-125623818D01*
X118556965Y-125656106D01*
X118556969Y-125656135D01*
X118556970Y-125656156D01*
X118554390Y-127592991D01*
X118554388Y-127593046D01*
X118554377Y-127593116D01*
X118554341Y-127629751D01*
X118554293Y-127665986D01*
X118554303Y-127666058D01*
X118554305Y-127666119D01*
X118552563Y-129438571D01*
X118552560Y-129438642D01*
X118552546Y-129438731D01*
X118552525Y-129477031D01*
X118552491Y-129511559D01*
X118552504Y-129511647D01*
X118552506Y-129511716D01*
X118551619Y-131124708D01*
X118551615Y-131124799D01*
X118551598Y-131124911D01*
X118551598Y-131163051D01*
X118551579Y-131197685D01*
X118551594Y-131197792D01*
X118551597Y-131197875D01*
X118551583Y-132656341D01*
X118551579Y-132656454D01*
X118551557Y-132656592D01*
X118551557Y-132657004D01*
X118551563Y-132665235D01*
X118551582Y-132694389D01*
X118551582Y-132729297D01*
X118551601Y-132729434D01*
X118551605Y-132729543D01*
X118552461Y-134015126D01*
X118552476Y-134038407D01*
X118552471Y-134038544D01*
X118552444Y-134038716D01*
X118552500Y-134075890D01*
X118552524Y-134111331D01*
X118552550Y-134111507D01*
X118552555Y-134111651D01*
X118554292Y-135255154D01*
X118554323Y-135275818D01*
X118554316Y-135276008D01*
X118554281Y-135276234D01*
X118554381Y-135314740D01*
X118554433Y-135348729D01*
X118554465Y-135348945D01*
X118554471Y-135349115D01*
X118555325Y-135676389D01*
X118557100Y-136357077D01*
X118557143Y-136373594D01*
X118557135Y-136373820D01*
X118557090Y-136374112D01*
X118557242Y-136411975D01*
X118557332Y-136446442D01*
X118557374Y-136446729D01*
X118557383Y-136446965D01*
X118560957Y-137336644D01*
X118560947Y-137336956D01*
X118560890Y-137337337D01*
X118561112Y-137374994D01*
X118561250Y-137409436D01*
X118561306Y-137409814D01*
X118561318Y-137410121D01*
X118565790Y-138169992D01*
X118565777Y-138170423D01*
X118565701Y-138170937D01*
X118566016Y-138208354D01*
X118566018Y-138208674D01*
X118566150Y-138231075D01*
X118566218Y-138242697D01*
X118566295Y-138243214D01*
X118566313Y-138243631D01*
X118570700Y-138764940D01*
X118551271Y-138833226D01*
X118498009Y-138880169D01*
X118444704Y-138892000D01*
X117323050Y-138892000D01*
X117302281Y-138890276D01*
X117283510Y-138887139D01*
X117274595Y-138888204D01*
X117274592Y-138888204D01*
X117257252Y-138890276D01*
X117248340Y-138891341D01*
X117242356Y-138891911D01*
X117241107Y-138892000D01*
X117236625Y-138892000D01*
X117206867Y-138896262D01*
X117203997Y-138896638D01*
X117188229Y-138898522D01*
X117139087Y-138904393D01*
X117133531Y-138906764D01*
X117127556Y-138907620D01*
X117119389Y-138911334D01*
X117119387Y-138911334D01*
X117118668Y-138911661D01*
X117068069Y-138934668D01*
X117065486Y-138935806D01*
X117005311Y-138961489D01*
X117000646Y-138965323D01*
X116995149Y-138967822D01*
X116946567Y-139009683D01*
X116945659Y-139010465D01*
X116943429Y-139012341D01*
X116917853Y-139033359D01*
X116914657Y-139036942D01*
X116909762Y-139041395D01*
X116891763Y-139056904D01*
X116884960Y-139062766D01*
X116872533Y-139081937D01*
X116860833Y-139097272D01*
X115773243Y-140316359D01*
X115743338Y-140349880D01*
X115683063Y-140387397D01*
X115649316Y-140392000D01*
X108211267Y-140392000D01*
X108196275Y-140391105D01*
X108153449Y-140385973D01*
X108148585Y-140386144D01*
X108148580Y-140386144D01*
X108098954Y-140387891D01*
X108088698Y-140387834D01*
X108053149Y-140386189D01*
X108053148Y-140386189D01*
X108044179Y-140385774D01*
X107991671Y-140398526D01*
X107984189Y-140400103D01*
X107939873Y-140408050D01*
X107939869Y-140408051D01*
X107931038Y-140409635D01*
X107923002Y-140413636D01*
X107923001Y-140413636D01*
X107888111Y-140431005D01*
X107880178Y-140434618D01*
X107833530Y-140453941D01*
X107828095Y-140456046D01*
X107821730Y-140458344D01*
X107777644Y-140474260D01*
X107743120Y-140499482D01*
X107733038Y-140506129D01*
X107703973Y-140523352D01*
X107703967Y-140523357D01*
X107696248Y-140527931D01*
X107690120Y-140534491D01*
X107658200Y-140568662D01*
X107655218Y-140571747D01*
X107609135Y-140617829D01*
X107604922Y-140621853D01*
X107565261Y-140658005D01*
X107560590Y-140665673D01*
X107560588Y-140665675D01*
X107543017Y-140694518D01*
X107536239Y-140704530D01*
X107510600Y-140738740D01*
X107491312Y-140790191D01*
X107491024Y-140790958D01*
X107489450Y-140794948D01*
X107481467Y-140814220D01*
X107436918Y-140869500D01*
X107365059Y-140892000D01*
X105195944Y-140892000D01*
X105127823Y-140871998D01*
X105106849Y-140855095D01*
X99478239Y-135226485D01*
X99444213Y-135164173D01*
X99441334Y-135137390D01*
X99441334Y-91570000D01*
X107416500Y-91570000D01*
X107436462Y-91759927D01*
X107495476Y-91941554D01*
X107590963Y-92106942D01*
X107595381Y-92111849D01*
X107595382Y-92111850D01*
X107667101Y-92191502D01*
X107718749Y-92248863D01*
X107724091Y-92252744D01*
X107724093Y-92252746D01*
X107867908Y-92357233D01*
X107873250Y-92361114D01*
X107879278Y-92363798D01*
X107879280Y-92363799D01*
X108041682Y-92436105D01*
X108047713Y-92438790D01*
X108141113Y-92458643D01*
X108228056Y-92477124D01*
X108228061Y-92477124D01*
X108234513Y-92478496D01*
X108425487Y-92478496D01*
X108431939Y-92477124D01*
X108431944Y-92477124D01*
X108518887Y-92458643D01*
X108612287Y-92438790D01*
X108618318Y-92436105D01*
X108780720Y-92363799D01*
X108780722Y-92363798D01*
X108786750Y-92361114D01*
X108792092Y-92357233D01*
X108932854Y-92254964D01*
X109006915Y-92230900D01*
X113014057Y-92230900D01*
X113082178Y-92250902D01*
X113103152Y-92267805D01*
X113947433Y-93112086D01*
X113981459Y-93174398D01*
X113983648Y-93188007D01*
X113996462Y-93309927D01*
X114055476Y-93491554D01*
X114058779Y-93497276D01*
X114058780Y-93497277D01*
X114098825Y-93566637D01*
X114150963Y-93656942D01*
X114155084Y-93661518D01*
X114179100Y-93735435D01*
X114179100Y-96527912D01*
X114159098Y-96596033D01*
X114146742Y-96612216D01*
X114100963Y-96663058D01*
X114005476Y-96828446D01*
X113946462Y-97010073D01*
X113926500Y-97200000D01*
X113946462Y-97389927D01*
X114005476Y-97571554D01*
X114100963Y-97736942D01*
X114105381Y-97741849D01*
X114105382Y-97741850D01*
X114224327Y-97873952D01*
X114228749Y-97878863D01*
X114234091Y-97882744D01*
X114234093Y-97882746D01*
X114335203Y-97956206D01*
X114383250Y-97991114D01*
X114389278Y-97993798D01*
X114389280Y-97993799D01*
X114551682Y-98066105D01*
X114557713Y-98068790D01*
X114651113Y-98088643D01*
X114738056Y-98107124D01*
X114738061Y-98107124D01*
X114744513Y-98108496D01*
X114935487Y-98108496D01*
X114941939Y-98107124D01*
X114941944Y-98107124D01*
X115028887Y-98088643D01*
X115122287Y-98068790D01*
X115128318Y-98066105D01*
X115290720Y-97993799D01*
X115290722Y-97993798D01*
X115296750Y-97991114D01*
X115344797Y-97956206D01*
X115445907Y-97882746D01*
X115445909Y-97882744D01*
X115451251Y-97878863D01*
X115455673Y-97873952D01*
X115558276Y-97760000D01*
X131636500Y-97760000D01*
X131656462Y-97949927D01*
X131715476Y-98131554D01*
X131810963Y-98296942D01*
X131815381Y-98301849D01*
X131815382Y-98301850D01*
X131924111Y-98422606D01*
X131938749Y-98438863D01*
X131944091Y-98442744D01*
X131944093Y-98442746D01*
X131962373Y-98456027D01*
X132093250Y-98551114D01*
X132099278Y-98553798D01*
X132099280Y-98553799D01*
X132261682Y-98626105D01*
X132267713Y-98628790D01*
X132361113Y-98648643D01*
X132448056Y-98667124D01*
X132448061Y-98667124D01*
X132454513Y-98668496D01*
X132645487Y-98668496D01*
X132651939Y-98667124D01*
X132651944Y-98667124D01*
X132738887Y-98648643D01*
X132832287Y-98628790D01*
X132838318Y-98626105D01*
X133000720Y-98553799D01*
X133000722Y-98553798D01*
X133006750Y-98551114D01*
X133137627Y-98456027D01*
X133155907Y-98442746D01*
X133155909Y-98442744D01*
X133161251Y-98438863D01*
X133175889Y-98422606D01*
X133284618Y-98301850D01*
X133284619Y-98301849D01*
X133289037Y-98296942D01*
X133384524Y-98131554D01*
X133443538Y-97949927D01*
X133463500Y-97760000D01*
X133443538Y-97570073D01*
X133424679Y-97512029D01*
X133386566Y-97394731D01*
X133384524Y-97388446D01*
X133289037Y-97223058D01*
X133243263Y-97172221D01*
X133212547Y-97108215D01*
X133210900Y-97087912D01*
X133210900Y-94444301D01*
X133230902Y-94376180D01*
X133243264Y-94359990D01*
X133250900Y-94351510D01*
X133309037Y-94286942D01*
X133404524Y-94121554D01*
X133463538Y-93939927D01*
X133483500Y-93750000D01*
X133480794Y-93724250D01*
X133808607Y-93724250D01*
X133809372Y-93735435D01*
X133810127Y-93746489D01*
X133810297Y-93749506D01*
X133813555Y-93823381D01*
X133863079Y-94946342D01*
X133863195Y-94950641D01*
X133863437Y-94975004D01*
X133864233Y-94979800D01*
X133864240Y-94979885D01*
X133864705Y-94983189D01*
X133864862Y-94986759D01*
X133865690Y-94991152D01*
X133868976Y-95008586D01*
X133869458Y-95011306D01*
X134067945Y-96207940D01*
X134068538Y-96211909D01*
X134071799Y-96236371D01*
X134073175Y-96241035D01*
X134073188Y-96241094D01*
X134073862Y-96243616D01*
X134074376Y-96246713D01*
X134081027Y-96267718D01*
X134081747Y-96270075D01*
X134157847Y-96527912D01*
X134431055Y-97453584D01*
X134432064Y-97457197D01*
X134438414Y-97481345D01*
X134440355Y-97485791D01*
X134440376Y-97485852D01*
X134441122Y-97487694D01*
X134441901Y-97490332D01*
X134443767Y-97494408D01*
X134443768Y-97494412D01*
X134450904Y-97510004D01*
X134451804Y-97512018D01*
X134613651Y-97882746D01*
X134951587Y-98656828D01*
X134954407Y-98663856D01*
X134960742Y-98681131D01*
X134963104Y-98685394D01*
X134963106Y-98685399D01*
X134964731Y-98688333D01*
X134969985Y-98698969D01*
X134971985Y-98703551D01*
X134974341Y-98707360D01*
X134981704Y-98719266D01*
X134984758Y-98724479D01*
X135285842Y-99267933D01*
X135289207Y-99274448D01*
X135295284Y-99287103D01*
X135295288Y-99287110D01*
X135297391Y-99291489D01*
X135301700Y-99297757D01*
X135307897Y-99307776D01*
X135308024Y-99307971D01*
X135310194Y-99311888D01*
X135321640Y-99327002D01*
X135325007Y-99331668D01*
X135525472Y-99623318D01*
X136048936Y-100384893D01*
X136050773Y-100387643D01*
X136061861Y-100404719D01*
X136061865Y-100404724D01*
X136064513Y-100408802D01*
X136067761Y-100412428D01*
X136067841Y-100412533D01*
X136068337Y-100413120D01*
X136069499Y-100414810D01*
X136083150Y-100429628D01*
X136084275Y-100430866D01*
X136943695Y-101390417D01*
X136946000Y-101393064D01*
X136962238Y-101412243D01*
X136965922Y-101415434D01*
X136965995Y-101415507D01*
X136966954Y-101416385D01*
X136968534Y-101418150D01*
X136971983Y-101421044D01*
X136971986Y-101421047D01*
X136984557Y-101431596D01*
X136986056Y-101432873D01*
X137955909Y-102272900D01*
X137958632Y-102275329D01*
X137977056Y-102292245D01*
X137981112Y-102294950D01*
X137981168Y-102294994D01*
X137982532Y-102295958D01*
X137984485Y-102297651D01*
X137988259Y-102300078D01*
X138002438Y-102309197D01*
X138004202Y-102310353D01*
X139072127Y-103022728D01*
X139075175Y-103024827D01*
X139091583Y-103036483D01*
X139091592Y-103036489D01*
X139095564Y-103039310D01*
X139099925Y-103041488D01*
X139099982Y-103041522D01*
X139101582Y-103042376D01*
X139103799Y-103043855D01*
X139123219Y-103053141D01*
X139125077Y-103054049D01*
X140279099Y-103630405D01*
X140282339Y-103632083D01*
X140300101Y-103641611D01*
X140300105Y-103641613D01*
X140304395Y-103643914D01*
X140308987Y-103645528D01*
X140309042Y-103645552D01*
X140310681Y-103646178D01*
X140313028Y-103647350D01*
X140333351Y-103654106D01*
X140335284Y-103654767D01*
X141550186Y-104081630D01*
X141557391Y-104084415D01*
X141573999Y-104091426D01*
X141578722Y-104092607D01*
X141578725Y-104092608D01*
X141582421Y-104093532D01*
X141593605Y-104096886D01*
X141598756Y-104098696D01*
X141616550Y-104102222D01*
X141622609Y-104103580D01*
X142196814Y-104247144D01*
X142206155Y-104249866D01*
X142214478Y-104252645D01*
X142214482Y-104252646D01*
X142219100Y-104254188D01*
X142232548Y-104256466D01*
X142242067Y-104258459D01*
X142247835Y-104259901D01*
X142247845Y-104259903D01*
X142252185Y-104260988D01*
X142262644Y-104262067D01*
X142266157Y-104262429D01*
X142274271Y-104263533D01*
X142796173Y-104351930D01*
X142807215Y-104354314D01*
X142816875Y-104356858D01*
X142834404Y-104358671D01*
X142842444Y-104359767D01*
X142846804Y-104360505D01*
X142852233Y-104361425D01*
X142852239Y-104361426D01*
X142856652Y-104362173D01*
X142867193Y-104362442D01*
X142876931Y-104363069D01*
X143485046Y-104425956D01*
X143498255Y-104428037D01*
X143498470Y-104428083D01*
X143498477Y-104428084D01*
X143503225Y-104429092D01*
X143508071Y-104429357D01*
X143508076Y-104429358D01*
X143520966Y-104430063D01*
X143526009Y-104430340D01*
X143532062Y-104430818D01*
X143551558Y-104432835D01*
X143556048Y-104432659D01*
X143556049Y-104432659D01*
X143557305Y-104432610D01*
X143569128Y-104432702D01*
X143794249Y-104445032D01*
X144206719Y-104467624D01*
X144219810Y-104469047D01*
X144220030Y-104469066D01*
X144224843Y-104469852D01*
X144229710Y-104469888D01*
X144229716Y-104469889D01*
X144248013Y-104470026D01*
X144253932Y-104470209D01*
X144273865Y-104471301D01*
X144278661Y-104470880D01*
X144279260Y-104470828D01*
X144291213Y-104470350D01*
X144365794Y-104470909D01*
X144907619Y-104474971D01*
X144919449Y-104475617D01*
X144928121Y-104476501D01*
X144938056Y-104475975D01*
X144947109Y-104475496D01*
X144954714Y-104475324D01*
X144960400Y-104475366D01*
X144970453Y-104475442D01*
X144974892Y-104474840D01*
X144974895Y-104474840D01*
X144979638Y-104474197D01*
X144989901Y-104473231D01*
X145524160Y-104444950D01*
X145536301Y-104444894D01*
X145539456Y-104445032D01*
X145539467Y-104445032D01*
X145544319Y-104445243D01*
X145558528Y-104443660D01*
X145563922Y-104443059D01*
X145571211Y-104442460D01*
X145583204Y-104441825D01*
X145583205Y-104441825D01*
X145587679Y-104441588D01*
X145596138Y-104439916D01*
X145606590Y-104438304D01*
X145624100Y-104436353D01*
X145707857Y-104427021D01*
X145717212Y-104426330D01*
X145726754Y-104425982D01*
X145726759Y-104425981D01*
X145731621Y-104425804D01*
X145736402Y-104424880D01*
X145744170Y-104423379D01*
X145754122Y-104421865D01*
X145763616Y-104420807D01*
X145767956Y-104419684D01*
X145777931Y-104417103D01*
X145785581Y-104415375D01*
X146133325Y-104348164D01*
X147049824Y-104171025D01*
X147053359Y-104170395D01*
X147062386Y-104168919D01*
X147073277Y-104167138D01*
X147073279Y-104167138D01*
X147078082Y-104166352D01*
X147082710Y-104164836D01*
X147082772Y-104164821D01*
X147084346Y-104164353D01*
X147086863Y-104163866D01*
X147107110Y-104156859D01*
X147108924Y-104156248D01*
X148331641Y-103755719D01*
X148335159Y-103754623D01*
X148359148Y-103747537D01*
X148363556Y-103745453D01*
X148363634Y-103745423D01*
X148365270Y-103744703D01*
X148367794Y-103743876D01*
X148377443Y-103739110D01*
X148387021Y-103734379D01*
X148388963Y-103733440D01*
X149041150Y-103425066D01*
X149537165Y-103190536D01*
X149540557Y-103188994D01*
X149552902Y-103183603D01*
X149558966Y-103180955D01*
X149558968Y-103180954D01*
X149563424Y-103179008D01*
X149567532Y-103176397D01*
X149567586Y-103176368D01*
X149569307Y-103175337D01*
X149571817Y-103174151D01*
X149589823Y-103162253D01*
X149591695Y-103161039D01*
X150655058Y-102485162D01*
X150658322Y-102483157D01*
X150675507Y-102472954D01*
X150675512Y-102472950D01*
X150679690Y-102470470D01*
X150683439Y-102467374D01*
X150683491Y-102467338D01*
X150685186Y-102466012D01*
X150687610Y-102464471D01*
X150704144Y-102450305D01*
X150705898Y-102448830D01*
X150875001Y-102309197D01*
X151674216Y-101649263D01*
X151677157Y-101646910D01*
X151696837Y-101631647D01*
X151700182Y-101628103D01*
X151700229Y-101628061D01*
X151701788Y-101626495D01*
X151704027Y-101624647D01*
X151718734Y-101608486D01*
X151720293Y-101606805D01*
X151895689Y-101421047D01*
X152583494Y-100692605D01*
X152586175Y-100689851D01*
X152600350Y-100675728D01*
X152600359Y-100675717D01*
X152603803Y-100672286D01*
X152606685Y-100668355D01*
X152606720Y-100668315D01*
X152608053Y-100666595D01*
X152610034Y-100664497D01*
X152612622Y-100660830D01*
X152622573Y-100646728D01*
X152623915Y-100644862D01*
X153371928Y-99624839D01*
X153374219Y-99621812D01*
X153386533Y-99606040D01*
X153386535Y-99606038D01*
X153389530Y-99602201D01*
X153391897Y-99597954D01*
X153391946Y-99597880D01*
X153392991Y-99596116D01*
X153394652Y-99593851D01*
X153404896Y-99574669D01*
X153405973Y-99572697D01*
X153541620Y-99329296D01*
X153912464Y-98663860D01*
X154028289Y-98456027D01*
X154030159Y-98452785D01*
X154040467Y-98435515D01*
X154040468Y-98435513D01*
X154042963Y-98431333D01*
X154044786Y-98426815D01*
X154044811Y-98426766D01*
X154045581Y-98424997D01*
X154046914Y-98422606D01*
X154054669Y-98402385D01*
X154055449Y-98400404D01*
X154057726Y-98394764D01*
X154068235Y-98374330D01*
X154154699Y-98238338D01*
X154154700Y-98238336D01*
X154160000Y-98230000D01*
X154221904Y-97990925D01*
X154227041Y-97975344D01*
X154537147Y-97207165D01*
X154540054Y-97200522D01*
X154546117Y-97187685D01*
X154546118Y-97187683D01*
X154548196Y-97183283D01*
X154550292Y-97176178D01*
X154554000Y-97165535D01*
X154554193Y-97164937D01*
X154555869Y-97160786D01*
X154560439Y-97142229D01*
X154561924Y-97136737D01*
X154562060Y-97136278D01*
X154761058Y-96461570D01*
X154763200Y-96454982D01*
X154769809Y-96436414D01*
X154770717Y-96431628D01*
X154770719Y-96431620D01*
X154771043Y-96429913D01*
X154773146Y-96421210D01*
X154773678Y-96418780D01*
X154774945Y-96414486D01*
X154777777Y-96395032D01*
X154778667Y-96389722D01*
X155011773Y-95160967D01*
X155012427Y-95157750D01*
X155016748Y-95137825D01*
X155016749Y-95137815D01*
X155017779Y-95133067D01*
X155018067Y-95128206D01*
X155018085Y-95128072D01*
X155018146Y-95127373D01*
X155018523Y-95125388D01*
X155019429Y-95105374D01*
X155019520Y-95103633D01*
X155093180Y-93858208D01*
X155093449Y-93854555D01*
X155095224Y-93834470D01*
X155095224Y-93834467D01*
X155095653Y-93829614D01*
X155095330Y-93824754D01*
X155095331Y-93824682D01*
X155095264Y-93822965D01*
X155095418Y-93820357D01*
X155093638Y-93799006D01*
X155093483Y-93796936D01*
X155092326Y-93779498D01*
X155032687Y-92881210D01*
X155011970Y-92569173D01*
X155011767Y-92565136D01*
X155011090Y-92545342D01*
X155011089Y-92545336D01*
X155010923Y-92540474D01*
X155010009Y-92535688D01*
X155010003Y-92535631D01*
X155009567Y-92532982D01*
X155009356Y-92529804D01*
X155004795Y-92508251D01*
X155004309Y-92505836D01*
X154990995Y-92436105D01*
X154825618Y-91570000D01*
X154775588Y-91307983D01*
X154774846Y-91303695D01*
X154771865Y-91284508D01*
X154771863Y-91284500D01*
X154771116Y-91279691D01*
X154769639Y-91275057D01*
X154769615Y-91274955D01*
X154768650Y-91271651D01*
X154767965Y-91268063D01*
X154766514Y-91263840D01*
X154766512Y-91263832D01*
X154760723Y-91246984D01*
X154759837Y-91244308D01*
X154755750Y-91231484D01*
X154391422Y-90088492D01*
X154390134Y-90084184D01*
X154383670Y-90061042D01*
X154381652Y-90056605D01*
X154381604Y-90056474D01*
X154380067Y-90052870D01*
X154378865Y-90049098D01*
X154376914Y-90045068D01*
X154376911Y-90045060D01*
X154369145Y-90029017D01*
X154367861Y-90026282D01*
X154252565Y-89772772D01*
X153866774Y-88924510D01*
X153864954Y-88920307D01*
X153855853Y-88898170D01*
X153853333Y-88894009D01*
X153853258Y-88893860D01*
X153851223Y-88890316D01*
X153849539Y-88886614D01*
X153847126Y-88882842D01*
X153847123Y-88882836D01*
X153837515Y-88867815D01*
X153835883Y-88865193D01*
X153208728Y-87829617D01*
X153206435Y-87825673D01*
X153197133Y-87808977D01*
X153194763Y-87804723D01*
X153191760Y-87800876D01*
X153191674Y-87800746D01*
X153189346Y-87797614D01*
X153187286Y-87794213D01*
X153173076Y-87776883D01*
X153171298Y-87774660D01*
X152424257Y-86817572D01*
X152421659Y-86814121D01*
X152410248Y-86798407D01*
X152410246Y-86798405D01*
X152407388Y-86794469D01*
X152403958Y-86791020D01*
X152403899Y-86790950D01*
X152401502Y-86788420D01*
X152399242Y-86785524D01*
X152396008Y-86782415D01*
X152396004Y-86782410D01*
X152383204Y-86770102D01*
X152381187Y-86768119D01*
X151520312Y-85902336D01*
X151517494Y-85899409D01*
X151504024Y-85884959D01*
X151500697Y-85881390D01*
X151496858Y-85878374D01*
X151496816Y-85878335D01*
X151494720Y-85876600D01*
X151492445Y-85874311D01*
X151474797Y-85861007D01*
X151472830Y-85859492D01*
X151392931Y-85796705D01*
X150503878Y-85098069D01*
X150501003Y-85095741D01*
X150485531Y-85082830D01*
X150485527Y-85082827D01*
X150481795Y-85079713D01*
X150477621Y-85077205D01*
X150477571Y-85077170D01*
X150476040Y-85076193D01*
X150473949Y-85074550D01*
X150455347Y-85063805D01*
X150453548Y-85062746D01*
X149384750Y-84420735D01*
X149381330Y-84418606D01*
X149381174Y-84418505D01*
X149360577Y-84405219D01*
X149356131Y-84403242D01*
X149356083Y-84403216D01*
X149353687Y-84402076D01*
X149350977Y-84400448D01*
X149330683Y-84391899D01*
X149328402Y-84390911D01*
X148285199Y-83927019D01*
X148277343Y-83923194D01*
X148263325Y-83915756D01*
X148258731Y-83914165D01*
X148258722Y-83914161D01*
X148252778Y-83912103D01*
X148242808Y-83908168D01*
X148239658Y-83906767D01*
X148239649Y-83906764D01*
X148235561Y-83904946D01*
X148231256Y-83903726D01*
X148231248Y-83903723D01*
X148220030Y-83900544D01*
X148213155Y-83898382D01*
X147500508Y-83651587D01*
X147490807Y-83647771D01*
X147488119Y-83646583D01*
X147479802Y-83642907D01*
X147475107Y-83641649D01*
X147475103Y-83641648D01*
X147464910Y-83638918D01*
X147456273Y-83636269D01*
X147449006Y-83633752D01*
X147449001Y-83633751D01*
X147444769Y-83632285D01*
X147440371Y-83631434D01*
X147440367Y-83631433D01*
X147432487Y-83629908D01*
X147423824Y-83627912D01*
X147132076Y-83549761D01*
X146775797Y-83454324D01*
X146768079Y-83451989D01*
X146751690Y-83446450D01*
X146746885Y-83445618D01*
X146742330Y-83444829D01*
X146731234Y-83442387D01*
X146729501Y-83441923D01*
X146729493Y-83441921D01*
X146725154Y-83440759D01*
X146707773Y-83438673D01*
X146701293Y-83437723D01*
X146055099Y-83325822D01*
X146046787Y-83324093D01*
X146030832Y-83320206D01*
X146025979Y-83319795D01*
X146025978Y-83319795D01*
X146020319Y-83319316D01*
X146009451Y-83317917D01*
X146006685Y-83317438D01*
X146006684Y-83317438D01*
X146002261Y-83316672D01*
X145985608Y-83316185D01*
X145978674Y-83315790D01*
X145290172Y-83257508D01*
X145278744Y-83256011D01*
X145274214Y-83255205D01*
X145274208Y-83255204D01*
X145269420Y-83254353D01*
X145264557Y-83254248D01*
X145264554Y-83254248D01*
X145251224Y-83253961D01*
X145243313Y-83253541D01*
X145232894Y-83252659D01*
X145232886Y-83252659D01*
X145228422Y-83252281D01*
X145223945Y-83252540D01*
X145223942Y-83252540D01*
X145218422Y-83252859D01*
X145208437Y-83253040D01*
X144866076Y-83245671D01*
X144488994Y-83237554D01*
X144477958Y-83236710D01*
X144476030Y-83236606D01*
X144471202Y-83235970D01*
X144466332Y-83236084D01*
X144466328Y-83236084D01*
X144447346Y-83236529D01*
X144441687Y-83236535D01*
X144425504Y-83236187D01*
X144425499Y-83236187D01*
X144421022Y-83236091D01*
X144416443Y-83236647D01*
X144416306Y-83236663D01*
X144404088Y-83237545D01*
X143628193Y-83255753D01*
X143617131Y-83255527D01*
X143606585Y-83254847D01*
X143601736Y-83255285D01*
X143601735Y-83255285D01*
X143600271Y-83255417D01*
X143589623Y-83256379D01*
X143581270Y-83256853D01*
X143567493Y-83257177D01*
X143559852Y-83258455D01*
X143556562Y-83259005D01*
X143547115Y-83260220D01*
X142862949Y-83322030D01*
X142854595Y-83322506D01*
X142837914Y-83322901D01*
X142833126Y-83323763D01*
X142833125Y-83323763D01*
X142827862Y-83324710D01*
X142816884Y-83326191D01*
X142814383Y-83326417D01*
X142814371Y-83326419D01*
X142809911Y-83326822D01*
X142793424Y-83330723D01*
X142786749Y-83332112D01*
X142141916Y-83448203D01*
X142133831Y-83449389D01*
X142116829Y-83451322D01*
X142107438Y-83453898D01*
X142096453Y-83456387D01*
X142090050Y-83457540D01*
X142073606Y-83462996D01*
X142067275Y-83464913D01*
X141729013Y-83557688D01*
X141417714Y-83643068D01*
X141407077Y-83645495D01*
X141401135Y-83646583D01*
X141401128Y-83646585D01*
X141396347Y-83647460D01*
X141391756Y-83649061D01*
X141380641Y-83652936D01*
X141372491Y-83655471D01*
X141363880Y-83657833D01*
X141363878Y-83657834D01*
X141359560Y-83659018D01*
X141355455Y-83660802D01*
X141355446Y-83660805D01*
X141349073Y-83663574D01*
X141340345Y-83666987D01*
X140934616Y-83808462D01*
X140679336Y-83897475D01*
X140671229Y-83899998D01*
X140660109Y-83903052D01*
X140660101Y-83903055D01*
X140655415Y-83904342D01*
X140650979Y-83906336D01*
X140650977Y-83906337D01*
X140645799Y-83908665D01*
X140635625Y-83912717D01*
X140632955Y-83913648D01*
X140632953Y-83913649D01*
X140628714Y-83915127D01*
X140613912Y-83922790D01*
X140607658Y-83925812D01*
X140242727Y-84089879D01*
X139735885Y-84317748D01*
X139727856Y-84321029D01*
X139558706Y-84383454D01*
X139276800Y-84487490D01*
X139276797Y-84487492D01*
X139270000Y-84490000D01*
X137300000Y-85790000D01*
X137294262Y-85796705D01*
X135526119Y-87862849D01*
X135526117Y-87862852D01*
X135520000Y-87870000D01*
X135516252Y-87878634D01*
X135188170Y-88634393D01*
X135180841Y-88648700D01*
X135042941Y-88880205D01*
X135040391Y-88884306D01*
X135027555Y-88904087D01*
X135025560Y-88908540D01*
X135025454Y-88908735D01*
X135023507Y-88912832D01*
X135021273Y-88916583D01*
X135019552Y-88920711D01*
X135019548Y-88920719D01*
X135012710Y-88937122D01*
X135011402Y-88940147D01*
X134529191Y-90016649D01*
X134527086Y-90021113D01*
X134516667Y-90042126D01*
X134515199Y-90046774D01*
X134515106Y-90047006D01*
X134513596Y-90051445D01*
X134513559Y-90051546D01*
X134511726Y-90055638D01*
X134510493Y-90059943D01*
X134510490Y-90059952D01*
X134505622Y-90076955D01*
X134504648Y-90080193D01*
X134149580Y-91204731D01*
X134149575Y-91204746D01*
X134148002Y-91209409D01*
X134140071Y-91231484D01*
X134139151Y-91236257D01*
X134139082Y-91236508D01*
X134138090Y-91241104D01*
X134138077Y-91241159D01*
X134136732Y-91245419D01*
X134136004Y-91249827D01*
X134136001Y-91249841D01*
X134133110Y-91267355D01*
X134132515Y-91270682D01*
X133908805Y-92431241D01*
X133907808Y-92435932D01*
X133902451Y-92458964D01*
X133902091Y-92463822D01*
X133902061Y-92464018D01*
X133901630Y-92468460D01*
X133900813Y-92472699D01*
X133900597Y-92477183D01*
X133899742Y-92494926D01*
X133899545Y-92498149D01*
X133881405Y-92742723D01*
X133872433Y-92863694D01*
X133869885Y-92881217D01*
X133828474Y-93071137D01*
X133820000Y-93110000D01*
X133820964Y-93119816D01*
X133820964Y-93119818D01*
X133838404Y-93297387D01*
X133838662Y-93319019D01*
X133826970Y-93476662D01*
X133811673Y-93682908D01*
X133811251Y-93687467D01*
X133809148Y-93706444D01*
X133808611Y-93711291D01*
X133808826Y-93716161D01*
X133808821Y-93716306D01*
X133808902Y-93720274D01*
X133808607Y-93724250D01*
X133480794Y-93724250D01*
X133463538Y-93560073D01*
X133404524Y-93378446D01*
X133309037Y-93213058D01*
X133274228Y-93174398D01*
X133185673Y-93076048D01*
X133185672Y-93076047D01*
X133181251Y-93071137D01*
X133175909Y-93067256D01*
X133175907Y-93067254D01*
X133032092Y-92962767D01*
X133032091Y-92962766D01*
X133026750Y-92958886D01*
X133020722Y-92956202D01*
X133020720Y-92956201D01*
X132858318Y-92883895D01*
X132858317Y-92883895D01*
X132852287Y-92881210D01*
X132758887Y-92861357D01*
X132671944Y-92842876D01*
X132671939Y-92842876D01*
X132665487Y-92841504D01*
X132474513Y-92841504D01*
X132468061Y-92842876D01*
X132468056Y-92842876D01*
X132381113Y-92861357D01*
X132287713Y-92881210D01*
X132281683Y-92883895D01*
X132281682Y-92883895D01*
X132119280Y-92956201D01*
X132119278Y-92956202D01*
X132113250Y-92958886D01*
X132107909Y-92962766D01*
X132107908Y-92962767D01*
X131964093Y-93067254D01*
X131964091Y-93067256D01*
X131958749Y-93071137D01*
X131954328Y-93076047D01*
X131954327Y-93076048D01*
X131865773Y-93174398D01*
X131830963Y-93213058D01*
X131735476Y-93378446D01*
X131676462Y-93560073D01*
X131656500Y-93750000D01*
X131676462Y-93939927D01*
X131735476Y-94121554D01*
X131830963Y-94286942D01*
X131856738Y-94315568D01*
X131887454Y-94379574D01*
X131889100Y-94399876D01*
X131889100Y-97087912D01*
X131869098Y-97156033D01*
X131856742Y-97172216D01*
X131810963Y-97223058D01*
X131715476Y-97388446D01*
X131713434Y-97394731D01*
X131675322Y-97512029D01*
X131656462Y-97570073D01*
X131636500Y-97760000D01*
X115558276Y-97760000D01*
X115574618Y-97741850D01*
X115574619Y-97741849D01*
X115579037Y-97736942D01*
X115674524Y-97571554D01*
X115733538Y-97389927D01*
X115753500Y-97200000D01*
X115733538Y-97010073D01*
X115674524Y-96828446D01*
X115579037Y-96663058D01*
X115533263Y-96612221D01*
X115502547Y-96548215D01*
X115500900Y-96527912D01*
X115500900Y-93847619D01*
X115520902Y-93779498D01*
X115533264Y-93763309D01*
X115624618Y-93661850D01*
X115624619Y-93661849D01*
X115629037Y-93656942D01*
X115724524Y-93491554D01*
X115783538Y-93309927D01*
X115803500Y-93120000D01*
X115801436Y-93100359D01*
X115784228Y-92936637D01*
X115784228Y-92936636D01*
X115783538Y-92930073D01*
X115767662Y-92881210D01*
X115726566Y-92754731D01*
X115724524Y-92748446D01*
X115629037Y-92583058D01*
X115595078Y-92545342D01*
X115505673Y-92446048D01*
X115505672Y-92446047D01*
X115501251Y-92441137D01*
X115495909Y-92437256D01*
X115495907Y-92437254D01*
X115352092Y-92332767D01*
X115352091Y-92332766D01*
X115346750Y-92328886D01*
X115340722Y-92326202D01*
X115340720Y-92326201D01*
X115178318Y-92253895D01*
X115178317Y-92253895D01*
X115172287Y-92251210D01*
X115076737Y-92230900D01*
X114991944Y-92212876D01*
X114991939Y-92212876D01*
X114985487Y-92211504D01*
X114968347Y-92211504D01*
X114900226Y-92191502D01*
X114879252Y-92174599D01*
X113828121Y-91123468D01*
X113822267Y-91117202D01*
X113790568Y-91080865D01*
X113785574Y-91075140D01*
X113779364Y-91070775D01*
X113779360Y-91070772D01*
X113736981Y-91040988D01*
X113731685Y-91037055D01*
X113690930Y-91005099D01*
X113684954Y-91000413D01*
X113678030Y-90997287D01*
X113671871Y-90993557D01*
X113667208Y-90990898D01*
X113660888Y-90987509D01*
X113654672Y-90983140D01*
X113647596Y-90980381D01*
X113599332Y-90961563D01*
X113593251Y-90959007D01*
X113546055Y-90937697D01*
X113546053Y-90937696D01*
X113539131Y-90934571D01*
X113531664Y-90933187D01*
X113524796Y-90931035D01*
X113519627Y-90929563D01*
X113512680Y-90927779D01*
X113505603Y-90925020D01*
X113463414Y-90919466D01*
X113446725Y-90917269D01*
X113440208Y-90916237D01*
X113389279Y-90906798D01*
X113389280Y-90906798D01*
X113381812Y-90905414D01*
X113374232Y-90905851D01*
X113374231Y-90905851D01*
X113321509Y-90908891D01*
X113314256Y-90909100D01*
X109006915Y-90909100D01*
X108932854Y-90885036D01*
X108792092Y-90782767D01*
X108792091Y-90782766D01*
X108786750Y-90778886D01*
X108780722Y-90776202D01*
X108780720Y-90776201D01*
X108618318Y-90703895D01*
X108618317Y-90703895D01*
X108612287Y-90701210D01*
X108518887Y-90681357D01*
X108431944Y-90662876D01*
X108431939Y-90662876D01*
X108425487Y-90661504D01*
X108234513Y-90661504D01*
X108228061Y-90662876D01*
X108228056Y-90662876D01*
X108141113Y-90681357D01*
X108047713Y-90701210D01*
X108041683Y-90703895D01*
X108041682Y-90703895D01*
X107879280Y-90776201D01*
X107879278Y-90776202D01*
X107873250Y-90778886D01*
X107867909Y-90782766D01*
X107867908Y-90782767D01*
X107724093Y-90887254D01*
X107724091Y-90887256D01*
X107718749Y-90891137D01*
X107714328Y-90896047D01*
X107714327Y-90896048D01*
X107620357Y-91000413D01*
X107590963Y-91033058D01*
X107495476Y-91198446D01*
X107436462Y-91380073D01*
X107416500Y-91570000D01*
X99441334Y-91570000D01*
X99441334Y-77412423D01*
X140041589Y-77412423D01*
X140049972Y-77464471D01*
X140052546Y-77474793D01*
X140123564Y-77682810D01*
X140127831Y-77692533D01*
X140232890Y-77885625D01*
X140238736Y-77894491D01*
X140374820Y-78067113D01*
X140382084Y-78074875D01*
X140545301Y-78222094D01*
X140553778Y-78228528D01*
X140739456Y-78346136D01*
X140748901Y-78351053D01*
X140951740Y-78435694D01*
X140961879Y-78438950D01*
X141101679Y-78471096D01*
X141115756Y-78470257D01*
X141119334Y-78460999D01*
X141119334Y-77412115D01*
X141114859Y-77396876D01*
X141113469Y-77395671D01*
X141105786Y-77394000D01*
X140056737Y-77394000D01*
X140043556Y-77397870D01*
X140041589Y-77412423D01*
X99441334Y-77412423D01*
X99441334Y-74702233D01*
X140013672Y-74702233D01*
X140050336Y-74929861D01*
X140124828Y-75148056D01*
X140235019Y-75350580D01*
X140377758Y-75531644D01*
X140381723Y-75535220D01*
X140544993Y-75682489D01*
X140544999Y-75682494D01*
X140548963Y-75686069D01*
X140553476Y-75688928D01*
X140553478Y-75688929D01*
X140672046Y-75764029D01*
X140718891Y-75817377D01*
X140729458Y-75887583D01*
X140700391Y-75952357D01*
X140669990Y-75978192D01*
X140574820Y-76035942D01*
X140566230Y-76042206D01*
X140400218Y-76186264D01*
X140392798Y-76193895D01*
X140253434Y-76363860D01*
X140247409Y-76372627D01*
X140138676Y-76563644D01*
X140134211Y-76573308D01*
X140059216Y-76779916D01*
X140056445Y-76790184D01*
X140042342Y-76868174D01*
X140043761Y-76881414D01*
X140058396Y-76886000D01*
X141501334Y-76886000D01*
X141569455Y-76906002D01*
X141615948Y-76959658D01*
X141627334Y-77012000D01*
X141627334Y-78459941D01*
X141631485Y-78474079D01*
X141642132Y-78475774D01*
X141645526Y-78475096D01*
X141856667Y-78413954D01*
X141866593Y-78410143D01*
X142064399Y-78314307D01*
X142073546Y-78308876D01*
X142252375Y-78181083D01*
X142260483Y-78174182D01*
X142415227Y-78018082D01*
X142422040Y-78009934D01*
X142540702Y-77840781D01*
X142596198Y-77796501D01*
X142666823Y-77789254D01*
X142730156Y-77821340D01*
X142754530Y-77852923D01*
X142775019Y-77890580D01*
X142917758Y-78071644D01*
X142921723Y-78075220D01*
X143084993Y-78222489D01*
X143084999Y-78222494D01*
X143088963Y-78226069D01*
X143283740Y-78349439D01*
X143496518Y-78438228D01*
X143501721Y-78439425D01*
X143501726Y-78439426D01*
X143716012Y-78488701D01*
X143716017Y-78488702D01*
X143721215Y-78489897D01*
X143726543Y-78490200D01*
X143726546Y-78490200D01*
X143882627Y-78499063D01*
X143951405Y-78502968D01*
X143956712Y-78502368D01*
X143956714Y-78502368D01*
X144077606Y-78488701D01*
X144180507Y-78477068D01*
X144185622Y-78475587D01*
X144185626Y-78475586D01*
X144310495Y-78439426D01*
X144401969Y-78412937D01*
X144609459Y-78312409D01*
X144613797Y-78309309D01*
X144613802Y-78309306D01*
X144792704Y-78181459D01*
X144797045Y-78178357D01*
X144959364Y-78014617D01*
X144962424Y-78010255D01*
X144962429Y-78010249D01*
X145080968Y-77841271D01*
X145136464Y-77796990D01*
X145207089Y-77789743D01*
X145270422Y-77821829D01*
X145294795Y-77853410D01*
X145315019Y-77890580D01*
X145457758Y-78071644D01*
X145461723Y-78075220D01*
X145624993Y-78222489D01*
X145624999Y-78222494D01*
X145628963Y-78226069D01*
X145823740Y-78349439D01*
X146036518Y-78438228D01*
X146041721Y-78439425D01*
X146041726Y-78439426D01*
X146256012Y-78488701D01*
X146256017Y-78488702D01*
X146261215Y-78489897D01*
X146266543Y-78490200D01*
X146266546Y-78490200D01*
X146422627Y-78499063D01*
X146491405Y-78502968D01*
X146496712Y-78502368D01*
X146496714Y-78502368D01*
X146617606Y-78488701D01*
X146720507Y-78477068D01*
X146725622Y-78475587D01*
X146725626Y-78475586D01*
X146850495Y-78439426D01*
X146941969Y-78412937D01*
X147149459Y-78312409D01*
X147153797Y-78309309D01*
X147153802Y-78309306D01*
X147332704Y-78181459D01*
X147337045Y-78178357D01*
X147499364Y-78014617D01*
X147583437Y-77894771D01*
X147628709Y-77830236D01*
X147628710Y-77830234D01*
X147631773Y-77825868D01*
X147649120Y-77789254D01*
X147728202Y-77622331D01*
X147730487Y-77617508D01*
X147792683Y-77395494D01*
X147816583Y-77166176D01*
X147816834Y-77140000D01*
X147805973Y-77012000D01*
X147797792Y-76915576D01*
X147797791Y-76915572D01*
X147797341Y-76910265D01*
X147739418Y-76687098D01*
X147644722Y-76476882D01*
X147515961Y-76285626D01*
X147356816Y-76118799D01*
X147171838Y-75981171D01*
X147167077Y-75978751D01*
X147163759Y-75976693D01*
X147116405Y-75923796D01*
X147105166Y-75853695D01*
X147133611Y-75788645D01*
X147156898Y-75767093D01*
X147165638Y-75760847D01*
X147337045Y-75638357D01*
X147499364Y-75474617D01*
X147589664Y-75345895D01*
X147628709Y-75290236D01*
X147628710Y-75290234D01*
X147631773Y-75285868D01*
X147730487Y-75077508D01*
X147792683Y-74855494D01*
X147816583Y-74626176D01*
X147816834Y-74600000D01*
X147816584Y-74597052D01*
X147797792Y-74375576D01*
X147797791Y-74375572D01*
X147797341Y-74370265D01*
X147739418Y-74147098D01*
X147688065Y-74033098D01*
X147646912Y-73941743D01*
X147646911Y-73941741D01*
X147644722Y-73936882D01*
X147515961Y-73745626D01*
X147490431Y-73718863D01*
X147360495Y-73582656D01*
X147356816Y-73578799D01*
X147171838Y-73441171D01*
X147167087Y-73438755D01*
X147167083Y-73438753D01*
X146971074Y-73339097D01*
X146971073Y-73339097D01*
X146966316Y-73336678D01*
X146828900Y-73294009D01*
X146751229Y-73269891D01*
X146751223Y-73269890D01*
X146746126Y-73268307D01*
X146641132Y-73254391D01*
X146522849Y-73238714D01*
X146522844Y-73238714D01*
X146517564Y-73238014D01*
X146512234Y-73238214D01*
X146512233Y-73238214D01*
X146402364Y-73242339D01*
X146287165Y-73246663D01*
X146204702Y-73263966D01*
X146066745Y-73292912D01*
X146066742Y-73292913D01*
X146061518Y-73294009D01*
X145847074Y-73378697D01*
X145649965Y-73498306D01*
X145645935Y-73501803D01*
X145552760Y-73582656D01*
X145475826Y-73649415D01*
X145472443Y-73653541D01*
X145472439Y-73653545D01*
X145400102Y-73741767D01*
X145329638Y-73827705D01*
X145327001Y-73832338D01*
X145327000Y-73832339D01*
X145293450Y-73891278D01*
X145242367Y-73940584D01*
X145172736Y-73954445D01*
X145106666Y-73928461D01*
X145079428Y-73899312D01*
X145074020Y-73891278D01*
X145016422Y-73805725D01*
X144978941Y-73750052D01*
X144978939Y-73750050D01*
X144975961Y-73745626D01*
X144950431Y-73718863D01*
X144820495Y-73582656D01*
X144816816Y-73578799D01*
X144631838Y-73441171D01*
X144627087Y-73438755D01*
X144627083Y-73438753D01*
X144431074Y-73339097D01*
X144431073Y-73339097D01*
X144426316Y-73336678D01*
X144288900Y-73294009D01*
X144211229Y-73269891D01*
X144211223Y-73269890D01*
X144206126Y-73268307D01*
X144101132Y-73254391D01*
X143982849Y-73238714D01*
X143982844Y-73238714D01*
X143977564Y-73238014D01*
X143972234Y-73238214D01*
X143972233Y-73238214D01*
X143862364Y-73242339D01*
X143747165Y-73246663D01*
X143664702Y-73263966D01*
X143526745Y-73292912D01*
X143526742Y-73292913D01*
X143521518Y-73294009D01*
X143307074Y-73378697D01*
X143109965Y-73498306D01*
X143105935Y-73501803D01*
X143012760Y-73582656D01*
X142935826Y-73649415D01*
X142932443Y-73653541D01*
X142932439Y-73653545D01*
X142860102Y-73741767D01*
X142789638Y-73827705D01*
X142787001Y-73832338D01*
X142787000Y-73832339D01*
X142753450Y-73891278D01*
X142702367Y-73940584D01*
X142632736Y-73954445D01*
X142566666Y-73928461D01*
X142539428Y-73899312D01*
X142534020Y-73891278D01*
X142476422Y-73805725D01*
X142438941Y-73750052D01*
X142438939Y-73750050D01*
X142435961Y-73745626D01*
X142410431Y-73718863D01*
X142280495Y-73582656D01*
X142276816Y-73578799D01*
X142091838Y-73441171D01*
X142087087Y-73438755D01*
X142087083Y-73438753D01*
X141891074Y-73339097D01*
X141891073Y-73339097D01*
X141886316Y-73336678D01*
X141748900Y-73294009D01*
X141671229Y-73269891D01*
X141671223Y-73269890D01*
X141666126Y-73268307D01*
X141561132Y-73254391D01*
X141442849Y-73238714D01*
X141442844Y-73238714D01*
X141437564Y-73238014D01*
X141432234Y-73238214D01*
X141432233Y-73238214D01*
X141322364Y-73242339D01*
X141207165Y-73246663D01*
X141124702Y-73263966D01*
X140986745Y-73292912D01*
X140986742Y-73292913D01*
X140981518Y-73294009D01*
X140767074Y-73378697D01*
X140569965Y-73498306D01*
X140565935Y-73501803D01*
X140472760Y-73582656D01*
X140395826Y-73649415D01*
X140392443Y-73653541D01*
X140392439Y-73653545D01*
X140320102Y-73741767D01*
X140249638Y-73827705D01*
X140247000Y-73832339D01*
X140246997Y-73832344D01*
X140230370Y-73861554D01*
X140135579Y-74028077D01*
X140056912Y-74244802D01*
X140055963Y-74250051D01*
X140055962Y-74250054D01*
X140029119Y-74398496D01*
X140015885Y-74471683D01*
X140015834Y-74477023D01*
X140014431Y-74623210D01*
X140013672Y-74702233D01*
X99441334Y-74702233D01*
X99441334Y-50494765D01*
X101258985Y-50494765D01*
X101259437Y-50498924D01*
X101259437Y-50498929D01*
X101281004Y-50697451D01*
X101291380Y-50792966D01*
X101292376Y-50797023D01*
X101292377Y-50797026D01*
X101345782Y-51014448D01*
X101362930Y-51084263D01*
X101472376Y-51363539D01*
X101515859Y-51441984D01*
X101613508Y-51618146D01*
X101617798Y-51625886D01*
X101620288Y-51629239D01*
X101620292Y-51629245D01*
X101794149Y-51863343D01*
X101794154Y-51863348D01*
X101796639Y-51866695D01*
X101799543Y-51869681D01*
X101799547Y-51869686D01*
X101811203Y-51881672D01*
X102005757Y-52081737D01*
X102009035Y-52084317D01*
X102009040Y-52084321D01*
X102238187Y-52264641D01*
X102241480Y-52267232D01*
X102245086Y-52269364D01*
X102245088Y-52269366D01*
X102308927Y-52307120D01*
X102499664Y-52419922D01*
X102775775Y-52537124D01*
X102779800Y-52538233D01*
X102779801Y-52538233D01*
X102798367Y-52543347D01*
X103064961Y-52616779D01*
X103069106Y-52617347D01*
X103069107Y-52617347D01*
X103091680Y-52620439D01*
X103362141Y-52657487D01*
X103366317Y-52657502D01*
X103366323Y-52657502D01*
X103514689Y-52658019D01*
X103662095Y-52658534D01*
X103959552Y-52619902D01*
X104104419Y-52581085D01*
X104245258Y-52543347D01*
X104245264Y-52543345D01*
X104249287Y-52542267D01*
X104253129Y-52540668D01*
X104253137Y-52540665D01*
X104522351Y-52428602D01*
X104522352Y-52428602D01*
X104526209Y-52426996D01*
X104529818Y-52424895D01*
X104529823Y-52424893D01*
X104732177Y-52307120D01*
X104785454Y-52276112D01*
X104788756Y-52273551D01*
X104788760Y-52273548D01*
X105019148Y-52094840D01*
X105019149Y-52094839D01*
X105022465Y-52092267D01*
X105169234Y-51943435D01*
X105230141Y-51881672D01*
X105230146Y-51881667D01*
X105233080Y-51878691D01*
X105310659Y-51775741D01*
X105411086Y-51642470D01*
X105411088Y-51642466D01*
X105413598Y-51639136D01*
X105494948Y-51494762D01*
X105558797Y-51381449D01*
X105558800Y-51381444D01*
X105560847Y-51377810D01*
X105672241Y-51099305D01*
X105674707Y-51089562D01*
X105744796Y-50812569D01*
X105745822Y-50808515D01*
X105747152Y-50797026D01*
X105779970Y-50513381D01*
X105780298Y-50510547D01*
X105783000Y-50400000D01*
X105763121Y-50100704D01*
X105762111Y-50095692D01*
X105730767Y-49940249D01*
X105703832Y-49806666D01*
X105647322Y-49642548D01*
X114917000Y-49642548D01*
X114917000Y-49872743D01*
X114917161Y-49877250D01*
X114921740Y-49941269D01*
X114924126Y-49954491D01*
X114960819Y-50079458D01*
X114968233Y-50095692D01*
X115037426Y-50203360D01*
X115049112Y-50216847D01*
X115145840Y-50300662D01*
X115160848Y-50310307D01*
X115277275Y-50363477D01*
X115294388Y-50368502D01*
X115425554Y-50387361D01*
X115434495Y-50388000D01*
X115957885Y-50388000D01*
X115973124Y-50383525D01*
X115974329Y-50382135D01*
X115976000Y-50374452D01*
X115976000Y-49647115D01*
X115971525Y-49631876D01*
X115970135Y-49630671D01*
X115962452Y-49629000D01*
X114935115Y-49629000D01*
X114919876Y-49633475D01*
X114918671Y-49634865D01*
X114917000Y-49642548D01*
X105647322Y-49642548D01*
X105606176Y-49523052D01*
X105585663Y-49482087D01*
X105473743Y-49258590D01*
X105473742Y-49258588D01*
X105471868Y-49254846D01*
X105394500Y-49141002D01*
X105305619Y-49010217D01*
X105305617Y-49010214D01*
X105303268Y-49006758D01*
X105300482Y-49003642D01*
X105106125Y-48786265D01*
X105106124Y-48786264D01*
X105103338Y-48783148D01*
X104875590Y-48587945D01*
X104766807Y-48517300D01*
X104627536Y-48426856D01*
X104627531Y-48426853D01*
X104624026Y-48424577D01*
X104619543Y-48422448D01*
X104473325Y-48353019D01*
X104353066Y-48295916D01*
X104349083Y-48294637D01*
X104349080Y-48294636D01*
X104142030Y-48228160D01*
X104067469Y-48204221D01*
X103772254Y-48151103D01*
X103606119Y-48143559D01*
X103476777Y-48137685D01*
X103476772Y-48137685D01*
X103472607Y-48137496D01*
X103468459Y-48137859D01*
X103468455Y-48137859D01*
X103236578Y-48158146D01*
X103173793Y-48163639D01*
X103169721Y-48164549D01*
X103169716Y-48164550D01*
X102885140Y-48228160D01*
X102885137Y-48228161D01*
X102881061Y-48229072D01*
X102877138Y-48230515D01*
X102877136Y-48230516D01*
X102852485Y-48239586D01*
X102599555Y-48332647D01*
X102595867Y-48334591D01*
X102595859Y-48334595D01*
X102338087Y-48470503D01*
X102334220Y-48472542D01*
X102089718Y-48646301D01*
X101997408Y-48732381D01*
X101928452Y-48796684D01*
X101870344Y-48850870D01*
X101679953Y-49082656D01*
X101521890Y-49337586D01*
X101398931Y-49611181D01*
X101313237Y-49898636D01*
X101266314Y-50194898D01*
X101259387Y-50478300D01*
X101258985Y-50494765D01*
X99441334Y-50494765D01*
X99441334Y-48482607D01*
X99443205Y-48460974D01*
X99444725Y-48452254D01*
X99444725Y-48452250D01*
X99445560Y-48447461D01*
X99447114Y-48361504D01*
X99447397Y-48345863D01*
X99447764Y-48338261D01*
X99449148Y-48320666D01*
X99450310Y-48310844D01*
X99470872Y-48181022D01*
X99472797Y-48171345D01*
X99473673Y-48167693D01*
X99476359Y-48158166D01*
X99516973Y-48033166D01*
X99520385Y-48023916D01*
X99521827Y-48020433D01*
X99525971Y-48011442D01*
X99585641Y-47894332D01*
X99590465Y-47885717D01*
X99592432Y-47882506D01*
X99597918Y-47874293D01*
X99675184Y-47767946D01*
X99681286Y-47760205D01*
X99683739Y-47757332D01*
X99690468Y-47750052D01*
X99783394Y-47657127D01*
X99790655Y-47650415D01*
X99793507Y-47647979D01*
X99801280Y-47641851D01*
X99907605Y-47564601D01*
X99915806Y-47559120D01*
X99919006Y-47557158D01*
X99927656Y-47552312D01*
X100044778Y-47492635D01*
X100053731Y-47488508D01*
X100057242Y-47487054D01*
X100066483Y-47483645D01*
X100191480Y-47443031D01*
X100200987Y-47440349D01*
X100201029Y-47440339D01*
X100204650Y-47439470D01*
X100214356Y-47437538D01*
X100344199Y-47416974D01*
X100353999Y-47415814D01*
X100362685Y-47415131D01*
X100371582Y-47414431D01*
X100379182Y-47414064D01*
X100445388Y-47412866D01*
X100477517Y-47412285D01*
X100481935Y-47411571D01*
X100481941Y-47411570D01*
X100494021Y-47409616D01*
X100514136Y-47408000D01*
X114790500Y-47408000D01*
X114858621Y-47428002D01*
G37*
G04 #@! TD.AperFunction*
G04 #@! TA.AperFunction,Conductor*
G36*
X116116516Y-52782602D02*
G01*
X116163009Y-52836258D01*
X116173113Y-52906532D01*
X116143619Y-52971112D01*
X116099644Y-53003707D01*
X115959280Y-53066201D01*
X115959278Y-53066202D01*
X115953250Y-53068886D01*
X115947909Y-53072766D01*
X115947908Y-53072767D01*
X115804093Y-53177254D01*
X115804091Y-53177256D01*
X115798749Y-53181137D01*
X115794328Y-53186047D01*
X115794327Y-53186048D01*
X115717553Y-53271315D01*
X115670963Y-53323058D01*
X115661011Y-53340296D01*
X115579440Y-53481581D01*
X115575476Y-53488446D01*
X115558971Y-53539244D01*
X115520201Y-53658567D01*
X115516462Y-53670073D01*
X115515772Y-53676636D01*
X115515772Y-53676637D01*
X115513757Y-53695813D01*
X115496500Y-53860000D01*
X115497190Y-53866565D01*
X115512862Y-54015671D01*
X115516462Y-54049927D01*
X115518502Y-54056205D01*
X115518502Y-54056206D01*
X115525910Y-54079006D01*
X115575476Y-54231554D01*
X115578779Y-54237276D01*
X115578780Y-54237277D01*
X115591899Y-54260000D01*
X115670963Y-54396942D01*
X115675381Y-54401849D01*
X115675382Y-54401850D01*
X115782575Y-54520900D01*
X115798749Y-54538863D01*
X115804091Y-54542744D01*
X115804093Y-54542746D01*
X115910272Y-54619889D01*
X115953250Y-54651114D01*
X115959278Y-54653798D01*
X115959280Y-54653799D01*
X116113520Y-54722471D01*
X116127713Y-54728790D01*
X116221113Y-54748643D01*
X116308056Y-54767124D01*
X116308061Y-54767124D01*
X116314513Y-54768496D01*
X116505487Y-54768496D01*
X116511939Y-54767124D01*
X116511944Y-54767124D01*
X116598887Y-54748643D01*
X116692287Y-54728790D01*
X116706480Y-54722471D01*
X116860720Y-54653799D01*
X116860722Y-54653798D01*
X116866750Y-54651114D01*
X116909728Y-54619889D01*
X117012854Y-54544964D01*
X117086915Y-54520900D01*
X117361058Y-54520900D01*
X117424343Y-54537946D01*
X117561766Y-54617767D01*
X117724080Y-54666927D01*
X117730520Y-54667502D01*
X117730521Y-54667502D01*
X117794934Y-54673251D01*
X117794940Y-54673251D01*
X117797727Y-54673500D01*
X118409135Y-54673500D01*
X118499213Y-54662998D01*
X118527432Y-54659708D01*
X118527433Y-54659708D01*
X118534704Y-54658860D01*
X118541581Y-54656364D01*
X118541584Y-54656363D01*
X118687243Y-54603491D01*
X118694122Y-54600994D01*
X118835951Y-54508007D01*
X118952586Y-54384885D01*
X119037767Y-54238234D01*
X119086927Y-54075920D01*
X119087780Y-54066365D01*
X119093251Y-54005066D01*
X119093251Y-54005060D01*
X119093500Y-54002273D01*
X119093500Y-53465865D01*
X119078860Y-53340296D01*
X119074679Y-53328776D01*
X119023491Y-53187757D01*
X119020994Y-53180878D01*
X118928007Y-53039049D01*
X118922688Y-53034010D01*
X118918018Y-53029586D01*
X118882321Y-52968217D01*
X118885469Y-52897290D01*
X118913199Y-52851463D01*
X118941144Y-52821963D01*
X118947554Y-52815197D01*
X118947554Y-52815196D01*
X118952586Y-52809885D01*
X118952587Y-52809884D01*
X118952960Y-52810237D01*
X119005923Y-52770560D01*
X119049997Y-52762600D01*
X119447597Y-52762600D01*
X119515718Y-52782602D01*
X119536692Y-52799504D01*
X119712995Y-52975806D01*
X119747020Y-53038118D01*
X119749900Y-53064902D01*
X119749900Y-65552717D01*
X119749348Y-65564427D01*
X119747630Y-65572113D01*
X119747879Y-65580039D01*
X119747879Y-65580040D01*
X119749838Y-65642374D01*
X119749900Y-65646332D01*
X119749900Y-65669580D01*
X119750396Y-65673501D01*
X119750645Y-65677466D01*
X119750638Y-65677466D01*
X119751143Y-65683876D01*
X119752473Y-65726222D01*
X119754685Y-65733836D01*
X119757813Y-65744601D01*
X119761824Y-65763968D01*
X119764224Y-65782969D01*
X119779828Y-65822378D01*
X119783663Y-65833579D01*
X119795489Y-65874286D01*
X119799525Y-65881110D01*
X119799526Y-65881113D01*
X119805240Y-65890775D01*
X119813936Y-65908525D01*
X119820984Y-65926327D01*
X119825645Y-65932743D01*
X119825646Y-65932744D01*
X119845885Y-65960600D01*
X119852404Y-65970524D01*
X119869633Y-65999658D01*
X119869637Y-65999663D01*
X119873669Y-66006481D01*
X119886950Y-66019762D01*
X119899791Y-66034797D01*
X119906948Y-66044648D01*
X119906951Y-66044652D01*
X119911611Y-66051065D01*
X119917719Y-66056118D01*
X119945490Y-66079092D01*
X119954270Y-66087082D01*
X120871993Y-67004805D01*
X120906019Y-67067117D01*
X120900954Y-67137932D01*
X120858407Y-67194768D01*
X120791887Y-67219579D01*
X120782898Y-67219900D01*
X113267283Y-67219900D01*
X113255573Y-67219348D01*
X113247887Y-67217630D01*
X113239961Y-67217879D01*
X113239960Y-67217879D01*
X113177626Y-67219838D01*
X113173668Y-67219900D01*
X113150420Y-67219900D01*
X113146499Y-67220396D01*
X113142534Y-67220645D01*
X113142534Y-67220638D01*
X113136124Y-67221143D01*
X113104562Y-67222134D01*
X113101703Y-67222224D01*
X113093778Y-67222473D01*
X113075394Y-67227814D01*
X113056032Y-67231824D01*
X113052202Y-67232308D01*
X113044898Y-67233230D01*
X113044896Y-67233230D01*
X113037031Y-67234224D01*
X112997622Y-67249828D01*
X112986421Y-67253663D01*
X112945714Y-67265489D01*
X112929230Y-67275238D01*
X112911477Y-67283935D01*
X112893673Y-67290984D01*
X112872317Y-67306500D01*
X112859393Y-67315890D01*
X112849471Y-67322407D01*
X112820350Y-67339629D01*
X112820346Y-67339632D01*
X112813520Y-67343669D01*
X112800239Y-67356950D01*
X112785204Y-67369791D01*
X112768935Y-67381611D01*
X112763882Y-67387719D01*
X112763880Y-67387721D01*
X112740908Y-67415490D01*
X112732918Y-67424271D01*
X112104192Y-68052996D01*
X112041880Y-68087021D01*
X112015097Y-68089900D01*
X111969813Y-68089900D01*
X111901692Y-68069898D01*
X111855199Y-68016242D01*
X111845095Y-67945968D01*
X111848484Y-67929911D01*
X111902908Y-67735639D01*
X111902909Y-67735635D01*
X111904349Y-67730494D01*
X111928249Y-67501176D01*
X111928392Y-67486288D01*
X111928472Y-67477963D01*
X111928472Y-67477954D01*
X111928500Y-67475000D01*
X111928245Y-67471993D01*
X111909458Y-67250576D01*
X111909457Y-67250572D01*
X111909007Y-67245265D01*
X111906142Y-67234224D01*
X111852426Y-67027269D01*
X111851084Y-67022098D01*
X111847793Y-67014791D01*
X111758578Y-66816743D01*
X111758577Y-66816741D01*
X111756388Y-66811882D01*
X111627627Y-66620626D01*
X111595570Y-66587021D01*
X111509844Y-66497158D01*
X111468482Y-66453799D01*
X111283504Y-66316171D01*
X111278742Y-66313750D01*
X111274967Y-66311409D01*
X111227613Y-66258512D01*
X111216374Y-66188410D01*
X111244819Y-66123361D01*
X111268107Y-66101809D01*
X111444034Y-65976089D01*
X111452149Y-65969182D01*
X111606893Y-65813082D01*
X111613706Y-65804933D01*
X111739940Y-65624988D01*
X111745295Y-65615787D01*
X111839399Y-65417156D01*
X111843123Y-65407197D01*
X111900968Y-65200718D01*
X111899430Y-65192351D01*
X111887137Y-65189000D01*
X110437000Y-65189000D01*
X110368879Y-65168998D01*
X110322386Y-65115342D01*
X110311000Y-65063000D01*
X110311000Y-63618717D01*
X110310328Y-63616430D01*
X110819000Y-63616430D01*
X110819000Y-64662885D01*
X110823475Y-64678124D01*
X110824865Y-64679329D01*
X110832548Y-64681000D01*
X111884079Y-64681000D01*
X111897610Y-64677027D01*
X111898876Y-64668218D01*
X111851954Y-64487433D01*
X111848419Y-64477395D01*
X111758147Y-64276998D01*
X111752967Y-64267692D01*
X111630218Y-64085366D01*
X111623557Y-64077080D01*
X111471830Y-63918030D01*
X111463873Y-63910990D01*
X111287523Y-63779782D01*
X111278486Y-63774178D01*
X111082550Y-63674559D01*
X111072699Y-63670559D01*
X110862778Y-63605378D01*
X110852396Y-63603095D01*
X110836959Y-63601049D01*
X110822792Y-63603246D01*
X110819000Y-63616430D01*
X110310328Y-63616430D01*
X110307027Y-63605186D01*
X110296420Y-63603661D01*
X110178554Y-63628391D01*
X110168358Y-63631451D01*
X109963932Y-63712182D01*
X109954396Y-63716916D01*
X109766486Y-63830942D01*
X109757896Y-63837206D01*
X109591884Y-63981264D01*
X109584464Y-63988895D01*
X109445100Y-64158860D01*
X109439079Y-64167622D01*
X109405427Y-64226739D01*
X109354344Y-64276045D01*
X109284714Y-64289906D01*
X109218643Y-64263922D01*
X109191405Y-64234773D01*
X109134467Y-64150200D01*
X109087627Y-64080626D01*
X109082793Y-64075558D01*
X109004771Y-63993771D01*
X108928482Y-63913799D01*
X108915481Y-63904126D01*
X108747792Y-63779361D01*
X108747789Y-63779359D01*
X108743504Y-63776171D01*
X108703994Y-63756083D01*
X108652337Y-63707379D01*
X108635100Y-63643767D01*
X108635100Y-54189902D01*
X108655102Y-54121781D01*
X108672005Y-54100807D01*
X109973307Y-52799505D01*
X110035619Y-52765479D01*
X110062402Y-52762600D01*
X116048395Y-52762600D01*
X116116516Y-52782602D01*
G37*
G04 #@! TD.AperFunction*
G04 #@! TA.AperFunction,Conductor*
G36*
X187372360Y-47409871D02*
G01*
X187381080Y-47411391D01*
X187381084Y-47411391D01*
X187385873Y-47412226D01*
X187390740Y-47412314D01*
X187487471Y-47414063D01*
X187495073Y-47414430D01*
X187506901Y-47415360D01*
X187512674Y-47415815D01*
X187522483Y-47416975D01*
X187644783Y-47436346D01*
X187652311Y-47437538D01*
X187661989Y-47439463D01*
X187663631Y-47439857D01*
X187665651Y-47440342D01*
X187675168Y-47443025D01*
X187800161Y-47483637D01*
X187809418Y-47487051D01*
X187811654Y-47487977D01*
X187812906Y-47488495D01*
X187821892Y-47492637D01*
X187896971Y-47530891D01*
X187939002Y-47552307D01*
X187947617Y-47557131D01*
X187950828Y-47559098D01*
X187959041Y-47564584D01*
X188050755Y-47631218D01*
X188065375Y-47641840D01*
X188073129Y-47647952D01*
X188076002Y-47650405D01*
X188083282Y-47657134D01*
X188176207Y-47750060D01*
X188182919Y-47757321D01*
X188185355Y-47760173D01*
X188191483Y-47767946D01*
X188268733Y-47874271D01*
X188274214Y-47882472D01*
X188276176Y-47885672D01*
X188281022Y-47894322D01*
X188340699Y-48011444D01*
X188344826Y-48020397D01*
X188346280Y-48023908D01*
X188349689Y-48033149D01*
X188383593Y-48137496D01*
X188390303Y-48158146D01*
X188392985Y-48167653D01*
X188393862Y-48171304D01*
X188395796Y-48181021D01*
X188416360Y-48310865D01*
X188417521Y-48320676D01*
X188418903Y-48338248D01*
X188419270Y-48345848D01*
X188421049Y-48444183D01*
X188421763Y-48448601D01*
X188421764Y-48448607D01*
X188423718Y-48460687D01*
X188425334Y-48480802D01*
X188425334Y-54823000D01*
X188405332Y-54891121D01*
X188351676Y-54937614D01*
X188299334Y-54949000D01*
X186523334Y-54949000D01*
X186450255Y-54954227D01*
X186372169Y-54977155D01*
X186318664Y-54992865D01*
X186318662Y-54992866D01*
X186310018Y-54995404D01*
X186276204Y-55017135D01*
X186194643Y-55069551D01*
X186194640Y-55069553D01*
X186187063Y-55074423D01*
X186181162Y-55081233D01*
X186097252Y-55178069D01*
X186097250Y-55178072D01*
X186091350Y-55184881D01*
X186087606Y-55193079D01*
X186054136Y-55266369D01*
X186030634Y-55317830D01*
X186029352Y-55326745D01*
X186029352Y-55326746D01*
X186010473Y-55458052D01*
X186010472Y-55458059D01*
X186009834Y-55462500D01*
X186009834Y-55720500D01*
X185989832Y-55788621D01*
X185936176Y-55835114D01*
X185883834Y-55846500D01*
X184123334Y-55846500D01*
X184050255Y-55851727D01*
X183981003Y-55872061D01*
X183918664Y-55890365D01*
X183918662Y-55890366D01*
X183910018Y-55892904D01*
X183889653Y-55905992D01*
X183794643Y-55967051D01*
X183794640Y-55967053D01*
X183787063Y-55971923D01*
X183781162Y-55978733D01*
X183697252Y-56075569D01*
X183697250Y-56075572D01*
X183691350Y-56082381D01*
X183630634Y-56215330D01*
X183629352Y-56224245D01*
X183629352Y-56224246D01*
X183610473Y-56355552D01*
X183610472Y-56355559D01*
X183609834Y-56360000D01*
X183609834Y-57435000D01*
X183589832Y-57503121D01*
X183536176Y-57549614D01*
X183483834Y-57561000D01*
X183035059Y-57561000D01*
X182966938Y-57540998D01*
X182945964Y-57524095D01*
X182408507Y-56986637D01*
X181856445Y-56434575D01*
X181850591Y-56428310D01*
X181832595Y-56407681D01*
X181814402Y-56386826D01*
X181762861Y-56350602D01*
X181757601Y-56346696D01*
X181708025Y-56307823D01*
X181701100Y-56304696D01*
X181698041Y-56302844D01*
X181685379Y-56295622D01*
X181682228Y-56293932D01*
X181676010Y-56289562D01*
X181617324Y-56266681D01*
X181611246Y-56264126D01*
X181576372Y-56248380D01*
X181553859Y-56238215D01*
X181546392Y-56236831D01*
X181542975Y-56235760D01*
X181528932Y-56231760D01*
X181525488Y-56230876D01*
X181518412Y-56228117D01*
X181464361Y-56221001D01*
X181455968Y-56219896D01*
X181449454Y-56218864D01*
X181395006Y-56208773D01*
X181395005Y-56208773D01*
X181387538Y-56207389D01*
X181379958Y-56207826D01*
X181379957Y-56207826D01*
X181328542Y-56210791D01*
X181321288Y-56211000D01*
X178963334Y-56211000D01*
X178895213Y-56190998D01*
X178848720Y-56137342D01*
X178837334Y-56085000D01*
X178837334Y-55847076D01*
X178857336Y-55778955D01*
X178871857Y-55760427D01*
X178943420Y-55684885D01*
X178950349Y-55672957D01*
X178992897Y-55599704D01*
X179028601Y-55538234D01*
X179077761Y-55375920D01*
X179084334Y-55302273D01*
X179084334Y-54690865D01*
X179069694Y-54565296D01*
X179065999Y-54555115D01*
X179014325Y-54412757D01*
X179011828Y-54405878D01*
X178918841Y-54264049D01*
X178795719Y-54147414D01*
X178649068Y-54062233D01*
X178486754Y-54013073D01*
X178480314Y-54012498D01*
X178480313Y-54012498D01*
X178415900Y-54006749D01*
X178415894Y-54006749D01*
X178413107Y-54006500D01*
X177876699Y-54006500D01*
X177787703Y-54016876D01*
X177758402Y-54020292D01*
X177758401Y-54020292D01*
X177751130Y-54021140D01*
X177744253Y-54023636D01*
X177744250Y-54023637D01*
X177627791Y-54065910D01*
X177591712Y-54079006D01*
X177449883Y-54171993D01*
X177444844Y-54177313D01*
X177444842Y-54177314D01*
X177440078Y-54182342D01*
X177378709Y-54218039D01*
X177307782Y-54214891D01*
X177261953Y-54187160D01*
X177225736Y-54152851D01*
X177214089Y-54144138D01*
X177080194Y-54066365D01*
X177066869Y-54060571D01*
X176917850Y-54015438D01*
X176905227Y-54012990D01*
X176840900Y-54007249D01*
X176835430Y-54007006D01*
X176820210Y-54011475D01*
X176819005Y-54012865D01*
X176817334Y-54020548D01*
X176817334Y-55118000D01*
X176797332Y-55186121D01*
X176743676Y-55232614D01*
X176691334Y-55244000D01*
X175012949Y-55244000D01*
X174997710Y-55248475D01*
X174996505Y-55249865D01*
X174994834Y-55257548D01*
X174994834Y-55954885D01*
X174999309Y-55970124D01*
X175000699Y-55971329D01*
X175006319Y-55972551D01*
X175120653Y-55959222D01*
X175134800Y-55955878D01*
X175280356Y-55903043D01*
X175293351Y-55896535D01*
X175422845Y-55811635D01*
X175433997Y-55802311D01*
X175540488Y-55689897D01*
X175553161Y-55672957D01*
X175609983Y-55630393D01*
X175680798Y-55625306D01*
X175743120Y-55659312D01*
X175759424Y-55679350D01*
X175779199Y-55709511D01*
X175788523Y-55720663D01*
X175900932Y-55827149D01*
X175912579Y-55835862D01*
X176046474Y-55913635D01*
X176059799Y-55919429D01*
X176208818Y-55964562D01*
X176221441Y-55967010D01*
X176280212Y-55972255D01*
X176346285Y-55998233D01*
X176387824Y-56055810D01*
X176391641Y-56126704D01*
X176356523Y-56188407D01*
X176293621Y-56221329D01*
X176284178Y-56222839D01*
X176255406Y-56226321D01*
X176248304Y-56229005D01*
X176244837Y-56229856D01*
X176230791Y-56233699D01*
X176227342Y-56234741D01*
X176219856Y-56236047D01*
X176209822Y-56240452D01*
X176188593Y-56247595D01*
X176187542Y-56247848D01*
X176185323Y-56248380D01*
X176185320Y-56248381D01*
X176177939Y-56250153D01*
X176145042Y-56267133D01*
X176131794Y-56273031D01*
X176122013Y-56276727D01*
X176097174Y-56286113D01*
X176090912Y-56290417D01*
X176087740Y-56292075D01*
X176074992Y-56299170D01*
X176071927Y-56300982D01*
X176064969Y-56304037D01*
X176058942Y-56308662D01*
X176056278Y-56310706D01*
X176037369Y-56322706D01*
X176034518Y-56324178D01*
X176027627Y-56327735D01*
X176021903Y-56332729D01*
X176021902Y-56332729D01*
X175999729Y-56352071D01*
X175988271Y-56360958D01*
X175966094Y-56376201D01*
X175957770Y-56381922D01*
X175952718Y-56387592D01*
X175952716Y-56387594D01*
X175936032Y-56406320D01*
X175924790Y-56417446D01*
X175900160Y-56438932D01*
X175895790Y-56445150D01*
X175892938Y-56449208D01*
X175878951Y-56465848D01*
X174910201Y-57434597D01*
X174847891Y-57468621D01*
X174821108Y-57471500D01*
X174493334Y-57471500D01*
X174420255Y-57476727D01*
X174342169Y-57499655D01*
X174288664Y-57515365D01*
X174288662Y-57515366D01*
X174280018Y-57517904D01*
X174263342Y-57528621D01*
X174164643Y-57592051D01*
X174164640Y-57592053D01*
X174157063Y-57596923D01*
X174151162Y-57603733D01*
X174067252Y-57700569D01*
X174067250Y-57700572D01*
X174061350Y-57707381D01*
X174057606Y-57715578D01*
X174057604Y-57715582D01*
X174039958Y-57754221D01*
X173993465Y-57807876D01*
X173925344Y-57827878D01*
X173857224Y-57807876D01*
X173819347Y-57769999D01*
X173746283Y-57656309D01*
X173746281Y-57656306D01*
X173741411Y-57648729D01*
X173727489Y-57636665D01*
X173698442Y-57611496D01*
X173630953Y-57553016D01*
X173622753Y-57549271D01*
X173595991Y-57537049D01*
X173542335Y-57490556D01*
X173522334Y-57422436D01*
X173522334Y-57103109D01*
X173542336Y-57034988D01*
X173554697Y-57018799D01*
X173557951Y-57015185D01*
X173562371Y-57010276D01*
X173657858Y-56844888D01*
X173698872Y-56718659D01*
X173714832Y-56669540D01*
X173714832Y-56669539D01*
X173716872Y-56663261D01*
X173719446Y-56638776D01*
X173736144Y-56479899D01*
X173736834Y-56473334D01*
X173724922Y-56360000D01*
X173717562Y-56289971D01*
X173717562Y-56289970D01*
X173716872Y-56283407D01*
X173705361Y-56247978D01*
X173662565Y-56116268D01*
X173657858Y-56101780D01*
X173646606Y-56082292D01*
X173629869Y-56013299D01*
X173653089Y-55946207D01*
X173699309Y-55906629D01*
X173705572Y-55903493D01*
X173712456Y-55900994D01*
X173721864Y-55894826D01*
X173848160Y-55812023D01*
X173848162Y-55812022D01*
X173854285Y-55808007D01*
X173859681Y-55802311D01*
X173864090Y-55797658D01*
X173925459Y-55761961D01*
X173996386Y-55765109D01*
X174042215Y-55792840D01*
X174078432Y-55827149D01*
X174090079Y-55835862D01*
X174223974Y-55913635D01*
X174237299Y-55919429D01*
X174386318Y-55964562D01*
X174398941Y-55967010D01*
X174463268Y-55972751D01*
X174468738Y-55972994D01*
X174483958Y-55968525D01*
X174485163Y-55967135D01*
X174486834Y-55959452D01*
X174486834Y-54025115D01*
X174485493Y-54020548D01*
X174994834Y-54020548D01*
X174994834Y-54717885D01*
X174999309Y-54733124D01*
X175000699Y-54734329D01*
X175008382Y-54736000D01*
X176291219Y-54736000D01*
X176306458Y-54731525D01*
X176307663Y-54730135D01*
X176309334Y-54722452D01*
X176309334Y-54025115D01*
X176304859Y-54009876D01*
X176303469Y-54008671D01*
X176297849Y-54007449D01*
X176183515Y-54020778D01*
X176169368Y-54024122D01*
X176023812Y-54076957D01*
X176010817Y-54083465D01*
X175881323Y-54168365D01*
X175870171Y-54177689D01*
X175763680Y-54290103D01*
X175751007Y-54307043D01*
X175694185Y-54349607D01*
X175623370Y-54354694D01*
X175561048Y-54320688D01*
X175544744Y-54300650D01*
X175524969Y-54270489D01*
X175515645Y-54259337D01*
X175403236Y-54152851D01*
X175391589Y-54144138D01*
X175257694Y-54066365D01*
X175244369Y-54060571D01*
X175095350Y-54015438D01*
X175082727Y-54012990D01*
X175018400Y-54007249D01*
X175012930Y-54007006D01*
X174997710Y-54011475D01*
X174996505Y-54012865D01*
X174994834Y-54020548D01*
X174485493Y-54020548D01*
X174482359Y-54009876D01*
X174480969Y-54008671D01*
X174475349Y-54007449D01*
X174361015Y-54020778D01*
X174346868Y-54024122D01*
X174201312Y-54076957D01*
X174188317Y-54083465D01*
X174058823Y-54168365D01*
X174047671Y-54177689D01*
X174043282Y-54182322D01*
X173981913Y-54218020D01*
X173910986Y-54214872D01*
X173865156Y-54187142D01*
X173823219Y-54147414D01*
X173816889Y-54143737D01*
X173816885Y-54143734D01*
X173756518Y-54108670D01*
X173719843Y-54076423D01*
X173694482Y-54043373D01*
X173694476Y-54043366D01*
X173691969Y-54040099D01*
X172109127Y-52457257D01*
X170509572Y-50857701D01*
X170475546Y-50795389D01*
X170473357Y-50781776D01*
X170467562Y-50726636D01*
X170467562Y-50726634D01*
X170466872Y-50720073D01*
X170407858Y-50538446D01*
X170391751Y-50510547D01*
X170382639Y-50494765D01*
X181928985Y-50494765D01*
X181929437Y-50498924D01*
X181929437Y-50498929D01*
X181951004Y-50697451D01*
X181961380Y-50792966D01*
X181962376Y-50797023D01*
X181962377Y-50797026D01*
X182015782Y-51014448D01*
X182032930Y-51084263D01*
X182142376Y-51363539D01*
X182185859Y-51441984D01*
X182283508Y-51618146D01*
X182287798Y-51625886D01*
X182290288Y-51629239D01*
X182290292Y-51629245D01*
X182464149Y-51863343D01*
X182464154Y-51863348D01*
X182466639Y-51866695D01*
X182469543Y-51869681D01*
X182469547Y-51869686D01*
X182481203Y-51881672D01*
X182675757Y-52081737D01*
X182679035Y-52084317D01*
X182679040Y-52084321D01*
X182908187Y-52264641D01*
X182911480Y-52267232D01*
X182915086Y-52269364D01*
X182915088Y-52269366D01*
X182978927Y-52307120D01*
X183169664Y-52419922D01*
X183445775Y-52537124D01*
X183449800Y-52538233D01*
X183449801Y-52538233D01*
X183468367Y-52543347D01*
X183734961Y-52616779D01*
X183739106Y-52617347D01*
X183739107Y-52617347D01*
X183761680Y-52620439D01*
X184032141Y-52657487D01*
X184036317Y-52657502D01*
X184036323Y-52657502D01*
X184184689Y-52658019D01*
X184332095Y-52658534D01*
X184629552Y-52619902D01*
X184774419Y-52581085D01*
X184915258Y-52543347D01*
X184915264Y-52543345D01*
X184919287Y-52542267D01*
X184923129Y-52540668D01*
X184923137Y-52540665D01*
X185192351Y-52428602D01*
X185192352Y-52428602D01*
X185196209Y-52426996D01*
X185199818Y-52424895D01*
X185199823Y-52424893D01*
X185402177Y-52307120D01*
X185455454Y-52276112D01*
X185458756Y-52273551D01*
X185458760Y-52273548D01*
X185689148Y-52094840D01*
X185689149Y-52094839D01*
X185692465Y-52092267D01*
X185839234Y-51943435D01*
X185900141Y-51881672D01*
X185900146Y-51881667D01*
X185903080Y-51878691D01*
X185980659Y-51775741D01*
X186081086Y-51642470D01*
X186081088Y-51642466D01*
X186083598Y-51639136D01*
X186164948Y-51494762D01*
X186228797Y-51381449D01*
X186228800Y-51381444D01*
X186230847Y-51377810D01*
X186342241Y-51099305D01*
X186344707Y-51089562D01*
X186414796Y-50812569D01*
X186415822Y-50808515D01*
X186417152Y-50797026D01*
X186449970Y-50513381D01*
X186450298Y-50510547D01*
X186453000Y-50400000D01*
X186433121Y-50100704D01*
X186432111Y-50095692D01*
X186400767Y-49940249D01*
X186373832Y-49806666D01*
X186276176Y-49523052D01*
X186255663Y-49482087D01*
X186143743Y-49258590D01*
X186143742Y-49258588D01*
X186141868Y-49254846D01*
X186064500Y-49141002D01*
X185975619Y-49010217D01*
X185975617Y-49010214D01*
X185973268Y-49006758D01*
X185970482Y-49003642D01*
X185776125Y-48786265D01*
X185776124Y-48786264D01*
X185773338Y-48783148D01*
X185545590Y-48587945D01*
X185436807Y-48517300D01*
X185297536Y-48426856D01*
X185297531Y-48426853D01*
X185294026Y-48424577D01*
X185289543Y-48422448D01*
X185143325Y-48353019D01*
X185023066Y-48295916D01*
X185019083Y-48294637D01*
X185019080Y-48294636D01*
X184812030Y-48228160D01*
X184737469Y-48204221D01*
X184442254Y-48151103D01*
X184276119Y-48143559D01*
X184146777Y-48137685D01*
X184146772Y-48137685D01*
X184142607Y-48137496D01*
X184138459Y-48137859D01*
X184138455Y-48137859D01*
X183906578Y-48158146D01*
X183843793Y-48163639D01*
X183839721Y-48164549D01*
X183839716Y-48164550D01*
X183555140Y-48228160D01*
X183555137Y-48228161D01*
X183551061Y-48229072D01*
X183547138Y-48230515D01*
X183547136Y-48230516D01*
X183522485Y-48239586D01*
X183269555Y-48332647D01*
X183265867Y-48334591D01*
X183265859Y-48334595D01*
X183008087Y-48470503D01*
X183004220Y-48472542D01*
X182759718Y-48646301D01*
X182667408Y-48732381D01*
X182598452Y-48796684D01*
X182540344Y-48850870D01*
X182349953Y-49082656D01*
X182191890Y-49337586D01*
X182068931Y-49611181D01*
X181983237Y-49898636D01*
X181936314Y-50194898D01*
X181929387Y-50478300D01*
X181928985Y-50494765D01*
X170382639Y-50494765D01*
X170318261Y-50383260D01*
X170312371Y-50373058D01*
X170296132Y-50355022D01*
X170189007Y-50236048D01*
X170189006Y-50236047D01*
X170184585Y-50231137D01*
X170179243Y-50227256D01*
X170179241Y-50227254D01*
X170035426Y-50122767D01*
X170035425Y-50122766D01*
X170030084Y-50118886D01*
X170024056Y-50116202D01*
X170024054Y-50116201D01*
X169861652Y-50043895D01*
X169861651Y-50043895D01*
X169855621Y-50041210D01*
X169762221Y-50021357D01*
X169675278Y-50002876D01*
X169675273Y-50002876D01*
X169668821Y-50001504D01*
X169477847Y-50001504D01*
X169471395Y-50002876D01*
X169471390Y-50002876D01*
X169384447Y-50021357D01*
X169291047Y-50041210D01*
X169285017Y-50043895D01*
X169285016Y-50043895D01*
X169122614Y-50116201D01*
X169122612Y-50116202D01*
X169116584Y-50118886D01*
X169111243Y-50122766D01*
X169111242Y-50122767D01*
X168967427Y-50227254D01*
X168967425Y-50227256D01*
X168962083Y-50231137D01*
X168957662Y-50236047D01*
X168957661Y-50236048D01*
X168850537Y-50355022D01*
X168834297Y-50373058D01*
X168828407Y-50383260D01*
X168754918Y-50510547D01*
X168738810Y-50538446D01*
X168679796Y-50720073D01*
X168659834Y-50910000D01*
X168660524Y-50916565D01*
X168677685Y-51079838D01*
X168679796Y-51099927D01*
X168681836Y-51106205D01*
X168681836Y-51106206D01*
X168724998Y-51239045D01*
X168727025Y-51310013D01*
X168690363Y-51370810D01*
X168626651Y-51402136D01*
X168556117Y-51394043D01*
X168541881Y-51386936D01*
X168541146Y-51386509D01*
X168516568Y-51372233D01*
X168354254Y-51323073D01*
X168347814Y-51322498D01*
X168347813Y-51322498D01*
X168283400Y-51316749D01*
X168283394Y-51316749D01*
X168280607Y-51316500D01*
X167744199Y-51316500D01*
X167671740Y-51324948D01*
X167625902Y-51330292D01*
X167625901Y-51330292D01*
X167618630Y-51331140D01*
X167611753Y-51333636D01*
X167611750Y-51333637D01*
X167490056Y-51377810D01*
X167459212Y-51389006D01*
X167317383Y-51481993D01*
X167284819Y-51516369D01*
X167280855Y-51520553D01*
X167219486Y-51556251D01*
X167189382Y-51559900D01*
X159580378Y-51559900D01*
X159556770Y-51557668D01*
X159548622Y-51556114D01*
X159492528Y-51559643D01*
X159492401Y-51559651D01*
X159484490Y-51559900D01*
X151690617Y-51559900D01*
X151678907Y-51559348D01*
X151671221Y-51557630D01*
X151663295Y-51557879D01*
X151663294Y-51557879D01*
X151600960Y-51559838D01*
X151597002Y-51559900D01*
X151573754Y-51559900D01*
X151569833Y-51560396D01*
X151565868Y-51560645D01*
X151565868Y-51560638D01*
X151559458Y-51561143D01*
X151527896Y-51562134D01*
X151525037Y-51562224D01*
X151517112Y-51562473D01*
X151498728Y-51567814D01*
X151479366Y-51571824D01*
X151475536Y-51572308D01*
X151468232Y-51573230D01*
X151468230Y-51573230D01*
X151460365Y-51574224D01*
X151420956Y-51589828D01*
X151409755Y-51593663D01*
X151369048Y-51605489D01*
X151362224Y-51609525D01*
X151362221Y-51609526D01*
X151352559Y-51615240D01*
X151334809Y-51623936D01*
X151317007Y-51630984D01*
X151310591Y-51635645D01*
X151310590Y-51635646D01*
X151282734Y-51655885D01*
X151272810Y-51662404D01*
X151243676Y-51679633D01*
X151243671Y-51679637D01*
X151236853Y-51683669D01*
X151223572Y-51696950D01*
X151208537Y-51709791D01*
X151198686Y-51716948D01*
X151198682Y-51716951D01*
X151192269Y-51721611D01*
X151187216Y-51727719D01*
X151164242Y-51755490D01*
X151156252Y-51764270D01*
X150460927Y-52459595D01*
X150398615Y-52493621D01*
X150371832Y-52496500D01*
X150248334Y-52496500D01*
X150175255Y-52501727D01*
X150155349Y-52507572D01*
X150101922Y-52511393D01*
X150002782Y-52497139D01*
X150002775Y-52497138D01*
X149998334Y-52496500D01*
X149719434Y-52496500D01*
X149651313Y-52476498D01*
X149604820Y-52422842D01*
X149593434Y-52370500D01*
X149593434Y-50314902D01*
X149613436Y-50246781D01*
X149630339Y-50225807D01*
X149949141Y-49907005D01*
X150011453Y-49872979D01*
X150038236Y-49870100D01*
X154821315Y-49870100D01*
X154889436Y-49890102D01*
X154926687Y-49927015D01*
X154940809Y-49948554D01*
X154965327Y-49985951D01*
X155088449Y-50102586D01*
X155235100Y-50187767D01*
X155397414Y-50236927D01*
X155403854Y-50237502D01*
X155403855Y-50237502D01*
X155468268Y-50243251D01*
X155468274Y-50243251D01*
X155471061Y-50243500D01*
X156007469Y-50243500D01*
X156097547Y-50232998D01*
X156125766Y-50229708D01*
X156125767Y-50229708D01*
X156133038Y-50228860D01*
X156139915Y-50226364D01*
X156139918Y-50226363D01*
X156285577Y-50173491D01*
X156292456Y-50170994D01*
X156434285Y-50078007D01*
X156443747Y-50068018D01*
X156505117Y-50032321D01*
X156576044Y-50035469D01*
X156621871Y-50063199D01*
X156663449Y-50102586D01*
X156810100Y-50187767D01*
X156972414Y-50236927D01*
X156978854Y-50237502D01*
X156978855Y-50237502D01*
X157043268Y-50243251D01*
X157043274Y-50243251D01*
X157046061Y-50243500D01*
X157582469Y-50243500D01*
X157672547Y-50232998D01*
X157700766Y-50229708D01*
X157700767Y-50229708D01*
X157708038Y-50228860D01*
X157714915Y-50226364D01*
X157714918Y-50226363D01*
X157860577Y-50173491D01*
X157867456Y-50170994D01*
X158009285Y-50078007D01*
X158125920Y-49954885D01*
X158129596Y-49948557D01*
X158129600Y-49948551D01*
X158138739Y-49932816D01*
X158190249Y-49883957D01*
X158247693Y-49870100D01*
X159101315Y-49870100D01*
X159169436Y-49890102D01*
X159206687Y-49927015D01*
X159220809Y-49948554D01*
X159245327Y-49985951D01*
X159368449Y-50102586D01*
X159515100Y-50187767D01*
X159677414Y-50236927D01*
X159683854Y-50237502D01*
X159683855Y-50237502D01*
X159748268Y-50243251D01*
X159748274Y-50243251D01*
X159751061Y-50243500D01*
X160287469Y-50243500D01*
X160377547Y-50232998D01*
X160405766Y-50229708D01*
X160405767Y-50229708D01*
X160413038Y-50228860D01*
X160419915Y-50226364D01*
X160419918Y-50226363D01*
X160565577Y-50173491D01*
X160572456Y-50170994D01*
X160714285Y-50078007D01*
X160723747Y-50068018D01*
X160785117Y-50032321D01*
X160856044Y-50035469D01*
X160901871Y-50063199D01*
X160943449Y-50102586D01*
X161090100Y-50187767D01*
X161252414Y-50236927D01*
X161258854Y-50237502D01*
X161258855Y-50237502D01*
X161323268Y-50243251D01*
X161323274Y-50243251D01*
X161326061Y-50243500D01*
X161862469Y-50243500D01*
X161952547Y-50232998D01*
X161980766Y-50229708D01*
X161980767Y-50229708D01*
X161988038Y-50228860D01*
X161994915Y-50226364D01*
X161994918Y-50226363D01*
X162140577Y-50173491D01*
X162147456Y-50170994D01*
X162289285Y-50078007D01*
X162405920Y-49954885D01*
X162412932Y-49942813D01*
X162464443Y-49893955D01*
X162521885Y-49880100D01*
X162774070Y-49880100D01*
X162842191Y-49900102D01*
X162867707Y-49921791D01*
X162887659Y-49943951D01*
X162887666Y-49943957D01*
X162892083Y-49948863D01*
X162897425Y-49952744D01*
X162897427Y-49952746D01*
X163017300Y-50039838D01*
X163046584Y-50061114D01*
X163052612Y-50063798D01*
X163052614Y-50063799D01*
X163215016Y-50136105D01*
X163221047Y-50138790D01*
X163314447Y-50158643D01*
X163401390Y-50177124D01*
X163401395Y-50177124D01*
X163407847Y-50178496D01*
X163598821Y-50178496D01*
X163605273Y-50177124D01*
X163605278Y-50177124D01*
X163692221Y-50158643D01*
X163785621Y-50138790D01*
X163791652Y-50136105D01*
X163954054Y-50063799D01*
X163954056Y-50063798D01*
X163960084Y-50061114D01*
X163989368Y-50039838D01*
X164109241Y-49952746D01*
X164109243Y-49952744D01*
X164114585Y-49948863D01*
X164119008Y-49943951D01*
X164237952Y-49811850D01*
X164237953Y-49811849D01*
X164242371Y-49806942D01*
X164337858Y-49641554D01*
X164396872Y-49459927D01*
X164409731Y-49337586D01*
X164416144Y-49276565D01*
X164416834Y-49270000D01*
X164396872Y-49080073D01*
X164374175Y-49010217D01*
X164339900Y-48904731D01*
X164337858Y-48898446D01*
X164318739Y-48865330D01*
X164280899Y-48799791D01*
X164242371Y-48733058D01*
X164176500Y-48659900D01*
X164119007Y-48596048D01*
X164119006Y-48596047D01*
X164114585Y-48591137D01*
X164109243Y-48587256D01*
X164109241Y-48587254D01*
X163965426Y-48482767D01*
X163965425Y-48482766D01*
X163960084Y-48478886D01*
X163954056Y-48476202D01*
X163954054Y-48476201D01*
X163791652Y-48403895D01*
X163791651Y-48403895D01*
X163785621Y-48401210D01*
X163692221Y-48381357D01*
X163605278Y-48362876D01*
X163605273Y-48362876D01*
X163598821Y-48361504D01*
X163407847Y-48361504D01*
X163401395Y-48362876D01*
X163401390Y-48362876D01*
X163314447Y-48381357D01*
X163221047Y-48401210D01*
X163215017Y-48403895D01*
X163215016Y-48403895D01*
X163052614Y-48476201D01*
X163052612Y-48476202D01*
X163046584Y-48478886D01*
X163041243Y-48482766D01*
X163041242Y-48482767D01*
X162897427Y-48587254D01*
X162897425Y-48587256D01*
X162892083Y-48591137D01*
X162887666Y-48596043D01*
X162887659Y-48596049D01*
X162867707Y-48618209D01*
X162807262Y-48655450D01*
X162774070Y-48659900D01*
X162531909Y-48659900D01*
X162463788Y-48639898D01*
X162426537Y-48602984D01*
X162385356Y-48540172D01*
X162385353Y-48540168D01*
X162381341Y-48534049D01*
X162258219Y-48417414D01*
X162111568Y-48332233D01*
X161949254Y-48283073D01*
X161942814Y-48282498D01*
X161942813Y-48282498D01*
X161878400Y-48276749D01*
X161878394Y-48276749D01*
X161875607Y-48276500D01*
X161339199Y-48276500D01*
X161266740Y-48284948D01*
X161220902Y-48290292D01*
X161220901Y-48290292D01*
X161213630Y-48291140D01*
X161206753Y-48293636D01*
X161206750Y-48293637D01*
X161090291Y-48335910D01*
X161054212Y-48349006D01*
X160912383Y-48441993D01*
X160907345Y-48447311D01*
X160907344Y-48447312D01*
X160902920Y-48451982D01*
X160841551Y-48487679D01*
X160770624Y-48484531D01*
X160724797Y-48456801D01*
X160683219Y-48417414D01*
X160536568Y-48332233D01*
X160374254Y-48283073D01*
X160367814Y-48282498D01*
X160367813Y-48282498D01*
X160303400Y-48276749D01*
X160303394Y-48276749D01*
X160300607Y-48276500D01*
X159764199Y-48276500D01*
X159691740Y-48284948D01*
X159645902Y-48290292D01*
X159645901Y-48290292D01*
X159638630Y-48291140D01*
X159631753Y-48293636D01*
X159631750Y-48293637D01*
X159515291Y-48335910D01*
X159479212Y-48349006D01*
X159337383Y-48441993D01*
X159220748Y-48565115D01*
X159217072Y-48571443D01*
X159217068Y-48571449D01*
X159207929Y-48587184D01*
X159156419Y-48636043D01*
X159098975Y-48649900D01*
X158245353Y-48649900D01*
X158177232Y-48629898D01*
X158139981Y-48592985D01*
X158105353Y-48540168D01*
X158105352Y-48540167D01*
X158101341Y-48534049D01*
X157978219Y-48417414D01*
X157831568Y-48332233D01*
X157669254Y-48283073D01*
X157662814Y-48282498D01*
X157662813Y-48282498D01*
X157598400Y-48276749D01*
X157598394Y-48276749D01*
X157595607Y-48276500D01*
X157059199Y-48276500D01*
X156986740Y-48284948D01*
X156940902Y-48290292D01*
X156940901Y-48290292D01*
X156933630Y-48291140D01*
X156926753Y-48293636D01*
X156926750Y-48293637D01*
X156810291Y-48335910D01*
X156774212Y-48349006D01*
X156632383Y-48441993D01*
X156627345Y-48447311D01*
X156627344Y-48447312D01*
X156622920Y-48451982D01*
X156561551Y-48487679D01*
X156490624Y-48484531D01*
X156444797Y-48456801D01*
X156403219Y-48417414D01*
X156256568Y-48332233D01*
X156094254Y-48283073D01*
X156087814Y-48282498D01*
X156087813Y-48282498D01*
X156023400Y-48276749D01*
X156023394Y-48276749D01*
X156020607Y-48276500D01*
X155484199Y-48276500D01*
X155411740Y-48284948D01*
X155365902Y-48290292D01*
X155365901Y-48290292D01*
X155358630Y-48291140D01*
X155351753Y-48293636D01*
X155351750Y-48293637D01*
X155235291Y-48335910D01*
X155199212Y-48349006D01*
X155057383Y-48441993D01*
X154940748Y-48565115D01*
X154937072Y-48571443D01*
X154937068Y-48571449D01*
X154927929Y-48587184D01*
X154876419Y-48636043D01*
X154818975Y-48649900D01*
X149810616Y-48649900D01*
X149798906Y-48649348D01*
X149791220Y-48647630D01*
X149783294Y-48647879D01*
X149783293Y-48647879D01*
X149720959Y-48649838D01*
X149717001Y-48649900D01*
X149693754Y-48649900D01*
X149689833Y-48650396D01*
X149685868Y-48650645D01*
X149685868Y-48650638D01*
X149679458Y-48651143D01*
X149648488Y-48652116D01*
X149645036Y-48652224D01*
X149637111Y-48652473D01*
X149629494Y-48654686D01*
X149618722Y-48657815D01*
X149599362Y-48661824D01*
X149580365Y-48664224D01*
X149572997Y-48667141D01*
X149572990Y-48667143D01*
X149540963Y-48679823D01*
X149529735Y-48683668D01*
X149489048Y-48695489D01*
X149482225Y-48699524D01*
X149482223Y-48699525D01*
X149472559Y-48705240D01*
X149454809Y-48713936D01*
X149437007Y-48720984D01*
X149430591Y-48725645D01*
X149430590Y-48725646D01*
X149402734Y-48745885D01*
X149392810Y-48752404D01*
X149363676Y-48769633D01*
X149363671Y-48769637D01*
X149356853Y-48773669D01*
X149343572Y-48786950D01*
X149328537Y-48799791D01*
X149318686Y-48806948D01*
X149318682Y-48806951D01*
X149312269Y-48811611D01*
X149307216Y-48817719D01*
X149284242Y-48845490D01*
X149276252Y-48854270D01*
X148606579Y-49523943D01*
X148597904Y-49531838D01*
X148591255Y-49536057D01*
X148585829Y-49541835D01*
X148585828Y-49541836D01*
X148543128Y-49587307D01*
X148540373Y-49590149D01*
X148523941Y-49606581D01*
X148521512Y-49609713D01*
X148518892Y-49612684D01*
X148518886Y-49612679D01*
X148514712Y-49617567D01*
X148485708Y-49648453D01*
X148481891Y-49655397D01*
X148481889Y-49655399D01*
X148476485Y-49665229D01*
X148465628Y-49681757D01*
X148453891Y-49696888D01*
X148450743Y-49704163D01*
X148437060Y-49735782D01*
X148431843Y-49746431D01*
X148411428Y-49783567D01*
X148406666Y-49802114D01*
X148400264Y-49820813D01*
X148395805Y-49831117D01*
X148395804Y-49831121D01*
X148392657Y-49838393D01*
X148391417Y-49846222D01*
X148386028Y-49880248D01*
X148383620Y-49891874D01*
X148373234Y-49932324D01*
X148373234Y-49951105D01*
X148371683Y-49970816D01*
X148368537Y-49990679D01*
X148369283Y-49998570D01*
X148372675Y-50034452D01*
X148373234Y-50046310D01*
X148373234Y-52370500D01*
X148353232Y-52438621D01*
X148299576Y-52485114D01*
X148247234Y-52496500D01*
X147848334Y-52496500D01*
X147775255Y-52501727D01*
X147755349Y-52507572D01*
X147701922Y-52511393D01*
X147602782Y-52497139D01*
X147602775Y-52497138D01*
X147598334Y-52496500D01*
X147048334Y-52496500D01*
X146975255Y-52501727D01*
X146955349Y-52507572D01*
X146901922Y-52511393D01*
X146802782Y-52497139D01*
X146802775Y-52497138D01*
X146798334Y-52496500D01*
X146248334Y-52496500D01*
X146175255Y-52501727D01*
X146155349Y-52507572D01*
X146101922Y-52511393D01*
X146002782Y-52497139D01*
X146002775Y-52497138D01*
X145998334Y-52496500D01*
X145448334Y-52496500D01*
X145375255Y-52501727D01*
X145355349Y-52507572D01*
X145301922Y-52511393D01*
X145202782Y-52497139D01*
X145202775Y-52497138D01*
X145198334Y-52496500D01*
X144648334Y-52496500D01*
X144575255Y-52501727D01*
X144555349Y-52507572D01*
X144501922Y-52511393D01*
X144402782Y-52497139D01*
X144402775Y-52497138D01*
X144398334Y-52496500D01*
X144333234Y-52496500D01*
X144265113Y-52476498D01*
X144218620Y-52422842D01*
X144208516Y-52352568D01*
X144217069Y-52322921D01*
X144217858Y-52321554D01*
X144276872Y-52139927D01*
X144283303Y-52078745D01*
X144296144Y-51956565D01*
X144296834Y-51950000D01*
X144296144Y-51943435D01*
X144277562Y-51766637D01*
X144277562Y-51766636D01*
X144276872Y-51760073D01*
X144260535Y-51709791D01*
X144236396Y-51635499D01*
X144217858Y-51578446D01*
X144214324Y-51572324D01*
X144168490Y-51492939D01*
X144122371Y-51413058D01*
X144102751Y-51391267D01*
X143999007Y-51276048D01*
X143999006Y-51276047D01*
X143994585Y-51271137D01*
X143989243Y-51267256D01*
X143989241Y-51267254D01*
X143845426Y-51162767D01*
X143845425Y-51162766D01*
X143840084Y-51158886D01*
X143834056Y-51156202D01*
X143834054Y-51156201D01*
X143671652Y-51083895D01*
X143671651Y-51083895D01*
X143665621Y-51081210D01*
X143572221Y-51061357D01*
X143485278Y-51042876D01*
X143485273Y-51042876D01*
X143478821Y-51041504D01*
X143287847Y-51041504D01*
X143281395Y-51042876D01*
X143281390Y-51042876D01*
X143194447Y-51061357D01*
X143101047Y-51081210D01*
X143095017Y-51083895D01*
X143095016Y-51083895D01*
X142932614Y-51156201D01*
X142932612Y-51156202D01*
X142926584Y-51158886D01*
X142921243Y-51162766D01*
X142921242Y-51162767D01*
X142777427Y-51267254D01*
X142777425Y-51267256D01*
X142772083Y-51271137D01*
X142767662Y-51276047D01*
X142767661Y-51276048D01*
X142663918Y-51391267D01*
X142644297Y-51413058D01*
X142598178Y-51492939D01*
X142552345Y-51572324D01*
X142548810Y-51578446D01*
X142530272Y-51635499D01*
X142506134Y-51709791D01*
X142489796Y-51760073D01*
X142489106Y-51766636D01*
X142489106Y-51766637D01*
X142470524Y-51943435D01*
X142469834Y-51950000D01*
X142470524Y-51956565D01*
X142483366Y-52078745D01*
X142489796Y-52139927D01*
X142548810Y-52321554D01*
X142644297Y-52486942D01*
X142655472Y-52499353D01*
X142686188Y-52563359D01*
X142687834Y-52583661D01*
X142687834Y-52602889D01*
X142667832Y-52671010D01*
X142657058Y-52685402D01*
X142616350Y-52732381D01*
X142612606Y-52740579D01*
X142563442Y-52848234D01*
X142555634Y-52865330D01*
X142554352Y-52874245D01*
X142554352Y-52874246D01*
X142535473Y-53005552D01*
X142535473Y-53005554D01*
X142534834Y-53010000D01*
X142534834Y-54510000D01*
X142540061Y-54583079D01*
X142552735Y-54626242D01*
X142573230Y-54696042D01*
X142581238Y-54723316D01*
X142589390Y-54736000D01*
X142655385Y-54838691D01*
X142655387Y-54838694D01*
X142658119Y-54842944D01*
X142660257Y-54846271D01*
X142659779Y-54846578D01*
X142686551Y-54905202D01*
X142687834Y-54923134D01*
X142687834Y-55001512D01*
X142687323Y-55012355D01*
X142685676Y-55019723D01*
X142685925Y-55027648D01*
X142685925Y-55027649D01*
X142687772Y-55086405D01*
X142687834Y-55090364D01*
X142687834Y-56707922D01*
X142667832Y-56776043D01*
X142614176Y-56822536D01*
X142548668Y-56833232D01*
X142545272Y-56832875D01*
X142538821Y-56831504D01*
X142347847Y-56831504D01*
X142341395Y-56832876D01*
X142341390Y-56832876D01*
X142235571Y-56855369D01*
X142164780Y-56849967D01*
X142108148Y-56807150D01*
X142083695Y-56741112D01*
X142082089Y-56718659D01*
X142082089Y-56718658D01*
X142081607Y-56711921D01*
X142075762Y-56692015D01*
X142071941Y-56638588D01*
X142086195Y-56539448D01*
X142086196Y-56539441D01*
X142086834Y-56535000D01*
X142086834Y-55985000D01*
X142081607Y-55911921D01*
X142075762Y-55892015D01*
X142071941Y-55838588D01*
X142086195Y-55739448D01*
X142086196Y-55739441D01*
X142086834Y-55735000D01*
X142086834Y-55185000D01*
X142084603Y-55153814D01*
X142099693Y-55084442D01*
X142149895Y-55034238D01*
X142219269Y-55019146D01*
X142228215Y-55020108D01*
X142243877Y-55022360D01*
X142251534Y-55022907D01*
X142266458Y-55018525D01*
X142267663Y-55017135D01*
X142269334Y-55009452D01*
X142269334Y-54032115D01*
X142264859Y-54016876D01*
X142263469Y-54015671D01*
X142255786Y-54014000D01*
X141753449Y-54014000D01*
X141738210Y-54018475D01*
X141737005Y-54019865D01*
X141735334Y-54027548D01*
X141735334Y-54507743D01*
X141735495Y-54512245D01*
X141737534Y-54540751D01*
X141722444Y-54610126D01*
X141672242Y-54660329D01*
X141602868Y-54675421D01*
X141593926Y-54674460D01*
X141577787Y-54672140D01*
X141577784Y-54672140D01*
X141573334Y-54671500D01*
X140073334Y-54671500D01*
X140000255Y-54676727D01*
X139947218Y-54692300D01*
X139868664Y-54715365D01*
X139868662Y-54715366D01*
X139860018Y-54717904D01*
X139833662Y-54734842D01*
X139744643Y-54792051D01*
X139744640Y-54792053D01*
X139737063Y-54796923D01*
X139731162Y-54803733D01*
X139647252Y-54900569D01*
X139647250Y-54900572D01*
X139641350Y-54907381D01*
X139637606Y-54915579D01*
X139594736Y-55009452D01*
X139580634Y-55040330D01*
X139579352Y-55049245D01*
X139579352Y-55049246D01*
X139560473Y-55180552D01*
X139560472Y-55180559D01*
X139559834Y-55185000D01*
X139559834Y-55523900D01*
X139539832Y-55592021D01*
X139486176Y-55638514D01*
X139433834Y-55649900D01*
X135048236Y-55649900D01*
X134980115Y-55629898D01*
X134959140Y-55612995D01*
X134300338Y-54954192D01*
X134266313Y-54891880D01*
X134263434Y-54865097D01*
X134263434Y-53014495D01*
X141735334Y-53014495D01*
X141735334Y-53487885D01*
X141739809Y-53503124D01*
X141741199Y-53504329D01*
X141748882Y-53506000D01*
X142251219Y-53506000D01*
X142266458Y-53501525D01*
X142267663Y-53500135D01*
X142269334Y-53492452D01*
X142269334Y-52515115D01*
X142264859Y-52499876D01*
X142263469Y-52498671D01*
X142255786Y-52497000D01*
X142250591Y-52497000D01*
X142246084Y-52497161D01*
X142182065Y-52501740D01*
X142168843Y-52504126D01*
X142043876Y-52540819D01*
X142027642Y-52548233D01*
X141919974Y-52617426D01*
X141906487Y-52629112D01*
X141822672Y-52725840D01*
X141813027Y-52740848D01*
X141759857Y-52857275D01*
X141754832Y-52874388D01*
X141735973Y-53005554D01*
X141735334Y-53014495D01*
X134263434Y-53014495D01*
X134263434Y-51649500D01*
X134283436Y-51581379D01*
X134337092Y-51534886D01*
X134389434Y-51523500D01*
X134713334Y-51523500D01*
X134786413Y-51518273D01*
X134872693Y-51492939D01*
X134918004Y-51479635D01*
X134918006Y-51479634D01*
X134926650Y-51477096D01*
X134990469Y-51436082D01*
X135042025Y-51402949D01*
X135042028Y-51402947D01*
X135049605Y-51398077D01*
X135068814Y-51375909D01*
X135139416Y-51294431D01*
X135139418Y-51294428D01*
X135145318Y-51287619D01*
X135152845Y-51271137D01*
X135202292Y-51162864D01*
X135202292Y-51162863D01*
X135206034Y-51154670D01*
X135214576Y-51095259D01*
X135226195Y-51014448D01*
X135226196Y-51014441D01*
X135226834Y-51010000D01*
X135226834Y-49010000D01*
X135221607Y-48936921D01*
X135194761Y-48845490D01*
X135182969Y-48805330D01*
X135182968Y-48805328D01*
X135180430Y-48796684D01*
X135143608Y-48739388D01*
X135106283Y-48681309D01*
X135106281Y-48681306D01*
X135101411Y-48673729D01*
X135087672Y-48661824D01*
X134997765Y-48583918D01*
X134997762Y-48583916D01*
X134990953Y-48578016D01*
X134982755Y-48574272D01*
X134866198Y-48521042D01*
X134866197Y-48521042D01*
X134858004Y-48517300D01*
X134849089Y-48516018D01*
X134849088Y-48516018D01*
X134717782Y-48497139D01*
X134717775Y-48497138D01*
X134713334Y-48496500D01*
X132713334Y-48496500D01*
X132640255Y-48501727D01*
X132587218Y-48517300D01*
X132508664Y-48540365D01*
X132508662Y-48540366D01*
X132500018Y-48542904D01*
X132492439Y-48547775D01*
X132384643Y-48617051D01*
X132384640Y-48617053D01*
X132377063Y-48621923D01*
X132371162Y-48628733D01*
X132287252Y-48725569D01*
X132287250Y-48725572D01*
X132281350Y-48732381D01*
X132277606Y-48740579D01*
X132264338Y-48769633D01*
X132220634Y-48865330D01*
X132219352Y-48874245D01*
X132219352Y-48874246D01*
X132200473Y-49005552D01*
X132200472Y-49005559D01*
X132199834Y-49010000D01*
X132199834Y-51010000D01*
X132205061Y-51083079D01*
X132246238Y-51223316D01*
X132270760Y-51261472D01*
X132320385Y-51338691D01*
X132320387Y-51338694D01*
X132325257Y-51346271D01*
X132332067Y-51352172D01*
X132428903Y-51436082D01*
X132428906Y-51436084D01*
X132435715Y-51441984D01*
X132443913Y-51445728D01*
X132540424Y-51489803D01*
X132568664Y-51502700D01*
X132577579Y-51503982D01*
X132577580Y-51503982D01*
X132708886Y-51522861D01*
X132708893Y-51522862D01*
X132713334Y-51523500D01*
X132917234Y-51523500D01*
X132985355Y-51543502D01*
X133031848Y-51597158D01*
X133043234Y-51649500D01*
X133043234Y-54562899D01*
X133023232Y-54631020D01*
X132969576Y-54677513D01*
X132899302Y-54687617D01*
X132834722Y-54658123D01*
X132828139Y-54651994D01*
X131073436Y-52897290D01*
X129153739Y-50977593D01*
X129119713Y-50915281D01*
X129116834Y-50888498D01*
X129116834Y-49010000D01*
X129111607Y-48936921D01*
X129084761Y-48845490D01*
X129072969Y-48805330D01*
X129072968Y-48805328D01*
X129070430Y-48796684D01*
X129033608Y-48739388D01*
X128996283Y-48681309D01*
X128996281Y-48681306D01*
X128991411Y-48673729D01*
X128977672Y-48661824D01*
X128887765Y-48583918D01*
X128887762Y-48583916D01*
X128880953Y-48578016D01*
X128872755Y-48574272D01*
X128756198Y-48521042D01*
X128756197Y-48521042D01*
X128748004Y-48517300D01*
X128739089Y-48516018D01*
X128739088Y-48516018D01*
X128607782Y-48497139D01*
X128607775Y-48497138D01*
X128603334Y-48496500D01*
X126603334Y-48496500D01*
X126530255Y-48501727D01*
X126477218Y-48517300D01*
X126398664Y-48540365D01*
X126398662Y-48540366D01*
X126390018Y-48542904D01*
X126382439Y-48547775D01*
X126274643Y-48617051D01*
X126274640Y-48617053D01*
X126267063Y-48621923D01*
X126261162Y-48628733D01*
X126177252Y-48725569D01*
X126177250Y-48725572D01*
X126171350Y-48732381D01*
X126167606Y-48740579D01*
X126154338Y-48769633D01*
X126110634Y-48865330D01*
X126109352Y-48874245D01*
X126109352Y-48874246D01*
X126090473Y-49005552D01*
X126090472Y-49005559D01*
X126089834Y-49010000D01*
X126089834Y-51010000D01*
X126095061Y-51083079D01*
X126136238Y-51223316D01*
X126160760Y-51261472D01*
X126210385Y-51338691D01*
X126210387Y-51338694D01*
X126215257Y-51346271D01*
X126222067Y-51352172D01*
X126318903Y-51436082D01*
X126318906Y-51436084D01*
X126325715Y-51441984D01*
X126333913Y-51445728D01*
X126430424Y-51489803D01*
X126458664Y-51502700D01*
X126467579Y-51503982D01*
X126467580Y-51503982D01*
X126598886Y-51522861D01*
X126598893Y-51522862D01*
X126603334Y-51523500D01*
X127921832Y-51523500D01*
X127989953Y-51543502D01*
X128010927Y-51560405D01*
X133887269Y-57436746D01*
X133895171Y-57445430D01*
X133899391Y-57452079D01*
X133905168Y-57457504D01*
X133950657Y-57500221D01*
X133953499Y-57502976D01*
X133969916Y-57519393D01*
X133973046Y-57521821D01*
X133976020Y-57524443D01*
X133976015Y-57524449D01*
X133980900Y-57528621D01*
X134000767Y-57547277D01*
X134011787Y-57557626D01*
X134018731Y-57561443D01*
X134018733Y-57561445D01*
X134028563Y-57566849D01*
X134045092Y-57577706D01*
X134060222Y-57589443D01*
X134077507Y-57596923D01*
X134099116Y-57606274D01*
X134109765Y-57611491D01*
X134146901Y-57631906D01*
X134165448Y-57636668D01*
X134184147Y-57643070D01*
X134194451Y-57647529D01*
X134194455Y-57647530D01*
X134201727Y-57650677D01*
X134209556Y-57651917D01*
X134243582Y-57657306D01*
X134255208Y-57659714D01*
X134287981Y-57668129D01*
X134287982Y-57668129D01*
X134295658Y-57670100D01*
X134314439Y-57670100D01*
X134334151Y-57671651D01*
X134354013Y-57674797D01*
X134361905Y-57674051D01*
X134397788Y-57670659D01*
X134409646Y-57670100D01*
X139433834Y-57670100D01*
X139501955Y-57690102D01*
X139548448Y-57743758D01*
X139559834Y-57796100D01*
X139559834Y-58135000D01*
X139565061Y-58208079D01*
X139566964Y-58214559D01*
X139570906Y-58227985D01*
X139574727Y-58281412D01*
X139560473Y-58380552D01*
X139560472Y-58380559D01*
X139559834Y-58385000D01*
X139559834Y-58723900D01*
X139539832Y-58792021D01*
X139486176Y-58838514D01*
X139433834Y-58849900D01*
X133178236Y-58849900D01*
X133110115Y-58829898D01*
X133089141Y-58812995D01*
X129209391Y-54933245D01*
X129201496Y-54924570D01*
X129197277Y-54917921D01*
X129146026Y-54869793D01*
X129143185Y-54867039D01*
X129126753Y-54850607D01*
X129123621Y-54848178D01*
X129120650Y-54845558D01*
X129120655Y-54845552D01*
X129115766Y-54841377D01*
X129090657Y-54817798D01*
X129084881Y-54812374D01*
X129077937Y-54808557D01*
X129077935Y-54808555D01*
X129068105Y-54803151D01*
X129051577Y-54792294D01*
X129042710Y-54785416D01*
X129036446Y-54780557D01*
X128997550Y-54763725D01*
X128986903Y-54758509D01*
X128949767Y-54738094D01*
X128931220Y-54733332D01*
X128912521Y-54726930D01*
X128902217Y-54722471D01*
X128902213Y-54722470D01*
X128894941Y-54719323D01*
X128885982Y-54717904D01*
X128853086Y-54712694D01*
X128841460Y-54710286D01*
X128808687Y-54701871D01*
X128808686Y-54701871D01*
X128801010Y-54699900D01*
X128782834Y-54699900D01*
X128714713Y-54679898D01*
X128668220Y-54626242D01*
X128656834Y-54573900D01*
X128656834Y-53060000D01*
X128651607Y-52986921D01*
X128615905Y-52865330D01*
X128612969Y-52855330D01*
X128612968Y-52855328D01*
X128610430Y-52846684D01*
X128564727Y-52775569D01*
X128536283Y-52731309D01*
X128536281Y-52731306D01*
X128531411Y-52723729D01*
X128487180Y-52685402D01*
X128427765Y-52633918D01*
X128427762Y-52633916D01*
X128420953Y-52628016D01*
X128397591Y-52617347D01*
X128296198Y-52571042D01*
X128296197Y-52571042D01*
X128288004Y-52567300D01*
X128279089Y-52566018D01*
X128279088Y-52566018D01*
X128147782Y-52547139D01*
X128147775Y-52547138D01*
X128143334Y-52546500D01*
X126143334Y-52546500D01*
X126070255Y-52551727D01*
X126017218Y-52567300D01*
X125938664Y-52590365D01*
X125938662Y-52590366D01*
X125930018Y-52592904D01*
X125922439Y-52597775D01*
X125814643Y-52667051D01*
X125814640Y-52667053D01*
X125807063Y-52671923D01*
X125801162Y-52678733D01*
X125717252Y-52775569D01*
X125717250Y-52775572D01*
X125711350Y-52782381D01*
X125707606Y-52790579D01*
X125669397Y-52874246D01*
X125650634Y-52915330D01*
X125649352Y-52924245D01*
X125649352Y-52924246D01*
X125630473Y-53055552D01*
X125630472Y-53055559D01*
X125629834Y-53060000D01*
X125629834Y-54476400D01*
X125609832Y-54544521D01*
X125556176Y-54591014D01*
X125503834Y-54602400D01*
X123940767Y-54602400D01*
X123872646Y-54582398D01*
X123835395Y-54545485D01*
X123825353Y-54530168D01*
X123825352Y-54530167D01*
X123821341Y-54524049D01*
X123698219Y-54407414D01*
X123551568Y-54322233D01*
X123389254Y-54273073D01*
X123382814Y-54272498D01*
X123382813Y-54272498D01*
X123318400Y-54266749D01*
X123318394Y-54266749D01*
X123315607Y-54266500D01*
X122704199Y-54266500D01*
X122631740Y-54274948D01*
X122585902Y-54280292D01*
X122585901Y-54280292D01*
X122578630Y-54281140D01*
X122571753Y-54283636D01*
X122571750Y-54283637D01*
X122426091Y-54336509D01*
X122419212Y-54339006D01*
X122277383Y-54431993D01*
X122160748Y-54555115D01*
X122075567Y-54701766D01*
X122026407Y-54864080D01*
X122025832Y-54870520D01*
X122025832Y-54870521D01*
X122020818Y-54926706D01*
X122019834Y-54937727D01*
X122019834Y-55474135D01*
X122034474Y-55599704D01*
X122036970Y-55606581D01*
X122036971Y-55606584D01*
X122083584Y-55735000D01*
X122092340Y-55759122D01*
X122142653Y-55835862D01*
X122178387Y-55890365D01*
X122185327Y-55900951D01*
X122190647Y-55905990D01*
X122190648Y-55905992D01*
X122195676Y-55910756D01*
X122231373Y-55972125D01*
X122228225Y-56043052D01*
X122200494Y-56088881D01*
X122166185Y-56125098D01*
X122157472Y-56136745D01*
X122079699Y-56270640D01*
X122073905Y-56283965D01*
X122028772Y-56432984D01*
X122026324Y-56445607D01*
X122020583Y-56509934D01*
X122020340Y-56515404D01*
X122024809Y-56530624D01*
X122026199Y-56531829D01*
X122033882Y-56533500D01*
X123968219Y-56533500D01*
X123983458Y-56529025D01*
X123984663Y-56527635D01*
X123985885Y-56522015D01*
X123972556Y-56407681D01*
X123969212Y-56393534D01*
X123916377Y-56247978D01*
X123909869Y-56234983D01*
X123824969Y-56105489D01*
X123815645Y-56094337D01*
X123811012Y-56089948D01*
X123775314Y-56028579D01*
X123778462Y-55957652D01*
X123806192Y-55911822D01*
X123845920Y-55869885D01*
X123845921Y-55869884D01*
X123846294Y-55870237D01*
X123899257Y-55830560D01*
X123943331Y-55822600D01*
X125503834Y-55822600D01*
X125571955Y-55842602D01*
X125618448Y-55896258D01*
X125629834Y-55948600D01*
X125629834Y-57560000D01*
X125635061Y-57633079D01*
X125649619Y-57682658D01*
X125663910Y-57731329D01*
X125676238Y-57773316D01*
X125681109Y-57780895D01*
X125750385Y-57888691D01*
X125750387Y-57888694D01*
X125755257Y-57896271D01*
X125762067Y-57902172D01*
X125858903Y-57986082D01*
X125858906Y-57986084D01*
X125865715Y-57991984D01*
X125873913Y-57995728D01*
X125958880Y-58034531D01*
X125998664Y-58052700D01*
X126007579Y-58053982D01*
X126007580Y-58053982D01*
X126138886Y-58072861D01*
X126138893Y-58072862D01*
X126143334Y-58073500D01*
X128143334Y-58073500D01*
X128216413Y-58068273D01*
X128294499Y-58045345D01*
X128348004Y-58029635D01*
X128348006Y-58029634D01*
X128356650Y-58027096D01*
X128395728Y-58001982D01*
X128472025Y-57952949D01*
X128472028Y-57952947D01*
X128479605Y-57948077D01*
X128510935Y-57911921D01*
X128569416Y-57844431D01*
X128569418Y-57844428D01*
X128575318Y-57837619D01*
X128629388Y-57719222D01*
X128632292Y-57712864D01*
X128632292Y-57712863D01*
X128636034Y-57704670D01*
X128639199Y-57682658D01*
X128656195Y-57564448D01*
X128656196Y-57564441D01*
X128656834Y-57560000D01*
X128656834Y-56410502D01*
X128676836Y-56342381D01*
X128730492Y-56295888D01*
X128800766Y-56285784D01*
X128865346Y-56315278D01*
X128871929Y-56321407D01*
X132316427Y-59765905D01*
X132350453Y-59828217D01*
X132345388Y-59899032D01*
X132316427Y-59944095D01*
X129097527Y-63162995D01*
X129035215Y-63197021D01*
X129008432Y-63199900D01*
X128782834Y-63199900D01*
X128714713Y-63179898D01*
X128668220Y-63126242D01*
X128656834Y-63073900D01*
X128656834Y-61560000D01*
X128651607Y-61486921D01*
X128628180Y-61407136D01*
X128612969Y-61355330D01*
X128612968Y-61355328D01*
X128610430Y-61346684D01*
X128569105Y-61282381D01*
X128536283Y-61231309D01*
X128536281Y-61231306D01*
X128531411Y-61223729D01*
X128519161Y-61213114D01*
X128427765Y-61133918D01*
X128427762Y-61133916D01*
X128420953Y-61128016D01*
X128288004Y-61067300D01*
X128279089Y-61066018D01*
X128279088Y-61066018D01*
X128147782Y-61047139D01*
X128147775Y-61047138D01*
X128143334Y-61046500D01*
X126143334Y-61046500D01*
X126070255Y-61051727D01*
X126004474Y-61071042D01*
X125938664Y-61090365D01*
X125938662Y-61090366D01*
X125930018Y-61092904D01*
X125917755Y-61100785D01*
X125814643Y-61167051D01*
X125814640Y-61167053D01*
X125807063Y-61171923D01*
X125801162Y-61178733D01*
X125717252Y-61275569D01*
X125717250Y-61275572D01*
X125711350Y-61282381D01*
X125707606Y-61290579D01*
X125662949Y-61388365D01*
X125650634Y-61415330D01*
X125649352Y-61424245D01*
X125649352Y-61424246D01*
X125630473Y-61555552D01*
X125630472Y-61555559D01*
X125629834Y-61560000D01*
X125629834Y-63011400D01*
X125609832Y-63079521D01*
X125556176Y-63126014D01*
X125503834Y-63137400D01*
X123850767Y-63137400D01*
X123782646Y-63117398D01*
X123745395Y-63080485D01*
X123735357Y-63065174D01*
X123735356Y-63065172D01*
X123731341Y-63059049D01*
X123726020Y-63054008D01*
X123720992Y-63049244D01*
X123685295Y-62987875D01*
X123688443Y-62916948D01*
X123716174Y-62871119D01*
X123750483Y-62834902D01*
X123759196Y-62823255D01*
X123836969Y-62689360D01*
X123842763Y-62676035D01*
X123887896Y-62527016D01*
X123890344Y-62514393D01*
X123896085Y-62450066D01*
X123896328Y-62444596D01*
X123891859Y-62429376D01*
X123890469Y-62428171D01*
X123882786Y-62426500D01*
X121948449Y-62426500D01*
X121933210Y-62430975D01*
X121932005Y-62432365D01*
X121930783Y-62437985D01*
X121944112Y-62552319D01*
X121947456Y-62566466D01*
X122000291Y-62712022D01*
X122006799Y-62725017D01*
X122091699Y-62854511D01*
X122101023Y-62865663D01*
X122105656Y-62870052D01*
X122141354Y-62931421D01*
X122138206Y-63002348D01*
X122110476Y-63048178D01*
X122070748Y-63090115D01*
X121985567Y-63236766D01*
X121936407Y-63399080D01*
X121929834Y-63472727D01*
X121929834Y-64009135D01*
X121944474Y-64134704D01*
X121946970Y-64141581D01*
X121946971Y-64141584D01*
X121989861Y-64259742D01*
X122002340Y-64294122D01*
X122095327Y-64435951D01*
X122218449Y-64552586D01*
X122365100Y-64637767D01*
X122464255Y-64667798D01*
X122507845Y-64681000D01*
X122527414Y-64686927D01*
X122533854Y-64687502D01*
X122533855Y-64687502D01*
X122598268Y-64693251D01*
X122598274Y-64693251D01*
X122601061Y-64693500D01*
X123212469Y-64693500D01*
X123302547Y-64682998D01*
X123330766Y-64679708D01*
X123330767Y-64679708D01*
X123338038Y-64678860D01*
X123344915Y-64676364D01*
X123344918Y-64676363D01*
X123490577Y-64623491D01*
X123497456Y-64620994D01*
X123639285Y-64528007D01*
X123754135Y-64406770D01*
X123755920Y-64404885D01*
X123756292Y-64405238D01*
X123809257Y-64365560D01*
X123853331Y-64357600D01*
X125503834Y-64357600D01*
X125571955Y-64377602D01*
X125618448Y-64431258D01*
X125629834Y-64483600D01*
X125629834Y-66060000D01*
X125635061Y-66133079D01*
X125640555Y-66151790D01*
X125671975Y-66258796D01*
X125676238Y-66273316D01*
X125738720Y-66370539D01*
X125754941Y-66395779D01*
X125774943Y-66463899D01*
X125754941Y-66532020D01*
X125701286Y-66578513D01*
X125648943Y-66589900D01*
X122234902Y-66589900D01*
X122166781Y-66569898D01*
X122145807Y-66552995D01*
X121007005Y-65414193D01*
X120972979Y-65351881D01*
X120970100Y-65325098D01*
X120970100Y-61900404D01*
X121930340Y-61900404D01*
X121934809Y-61915624D01*
X121936199Y-61916829D01*
X121943882Y-61918500D01*
X122641219Y-61918500D01*
X122656458Y-61914025D01*
X122657663Y-61912635D01*
X122659334Y-61904952D01*
X122659334Y-61245115D01*
X122657993Y-61240548D01*
X123167334Y-61240548D01*
X123167334Y-61900385D01*
X123171809Y-61915624D01*
X123173199Y-61916829D01*
X123180882Y-61918500D01*
X123878219Y-61918500D01*
X123893458Y-61914025D01*
X123894663Y-61912635D01*
X123895885Y-61907015D01*
X123882556Y-61792681D01*
X123879212Y-61778534D01*
X123826377Y-61632978D01*
X123819869Y-61619983D01*
X123734969Y-61490489D01*
X123725645Y-61479337D01*
X123613236Y-61372851D01*
X123601589Y-61364138D01*
X123467694Y-61286365D01*
X123454369Y-61280571D01*
X123305350Y-61235438D01*
X123292727Y-61232990D01*
X123228400Y-61227249D01*
X123222805Y-61227000D01*
X123185449Y-61227000D01*
X123170210Y-61231475D01*
X123169005Y-61232865D01*
X123167334Y-61240548D01*
X122657993Y-61240548D01*
X122654859Y-61229876D01*
X122653469Y-61228671D01*
X122645786Y-61227000D01*
X122617860Y-61227000D01*
X122610556Y-61227425D01*
X122496015Y-61240778D01*
X122481868Y-61244122D01*
X122336312Y-61296957D01*
X122323317Y-61303465D01*
X122193823Y-61388365D01*
X122182671Y-61397689D01*
X122076185Y-61510098D01*
X122067472Y-61521745D01*
X121989699Y-61655640D01*
X121983905Y-61668965D01*
X121938772Y-61817984D01*
X121936324Y-61830607D01*
X121930583Y-61894934D01*
X121930340Y-61900404D01*
X120970100Y-61900404D01*
X120970100Y-57052985D01*
X122020783Y-57052985D01*
X122034112Y-57167319D01*
X122037456Y-57181466D01*
X122090291Y-57327022D01*
X122096799Y-57340017D01*
X122181699Y-57469511D01*
X122191023Y-57480663D01*
X122303432Y-57587149D01*
X122315079Y-57595862D01*
X122448974Y-57673635D01*
X122462299Y-57679429D01*
X122611318Y-57724562D01*
X122623941Y-57727010D01*
X122688268Y-57732751D01*
X122693863Y-57733000D01*
X122731219Y-57733000D01*
X122746458Y-57728525D01*
X122747663Y-57727135D01*
X122749334Y-57719452D01*
X122749334Y-57059615D01*
X122747993Y-57055048D01*
X123257334Y-57055048D01*
X123257334Y-57714885D01*
X123261809Y-57730124D01*
X123263199Y-57731329D01*
X123270882Y-57733000D01*
X123298808Y-57733000D01*
X123306112Y-57732575D01*
X123420653Y-57719222D01*
X123434800Y-57715878D01*
X123580356Y-57663043D01*
X123593351Y-57656535D01*
X123722845Y-57571635D01*
X123733997Y-57562311D01*
X123840483Y-57449902D01*
X123849196Y-57438255D01*
X123926969Y-57304360D01*
X123932763Y-57291035D01*
X123977896Y-57142016D01*
X123980344Y-57129393D01*
X123986085Y-57065066D01*
X123986328Y-57059596D01*
X123981859Y-57044376D01*
X123980469Y-57043171D01*
X123972786Y-57041500D01*
X123275449Y-57041500D01*
X123260210Y-57045975D01*
X123259005Y-57047365D01*
X123257334Y-57055048D01*
X122747993Y-57055048D01*
X122744859Y-57044376D01*
X122743469Y-57043171D01*
X122735786Y-57041500D01*
X122038449Y-57041500D01*
X122023210Y-57045975D01*
X122022005Y-57047365D01*
X122020783Y-57052985D01*
X120970100Y-57052985D01*
X120970100Y-52837283D01*
X120970652Y-52825573D01*
X120972370Y-52817887D01*
X120970162Y-52747626D01*
X120970100Y-52743668D01*
X120970100Y-52720420D01*
X120969604Y-52716499D01*
X120969355Y-52712534D01*
X120969362Y-52712534D01*
X120968857Y-52706119D01*
X120967776Y-52671703D01*
X120967527Y-52663778D01*
X120962186Y-52645394D01*
X120958176Y-52626031D01*
X120956770Y-52614898D01*
X120956770Y-52614896D01*
X120955776Y-52607031D01*
X120940172Y-52567622D01*
X120936337Y-52556421D01*
X120924511Y-52515714D01*
X120914761Y-52499229D01*
X120906064Y-52481475D01*
X120905965Y-52481224D01*
X120899016Y-52463673D01*
X120874108Y-52429390D01*
X120867593Y-52419471D01*
X120850371Y-52390350D01*
X120850368Y-52390346D01*
X120846331Y-52383520D01*
X120833050Y-52370239D01*
X120820209Y-52355204D01*
X120813051Y-52345352D01*
X120808389Y-52338935D01*
X120774510Y-52310908D01*
X120765729Y-52302918D01*
X120238553Y-51775741D01*
X120230664Y-51767072D01*
X120226443Y-51760421D01*
X120202557Y-51737990D01*
X120175193Y-51712294D01*
X120172351Y-51709539D01*
X120155919Y-51693107D01*
X120152787Y-51690678D01*
X120149816Y-51688058D01*
X120149821Y-51688052D01*
X120144932Y-51683877D01*
X120119823Y-51660298D01*
X120114047Y-51654874D01*
X120107103Y-51651057D01*
X120107101Y-51651055D01*
X120097271Y-51645651D01*
X120080743Y-51634794D01*
X120071876Y-51627916D01*
X120065612Y-51623057D01*
X120026716Y-51606225D01*
X120016069Y-51601009D01*
X119978933Y-51580594D01*
X119960386Y-51575832D01*
X119941687Y-51569430D01*
X119931383Y-51564971D01*
X119931379Y-51564970D01*
X119924107Y-51561823D01*
X119911966Y-51559900D01*
X119882252Y-51555194D01*
X119870626Y-51552786D01*
X119837853Y-51544371D01*
X119837852Y-51544371D01*
X119830176Y-51542400D01*
X119811395Y-51542400D01*
X119791684Y-51540849D01*
X119779650Y-51538943D01*
X119771821Y-51537703D01*
X119763930Y-51538449D01*
X119728048Y-51541841D01*
X119716190Y-51542400D01*
X119047433Y-51542400D01*
X118979312Y-51522398D01*
X118942061Y-51485485D01*
X118932019Y-51470168D01*
X118932018Y-51470167D01*
X118928007Y-51464049D01*
X118804885Y-51347414D01*
X118798557Y-51343738D01*
X118798551Y-51343734D01*
X118782816Y-51334595D01*
X118733957Y-51283085D01*
X118720100Y-51225641D01*
X118720100Y-50380958D01*
X118740102Y-50312837D01*
X118793758Y-50266344D01*
X118864032Y-50256240D01*
X118928613Y-50285734D01*
X118945840Y-50300661D01*
X118960848Y-50310307D01*
X119077275Y-50363477D01*
X119094388Y-50368502D01*
X119225554Y-50387361D01*
X119234495Y-50388000D01*
X119757885Y-50388000D01*
X119773124Y-50383525D01*
X119774329Y-50382135D01*
X119776000Y-50374452D01*
X119776000Y-49642548D01*
X120284000Y-49642548D01*
X120284000Y-50369885D01*
X120288475Y-50385124D01*
X120289865Y-50386329D01*
X120297548Y-50388000D01*
X120827743Y-50388000D01*
X120832250Y-50387839D01*
X120896269Y-50383260D01*
X120909491Y-50380874D01*
X121034458Y-50344181D01*
X121050692Y-50336767D01*
X121158360Y-50267574D01*
X121171847Y-50255888D01*
X121255662Y-50159160D01*
X121265307Y-50144152D01*
X121318477Y-50027725D01*
X121323502Y-50010612D01*
X121342361Y-49879446D01*
X121343000Y-49870503D01*
X121343000Y-49647115D01*
X121338525Y-49631876D01*
X121337135Y-49630671D01*
X121329452Y-49629000D01*
X120302115Y-49629000D01*
X120286876Y-49633475D01*
X120285671Y-49634865D01*
X120284000Y-49642548D01*
X119776000Y-49642548D01*
X119776000Y-49247000D01*
X119796002Y-49178879D01*
X119849658Y-49132386D01*
X119902000Y-49121000D01*
X121324885Y-49121000D01*
X121340124Y-49116525D01*
X121341329Y-49115135D01*
X121343000Y-49107452D01*
X121343000Y-48877257D01*
X121342839Y-48872750D01*
X121338260Y-48808731D01*
X121335875Y-48795512D01*
X121312533Y-48716017D01*
X121312533Y-48645020D01*
X121318818Y-48628171D01*
X121318957Y-48627866D01*
X121322700Y-48619670D01*
X121326537Y-48592985D01*
X121342861Y-48479448D01*
X121342862Y-48479441D01*
X121343500Y-48475000D01*
X121343500Y-47534000D01*
X121363502Y-47465879D01*
X121417158Y-47419386D01*
X121469500Y-47408000D01*
X187350727Y-47408000D01*
X187372360Y-47409871D01*
G37*
G04 #@! TD.AperFunction*
G04 #@! TA.AperFunction,Conductor*
G36*
X139693490Y-60880102D02*
G01*
X139707882Y-60890876D01*
X139795715Y-60966984D01*
X139793224Y-60969859D01*
X139827985Y-61009908D01*
X139838146Y-61080174D01*
X139808706Y-61144779D01*
X139781536Y-61168341D01*
X139744645Y-61192050D01*
X139737063Y-61196923D01*
X139673297Y-61270513D01*
X139613571Y-61308896D01*
X139578810Y-61313894D01*
X139563210Y-61318475D01*
X139562005Y-61319865D01*
X139560334Y-61327548D01*
X139560334Y-61332743D01*
X139560495Y-61337250D01*
X139565074Y-61401267D01*
X139567460Y-61414491D01*
X139571075Y-61426803D01*
X139574897Y-61480232D01*
X139560473Y-61580552D01*
X139560472Y-61580559D01*
X139559834Y-61585000D01*
X139559834Y-61923900D01*
X139539832Y-61992021D01*
X139486176Y-62038514D01*
X139433834Y-62049900D01*
X139038236Y-62049900D01*
X138970115Y-62029898D01*
X138949141Y-62012995D01*
X138936753Y-62000607D01*
X138933621Y-61998178D01*
X138930650Y-61995558D01*
X138930655Y-61995552D01*
X138925766Y-61991377D01*
X138900657Y-61967798D01*
X138894881Y-61962374D01*
X138887937Y-61958557D01*
X138887935Y-61958555D01*
X138878105Y-61953151D01*
X138861577Y-61942294D01*
X138852710Y-61935416D01*
X138846446Y-61930557D01*
X138807550Y-61913725D01*
X138796903Y-61908509D01*
X138759767Y-61888094D01*
X138741220Y-61883332D01*
X138722521Y-61876930D01*
X138712217Y-61872471D01*
X138712213Y-61872470D01*
X138704941Y-61869323D01*
X138691171Y-61867142D01*
X138663086Y-61862694D01*
X138651460Y-61860286D01*
X138618687Y-61851871D01*
X138618686Y-61851871D01*
X138611010Y-61849900D01*
X138592229Y-61849900D01*
X138572518Y-61848349D01*
X138560484Y-61846443D01*
X138552655Y-61845203D01*
X138544764Y-61845949D01*
X138508882Y-61849341D01*
X138497024Y-61849900D01*
X134837282Y-61849900D01*
X134825572Y-61849348D01*
X134817886Y-61847630D01*
X134809960Y-61847879D01*
X134809959Y-61847879D01*
X134747625Y-61849838D01*
X134743667Y-61849900D01*
X134720420Y-61849900D01*
X134716499Y-61850396D01*
X134712534Y-61850645D01*
X134712534Y-61850638D01*
X134706124Y-61851143D01*
X134663777Y-61852473D01*
X134656159Y-61854686D01*
X134656160Y-61854686D01*
X134645389Y-61857815D01*
X134626029Y-61861824D01*
X134607031Y-61864224D01*
X134567633Y-61879822D01*
X134556410Y-61883664D01*
X134523329Y-61893276D01*
X134523327Y-61893277D01*
X134515713Y-61895489D01*
X134499229Y-61905238D01*
X134481474Y-61913936D01*
X134471042Y-61918066D01*
X134471039Y-61918067D01*
X134463673Y-61920984D01*
X134457262Y-61925642D01*
X134457260Y-61925643D01*
X134429397Y-61945887D01*
X134419475Y-61952404D01*
X134390349Y-61969629D01*
X134390345Y-61969632D01*
X134383519Y-61973669D01*
X134370238Y-61986950D01*
X134355203Y-61999791D01*
X134345352Y-62006948D01*
X134345348Y-62006951D01*
X134338935Y-62011611D01*
X134333882Y-62017719D01*
X134310908Y-62045490D01*
X134302918Y-62054270D01*
X129804193Y-66552995D01*
X129741881Y-66587021D01*
X129715098Y-66589900D01*
X128632617Y-66589900D01*
X128564496Y-66569898D01*
X128518003Y-66516242D01*
X128507899Y-66445968D01*
X128537392Y-66381388D01*
X128569416Y-66344430D01*
X128575318Y-66337619D01*
X128585113Y-66316171D01*
X128632292Y-66212864D01*
X128632292Y-66212863D01*
X128636034Y-66204670D01*
X128643125Y-66155349D01*
X128656195Y-66064448D01*
X128656196Y-66064441D01*
X128656834Y-66060000D01*
X128656834Y-64546100D01*
X128676836Y-64477979D01*
X128730492Y-64431486D01*
X128782834Y-64420100D01*
X129236051Y-64420100D01*
X129247761Y-64420652D01*
X129255447Y-64422370D01*
X129263373Y-64422121D01*
X129263374Y-64422121D01*
X129325708Y-64420162D01*
X129329666Y-64420100D01*
X129352914Y-64420100D01*
X129356835Y-64419604D01*
X129360800Y-64419355D01*
X129360800Y-64419362D01*
X129367210Y-64418857D01*
X129398772Y-64417866D01*
X129401631Y-64417776D01*
X129409556Y-64417527D01*
X129427940Y-64412186D01*
X129447302Y-64408176D01*
X129451132Y-64407692D01*
X129458436Y-64406770D01*
X129458438Y-64406770D01*
X129466303Y-64405776D01*
X129505712Y-64390172D01*
X129516913Y-64386337D01*
X129557620Y-64374511D01*
X129564444Y-64370475D01*
X129564447Y-64370474D01*
X129574109Y-64364760D01*
X129591860Y-64356064D01*
X129609661Y-64349016D01*
X129643936Y-64324114D01*
X129653858Y-64317596D01*
X129682992Y-64300367D01*
X129682997Y-64300363D01*
X129689815Y-64296331D01*
X129703096Y-64283050D01*
X129718131Y-64270209D01*
X129727982Y-64263052D01*
X129727986Y-64263049D01*
X129734399Y-64258389D01*
X129742713Y-64248339D01*
X129762426Y-64224510D01*
X129770416Y-64215730D01*
X133089141Y-60897005D01*
X133151453Y-60862979D01*
X133178236Y-60860100D01*
X139625369Y-60860100D01*
X139693490Y-60880102D01*
G37*
G04 #@! TD.AperFunction*
G04 #@! TA.AperFunction,Conductor*
G36*
X158801290Y-52800102D02*
G01*
X158847783Y-52853758D01*
X158857887Y-52924032D01*
X158828393Y-52988612D01*
X158814833Y-53002053D01*
X158771055Y-53039311D01*
X158768084Y-53042675D01*
X158698010Y-53122019D01*
X158677211Y-53145569D01*
X158597276Y-53267258D01*
X158595373Y-53271312D01*
X158595371Y-53271315D01*
X158566215Y-53333416D01*
X158537028Y-53395583D01*
X158535718Y-53399868D01*
X158535716Y-53399873D01*
X158495811Y-53530399D01*
X158494462Y-53534810D01*
X158492265Y-53548919D01*
X158473401Y-53670073D01*
X158472651Y-53674887D01*
X158472596Y-53679367D01*
X158472596Y-53679370D01*
X158472187Y-53712908D01*
X158470913Y-53729302D01*
X158467140Y-53755541D01*
X158467139Y-53755556D01*
X158466500Y-53760000D01*
X158466500Y-54260000D01*
X158466661Y-54262250D01*
X158470841Y-54320688D01*
X158471727Y-54333079D01*
X158472018Y-54334071D01*
X158471579Y-54338159D01*
X158473158Y-54337952D01*
X158482900Y-54412448D01*
X158489254Y-54461042D01*
X158490459Y-54465357D01*
X158490459Y-54465358D01*
X158520393Y-54572568D01*
X158528406Y-54601269D01*
X158530209Y-54605368D01*
X158530211Y-54605372D01*
X158582108Y-54723316D01*
X158585501Y-54731028D01*
X158662439Y-54854634D01*
X158753659Y-54963153D01*
X158756994Y-54966135D01*
X158756998Y-54966139D01*
X158802588Y-55006901D01*
X158862192Y-55060194D01*
X158865927Y-55062680D01*
X158865928Y-55062681D01*
X158976468Y-55136264D01*
X158976474Y-55136267D01*
X158980202Y-55138749D01*
X158984241Y-55140676D01*
X158984249Y-55140680D01*
X159062638Y-55178069D01*
X159111616Y-55201430D01*
X159115897Y-55202768D01*
X159115901Y-55202769D01*
X159191477Y-55226380D01*
X159246931Y-55243705D01*
X159251355Y-55244422D01*
X159251357Y-55244422D01*
X159295816Y-55251622D01*
X159390650Y-55266982D01*
X159433250Y-55267762D01*
X159448867Y-55269024D01*
X159468109Y-55271790D01*
X159475541Y-55272859D01*
X159475543Y-55272859D01*
X159480000Y-55273500D01*
X159980000Y-55273500D01*
X160053079Y-55268273D01*
X160141304Y-55242368D01*
X160184670Y-55229635D01*
X160184672Y-55229634D01*
X160193316Y-55227096D01*
X160246247Y-55193079D01*
X160308691Y-55152949D01*
X160308694Y-55152947D01*
X160316271Y-55148077D01*
X160368000Y-55088379D01*
X160406082Y-55044431D01*
X160406084Y-55044428D01*
X160411984Y-55037619D01*
X160424566Y-55010069D01*
X160468958Y-54912864D01*
X160468958Y-54912863D01*
X160472700Y-54904670D01*
X160478103Y-54867089D01*
X160492861Y-54764448D01*
X160492862Y-54764441D01*
X160493500Y-54760000D01*
X160493500Y-53260000D01*
X160488273Y-53186921D01*
X160465105Y-53108018D01*
X160449635Y-53055330D01*
X160449634Y-53055328D01*
X160447096Y-53046684D01*
X160400527Y-52974222D01*
X160380524Y-52906101D01*
X160400525Y-52837980D01*
X160454181Y-52791487D01*
X160506524Y-52780100D01*
X167006274Y-52780100D01*
X167074395Y-52800102D01*
X167120888Y-52853758D01*
X167124713Y-52863111D01*
X167129841Y-52877239D01*
X167129843Y-52877243D01*
X167132340Y-52884122D01*
X167225327Y-53025951D01*
X167348449Y-53142586D01*
X167495100Y-53227767D01*
X167657414Y-53276927D01*
X167663854Y-53277502D01*
X167663855Y-53277502D01*
X167728268Y-53283251D01*
X167728274Y-53283251D01*
X167731061Y-53283500D01*
X168267469Y-53283500D01*
X168357547Y-53272998D01*
X168385766Y-53269708D01*
X168385767Y-53269708D01*
X168393038Y-53268860D01*
X168399915Y-53266364D01*
X168399918Y-53266363D01*
X168545577Y-53213491D01*
X168552456Y-53210994D01*
X168694285Y-53118007D01*
X168703747Y-53108018D01*
X168765117Y-53072321D01*
X168836044Y-53075469D01*
X168881871Y-53103199D01*
X168923449Y-53142586D01*
X169070100Y-53227767D01*
X169232414Y-53276927D01*
X169238854Y-53277502D01*
X169238855Y-53277502D01*
X169303268Y-53283251D01*
X169303274Y-53283251D01*
X169306061Y-53283500D01*
X169842469Y-53283500D01*
X169932547Y-53272998D01*
X169960766Y-53269708D01*
X169960767Y-53269708D01*
X169968038Y-53268860D01*
X169974915Y-53266364D01*
X169974918Y-53266363D01*
X170120577Y-53213491D01*
X170127456Y-53210994D01*
X170269285Y-53118007D01*
X170385920Y-52994885D01*
X170407931Y-52956990D01*
X170459441Y-52908131D01*
X170529190Y-52894877D01*
X170595032Y-52921436D01*
X170605980Y-52931180D01*
X172189066Y-54514266D01*
X172223092Y-54576578D01*
X172225472Y-54614559D01*
X172219834Y-54677727D01*
X172219834Y-54938518D01*
X172205289Y-54996420D01*
X172202896Y-54999824D01*
X172188160Y-55037619D01*
X172180016Y-55058508D01*
X172177461Y-55064586D01*
X172151549Y-55121975D01*
X172150165Y-55129442D01*
X172149094Y-55132859D01*
X172145094Y-55146902D01*
X172144210Y-55150346D01*
X172141451Y-55157422D01*
X172140460Y-55164950D01*
X172133230Y-55219866D01*
X172132198Y-55226380D01*
X172126422Y-55257548D01*
X172120723Y-55288296D01*
X172121160Y-55295876D01*
X172121160Y-55295877D01*
X172124125Y-55347292D01*
X172124334Y-55354546D01*
X172124334Y-55843559D01*
X172104332Y-55911680D01*
X172091971Y-55927869D01*
X172084297Y-55936392D01*
X172080995Y-55942111D01*
X172080993Y-55942114D01*
X172019001Y-56049488D01*
X171988810Y-56101780D01*
X171984103Y-56116268D01*
X171941308Y-56247978D01*
X171929796Y-56283407D01*
X171929106Y-56289970D01*
X171929106Y-56289971D01*
X171921746Y-56360000D01*
X171909834Y-56473334D01*
X171910524Y-56479899D01*
X171927223Y-56638776D01*
X171929796Y-56663261D01*
X171931836Y-56669539D01*
X171931836Y-56669540D01*
X171947796Y-56718659D01*
X171988810Y-56844888D01*
X172084297Y-57010276D01*
X172088717Y-57015185D01*
X172091971Y-57018799D01*
X172122688Y-57082807D01*
X172124334Y-57103109D01*
X172124334Y-57420622D01*
X172104332Y-57488743D01*
X172066455Y-57526619D01*
X171964648Y-57592047D01*
X171964642Y-57592052D01*
X171957063Y-57596923D01*
X171951162Y-57603733D01*
X171867252Y-57700569D01*
X171867250Y-57700572D01*
X171861350Y-57707381D01*
X171857606Y-57715579D01*
X171850964Y-57730124D01*
X171800634Y-57840330D01*
X171799352Y-57849245D01*
X171799352Y-57849246D01*
X171780473Y-57980552D01*
X171780472Y-57980559D01*
X171779834Y-57985000D01*
X171779834Y-58635000D01*
X171785061Y-58708079D01*
X171806082Y-58779670D01*
X171819098Y-58823998D01*
X171826238Y-58848316D01*
X171831109Y-58855895D01*
X171900385Y-58963691D01*
X171900387Y-58963694D01*
X171905257Y-58971271D01*
X171912067Y-58977172D01*
X172008903Y-59061082D01*
X172008906Y-59061084D01*
X172015715Y-59066984D01*
X172148664Y-59127700D01*
X172157579Y-59128982D01*
X172157580Y-59128982D01*
X172192733Y-59134036D01*
X172257314Y-59163529D01*
X172295698Y-59223255D01*
X172295698Y-59294252D01*
X172257315Y-59353978D01*
X172210300Y-59379650D01*
X172088664Y-59415365D01*
X172088662Y-59415366D01*
X172080018Y-59417904D01*
X172072439Y-59422775D01*
X171964643Y-59492051D01*
X171964640Y-59492053D01*
X171957063Y-59496923D01*
X171951162Y-59503733D01*
X171867252Y-59600569D01*
X171867250Y-59600572D01*
X171861350Y-59607381D01*
X171800634Y-59740330D01*
X171799352Y-59749245D01*
X171799352Y-59749246D01*
X171780473Y-59880552D01*
X171780472Y-59880559D01*
X171779834Y-59885000D01*
X171779834Y-60535000D01*
X171785061Y-60608079D01*
X171801083Y-60662646D01*
X171823021Y-60737359D01*
X171826238Y-60748316D01*
X171841138Y-60771500D01*
X171900385Y-60863691D01*
X171900387Y-60863694D01*
X171905257Y-60871271D01*
X172015715Y-60966984D01*
X172023914Y-60970728D01*
X172023915Y-60970729D01*
X172050677Y-60982951D01*
X172104333Y-61029444D01*
X172124334Y-61097564D01*
X172124334Y-63310867D01*
X172124042Y-63319435D01*
X172120299Y-63374345D01*
X172121604Y-63381822D01*
X172121604Y-63381824D01*
X172131127Y-63436387D01*
X172132089Y-63442909D01*
X172139655Y-63505428D01*
X172142339Y-63512530D01*
X172143190Y-63515997D01*
X172147039Y-63530066D01*
X172148076Y-63533501D01*
X172149381Y-63540978D01*
X172152432Y-63547928D01*
X172152433Y-63547932D01*
X172174698Y-63598654D01*
X172177189Y-63604758D01*
X172197970Y-63659750D01*
X172199447Y-63663659D01*
X172197973Y-63664216D01*
X172209834Y-63712507D01*
X172209834Y-63969135D01*
X172217298Y-64033151D01*
X172223158Y-64083413D01*
X172224474Y-64094704D01*
X172226970Y-64101581D01*
X172226971Y-64101584D01*
X172264377Y-64204635D01*
X172282340Y-64254122D01*
X172375327Y-64395951D01*
X172498449Y-64512586D01*
X172645100Y-64597767D01*
X172807414Y-64646927D01*
X172813854Y-64647502D01*
X172813855Y-64647502D01*
X172878268Y-64653251D01*
X172878274Y-64653251D01*
X172881061Y-64653500D01*
X173417469Y-64653500D01*
X173513584Y-64642294D01*
X173535766Y-64639708D01*
X173535767Y-64639708D01*
X173543038Y-64638860D01*
X173549915Y-64636364D01*
X173549918Y-64636363D01*
X173695577Y-64583491D01*
X173702456Y-64580994D01*
X173844285Y-64488007D01*
X173849883Y-64482098D01*
X173854090Y-64477658D01*
X173915459Y-64441961D01*
X173986386Y-64445109D01*
X174032215Y-64472840D01*
X174068432Y-64507149D01*
X174080079Y-64515862D01*
X174213974Y-64593635D01*
X174227299Y-64599429D01*
X174376318Y-64644562D01*
X174388941Y-64647010D01*
X174453268Y-64652751D01*
X174458738Y-64652994D01*
X174473958Y-64648525D01*
X174475163Y-64647135D01*
X174476834Y-64639451D01*
X174476834Y-62705115D01*
X174472359Y-62689876D01*
X174470969Y-62688671D01*
X174465349Y-62687449D01*
X174351015Y-62700778D01*
X174336868Y-62704122D01*
X174191312Y-62756957D01*
X174178317Y-62763465D01*
X174048823Y-62848365D01*
X174037671Y-62857689D01*
X174033282Y-62862322D01*
X173971913Y-62898020D01*
X173900986Y-62894872D01*
X173855156Y-62867142D01*
X173813219Y-62827414D01*
X173666568Y-62742233D01*
X173611808Y-62725648D01*
X173552413Y-62686761D01*
X173523469Y-62621932D01*
X173522334Y-62605059D01*
X173522334Y-61099378D01*
X173542336Y-61031257D01*
X173580213Y-60993381D01*
X173682020Y-60927953D01*
X173682026Y-60927948D01*
X173689605Y-60923077D01*
X173715929Y-60892698D01*
X173779416Y-60819431D01*
X173779418Y-60819428D01*
X173785318Y-60812619D01*
X173789062Y-60804422D01*
X173789064Y-60804418D01*
X173806710Y-60765779D01*
X173853203Y-60712124D01*
X173921324Y-60692122D01*
X173989444Y-60712124D01*
X174027321Y-60750001D01*
X174100385Y-60863691D01*
X174100387Y-60863694D01*
X174105257Y-60871271D01*
X174112067Y-60877172D01*
X174208903Y-60961082D01*
X174208906Y-60961084D01*
X174215715Y-60966984D01*
X174223913Y-60970728D01*
X174289256Y-61000569D01*
X174348664Y-61027700D01*
X174357579Y-61028982D01*
X174357580Y-61028982D01*
X174488886Y-61047861D01*
X174488893Y-61047862D01*
X174493334Y-61048500D01*
X175516434Y-61048500D01*
X175584555Y-61068502D01*
X175631048Y-61122158D01*
X175642434Y-61174500D01*
X175642434Y-62775997D01*
X175622432Y-62844118D01*
X175568776Y-62890611D01*
X175498502Y-62900715D01*
X175429781Y-62867470D01*
X175393236Y-62832851D01*
X175381589Y-62824138D01*
X175247694Y-62746365D01*
X175234369Y-62740571D01*
X175085350Y-62695438D01*
X175072727Y-62692990D01*
X175008400Y-62687249D01*
X175002930Y-62687006D01*
X174987710Y-62691475D01*
X174986505Y-62692865D01*
X174984834Y-62700548D01*
X174984834Y-64634885D01*
X174989309Y-64650124D01*
X174990699Y-64651329D01*
X174996319Y-64652551D01*
X175110653Y-64639222D01*
X175124800Y-64635878D01*
X175270356Y-64583043D01*
X175283351Y-64576535D01*
X175412845Y-64491635D01*
X175423999Y-64482310D01*
X175424958Y-64481297D01*
X175425786Y-64480815D01*
X175429616Y-64477613D01*
X175430164Y-64478268D01*
X175486326Y-64445596D01*
X175557253Y-64448741D01*
X175615220Y-64489732D01*
X175641823Y-64555556D01*
X175642434Y-64567946D01*
X175642434Y-65494055D01*
X175622432Y-65562176D01*
X175605530Y-65583150D01*
X175076486Y-66112195D01*
X175014173Y-66146220D01*
X174987390Y-66149100D01*
X153309840Y-66149100D01*
X153241719Y-66129098D01*
X153195226Y-66075442D01*
X153185122Y-66005168D01*
X153190007Y-65984164D01*
X153234832Y-65846206D01*
X153234832Y-65846205D01*
X153236872Y-65839927D01*
X153242859Y-65782969D01*
X153256144Y-65656565D01*
X153256834Y-65650000D01*
X153247603Y-65562176D01*
X153237562Y-65466637D01*
X153237562Y-65466636D01*
X153236872Y-65460073D01*
X153233111Y-65448496D01*
X153179900Y-65284731D01*
X153177858Y-65278446D01*
X153172932Y-65269913D01*
X153085672Y-65118776D01*
X153082371Y-65113058D01*
X152954585Y-64971137D01*
X152949243Y-64967256D01*
X152949241Y-64967254D01*
X152805426Y-64862767D01*
X152805425Y-64862766D01*
X152800084Y-64858886D01*
X152794056Y-64856202D01*
X152794054Y-64856201D01*
X152631652Y-64783895D01*
X152631651Y-64783895D01*
X152625621Y-64781210D01*
X152532221Y-64761357D01*
X152445278Y-64742876D01*
X152445273Y-64742876D01*
X152438821Y-64741504D01*
X152349840Y-64741504D01*
X152281719Y-64721502D01*
X152260745Y-64704599D01*
X152256753Y-64700607D01*
X152253621Y-64698178D01*
X152250650Y-64695558D01*
X152250655Y-64695552D01*
X152245766Y-64691377D01*
X152220657Y-64667798D01*
X152214881Y-64662374D01*
X152207937Y-64658557D01*
X152207935Y-64658555D01*
X152198105Y-64653151D01*
X152181577Y-64642294D01*
X152172710Y-64635416D01*
X152166446Y-64630557D01*
X152127550Y-64613725D01*
X152116903Y-64608509D01*
X152079767Y-64588094D01*
X152061220Y-64583332D01*
X152042521Y-64576930D01*
X152032217Y-64572471D01*
X152032213Y-64572470D01*
X152024941Y-64569323D01*
X151983087Y-64562694D01*
X151971460Y-64560286D01*
X151938687Y-64551871D01*
X151938686Y-64551871D01*
X151931010Y-64549900D01*
X151912229Y-64549900D01*
X151892518Y-64548349D01*
X151880484Y-64546443D01*
X151872655Y-64545203D01*
X151859538Y-64546443D01*
X151828882Y-64549341D01*
X151817024Y-64549900D01*
X151437834Y-64549900D01*
X151369713Y-64529898D01*
X151323220Y-64476242D01*
X151311834Y-64423900D01*
X151311834Y-64410000D01*
X151311673Y-64407745D01*
X151309640Y-64379317D01*
X151324732Y-64309943D01*
X151374935Y-64259742D01*
X151444309Y-64244651D01*
X151453253Y-64245613D01*
X151468880Y-64247860D01*
X151468885Y-64247860D01*
X151473334Y-64248500D01*
X152973334Y-64248500D01*
X153046413Y-64243273D01*
X153140217Y-64215730D01*
X153178004Y-64204635D01*
X153178006Y-64204634D01*
X153186650Y-64202096D01*
X153235036Y-64171000D01*
X153302025Y-64127949D01*
X153302028Y-64127947D01*
X153309605Y-64123077D01*
X153332167Y-64097039D01*
X153399416Y-64019431D01*
X153399418Y-64019428D01*
X153405318Y-64012619D01*
X153413946Y-63993726D01*
X153462292Y-63887864D01*
X153462292Y-63887863D01*
X153466034Y-63879670D01*
X153469257Y-63857254D01*
X153486195Y-63739448D01*
X153486196Y-63739441D01*
X153486834Y-63735000D01*
X153486834Y-63185000D01*
X153483429Y-63137400D01*
X153482089Y-63118658D01*
X153482089Y-63118657D01*
X153481607Y-63111921D01*
X153475426Y-63090870D01*
X153471605Y-63037440D01*
X153485692Y-62939463D01*
X153486241Y-62931798D01*
X153481859Y-62916876D01*
X153480469Y-62915671D01*
X153472786Y-62914000D01*
X153472160Y-62914000D01*
X153470371Y-62913475D01*
X153459551Y-62911121D01*
X153459719Y-62910347D01*
X153404039Y-62893998D01*
X153372708Y-62862668D01*
X153372185Y-62863121D01*
X153366283Y-62856309D01*
X153361411Y-62848729D01*
X153250953Y-62753016D01*
X153253444Y-62750141D01*
X153218683Y-62710092D01*
X153208522Y-62639826D01*
X153237962Y-62575221D01*
X153265132Y-62551659D01*
X153302023Y-62527950D01*
X153302024Y-62527949D01*
X153309605Y-62523077D01*
X153373371Y-62449487D01*
X153433097Y-62411104D01*
X153467858Y-62406106D01*
X153483458Y-62401525D01*
X153484663Y-62400135D01*
X153486334Y-62392452D01*
X153486334Y-62387257D01*
X153486173Y-62382750D01*
X153481594Y-62318733D01*
X153479208Y-62305509D01*
X153475593Y-62293197D01*
X153471771Y-62239768D01*
X153486195Y-62139448D01*
X153486196Y-62139441D01*
X153486834Y-62135000D01*
X153486834Y-61816100D01*
X153506836Y-61747979D01*
X153560492Y-61701486D01*
X153612834Y-61690100D01*
X154000736Y-61690100D01*
X154068857Y-61710102D01*
X154094373Y-61731791D01*
X154114325Y-61753951D01*
X154114332Y-61753957D01*
X154118749Y-61758863D01*
X154124091Y-61762744D01*
X154124093Y-61762746D01*
X154267783Y-61867142D01*
X154273250Y-61871114D01*
X154279278Y-61873798D01*
X154279280Y-61873799D01*
X154441682Y-61946105D01*
X154447713Y-61948790D01*
X154537138Y-61967798D01*
X154628056Y-61987124D01*
X154628061Y-61987124D01*
X154634513Y-61988496D01*
X154825487Y-61988496D01*
X154831939Y-61987124D01*
X154831944Y-61987124D01*
X154922862Y-61967798D01*
X155012287Y-61948790D01*
X155018318Y-61946105D01*
X155180720Y-61873799D01*
X155180722Y-61873798D01*
X155186750Y-61871114D01*
X155192217Y-61867142D01*
X155335907Y-61762746D01*
X155335909Y-61762744D01*
X155341251Y-61758863D01*
X155385156Y-61710102D01*
X155464618Y-61621850D01*
X155464619Y-61621849D01*
X155469037Y-61616942D01*
X155547967Y-61480232D01*
X155561220Y-61457277D01*
X155561221Y-61457276D01*
X155564524Y-61451554D01*
X155610876Y-61308896D01*
X155621498Y-61276206D01*
X155621498Y-61276205D01*
X155623538Y-61269927D01*
X155627580Y-61231475D01*
X155642810Y-61086565D01*
X155643500Y-61080000D01*
X155636133Y-61009908D01*
X155624228Y-60896637D01*
X155624228Y-60896636D01*
X155623538Y-60890073D01*
X155614590Y-60862532D01*
X155578026Y-60750001D01*
X155564524Y-60708446D01*
X155550010Y-60683306D01*
X155472338Y-60548776D01*
X155469037Y-60543058D01*
X155463808Y-60537250D01*
X155345673Y-60406048D01*
X155345672Y-60406047D01*
X155341251Y-60401137D01*
X155335909Y-60397256D01*
X155335907Y-60397254D01*
X155192092Y-60292767D01*
X155192091Y-60292766D01*
X155186750Y-60288886D01*
X155180722Y-60286202D01*
X155180720Y-60286201D01*
X155018318Y-60213895D01*
X155018317Y-60213895D01*
X155012287Y-60211210D01*
X154918887Y-60191357D01*
X154831944Y-60172876D01*
X154831939Y-60172876D01*
X154825487Y-60171504D01*
X154634513Y-60171504D01*
X154628061Y-60172876D01*
X154628056Y-60172876D01*
X154541113Y-60191357D01*
X154447713Y-60211210D01*
X154441683Y-60213895D01*
X154441682Y-60213895D01*
X154279280Y-60286201D01*
X154279278Y-60286202D01*
X154273250Y-60288886D01*
X154267909Y-60292766D01*
X154267908Y-60292767D01*
X154124093Y-60397254D01*
X154124091Y-60397256D01*
X154118749Y-60401137D01*
X154114332Y-60406043D01*
X154114325Y-60406049D01*
X154094373Y-60428209D01*
X154033928Y-60465450D01*
X154000736Y-60469900D01*
X153612834Y-60469900D01*
X153544713Y-60449898D01*
X153498220Y-60396242D01*
X153486834Y-60343900D01*
X153486834Y-59985000D01*
X153481607Y-59911921D01*
X153475762Y-59892015D01*
X153471941Y-59838588D01*
X153486195Y-59739448D01*
X153486196Y-59739441D01*
X153486834Y-59735000D01*
X153486834Y-59185000D01*
X153481607Y-59111921D01*
X153475762Y-59092015D01*
X153471941Y-59038588D01*
X153486195Y-58939448D01*
X153486196Y-58939441D01*
X153486834Y-58935000D01*
X153486834Y-58385000D01*
X153481607Y-58311921D01*
X153475762Y-58292015D01*
X153471941Y-58238588D01*
X153486195Y-58139448D01*
X153486196Y-58139441D01*
X153486834Y-58135000D01*
X153486834Y-57585000D01*
X153481607Y-57511921D01*
X153475762Y-57492015D01*
X153471941Y-57438588D01*
X153486195Y-57339448D01*
X153486196Y-57339441D01*
X153486834Y-57335000D01*
X153486834Y-56785000D01*
X153481607Y-56711921D01*
X153475426Y-56690870D01*
X153471605Y-56637440D01*
X153485692Y-56539463D01*
X153486241Y-56531798D01*
X153481859Y-56516876D01*
X153480469Y-56515671D01*
X153472786Y-56514000D01*
X153472160Y-56514000D01*
X153470371Y-56513475D01*
X153459551Y-56511121D01*
X153459719Y-56510347D01*
X153404039Y-56493998D01*
X153372708Y-56462668D01*
X153372185Y-56463121D01*
X153366283Y-56456309D01*
X153361411Y-56448729D01*
X153260119Y-56360958D01*
X153250953Y-56353016D01*
X153253444Y-56350141D01*
X153218683Y-56310092D01*
X153208522Y-56239826D01*
X153237962Y-56175221D01*
X153265132Y-56151659D01*
X153302023Y-56127950D01*
X153302024Y-56127949D01*
X153309605Y-56123077D01*
X153373371Y-56049487D01*
X153433097Y-56011104D01*
X153467858Y-56006106D01*
X153483458Y-56001525D01*
X153484663Y-56000135D01*
X153486334Y-55992452D01*
X153486334Y-55987257D01*
X153486173Y-55982750D01*
X153481594Y-55918733D01*
X153479208Y-55905509D01*
X153475593Y-55893197D01*
X153471771Y-55839768D01*
X153486195Y-55739448D01*
X153486196Y-55739441D01*
X153486834Y-55735000D01*
X153486834Y-55185000D01*
X153481607Y-55111921D01*
X153455310Y-55022360D01*
X153442969Y-54980330D01*
X153442968Y-54980328D01*
X153440430Y-54971684D01*
X153404373Y-54915579D01*
X153366283Y-54856309D01*
X153366281Y-54856306D01*
X153361411Y-54848729D01*
X153349827Y-54838691D01*
X153257765Y-54758918D01*
X153257762Y-54758916D01*
X153250953Y-54753016D01*
X153242755Y-54749272D01*
X153126198Y-54696042D01*
X153126197Y-54696042D01*
X153118004Y-54692300D01*
X153109089Y-54691018D01*
X153109088Y-54691018D01*
X152977782Y-54672139D01*
X152977775Y-54672138D01*
X152973334Y-54671500D01*
X151473334Y-54671500D01*
X151471087Y-54671661D01*
X151471079Y-54671661D01*
X151442651Y-54673694D01*
X151373277Y-54658602D01*
X151323076Y-54608399D01*
X151307985Y-54539025D01*
X151308947Y-54530081D01*
X151311194Y-54514454D01*
X151311194Y-54514449D01*
X151311834Y-54510000D01*
X151311834Y-53386502D01*
X151331836Y-53318381D01*
X151348739Y-53297407D01*
X151829141Y-52817005D01*
X151891453Y-52782979D01*
X151918236Y-52780100D01*
X158733169Y-52780100D01*
X158801290Y-52800102D01*
G37*
G04 #@! TD.AperFunction*
G04 #@! TA.AperFunction,Conductor*
G36*
X173953809Y-58937961D02*
G01*
X173979480Y-58984976D01*
X173984809Y-59003124D01*
X173986199Y-59004329D01*
X173993882Y-59006000D01*
X174098340Y-59006000D01*
X174166461Y-59026002D01*
X174180852Y-59036775D01*
X174215715Y-59066984D01*
X174348664Y-59127700D01*
X174357579Y-59128982D01*
X174357580Y-59128982D01*
X174392733Y-59134036D01*
X174457314Y-59163529D01*
X174495698Y-59223255D01*
X174495698Y-59294252D01*
X174457315Y-59353978D01*
X174410300Y-59379650D01*
X174288664Y-59415365D01*
X174288662Y-59415366D01*
X174280018Y-59417904D01*
X174272439Y-59422775D01*
X174161614Y-59493998D01*
X174093493Y-59514000D01*
X173998449Y-59514000D01*
X173983210Y-59518475D01*
X173982005Y-59519865D01*
X173981131Y-59523884D01*
X173947107Y-59586197D01*
X173884795Y-59620223D01*
X173813979Y-59615159D01*
X173757143Y-59572614D01*
X173752013Y-59565225D01*
X173746284Y-59556311D01*
X173746283Y-59556310D01*
X173741411Y-59548729D01*
X173734601Y-59542828D01*
X173637765Y-59458918D01*
X173637762Y-59458916D01*
X173630953Y-59453016D01*
X173498004Y-59392300D01*
X173489089Y-59391018D01*
X173489088Y-59391018D01*
X173453935Y-59385964D01*
X173389354Y-59356471D01*
X173350970Y-59296745D01*
X173350970Y-59225748D01*
X173389353Y-59166022D01*
X173436368Y-59140350D01*
X173558004Y-59104635D01*
X173558006Y-59104634D01*
X173566650Y-59102096D01*
X173630469Y-59061082D01*
X173682025Y-59027949D01*
X173682028Y-59027947D01*
X173689605Y-59023077D01*
X173705850Y-59004329D01*
X173763360Y-58937960D01*
X173823086Y-58899577D01*
X173894083Y-58899577D01*
X173953809Y-58937961D01*
G37*
G04 #@! TD.AperFunction*
M02*
