M48
; DRILL file {KiCad (5.99.0-10336-g9846076676)} date Sat Apr 17 01:38:10 2021
; FORMAT={-:-/ absolute / metric / decimal}
; #@! TF.CreationDate,2021-04-17T01:38:10-06:00
; #@! TF.GenerationSoftware,Kicad,Pcbnew,(5.99.0-10336-g9846076676)
; #@! TF.FileFunction,MixedPlating,1,2
FMAT,2
METRIC
; #@! TA.AperFunction,Plated,PTH,ViaDrill
T1C0.400
; #@! TA.AperFunction,Plated,PTH,ComponentDrill
T2C0.650
; #@! TA.AperFunction,Plated,PTH,ComponentDrill
T3C1.000
%
G90
G05
T1
X104.91Y-57.17
X104.93Y-73.04
X108.33Y-91.57
X111.71Y-77.6
X111.72Y-94.79
X111.73Y-60.39
X113.51Y-68.7
X113.52Y-50.73
X113.55Y-53.65
X114.84Y-97.2
X114.89Y-93.12
X116.41Y-53.86
X118.095Y-47.875
X119.8Y-102.17
X132.55Y-97.76
X132.57Y-93.75
X137.03Y-102.31
X137.39Y-54.83
X137.4Y-61.34
X142.443Y-57.74
X142.443Y-58.78
X143.383Y-51.95
X152.343Y-65.65
X154.73Y-61.08
X155.11Y-102.17
X163.503Y-49.27
X165.73Y-50.73
X165.74Y-53.26
X169.573Y-50.91
X172.78Y-102.16
X172.823Y-56.473
X174.233Y-65.46
X177.96Y-64.54
X178.633Y-65.43
X179.5Y-73.49
X180.94Y-94.8
X180.96Y-77.59
X181.48Y-60.69
T2
X116.08Y-47.875
X120.18Y-47.875
T3
X108.025Y-64.935
X108.025Y-67.475
X108.025Y-70.015
X110.565Y-64.935
X110.565Y-67.475
X110.565Y-70.015
X141.373Y-74.6
X141.373Y-77.14
X143.913Y-74.6
X143.913Y-77.14
X146.453Y-74.6
X146.453Y-77.14
T0
M30
