G04 #@! TF.GenerationSoftware,KiCad,Pcbnew,(5.99.0-10336-g9846076676)*
G04 #@! TF.CreationDate,2021-04-17T01:38:01-06:00*
G04 #@! TF.ProjectId,yolo-badge,796f6c6f-2d62-4616-9467-652e6b696361,rev?*
G04 #@! TF.SameCoordinates,Original*
G04 #@! TF.FileFunction,Soldermask,Top*
G04 #@! TF.FilePolarity,Negative*
%FSLAX46Y46*%
G04 Gerber Fmt 4.6, Leading zero omitted, Abs format (unit mm)*
G04 Created by KiCad (PCBNEW (5.99.0-10336-g9846076676)) date 2021-04-17 01:38:01*
%MOMM*%
%LPD*%
G01*
G04 APERTURE LIST*
%ADD10R,1.700000X1.700000*%
%ADD11O,1.700000X1.700000*%
%ADD12C,1.200000*%
%ADD13C,1.700000*%
%ADD14R,1.500000X1.000000*%
G04 APERTURE END LIST*
D10*
X108025000Y-70015000D03*
D11*
X110565000Y-70015000D03*
X108025000Y-67475000D03*
X110565000Y-67475000D03*
X108025000Y-64935000D03*
X110565000Y-64935000D03*
D12*
X120180000Y-47875000D03*
X116080000Y-47875000D03*
D11*
X141373334Y-74600000D03*
X141373334Y-77140000D03*
D13*
X143913334Y-74600000D03*
D11*
X143913334Y-77140000D03*
D13*
X146453334Y-74600000D03*
D11*
X146453334Y-77140000D03*
D14*
X150206667Y-98970005D03*
X150206667Y-102170005D03*
X155106667Y-102170005D03*
X155106667Y-98970005D03*
X106803325Y-57179994D03*
X106803325Y-60379994D03*
X111703325Y-60379994D03*
X111703325Y-57179994D03*
X180953326Y-74394997D03*
X180953326Y-77594997D03*
X176053326Y-77594997D03*
X176053326Y-74394997D03*
X111703325Y-74394997D03*
X111703325Y-77594997D03*
X106803325Y-77594997D03*
X106803325Y-74394997D03*
X180953326Y-91609999D03*
X180953326Y-94809999D03*
X176053326Y-94809999D03*
X176053326Y-91609999D03*
X167883340Y-98970005D03*
X167883340Y-102170005D03*
X172783340Y-102170005D03*
X172783340Y-98970005D03*
X114853321Y-98970005D03*
X114853321Y-102170005D03*
X119753321Y-102170005D03*
X119753321Y-98970005D03*
X132529994Y-98970005D03*
X132529994Y-102170005D03*
X137429994Y-102170005D03*
X137429994Y-98970005D03*
X111703325Y-91609999D03*
X111703325Y-94809999D03*
X106803325Y-94809999D03*
X106803325Y-91609999D03*
X180953326Y-57179994D03*
X180953326Y-60379994D03*
X176053326Y-60379994D03*
X176053326Y-57179994D03*
M02*
